G04 #@! TF.GenerationSoftware,KiCad,Pcbnew,(5.1.4)-1*
G04 #@! TF.CreationDate,2019-12-24T17:10:30-08:00*
G04 #@! TF.ProjectId,tensigral_lamp_hardware,74656e73-6967-4726-916c-5f6c616d705f,rev?*
G04 #@! TF.SameCoordinates,Original*
G04 #@! TF.FileFunction,Profile,NP*
%FSLAX46Y46*%
G04 Gerber Fmt 4.6, Leading zero omitted, Abs format (unit mm)*
G04 Created by KiCad (PCBNEW (5.1.4)-1) date 2019-12-24 17:10:30*
%MOMM*%
%LPD*%
G04 APERTURE LIST*
%ADD10C,0.188976*%
%ADD11C,0.050000*%
G04 APERTURE END LIST*
D10*
X54837181Y-85036942D02*
X55682750Y-85657867D01*
X55250000Y-83700000D02*
X56113666Y-84389763D01*
D11*
X65486412Y-51703136D02*
X65313785Y-52780540D01*
X64047733Y-53092453D02*
X64282066Y-51963963D01*
X35261215Y-61325863D02*
X34180000Y-61760000D01*
X33340000Y-60830000D02*
X34415084Y-60480705D01*
X103700000Y-52450000D02*
X103260000Y-52050000D01*
X101900000Y-53700000D02*
X103700000Y-52450000D01*
X101700000Y-53450000D02*
X101900000Y-53700000D01*
X56000000Y-100700000D02*
X56277816Y-100302887D01*
X56000000Y-103350000D02*
X56000000Y-100700000D01*
X57478706Y-103359581D02*
X56000000Y-103350000D01*
X55187686Y-103314949D02*
X55197666Y-101813644D01*
X103309936Y-76653152D02*
X102546997Y-76220028D01*
X103150000Y-75400000D02*
X103815841Y-75945934D01*
X103681488Y-74565739D02*
X103150000Y-75400000D01*
X101241325Y-52905037D02*
X101700000Y-53450000D01*
X104320000Y-53180000D02*
X102546997Y-54461552D01*
X64772705Y-40268082D02*
X64075954Y-41433491D01*
X64864212Y-41958103D02*
X65698177Y-40787096D01*
D10*
X74118484Y-43367233D02*
X75717811Y-43412714D01*
X99780860Y-51457531D02*
X101241325Y-52905037D01*
X103681495Y-56115852D02*
X104630371Y-57854721D01*
X86871246Y-44840786D02*
X86871246Y-44840786D01*
X81033897Y-43784496D02*
X81033897Y-43784496D01*
X72617965Y-43331883D02*
X74118484Y-43367233D01*
X79185478Y-43604443D02*
X81033897Y-43784496D01*
X106254058Y-63423988D02*
X106254058Y-63423988D01*
X94658432Y-47848785D02*
X96469436Y-48923821D01*
X105381462Y-59663338D02*
X105925048Y-61525528D01*
X104630371Y-57854721D02*
X105381462Y-59663338D01*
X90830947Y-46091572D02*
X90830947Y-46091572D01*
X69925117Y-43220762D02*
X69925117Y-43220762D01*
X104630371Y-57854721D02*
X104630371Y-57854721D01*
X103681495Y-56115852D02*
X103681495Y-56115852D01*
X99780860Y-51457531D02*
X99780860Y-51457531D01*
X92771789Y-46904957D02*
X94658432Y-47848785D01*
X88857177Y-45405430D02*
X88857177Y-45405430D01*
X68732254Y-43110720D02*
X69925117Y-43220762D01*
X77409721Y-43486004D02*
X77409721Y-43486004D01*
X72617965Y-43331883D02*
X72617965Y-43331883D01*
X69925117Y-43220762D02*
X71219844Y-43288883D01*
X75717811Y-43412714D02*
X75717811Y-43412714D01*
X102546997Y-54461552D02*
X103681495Y-56115852D01*
X98183761Y-50128197D02*
X98183761Y-50128197D01*
X96469436Y-48923821D02*
X96469436Y-48923821D01*
X92771789Y-46904957D02*
X92771789Y-46904957D01*
X77409721Y-43486004D02*
X79185478Y-43604443D01*
X81033897Y-43784496D02*
X82941635Y-44041561D01*
X74118484Y-43367233D02*
X74118484Y-43367233D01*
X71219844Y-43288883D02*
X72617965Y-43331883D01*
X105925048Y-61525528D02*
X105925048Y-61525528D01*
X88857177Y-45405430D02*
X90830947Y-46091572D01*
X106254058Y-63423988D02*
X106364212Y-65340790D01*
X75717811Y-43412714D02*
X77409721Y-43486004D01*
X90830947Y-46091572D02*
X92771789Y-46904957D01*
X68732254Y-43110720D02*
X68732254Y-43110720D01*
X98183761Y-50128197D02*
X99780860Y-51457531D01*
X67637165Y-42942986D02*
X68732254Y-43110720D01*
X84893150Y-44389584D02*
X84893150Y-44389584D01*
X79185478Y-43604443D02*
X79185478Y-43604443D01*
X105925048Y-61525528D02*
X106254058Y-63423988D01*
X94658432Y-47848785D02*
X94658432Y-47848785D01*
X84893150Y-44389584D02*
X86871246Y-44840786D01*
X82941635Y-44041561D02*
X84893150Y-44389584D01*
X82941635Y-44041561D02*
X82941635Y-44041561D01*
X71219844Y-43288883D02*
X71219844Y-43288883D01*
X86871246Y-44840786D02*
X88857177Y-45405430D01*
X96469436Y-48923821D02*
X98183761Y-50128197D01*
X105381462Y-59663338D02*
X105381462Y-59663338D01*
X51364215Y-24340790D02*
X52744014Y-25828264D01*
X66633499Y-42703146D02*
X66633499Y-42703146D01*
X62624805Y-40049097D02*
X63334342Y-40798378D01*
X57268253Y-31857327D02*
X57268253Y-31857327D01*
X67637165Y-42942986D02*
X67637165Y-42942986D01*
X61932006Y-39184605D02*
X61932006Y-39184605D01*
X44865615Y-19100896D02*
X44865615Y-19100896D01*
X41128921Y-17187568D02*
X43029106Y-18070018D01*
X66633499Y-42703146D02*
X67637165Y-42942986D01*
X65712680Y-42378454D02*
X66633499Y-42703146D01*
X65712680Y-42378454D02*
X65712680Y-42378454D01*
X64864212Y-41958103D02*
X65712680Y-42378454D01*
X51364215Y-24340790D02*
X51364215Y-24340790D01*
X54021190Y-27344348D02*
X54021190Y-27344348D01*
X55197662Y-28867933D02*
X56277824Y-30378704D01*
X63334342Y-40798378D02*
X64075954Y-41433491D01*
X58177684Y-33285898D02*
X58177684Y-33285898D01*
X52744014Y-25828264D02*
X52744014Y-25828264D01*
X48301151Y-21536980D02*
X48301151Y-21536980D01*
X54021190Y-27344348D02*
X55197662Y-28867933D01*
X63334342Y-40798378D02*
X63334342Y-40798378D01*
X46626338Y-20262851D02*
X48301151Y-21536980D01*
X39179134Y-16469106D02*
X41128921Y-17187568D01*
X48301151Y-21536980D02*
X49882274Y-22903267D01*
X37195358Y-15928073D02*
X39179134Y-16469106D01*
X62624805Y-40049097D02*
X62624805Y-40049097D01*
X61932006Y-39184605D02*
X62624805Y-40049097D01*
X56277824Y-30378704D02*
X56277824Y-30378704D01*
X59016735Y-34648226D02*
X59016735Y-34648226D01*
X52744014Y-25828264D02*
X54021190Y-27344348D01*
X46626338Y-20262851D02*
X46626338Y-20262851D01*
X60533916Y-37119370D02*
X60533916Y-37119370D01*
X59797607Y-35930044D02*
X60533916Y-37119370D01*
X61240264Y-38206558D02*
X61932006Y-39184605D01*
X61240264Y-38206558D02*
X61240264Y-38206558D01*
X60533916Y-37119370D02*
X61240264Y-38206558D01*
X59016735Y-34648226D02*
X59797607Y-35930044D01*
X49882274Y-22903267D02*
X51364215Y-24340790D01*
X55197662Y-28867933D02*
X55197662Y-28867933D01*
X57268253Y-31857327D02*
X58177684Y-33285898D01*
X56277824Y-30378704D02*
X57268253Y-31857327D01*
X49882274Y-22903267D02*
X49882274Y-22903267D01*
X44865615Y-19100896D02*
X46626338Y-20262851D01*
X43029106Y-18070018D02*
X44865615Y-19100896D01*
X43029106Y-18070018D02*
X43029106Y-18070018D01*
X41128921Y-17187568D02*
X41128921Y-17187568D01*
X39179134Y-16469106D02*
X39179134Y-16469106D01*
X59797607Y-35930044D02*
X59797607Y-35930044D01*
X58177684Y-33285898D02*
X59016735Y-34648226D01*
X25579280Y-16846392D02*
X25579280Y-16846392D01*
X20957418Y-56621784D02*
X20957418Y-56621784D01*
X17129834Y-48643570D02*
X16455475Y-46779488D01*
X20779680Y-19997351D02*
X20779680Y-19997351D01*
X15353211Y-42838615D02*
X14960537Y-40786196D01*
X22338893Y-59171265D02*
X21677074Y-57938957D01*
X14779943Y-32400166D02*
X15132629Y-30352352D01*
X14779943Y-32400166D02*
X14779943Y-32400166D01*
X18629348Y-52115044D02*
X18629348Y-52115044D01*
X15857175Y-44840790D02*
X15857175Y-44840790D01*
X15353211Y-42838615D02*
X15353211Y-42838615D01*
X35194511Y-15575579D02*
X35194511Y-15575579D01*
X31214248Y-15467906D02*
X33194618Y-15420223D01*
X27387924Y-16182085D02*
X27387924Y-16182085D01*
X14694512Y-38698687D02*
X14568588Y-36592901D01*
X14960537Y-40786196D02*
X14960537Y-40786196D01*
X33194618Y-15420223D02*
X35194511Y-15575579D01*
X14594082Y-34486988D02*
X14594082Y-34486988D01*
X21677074Y-57938957D02*
X20957418Y-56621784D01*
X21677074Y-57938957D02*
X21677074Y-57938957D01*
X22338893Y-59171265D02*
X22338893Y-59171265D01*
X18629348Y-52115044D02*
X17861060Y-50424221D01*
X20957418Y-56621784D02*
X20197130Y-55213989D01*
X31214248Y-15467906D02*
X31214248Y-15467906D01*
X29272399Y-15721757D02*
X31214248Y-15467906D01*
X22259289Y-18763189D02*
X23864220Y-17709390D01*
X14960537Y-40786196D02*
X14694512Y-38698687D01*
X15857175Y-44840790D02*
X15353211Y-42838615D01*
X14568588Y-36592901D02*
X14568588Y-36592901D01*
X23864220Y-17709390D02*
X23864220Y-17709390D01*
X17216541Y-24645165D02*
X18248006Y-22953980D01*
X19414669Y-53712105D02*
X19414669Y-53712105D01*
X16351130Y-26454811D02*
X16351130Y-26454811D01*
X16351130Y-26454811D02*
X17216541Y-24645165D01*
X22927256Y-60326584D02*
X22338893Y-59171265D01*
X14568588Y-36592901D02*
X14594082Y-34486988D01*
X14594082Y-34486988D02*
X14779943Y-32400166D01*
X20197130Y-55213989D02*
X20197130Y-55213989D01*
X15655981Y-28363826D02*
X16351130Y-26454811D01*
X19414669Y-53712105D02*
X18629348Y-52115044D01*
X19438789Y-21399189D02*
X20779680Y-19997351D01*
X17216541Y-24645165D02*
X17216541Y-24645165D01*
X19438789Y-21399189D02*
X19438789Y-21399189D01*
X22259289Y-18763189D02*
X22259289Y-18763189D01*
X17861060Y-50424221D02*
X17129834Y-48643570D01*
X17129834Y-48643570D02*
X17129834Y-48643570D01*
X27387924Y-16182085D02*
X29272399Y-15721757D01*
X18248006Y-22953980D02*
X18248006Y-22953980D01*
X23864220Y-17709390D02*
X25579280Y-16846392D01*
X15132629Y-30352352D02*
X15655981Y-28363826D01*
X20197130Y-55213989D02*
X19414669Y-53712105D01*
X17861060Y-50424221D02*
X17861060Y-50424221D01*
X16455475Y-46779488D02*
X16455475Y-46779488D01*
X37195358Y-15928073D02*
X37195358Y-15928073D01*
X35194511Y-15575579D02*
X37195358Y-15928073D01*
X16455475Y-46779488D02*
X15857175Y-44840790D01*
X33194618Y-15420223D02*
X33194618Y-15420223D01*
X18248006Y-22953980D02*
X19438789Y-21399189D01*
X15655981Y-28363826D02*
X15655981Y-28363826D01*
X29272399Y-15721757D02*
X29272399Y-15721757D01*
X20779680Y-19997351D02*
X22259289Y-18763189D01*
X15132629Y-30352352D02*
X15132629Y-30352352D01*
X14694512Y-38698687D02*
X14694512Y-38698687D01*
X25579280Y-16846392D02*
X27387924Y-16182085D01*
X14568593Y-94088676D02*
X14694517Y-91982880D01*
X23428391Y-69266914D02*
X23428391Y-69266914D01*
X16351125Y-104226761D02*
X15655973Y-102317749D01*
X18248009Y-107727600D02*
X17216537Y-106036407D01*
X15857171Y-85840790D02*
X15857171Y-85840790D01*
X14594081Y-96194595D02*
X14568593Y-94088676D01*
X23428394Y-61414665D02*
X22927256Y-60326584D01*
X15353212Y-87842964D02*
X15857171Y-85840790D01*
X23830668Y-62446899D02*
X23830668Y-62446899D01*
X24364214Y-65340786D02*
X24304017Y-64395828D01*
X18629354Y-78566536D02*
X18629354Y-78566536D01*
X24124797Y-67245556D02*
X24124797Y-67245556D01*
X17861070Y-80257347D02*
X18629354Y-78566536D01*
X19414670Y-76969475D02*
X19414670Y-76969475D01*
X15132631Y-100329231D02*
X15132631Y-100329231D01*
X24124797Y-63436028D02*
X24124797Y-63436028D01*
X15655973Y-102317749D02*
X15132631Y-100329231D01*
X24304017Y-66285751D02*
X24364214Y-65340786D01*
X16351125Y-104226761D02*
X16351125Y-104226761D01*
X21677076Y-72742622D02*
X21677076Y-72742622D01*
X23830668Y-68234684D02*
X23830668Y-68234684D01*
X14960546Y-89895371D02*
X14960546Y-89895371D01*
X14594081Y-96194595D02*
X14594081Y-96194595D01*
X15132631Y-100329231D02*
X14779945Y-98281418D01*
X14694517Y-91982880D02*
X14694517Y-91982880D01*
X24304017Y-64395828D02*
X24304017Y-64395828D01*
X24304017Y-66285751D02*
X24304017Y-66285751D01*
X23830668Y-68234684D02*
X24124797Y-67245556D01*
X21677076Y-72742622D02*
X22338893Y-71510311D01*
X22927250Y-70354996D02*
X22927250Y-70354996D01*
X22338893Y-71510311D02*
X22927250Y-70354996D01*
X14960546Y-89895371D02*
X15353212Y-87842964D01*
X15857171Y-85840790D02*
X16455463Y-83902100D01*
X14568593Y-94088676D02*
X14568593Y-94088676D01*
X14779945Y-98281418D02*
X14594081Y-96194595D01*
X22338893Y-71510311D02*
X22338893Y-71510311D01*
X20957420Y-74059799D02*
X21677076Y-72742622D01*
X19414670Y-76969475D02*
X20197132Y-75467590D01*
X17216537Y-106036407D02*
X16351125Y-104226761D01*
X19438782Y-109282379D02*
X18248009Y-107727600D01*
X14694517Y-91982880D02*
X14960546Y-89895371D01*
X22927256Y-60326584D02*
X22927256Y-60326584D01*
X24124797Y-67245556D02*
X24304017Y-66285751D01*
X23428394Y-61414665D02*
X23428394Y-61414665D01*
X24124797Y-63436028D02*
X23830668Y-62446899D01*
X23830668Y-62446899D02*
X23428394Y-61414665D01*
X17129837Y-82038010D02*
X17129837Y-82038010D01*
X15353212Y-87842964D02*
X15353212Y-87842964D01*
X17216537Y-106036407D02*
X17216537Y-106036407D01*
X24364214Y-65340786D02*
X24364214Y-65340786D01*
X17861070Y-80257347D02*
X17861070Y-80257347D01*
X15655973Y-102317749D02*
X15655973Y-102317749D01*
X17129837Y-82038010D02*
X17861070Y-80257347D01*
X24304017Y-64395828D02*
X24124797Y-63436028D01*
X20957420Y-74059799D02*
X20957420Y-74059799D01*
X18629354Y-78566536D02*
X19414670Y-76969475D01*
X16455463Y-83902100D02*
X17129837Y-82038010D01*
X16455463Y-83902100D02*
X16455463Y-83902100D01*
X14779945Y-98281418D02*
X14779945Y-98281418D01*
X20197132Y-75467590D02*
X20957420Y-74059799D01*
X23428391Y-69266914D02*
X23830668Y-68234684D01*
X22927250Y-70354996D02*
X23428391Y-69266914D01*
X20197132Y-75467590D02*
X20197132Y-75467590D01*
X18248009Y-107727600D02*
X18248009Y-107727600D01*
X29272396Y-114959824D02*
X27387916Y-114499481D01*
X39179138Y-114212479D02*
X39179138Y-114212479D01*
X57268257Y-98824257D02*
X56277816Y-100302887D01*
X43029102Y-112611565D02*
X41128929Y-113494011D01*
X58177688Y-97395676D02*
X57268257Y-98824257D01*
X63334350Y-89883202D02*
X62624805Y-90632484D01*
X58177688Y-97395676D02*
X58177688Y-97395676D01*
X63334350Y-89883202D02*
X63334350Y-89883202D01*
X44865627Y-111580681D02*
X43029102Y-112611565D01*
X59797611Y-94751526D02*
X59016731Y-96033348D01*
X60533912Y-93562218D02*
X59797611Y-94751526D01*
X35194515Y-115106003D02*
X35194515Y-115106003D01*
X60533912Y-93562218D02*
X60533912Y-93562218D01*
X19438782Y-109282379D02*
X19438782Y-109282379D01*
X27387916Y-114499481D02*
X27387916Y-114499481D01*
X57268257Y-98824257D02*
X57268257Y-98824257D01*
X33194618Y-115261353D02*
X31214260Y-115213669D01*
X20779684Y-110684235D02*
X19438782Y-109282379D01*
X20779684Y-110684235D02*
X20779684Y-110684235D01*
X51364215Y-106340790D02*
X51364215Y-106340790D01*
X41128929Y-113494011D02*
X41128929Y-113494011D01*
X46626331Y-110418732D02*
X46626331Y-110418732D01*
X48301155Y-109144585D02*
X46626331Y-110418732D01*
X22259292Y-111918388D02*
X20779684Y-110684235D01*
X22259292Y-111918388D02*
X22259292Y-111918388D01*
X43029102Y-112611565D02*
X43029102Y-112611565D01*
X54021186Y-103337242D02*
X52744022Y-104853310D01*
X23864212Y-112972183D02*
X22259292Y-111918388D01*
X29272396Y-114959824D02*
X29272396Y-114959824D01*
X23864212Y-112972183D02*
X23864212Y-112972183D01*
X37195343Y-114753510D02*
X37195343Y-114753510D01*
X52744022Y-104853310D02*
X51364215Y-106340790D01*
X62624805Y-90632484D02*
X62624805Y-90632484D01*
X59016731Y-96033348D02*
X58177688Y-97395676D01*
X25579284Y-113835190D02*
X25579284Y-113835190D01*
X25579284Y-113835190D02*
X23864212Y-112972183D01*
X31214260Y-115213669D02*
X31214260Y-115213669D01*
X41128929Y-113494011D02*
X39179138Y-114212479D01*
X52744022Y-104853310D02*
X52744022Y-104853310D01*
X44865627Y-111580681D02*
X44865627Y-111580681D01*
X59016731Y-96033348D02*
X59016731Y-96033348D01*
X55197666Y-101813644D02*
X54021186Y-103337242D01*
X31214260Y-115213669D02*
X29272396Y-114959824D01*
X46626331Y-110418732D02*
X44865627Y-111580681D01*
X61932006Y-91496986D02*
X61240268Y-92475021D01*
X64075954Y-89248093D02*
X63334350Y-89883202D01*
X54021186Y-103337242D02*
X54021186Y-103337242D01*
X61240268Y-92475021D02*
X60533912Y-93562218D01*
X49882267Y-107778320D02*
X49882267Y-107778320D01*
X61240268Y-92475021D02*
X61240268Y-92475021D01*
X27387916Y-114499481D02*
X25579284Y-113835190D01*
X33194618Y-115261353D02*
X33194618Y-115261353D01*
X39179138Y-114212479D02*
X37195343Y-114753510D01*
X61932006Y-91496986D02*
X61932006Y-91496986D01*
X59797611Y-94751526D02*
X59797611Y-94751526D01*
X62624805Y-90632484D02*
X61932006Y-91496986D01*
X49882267Y-107778320D02*
X48301155Y-109144585D01*
X35194515Y-115106003D02*
X33194618Y-115261353D01*
X37195343Y-114753510D02*
X35194515Y-115106003D01*
X48301155Y-109144585D02*
X48301155Y-109144585D01*
X51364215Y-106340790D02*
X49882267Y-107778320D01*
X74118492Y-87314346D02*
X74118492Y-87314346D01*
X86871253Y-85840790D02*
X86871253Y-85840790D01*
X98183769Y-80553383D02*
X96469459Y-81757759D01*
X99780876Y-79224045D02*
X99780876Y-79224045D01*
X66633499Y-87978432D02*
X66633499Y-87978432D01*
X77409729Y-87195564D02*
X77409729Y-87195564D01*
X77409729Y-87195564D02*
X75717819Y-87268875D01*
X101241317Y-77776550D02*
X101241317Y-77776550D01*
X79185470Y-87077141D02*
X77409729Y-87195564D01*
X65712677Y-88303123D02*
X64864215Y-88723473D01*
X94658424Y-82832787D02*
X92771789Y-83776634D01*
X69925121Y-87460815D02*
X68732250Y-87570862D01*
X69925121Y-87460815D02*
X69925121Y-87460815D01*
X86871253Y-85840790D02*
X84893150Y-86292000D01*
X90830947Y-84590004D02*
X90830947Y-84590004D01*
X67637172Y-87738594D02*
X66633499Y-87978432D01*
X72617965Y-87349693D02*
X71219837Y-87392693D01*
X105925048Y-69156055D02*
X105381462Y-71018230D01*
X99780876Y-79224045D02*
X98183769Y-80553383D01*
X68732250Y-87570862D02*
X68732250Y-87570862D01*
X81033912Y-86897087D02*
X79185470Y-87077141D01*
X101241317Y-77776550D02*
X99780876Y-79224045D01*
X106254058Y-67257584D02*
X106254058Y-67257584D01*
X66633499Y-87978432D02*
X65712677Y-88303123D01*
X88857170Y-85276146D02*
X86871253Y-85840790D01*
X79185470Y-87077141D02*
X79185470Y-87077141D01*
X67637172Y-87738594D02*
X67637172Y-87738594D01*
X105925048Y-69156055D02*
X105925048Y-69156055D01*
X96469459Y-81757759D02*
X94658424Y-82832787D01*
X72617965Y-87349693D02*
X72617965Y-87349693D01*
X84893150Y-86292000D02*
X82941619Y-86640022D01*
X75717819Y-87268875D02*
X75717819Y-87268875D01*
X81033912Y-86897087D02*
X81033912Y-86897087D01*
X98183769Y-80553383D02*
X98183769Y-80553383D01*
X106254058Y-67257584D02*
X105925048Y-69156055D01*
X82941619Y-86640022D02*
X81033912Y-86897087D01*
X90830947Y-84590004D02*
X88857170Y-85276146D01*
X102546997Y-76220028D02*
X101241317Y-77776550D01*
X64075954Y-89248093D02*
X64075954Y-89248093D01*
X64864215Y-88723473D02*
X64075954Y-89248093D01*
X64864215Y-88723473D02*
X64864215Y-88723473D01*
X74118492Y-87314346D02*
X72617965Y-87349693D01*
X88857170Y-85276146D02*
X88857170Y-85276146D01*
X82941619Y-86640022D02*
X82941619Y-86640022D01*
X65712677Y-88303123D02*
X65712677Y-88303123D01*
X106364212Y-65340790D02*
X106254058Y-67257584D01*
X71219837Y-87392693D02*
X69925121Y-87460815D01*
X105381462Y-71018230D02*
X104630371Y-72826859D01*
X68732250Y-87570862D02*
X67637172Y-87738594D01*
X92771789Y-83776634D02*
X90830947Y-84590004D01*
X71219837Y-87392693D02*
X71219837Y-87392693D01*
X75717819Y-87268875D02*
X74118492Y-87314346D01*
X84893150Y-86292000D02*
X84893150Y-86292000D01*
X96469459Y-81757759D02*
X96469459Y-81757759D01*
X104630371Y-72826859D02*
X104630371Y-72826859D01*
X92771789Y-83776634D02*
X92771789Y-83776634D01*
X94658424Y-82832787D02*
X94658424Y-82832787D01*
X104630371Y-72826859D02*
X103681488Y-74565739D01*
X105381462Y-71018230D02*
X105381462Y-71018230D01*
X59923183Y-52651592D02*
X59923183Y-52651592D01*
X91863807Y-58199581D02*
X91863807Y-58199581D01*
X89597778Y-55808052D02*
X89597778Y-55808052D01*
X71325698Y-50837921D02*
X72993183Y-50751873D01*
X62211666Y-52413296D02*
X62211666Y-52413296D01*
X90809219Y-56956444D02*
X90809219Y-56956444D01*
X89597778Y-55808052D02*
X90809219Y-56956444D01*
X88245719Y-54765137D02*
X89597778Y-55808052D01*
X80045417Y-51351982D02*
X80045417Y-51351982D01*
X58442295Y-52028862D02*
X58442295Y-52028862D01*
X83532226Y-52344021D02*
X85193122Y-53028019D01*
X78261810Y-51039043D02*
X78261810Y-51039043D01*
X74716575Y-50748573D02*
X76478942Y-50840744D01*
X63190277Y-52206623D02*
X64282066Y-51963963D01*
X66800075Y-51442280D02*
X68217197Y-51199455D01*
X63190277Y-52206623D02*
X63190277Y-52206623D01*
X59353649Y-52555031D02*
X59923183Y-52651592D01*
X62211666Y-52413296D02*
X63190277Y-52206623D01*
X58073894Y-51583908D02*
X58073894Y-51583908D01*
X61344314Y-52566849D02*
X62211666Y-52413296D01*
X88245719Y-54765137D02*
X88245719Y-54765137D01*
X86771087Y-53836357D02*
X86771087Y-53836357D01*
X81809242Y-51785748D02*
X83532226Y-52344021D01*
X72993183Y-50751873D02*
X74716575Y-50748573D01*
X80045417Y-51351982D02*
X81809242Y-51785748D01*
X68217197Y-51199455D02*
X68217197Y-51199455D01*
X60583744Y-52651188D02*
X60583744Y-52651188D01*
X58864215Y-52350407D02*
X59353649Y-52555031D01*
X58442295Y-52028862D02*
X58864215Y-52350407D01*
X69729347Y-50992378D02*
X69729347Y-50992378D01*
X76478942Y-50840744D02*
X78261810Y-51039043D01*
X86771087Y-53836357D02*
X88245719Y-54765137D01*
X60583744Y-52651188D02*
X61344314Y-52566849D01*
X61344314Y-52566849D02*
X61344314Y-52566849D01*
X68217197Y-51199455D02*
X69729347Y-50992378D01*
X85193122Y-53028019D02*
X86771087Y-53836357D01*
X74716575Y-50748573D02*
X74716575Y-50748573D01*
X66800075Y-51442280D02*
X66800075Y-51442280D01*
X69729347Y-50992378D02*
X71325698Y-50837921D01*
X83532226Y-52344021D02*
X83532226Y-52344021D01*
X76478942Y-50840744D02*
X76478942Y-50840744D01*
X59923183Y-52651592D02*
X60583744Y-52651188D01*
X59353649Y-52555031D02*
X59353649Y-52555031D01*
X94261367Y-63842739D02*
X94364212Y-65340790D01*
X94261367Y-63842739D02*
X94261367Y-63842739D01*
X93954277Y-62362560D02*
X94261367Y-63842739D01*
X92747154Y-59524750D02*
X92747154Y-59524750D01*
X78261810Y-51039043D02*
X80045417Y-51351982D01*
X58073894Y-51583908D02*
X58442295Y-52028862D01*
X93954277Y-62362560D02*
X93954277Y-62362560D01*
X93447196Y-60917637D02*
X93954277Y-62362560D01*
X93447196Y-60917637D02*
X93447196Y-60917637D01*
X92747154Y-59524750D02*
X93447196Y-60917637D01*
X65486412Y-51703136D02*
X66800075Y-51442280D01*
X91863807Y-58199581D02*
X92747154Y-59524750D01*
X90809219Y-56956444D02*
X91863807Y-58199581D01*
X81809242Y-51785748D02*
X81809242Y-51785748D01*
X72993183Y-50751873D02*
X72993183Y-50751873D01*
X58864215Y-52350407D02*
X58864215Y-52350407D01*
X85193122Y-53028019D02*
X85193122Y-53028019D01*
X71325698Y-50837921D02*
X71325698Y-50837921D01*
X66598217Y-102133659D02*
X66598217Y-102133659D01*
X68818489Y-101606949D02*
X66598217Y-102133659D01*
X64346397Y-102575821D02*
X62070621Y-102929611D01*
X66598217Y-102133659D02*
X64346397Y-102575821D01*
X59778705Y-103191742D02*
X59778705Y-103191742D01*
X62070621Y-102929611D02*
X59778705Y-103191742D01*
X62070621Y-102929611D02*
X62070621Y-102929611D01*
X68818489Y-101606949D02*
X68818489Y-101606949D01*
X59778705Y-103191742D02*
X57478706Y-103359581D01*
X64346397Y-102575821D02*
X64346397Y-102575821D01*
X24380695Y-35372549D02*
X24380695Y-35372549D01*
X23697681Y-40429731D02*
X23764706Y-38688253D01*
X23991880Y-36995903D02*
X24380695Y-35372549D01*
X32492561Y-59929432D02*
X32492561Y-59929432D01*
X36095565Y-64273102D02*
X35764930Y-63701241D01*
X28823606Y-55305061D02*
X27915363Y-53904022D01*
X29755558Y-56610325D02*
X29755558Y-56610325D01*
X23786616Y-42200439D02*
X23786616Y-42200439D01*
X35764930Y-63701241D02*
X35764930Y-63701241D01*
X35764930Y-63701241D02*
X35311611Y-63084744D01*
X24402715Y-45752110D02*
X24024718Y-43980839D01*
X25529787Y-49197647D02*
X24908988Y-47496513D01*
X32492561Y-59929432D02*
X31609809Y-58922195D01*
X36364215Y-65340790D02*
X36296707Y-64814621D01*
X23764706Y-38688253D02*
X23991880Y-36995903D01*
X23786616Y-42200439D02*
X23697681Y-40429731D01*
X24024718Y-43980839D02*
X24024718Y-43980839D01*
X24908988Y-47496513D02*
X24402715Y-45752110D01*
X24402715Y-45752110D02*
X24402715Y-45752110D01*
X27050846Y-52413143D02*
X26249481Y-50840794D01*
X36296707Y-64814621D02*
X36095565Y-64273102D01*
X27050846Y-52413143D02*
X27050846Y-52413143D01*
X30690979Y-57816345D02*
X30690979Y-57816345D01*
X26249481Y-50840794D02*
X26249481Y-50840794D01*
X31609809Y-58922195D02*
X31609809Y-58922195D01*
X33340000Y-60830000D02*
X32492561Y-59929432D01*
X36364215Y-65340790D02*
X36364215Y-65340790D01*
X34744949Y-62410362D02*
X34180000Y-61760000D01*
X36296707Y-64814621D02*
X36296707Y-64814621D01*
X34744949Y-62410362D02*
X34744949Y-62410362D01*
X27915363Y-53904022D02*
X27050846Y-52413143D01*
X24929990Y-33837700D02*
X25635944Y-32410109D01*
X24929990Y-33837700D02*
X24929990Y-33837700D01*
X24380695Y-35372549D02*
X24929990Y-33837700D01*
X23764706Y-38688253D02*
X23764706Y-38688253D01*
X24024718Y-43980839D02*
X23786616Y-42200439D01*
X35311611Y-63084744D02*
X35311611Y-63084744D01*
X25529787Y-49197647D02*
X25529787Y-49197647D01*
X23697681Y-40429731D02*
X23697681Y-40429731D01*
X26249481Y-50840794D02*
X25529787Y-49197647D01*
X27915363Y-53904022D02*
X27915363Y-53904022D01*
X28823606Y-55305061D02*
X28823606Y-55305061D01*
X36095565Y-64273102D02*
X36095565Y-64273102D01*
X29755558Y-56610325D02*
X28823606Y-55305061D01*
X30690979Y-57816345D02*
X29755558Y-56610325D01*
X31609809Y-58922195D02*
X30690979Y-57816345D01*
X35311611Y-63084744D02*
X34744949Y-62410362D01*
X23991880Y-36995903D02*
X23991880Y-36995903D01*
X24908988Y-47496513D02*
X24908988Y-47496513D01*
X32648368Y-103713959D02*
X32648368Y-103713959D01*
X24929987Y-96843872D02*
X24380693Y-95309021D01*
X27915367Y-76777557D02*
X27915367Y-76777557D01*
X28618324Y-101741814D02*
X27489997Y-100735779D01*
X26492206Y-99574181D02*
X25635948Y-98271469D01*
X36296707Y-65866959D02*
X36364215Y-65340790D01*
X36296707Y-65866959D02*
X36296707Y-65866959D01*
X36095569Y-66408478D02*
X36296707Y-65866959D01*
X24380693Y-95309021D02*
X23991875Y-93685669D01*
X34744945Y-68271217D02*
X35311611Y-67596836D01*
X35311611Y-67596836D02*
X35764934Y-66980343D01*
X36095569Y-66408478D02*
X36095569Y-66408478D01*
X35764934Y-66980343D02*
X36095569Y-66408478D01*
X35764934Y-66980343D02*
X35764934Y-66980343D01*
X25635948Y-98271469D02*
X24929987Y-96843872D01*
X23991875Y-93685669D02*
X23764708Y-91993332D01*
X28618324Y-101741814D02*
X28618324Y-101741814D01*
X35311611Y-67596836D02*
X35311611Y-67596836D01*
X27489997Y-100735779D02*
X27489997Y-100735779D01*
X31609809Y-71759388D02*
X31609809Y-71759388D01*
X27050838Y-78268440D02*
X27915367Y-76777557D01*
X34744945Y-68271217D02*
X34744945Y-68271217D01*
X32492561Y-70752152D02*
X32492561Y-70752152D01*
X34076667Y-69015369D02*
X34744945Y-68271217D01*
X30690982Y-72865234D02*
X31609809Y-71759388D01*
X30690982Y-72865234D02*
X30690982Y-72865234D01*
X24024722Y-86700745D02*
X24402722Y-84929459D01*
X26492206Y-99574181D02*
X26492206Y-99574181D01*
X34076667Y-69015369D02*
X34076667Y-69015369D01*
X33320629Y-69839561D02*
X34076667Y-69015369D01*
X24024722Y-86700745D02*
X24024722Y-86700745D01*
X33320629Y-69839561D02*
X33320629Y-69839561D01*
X31609809Y-71759388D02*
X32492561Y-70752152D01*
X28823617Y-75376507D02*
X28823617Y-75376507D01*
X27489997Y-100735779D02*
X26492206Y-99574181D01*
X25529790Y-81483933D02*
X26249477Y-79840790D01*
X25635948Y-98271469D02*
X25635948Y-98271469D01*
X29755558Y-74071259D02*
X30690982Y-72865234D01*
X24402722Y-84929459D02*
X24908998Y-83185051D01*
X23786615Y-88481148D02*
X24024722Y-86700745D01*
X32492561Y-70752152D02*
X33320629Y-69839561D01*
X25529790Y-81483933D02*
X25529790Y-81483933D01*
X32648368Y-103713959D02*
X31212944Y-103239822D01*
X23764708Y-91993332D02*
X23764708Y-91993332D01*
X23697683Y-90251846D02*
X23697683Y-90251846D01*
X29755558Y-74071259D02*
X29755558Y-74071259D01*
X27050838Y-78268440D02*
X27050838Y-78268440D01*
X24402722Y-84929459D02*
X24402722Y-84929459D01*
X26249477Y-79840790D02*
X26249477Y-79840790D01*
X23786615Y-88481148D02*
X23786615Y-88481148D01*
X31212944Y-103239822D02*
X31212944Y-103239822D01*
X28823617Y-75376507D02*
X29755558Y-74071259D01*
X27915367Y-76777557D02*
X28823617Y-75376507D01*
X26249477Y-79840790D02*
X27050838Y-78268440D01*
X24908998Y-83185051D02*
X25529790Y-81483933D01*
X24908998Y-83185051D02*
X24908998Y-83185051D01*
X23764708Y-91993332D02*
X23697683Y-90251846D01*
X29864212Y-102579880D02*
X28618324Y-101741814D01*
X23697683Y-90251846D02*
X23786615Y-88481148D01*
X29864212Y-102579880D02*
X29864212Y-102579880D01*
X23991875Y-93685669D02*
X23991875Y-93685669D01*
X24929987Y-96843872D02*
X24929987Y-96843872D01*
X24380693Y-95309021D02*
X24380693Y-95309021D01*
X31212944Y-103239822D02*
X29864212Y-102579880D01*
X42082199Y-102568924D02*
X42082199Y-102568924D01*
X35709541Y-104087471D02*
X34153236Y-103997284D01*
X49138233Y-97173821D02*
X47880672Y-98484467D01*
X53184108Y-91366432D02*
X53184108Y-91366432D01*
X56489959Y-83216347D02*
X56113666Y-84389763D01*
X61344314Y-78114693D02*
X60583747Y-78030350D01*
X57436725Y-80370735D02*
X57136024Y-81198669D01*
X50301059Y-95785629D02*
X50301059Y-95785629D01*
X60583747Y-78030350D02*
X60583747Y-78030350D01*
X61344314Y-78114693D02*
X61344314Y-78114693D01*
X56113666Y-84389763D02*
X56113666Y-84389763D01*
X37298858Y-103985046D02*
X35709541Y-104087471D01*
X54607742Y-88419632D02*
X54607742Y-88419632D01*
X37298858Y-103985046D02*
X37298858Y-103985046D01*
X38902717Y-103693321D02*
X38902717Y-103693321D01*
X43623870Y-101756241D02*
X42082199Y-102568924D01*
X40502994Y-103218369D02*
X38902717Y-103693321D01*
X53184108Y-91366432D02*
X52325229Y-92860580D01*
X40502994Y-103218369D02*
X40502994Y-103218369D01*
X42082199Y-102568924D02*
X40502994Y-103218369D01*
X45112880Y-100793869D02*
X45112880Y-100793869D01*
X46535701Y-99697464D02*
X45112880Y-100793869D01*
X46535701Y-99697464D02*
X46535701Y-99697464D01*
X47880672Y-98484467D02*
X46535701Y-99697464D01*
X51364215Y-94340790D02*
X51364215Y-94340790D01*
X52325229Y-92860580D02*
X52325229Y-92860580D01*
X53943325Y-89879349D02*
X53943325Y-89879349D01*
X56825710Y-82149498D02*
X56825710Y-82149498D01*
X59923183Y-78029945D02*
X59353645Y-78126511D01*
X53943325Y-89879349D02*
X53184108Y-91366432D01*
X55184478Y-87006523D02*
X54607742Y-88419632D01*
X58864215Y-78331131D02*
X58442295Y-78652679D01*
X55184478Y-87006523D02*
X55184478Y-87006523D01*
X56825710Y-82149498D02*
X56489959Y-83216347D01*
X59353645Y-78126511D02*
X59353645Y-78126511D01*
X58073894Y-79097633D02*
X58073894Y-79097633D01*
X58442295Y-78652679D02*
X58442295Y-78652679D01*
X58864215Y-78331131D02*
X58864215Y-78331131D01*
X60583747Y-78030350D02*
X59923183Y-78029945D01*
X57436725Y-80370735D02*
X57436725Y-80370735D01*
X58442295Y-78652679D02*
X58073894Y-79097633D01*
X57743965Y-79669899D02*
X57436725Y-80370735D01*
X57136024Y-81198669D02*
X56825710Y-82149498D01*
X34153236Y-103997284D02*
X32648368Y-103713959D01*
X34153236Y-103997284D02*
X34153236Y-103997284D01*
X55682750Y-85657867D02*
X55682750Y-85657867D01*
X58073894Y-79097633D02*
X57743965Y-79669899D01*
X56489959Y-83216347D02*
X56489959Y-83216347D01*
X43623870Y-101756241D02*
X43623870Y-101756241D01*
X35709541Y-104087471D02*
X35709541Y-104087471D01*
X38902717Y-103693321D02*
X37298858Y-103985046D01*
X47880672Y-98484467D02*
X47880672Y-98484467D01*
X49138233Y-97173821D02*
X49138233Y-97173821D01*
X50301059Y-95785629D02*
X49138233Y-97173821D01*
X51364215Y-94340790D02*
X50301059Y-95785629D01*
X52325229Y-92860580D02*
X51364215Y-94340790D01*
X57743965Y-79669899D02*
X57743965Y-79669899D01*
X59353645Y-78126511D02*
X58864215Y-78331131D01*
X55682750Y-85657867D02*
X55184478Y-87006523D01*
X57136024Y-81198669D02*
X57136024Y-81198669D01*
X45112880Y-100793869D02*
X43623870Y-101756241D01*
X54607742Y-88419632D02*
X53943325Y-89879349D01*
X59923183Y-78029945D02*
X59923183Y-78029945D01*
X74716575Y-79932968D02*
X74716575Y-79932968D01*
X90766616Y-59803143D02*
X91458152Y-61126740D01*
X92747154Y-71156784D02*
X91863792Y-72481960D01*
X78261795Y-79642487D02*
X76478950Y-79840790D01*
X80045417Y-79329544D02*
X78261795Y-79642487D01*
X92262588Y-63912582D02*
X92364212Y-65340790D01*
X93447196Y-69763889D02*
X92747154Y-71156784D01*
X93447196Y-69763889D02*
X93447196Y-69763889D01*
X94261367Y-66838791D02*
X94261367Y-66838791D01*
X94261367Y-66838791D02*
X93954277Y-68318977D01*
X63190269Y-78474915D02*
X63190269Y-78474915D01*
X71325706Y-79843628D02*
X71325706Y-79843628D01*
X65486419Y-78978401D02*
X65486419Y-78978401D01*
X69729347Y-79689163D02*
X68217193Y-79482079D01*
X76478950Y-79840790D02*
X76478950Y-79840790D01*
X92747154Y-71156784D02*
X92747154Y-71156784D01*
X86771087Y-76845177D02*
X86771087Y-76845177D01*
X90766616Y-59803143D02*
X90766616Y-59803143D01*
X92262588Y-63912582D02*
X92262588Y-63912582D01*
X81809242Y-78895790D02*
X81809242Y-78895790D01*
X83532218Y-78337509D02*
X81809242Y-78895790D01*
X64282062Y-78717575D02*
X64282062Y-78717575D01*
X66800083Y-79239265D02*
X66800083Y-79239265D01*
X78261795Y-79642487D02*
X78261795Y-79642487D01*
X89597770Y-74873486D02*
X88245735Y-75916397D01*
X91458152Y-61126740D02*
X91959152Y-62502117D01*
X68217193Y-79482079D02*
X68217193Y-79482079D01*
X89894187Y-58546925D02*
X89894187Y-58546925D01*
X72993175Y-79929665D02*
X72993175Y-79929665D01*
X88245735Y-75916397D02*
X86771087Y-76845177D01*
X93954277Y-68318977D02*
X93447196Y-69763889D01*
X91959152Y-62502117D02*
X91959152Y-62502117D01*
X91959152Y-62502117D02*
X92262588Y-63912582D01*
X76478950Y-79840790D02*
X74716575Y-79932968D01*
X80045417Y-79329544D02*
X80045417Y-79329544D01*
X88245735Y-75916397D02*
X88245735Y-75916397D01*
X91863792Y-72481960D02*
X90809226Y-73725086D01*
X94364212Y-65340790D02*
X94261367Y-66838791D01*
X81809242Y-78895790D02*
X80045417Y-79329544D01*
X93954277Y-68318977D02*
X93954277Y-68318977D01*
X90809226Y-73725086D02*
X89597770Y-74873486D01*
X91458152Y-61126740D02*
X91458152Y-61126740D01*
X89894187Y-58546925D02*
X90766616Y-59803143D01*
X90809226Y-73725086D02*
X90809226Y-73725086D01*
X91863792Y-72481960D02*
X91863792Y-72481960D01*
X68217193Y-79482079D02*
X66800083Y-79239265D01*
X64282062Y-78717575D02*
X63190269Y-78474915D01*
X62211669Y-78268242D02*
X61344314Y-78114693D01*
X89597770Y-74873486D02*
X89597770Y-74873486D01*
X62211669Y-78268242D02*
X62211669Y-78268242D01*
X85193145Y-77653511D02*
X85193145Y-77653511D01*
X63190269Y-78474915D02*
X62211669Y-78268242D01*
X69729347Y-79689163D02*
X69729347Y-79689163D01*
X65486419Y-78978401D02*
X64282062Y-78717575D01*
X66800083Y-79239265D02*
X65486419Y-78978401D01*
X71325706Y-79843628D02*
X69729347Y-79689163D01*
X74716575Y-79932968D02*
X72993175Y-79929665D01*
X85193145Y-77653511D02*
X83532218Y-78337509D01*
X72993175Y-79929665D02*
X71325706Y-79843628D01*
X88852928Y-57372314D02*
X89894187Y-58546925D01*
X83532218Y-78337509D02*
X83532218Y-78337509D01*
X86771087Y-76845177D02*
X85193145Y-77653511D01*
X55629825Y-48232365D02*
X55938686Y-49387707D01*
X57503353Y-53794758D02*
X57864215Y-54082459D01*
X56930492Y-52838734D02*
X57197151Y-53381496D01*
X56930492Y-52838734D02*
X56930492Y-52838734D01*
X59408172Y-54269226D02*
X60112991Y-54142872D01*
X87657180Y-56291939D02*
X88852928Y-57372314D01*
X62892749Y-53402645D02*
X64047733Y-53092453D01*
X86323196Y-55316456D02*
X86323196Y-55316456D01*
X84868972Y-54454433D02*
X86323196Y-55316456D01*
X69707664Y-52013493D02*
X69707664Y-52013493D01*
X83313743Y-53712105D02*
X83313743Y-53712105D01*
X68153327Y-52223702D02*
X69707664Y-52013493D01*
X71335105Y-51870258D02*
X71335105Y-51870258D01*
X58293807Y-54251125D02*
X58293807Y-54251125D01*
X76495910Y-51978031D02*
X76495910Y-51978031D01*
X57864215Y-54082459D02*
X58293807Y-54251125D01*
X57503353Y-53794758D02*
X57503353Y-53794758D01*
X56207675Y-50434162D02*
X56207675Y-50434162D01*
X61852016Y-53692909D02*
X61852016Y-53692909D01*
X56451984Y-51362255D02*
X56687511Y-52165176D01*
X60926094Y-53945385D02*
X60926094Y-53945385D01*
X59408172Y-54269226D02*
X59408172Y-54269226D01*
X58293807Y-54251125D02*
X58804798Y-54309677D01*
X55938686Y-49387707D02*
X55938686Y-49387707D01*
X86323196Y-55316456D02*
X87657180Y-56291939D01*
X83313743Y-53712105D02*
X84868972Y-54454433D01*
X56207675Y-50434162D02*
X56451984Y-51362255D01*
X76495910Y-51978031D02*
X78247833Y-52228771D01*
X79982147Y-52599270D02*
X79982147Y-52599270D01*
X78247833Y-52228771D02*
X79982147Y-52599270D01*
X61852016Y-53692909D02*
X62892749Y-53402645D01*
X60112991Y-54142872D02*
X60112991Y-54142872D01*
X58804798Y-54309677D02*
X59408172Y-54269226D01*
X78247833Y-52228771D02*
X78247833Y-52228771D01*
X74746887Y-51840790D02*
X76495910Y-51978031D01*
X56687511Y-52165176D02*
X56687511Y-52165176D01*
X71335105Y-51870258D02*
X73020481Y-51808449D01*
X57197151Y-53381496D02*
X57503353Y-53794758D01*
X60926094Y-53945385D02*
X61852016Y-53692909D01*
X55938686Y-49387707D02*
X56207675Y-50434162D01*
X88852928Y-57372314D02*
X88852928Y-57372314D01*
X87657180Y-56291939D02*
X87657180Y-56291939D01*
X84868972Y-54454433D02*
X84868972Y-54454433D01*
X81677864Y-53093281D02*
X83313743Y-53712105D01*
X66685108Y-52485031D02*
X66685108Y-52485031D01*
X62892749Y-53402645D02*
X62892749Y-53402645D01*
X57197151Y-53381496D02*
X57197151Y-53381496D01*
X68153327Y-52223702D02*
X68153327Y-52223702D01*
X57864215Y-54082459D02*
X57864215Y-54082459D01*
X56451984Y-51362255D02*
X56451984Y-51362255D01*
X66685108Y-52485031D02*
X68153327Y-52223702D01*
X56687511Y-52165176D02*
X56930492Y-52838734D01*
X74746887Y-51840790D02*
X74746887Y-51840790D01*
X69707664Y-52013493D02*
X71335105Y-51870258D01*
X65313785Y-52780540D02*
X66685108Y-52485031D01*
X58804798Y-54309677D02*
X58804798Y-54309677D01*
X73020481Y-51808449D02*
X74746887Y-51840790D01*
X81677864Y-53093281D02*
X81677864Y-53093281D01*
X79982147Y-52599270D02*
X81677864Y-53093281D01*
X73020481Y-51808449D02*
X73020481Y-51808449D01*
X60112991Y-54142872D02*
X60926094Y-53945385D01*
X31212940Y-27441761D02*
X31212940Y-27441761D01*
X29864219Y-28101694D02*
X31212940Y-27441761D01*
X47880680Y-32197113D02*
X47880680Y-32197113D01*
X25635944Y-32410109D02*
X26492210Y-31107393D01*
X27489994Y-29945801D02*
X28618320Y-28939764D01*
X57743965Y-51011642D02*
X58073894Y-51583908D01*
X57743965Y-51011642D02*
X57743965Y-51011642D01*
X57436725Y-50310810D02*
X57743965Y-51011642D01*
X31212940Y-27441761D02*
X32648376Y-26967613D01*
X55184474Y-43675018D02*
X55682746Y-45023670D01*
X55682746Y-45023670D02*
X56113670Y-46291775D01*
X57436725Y-50310810D02*
X57436725Y-50310810D01*
X56825710Y-48532047D02*
X56825710Y-48532047D01*
X56113670Y-46291775D02*
X56489959Y-47465183D01*
X28618320Y-28939764D02*
X29864219Y-28101694D01*
X32648376Y-26967613D02*
X34153236Y-26684302D01*
X25635944Y-32410109D02*
X25635944Y-32410109D01*
X57136024Y-49482872D02*
X57436725Y-50310810D01*
X26492210Y-31107393D02*
X26492210Y-31107393D01*
X52325225Y-37820955D02*
X52325225Y-37820955D01*
X46535694Y-30984112D02*
X47880680Y-32197113D01*
X56489959Y-47465183D02*
X56489959Y-47465183D01*
X53184112Y-39315117D02*
X53184112Y-39315117D01*
X55682746Y-45023670D02*
X55682746Y-45023670D01*
X51364215Y-36340790D02*
X52325225Y-37820955D01*
X51364215Y-36340790D02*
X51364215Y-36340790D01*
X38902717Y-26988258D02*
X40503002Y-27463215D01*
X27489994Y-29945801D02*
X27489994Y-29945801D01*
X56825710Y-48532047D02*
X57136024Y-49482872D01*
X57136024Y-49482872D02*
X57136024Y-49482872D01*
X38902717Y-26988258D02*
X38902717Y-26988258D01*
X56489959Y-47465183D02*
X56825710Y-48532047D01*
X52325225Y-37820955D02*
X53184112Y-39315117D01*
X49138229Y-33507751D02*
X49138229Y-33507751D01*
X26492210Y-31107393D02*
X27489994Y-29945801D01*
X43623863Y-28925337D02*
X45112880Y-29887711D01*
X28618320Y-28939764D02*
X28618320Y-28939764D01*
X50301063Y-34895956D02*
X51364215Y-36340790D01*
X40503002Y-27463215D02*
X42082195Y-28112654D01*
X37298858Y-26696535D02*
X38902717Y-26988258D01*
X54607742Y-42261919D02*
X55184474Y-43675018D01*
X53943325Y-40802195D02*
X53943325Y-40802195D01*
X43623863Y-28925337D02*
X43623863Y-28925337D01*
X34153236Y-26684302D02*
X34153236Y-26684302D01*
X35709529Y-26594112D02*
X35709529Y-26594112D01*
X53943325Y-40802195D02*
X54607742Y-42261919D01*
X46535694Y-30984112D02*
X46535694Y-30984112D01*
X40503002Y-27463215D02*
X40503002Y-27463215D01*
X50301063Y-34895956D02*
X50301063Y-34895956D01*
X37298858Y-26696535D02*
X37298858Y-26696535D01*
X45112880Y-29887711D02*
X45112880Y-29887711D01*
X53184112Y-39315117D02*
X53943325Y-40802195D01*
X47880680Y-32197113D02*
X49138229Y-33507751D01*
X45112880Y-29887711D02*
X46535694Y-30984112D01*
X42082195Y-28112654D02*
X43623863Y-28925337D01*
X55184474Y-43675018D02*
X55184474Y-43675018D01*
X56113670Y-46291775D02*
X56113670Y-46291775D01*
X34153236Y-26684302D02*
X35709529Y-26594112D01*
X54607742Y-42261919D02*
X54607742Y-42261919D01*
X49138229Y-33507751D02*
X50301063Y-34895956D01*
X42082195Y-28112654D02*
X42082195Y-28112654D01*
X29864219Y-28101694D02*
X29864219Y-28101694D01*
X35709529Y-26594112D02*
X37298858Y-26696535D01*
X32648376Y-26967613D02*
X32648376Y-26967613D01*
X25318706Y-43486015D02*
X25318706Y-43486015D01*
X29712951Y-54780766D02*
X28816741Y-53352089D01*
X38090694Y-66268963D02*
X38090694Y-66268963D01*
X37753974Y-63910297D02*
X37753974Y-63910297D01*
X30650695Y-56118534D02*
X29712951Y-54780766D01*
X37753974Y-63910297D02*
X37292148Y-63363091D01*
X34415084Y-60480705D02*
X33511920Y-59540230D01*
X38090694Y-64412617D02*
X37753974Y-63910297D01*
X36032958Y-68599548D02*
X36714557Y-67923920D01*
X32570365Y-58500389D02*
X31609924Y-57359535D01*
X36032958Y-62082031D02*
X35261215Y-61325863D01*
X38090694Y-66268963D02*
X38295486Y-65797157D01*
X37292140Y-67318493D02*
X37292140Y-67318493D01*
X33511920Y-59540230D02*
X33511920Y-59540230D01*
X27225883Y-50257484D02*
X27225883Y-50257484D01*
X26020750Y-46927681D02*
X25600740Y-45212158D01*
X28816741Y-53352089D02*
X28816741Y-53352089D01*
X26020750Y-46927681D02*
X26020750Y-46927681D01*
X38295486Y-64884422D02*
X38090694Y-64412617D01*
X31609924Y-57359535D02*
X30650695Y-56118534D01*
X32570365Y-58500389D02*
X32570365Y-58500389D01*
X38090694Y-64412617D02*
X38090694Y-64412617D01*
X37753971Y-66771286D02*
X38090694Y-66268963D01*
X29712951Y-54780766D02*
X29712951Y-54780766D01*
X26567062Y-48614899D02*
X26020750Y-46927681D01*
X28816741Y-53352089D02*
X27981533Y-51840794D01*
X38295486Y-65797157D02*
X38364215Y-65340790D01*
X36032958Y-62082031D02*
X36032958Y-62082031D01*
X37292148Y-63363091D02*
X37292148Y-63363091D01*
X38295486Y-64884422D02*
X38295486Y-64884422D01*
X38364215Y-65340790D02*
X38295486Y-64884422D01*
X37292140Y-67318493D02*
X37753971Y-66771286D01*
X26567062Y-48614899D02*
X26567062Y-48614899D01*
X27225883Y-50257484D02*
X26567062Y-48614899D01*
X36714565Y-62757660D02*
X36032958Y-62082031D01*
X38364215Y-65340790D02*
X38364215Y-65340790D01*
X37753971Y-66771286D02*
X37753971Y-66771286D01*
X25600740Y-45212158D02*
X25318706Y-43486015D01*
X25600740Y-45212158D02*
X25600740Y-45212158D01*
X27981533Y-51840794D02*
X27225883Y-50257484D01*
X33511920Y-59540230D02*
X32570365Y-58500389D01*
X27981533Y-51840794D02*
X27981533Y-51840794D01*
X36714557Y-67923920D02*
X37292140Y-67318493D01*
X30650695Y-56118534D02*
X30650695Y-56118534D01*
X31609924Y-57359535D02*
X31609924Y-57359535D01*
X36714565Y-62757660D02*
X36714565Y-62757660D01*
X36714557Y-67923920D02*
X36714557Y-67923920D01*
X37292148Y-63363091D02*
X36714565Y-62757660D01*
X38295486Y-65797157D02*
X38295486Y-65797157D01*
X28608383Y-99077705D02*
X27667776Y-97956146D01*
X33525112Y-101916374D02*
X33525112Y-101916374D01*
X25183969Y-88913590D02*
X25183969Y-88913590D01*
X31609924Y-73322044D02*
X31609924Y-73322044D01*
X29712951Y-75900814D02*
X29712951Y-75900814D01*
X29678165Y-100045715D02*
X29678165Y-100045715D01*
X25203388Y-90604012D02*
X25203388Y-90604012D01*
X25381193Y-92246994D02*
X25203388Y-90604012D01*
X26215564Y-95311783D02*
X25718955Y-93822731D01*
X25718955Y-93822731D02*
X25718955Y-93822731D01*
X37982898Y-102105660D02*
X37982898Y-102105660D01*
X31609924Y-73322044D02*
X32570362Y-72181194D01*
X28816728Y-77329498D02*
X29712951Y-75900814D01*
X26567070Y-82066666D02*
X27225883Y-80424095D01*
X25203388Y-90604012D02*
X25183969Y-88913590D01*
X41054267Y-101295845D02*
X41054267Y-101295845D01*
X28608383Y-99077705D02*
X28608383Y-99077705D01*
X34966709Y-102170181D02*
X33525112Y-101916374D01*
X29678165Y-100045715D02*
X28608383Y-99077705D01*
X30864212Y-100847832D02*
X29678165Y-100045715D01*
X41054267Y-101295845D02*
X39520751Y-101791206D01*
X28816728Y-77329498D02*
X28816728Y-77329498D01*
X27667776Y-97956146D02*
X27667776Y-97956146D01*
X32570362Y-72181194D02*
X32570362Y-72181194D01*
X30650707Y-74563034D02*
X31609924Y-73322044D01*
X29712951Y-75900814D02*
X30650707Y-74563034D01*
X26020755Y-83753883D02*
X26020755Y-83753883D01*
X32151885Y-101473923D02*
X32151885Y-101473923D01*
X36458751Y-102233101D02*
X34966709Y-102170181D01*
X37982898Y-102105660D02*
X36458751Y-102233101D01*
X26567070Y-82066666D02*
X26567070Y-82066666D01*
X26867271Y-96695450D02*
X26215564Y-95311783D01*
X25381193Y-92246994D02*
X25381193Y-92246994D01*
X32151885Y-101473923D02*
X30864212Y-100847832D01*
X30864212Y-100847832D02*
X30864212Y-100847832D01*
X26020755Y-83753883D02*
X26567070Y-82066666D01*
X27667776Y-97956146D02*
X26867271Y-96695450D01*
X39520751Y-101791206D02*
X39520751Y-101791206D01*
X25318702Y-87195572D02*
X25318702Y-87195572D01*
X26215564Y-95311783D02*
X26215564Y-95311783D01*
X30650707Y-74563034D02*
X30650707Y-74563034D01*
X25718955Y-93822731D02*
X25381193Y-92246994D01*
X25600742Y-85469421D02*
X25600742Y-85469421D01*
X33525112Y-101916374D02*
X32151885Y-101473923D01*
X34966709Y-102170181D02*
X34966709Y-102170181D01*
X25318702Y-87195572D02*
X25600742Y-85469421D01*
X25183969Y-88913590D02*
X25318702Y-87195572D01*
X36032958Y-68599548D02*
X36032958Y-68599548D01*
X25600742Y-85469421D02*
X26020755Y-83753883D01*
X26867271Y-96695450D02*
X26867271Y-96695450D01*
X39520751Y-101791206D02*
X37982898Y-102105660D01*
X35261215Y-69355717D02*
X36032958Y-68599548D01*
X27225883Y-80424095D02*
X27981525Y-78840790D01*
X35261215Y-69355717D02*
X35261215Y-69355717D01*
X34415081Y-70200874D02*
X35261215Y-69355717D01*
X34415081Y-70200874D02*
X34415081Y-70200874D01*
X33511920Y-71141354D02*
X34415081Y-70200874D01*
X33511920Y-71141354D02*
X33511920Y-71141354D01*
X32570362Y-72181194D02*
X33511920Y-71141354D01*
X27981525Y-78840790D02*
X27981525Y-78840790D01*
X36458751Y-102233101D02*
X36458751Y-102233101D01*
X42566043Y-100628334D02*
X41054267Y-101295845D01*
X27981525Y-78840790D02*
X28816728Y-77329498D01*
X27225883Y-80424095D02*
X27225883Y-80424095D01*
X56207675Y-80247414D02*
X56207675Y-80247414D01*
X57503353Y-76886818D02*
X57503353Y-76886818D01*
X58293807Y-76430447D02*
X58293807Y-76430447D01*
X64047737Y-77589127D02*
X64047737Y-77589127D01*
X56451984Y-79319313D02*
X56451984Y-79319313D01*
X59408180Y-76412357D02*
X59408180Y-76412357D01*
X46814048Y-97716927D02*
X45460178Y-98824257D01*
X59408180Y-76412357D02*
X58804798Y-76371906D01*
X60112991Y-76538704D02*
X59408180Y-76412357D01*
X53044597Y-89371338D02*
X52255432Y-90861832D01*
X46814048Y-97716927D02*
X46814048Y-97716927D01*
X53044597Y-89371338D02*
X53044597Y-89371338D01*
X52255432Y-90861832D02*
X51364215Y-92340790D01*
X57197155Y-77300072D02*
X56930492Y-77842842D01*
X57197155Y-77300072D02*
X57197155Y-77300072D01*
X64047737Y-77589127D02*
X62892745Y-77278931D01*
X48089729Y-96495422D02*
X46814048Y-97716927D01*
X57864215Y-76599113D02*
X57503353Y-76886818D01*
X49277748Y-95178688D02*
X48089729Y-96495422D01*
X55938686Y-81293854D02*
X55629825Y-82449204D01*
X56207675Y-80247414D02*
X55938686Y-81293854D01*
X56687511Y-78516396D02*
X56451984Y-79319313D01*
X56930492Y-77842842D02*
X56930492Y-77842842D01*
X60926094Y-76736191D02*
X60112991Y-76538704D01*
X48089729Y-96495422D02*
X48089729Y-96495422D01*
X49277748Y-95178688D02*
X49277748Y-95178688D01*
X51364215Y-92340790D02*
X51364215Y-92340790D01*
X65313793Y-77901047D02*
X64047737Y-77589127D01*
X60112991Y-76538704D02*
X60112991Y-76538704D01*
X55629825Y-82449204D02*
X55629825Y-82449204D01*
X56451984Y-79319313D02*
X56207675Y-80247414D01*
X56687511Y-78516396D02*
X56687511Y-78516396D01*
X62892745Y-77278931D02*
X61852008Y-76988663D01*
X55938686Y-81293854D02*
X55938686Y-81293854D01*
X57864215Y-76599113D02*
X57864215Y-76599113D01*
X58804798Y-76371906D02*
X58804798Y-76371906D01*
X60926094Y-76736191D02*
X60926094Y-76736191D01*
X61852008Y-76988663D02*
X60926094Y-76736191D01*
X66685104Y-78196541D02*
X65313793Y-77901047D01*
X42566043Y-100628334D02*
X42566043Y-100628334D01*
X44039691Y-99799950D02*
X42566043Y-100628334D01*
X44039691Y-99799950D02*
X44039691Y-99799950D01*
X54329395Y-86439125D02*
X53734268Y-87890335D01*
X55629825Y-82449204D02*
X55250000Y-83700000D01*
X58293807Y-76430447D02*
X57864215Y-76599113D01*
X65313793Y-77901047D02*
X65313793Y-77901047D01*
X61852008Y-76988663D02*
X61852008Y-76988663D01*
X45460178Y-98824257D02*
X44039691Y-99799950D01*
X53734268Y-87890335D02*
X53044597Y-89371338D01*
X57503353Y-76886818D02*
X57197155Y-77300072D01*
X53734268Y-87890335D02*
X53734268Y-87890335D01*
X45460178Y-98824257D02*
X45460178Y-98824257D01*
X50370857Y-93786850D02*
X49277748Y-95178688D01*
X52255432Y-90861832D02*
X52255432Y-90861832D01*
X54329395Y-86439125D02*
X54329395Y-86439125D01*
X54837181Y-85036942D02*
X54329395Y-86439125D01*
X56930492Y-77842842D02*
X56687511Y-78516396D01*
X50370857Y-93786850D02*
X50370857Y-93786850D01*
X51364215Y-92340790D02*
X50370857Y-93786850D01*
X58804798Y-76371906D02*
X58293807Y-76430447D01*
X62892745Y-77278931D02*
X62892745Y-77278931D01*
X86323211Y-75365120D02*
X84868972Y-76227146D01*
X91458152Y-69554832D02*
X91458152Y-69554832D01*
X31464214Y-66240791D02*
X31464214Y-66240791D01*
X92262588Y-66768993D02*
X91959152Y-68179462D01*
X78247833Y-78452805D02*
X78247833Y-78452805D01*
X85264213Y-64440788D02*
X85264213Y-64440788D01*
X34064216Y-66240791D02*
X34064216Y-66240791D01*
X34064216Y-64440788D02*
X34064216Y-66240791D01*
X90064208Y-64440788D02*
X90064208Y-64440788D01*
X90064208Y-64440788D02*
X87464218Y-64440788D01*
X68153327Y-78457878D02*
X68153327Y-78457878D01*
X89894180Y-72134663D02*
X89894180Y-72134663D01*
X69707672Y-78668091D02*
X68153327Y-78457878D01*
X71335098Y-78811317D02*
X71335098Y-78811317D01*
X84868972Y-76227146D02*
X84868972Y-76227146D01*
X34064216Y-66240791D02*
X31464214Y-66240791D01*
X88852928Y-73309261D02*
X87657180Y-74389645D01*
X73020481Y-78873131D02*
X71335098Y-78811317D01*
X26664213Y-66240791D02*
X26664213Y-66240791D01*
X85264213Y-64440788D02*
X82664215Y-64440788D01*
X85264213Y-66240791D02*
X85264213Y-64440788D01*
X91959152Y-68179462D02*
X91959152Y-68179462D01*
X87464218Y-64440788D02*
X87464218Y-66240791D01*
X76495903Y-78703545D02*
X74746902Y-78840790D01*
X79982154Y-78082314D02*
X79982154Y-78082314D01*
X92262588Y-66768993D02*
X92262588Y-66768993D01*
X29264213Y-64440788D02*
X29264213Y-66240791D01*
X79982154Y-78082314D02*
X78247833Y-78452805D01*
X86323211Y-75365120D02*
X86323211Y-75365120D01*
X81677848Y-77588295D02*
X79982154Y-78082314D01*
X29264213Y-66240791D02*
X26664213Y-66240791D01*
X90064208Y-66240791D02*
X90064208Y-66240791D01*
X90766616Y-70878437D02*
X90766616Y-70878437D01*
X81677848Y-77588295D02*
X81677848Y-77588295D01*
X83313758Y-76969475D02*
X83313758Y-76969475D01*
X91959152Y-68179462D02*
X91458152Y-69554832D01*
X29264213Y-66240791D02*
X29264213Y-66240791D01*
X87464218Y-66240791D02*
X87464218Y-66240791D01*
X31464214Y-64440788D02*
X31464214Y-64440788D01*
X90064208Y-66240791D02*
X90064208Y-64440788D01*
X87657180Y-74389645D02*
X87657180Y-74389645D01*
X66685104Y-78196541D02*
X66685104Y-78196541D01*
X68153327Y-78457878D02*
X66685104Y-78196541D01*
X73020481Y-78873131D02*
X73020481Y-78873131D01*
X92364212Y-65340790D02*
X92262588Y-66768993D01*
X31464214Y-64440788D02*
X34064216Y-64440788D01*
X31464214Y-66240791D02*
X31464214Y-64440788D01*
X87657180Y-74389645D02*
X86323211Y-75365120D01*
X83313758Y-76969475D02*
X81677848Y-77588295D01*
X69707672Y-78668091D02*
X69707672Y-78668091D01*
X87464218Y-66240791D02*
X90064208Y-66240791D01*
X71335098Y-78811317D02*
X69707672Y-78668091D01*
X26664213Y-64440788D02*
X26664213Y-64440788D01*
X74746902Y-78840790D02*
X73020481Y-78873131D01*
X88852928Y-73309261D02*
X88852928Y-73309261D01*
X74746902Y-78840790D02*
X74746902Y-78840790D01*
X76495903Y-78703545D02*
X76495903Y-78703545D01*
X78247833Y-78452805D02*
X76495903Y-78703545D01*
X91458152Y-69554832D02*
X90766616Y-70878437D01*
X26664213Y-64440788D02*
X29264213Y-64440788D01*
X84868972Y-76227146D02*
X83313758Y-76969475D01*
X89894180Y-72134663D02*
X88852928Y-73309261D01*
X90766616Y-70878437D02*
X89894180Y-72134663D01*
X26664213Y-66240791D02*
X26664213Y-64440788D01*
X82664215Y-66240791D02*
X82664215Y-66240791D01*
X85264213Y-66240791D02*
X85264213Y-66240791D01*
X82664215Y-66240791D02*
X85264213Y-66240791D01*
X82664215Y-64440788D02*
X82664215Y-66240791D01*
X25183971Y-41767994D02*
X25203382Y-40077570D01*
X36458740Y-28448475D02*
X36458740Y-28448475D01*
X51364215Y-38340790D02*
X51364215Y-38340790D01*
X53734268Y-42791239D02*
X54329399Y-44242455D01*
X26867263Y-33986132D02*
X27667776Y-32725430D01*
X41054271Y-29385735D02*
X41054271Y-29385735D01*
X50370861Y-36894737D02*
X50370861Y-36894737D01*
X49277740Y-35502876D02*
X50370861Y-36894737D01*
X46814037Y-32964647D02*
X48089733Y-34186157D01*
X48089733Y-34186157D02*
X48089733Y-34186157D01*
X32151878Y-29207657D02*
X32151878Y-29207657D01*
X53734268Y-42791239D02*
X53734268Y-42791239D01*
X50370861Y-36894737D02*
X51364215Y-38340790D01*
X42566036Y-30053242D02*
X42566036Y-30053242D01*
X25318706Y-43486015D02*
X25183971Y-41767994D01*
X29678157Y-30635862D02*
X29678157Y-30635862D01*
X41054271Y-29385735D02*
X42566036Y-30053242D01*
X34966709Y-28511395D02*
X36458740Y-28448475D01*
X39520748Y-28890368D02*
X41054271Y-29385735D01*
X25381193Y-38434584D02*
X25718954Y-36858839D01*
X29678157Y-30635862D02*
X30864215Y-29833746D01*
X52255424Y-39819737D02*
X52255424Y-39819737D01*
X44039684Y-30881630D02*
X44039684Y-30881630D01*
X49277740Y-35502876D02*
X49277740Y-35502876D01*
X27667776Y-32725430D02*
X28608377Y-31603876D01*
X46814037Y-32964647D02*
X46814037Y-32964647D01*
X37982894Y-28575916D02*
X37982894Y-28575916D01*
X33525115Y-28765202D02*
X34966709Y-28511395D01*
X25718954Y-36858839D02*
X25718954Y-36858839D01*
X32151878Y-29207657D02*
X33525115Y-28765202D01*
X26215560Y-35369787D02*
X26215560Y-35369787D01*
X45460174Y-31857325D02*
X46814037Y-32964647D01*
X44039684Y-30881630D02*
X45460174Y-31857325D01*
X37982894Y-28575916D02*
X39520748Y-28890368D01*
X39520748Y-28890368D02*
X39520748Y-28890368D01*
X25718954Y-36858839D02*
X26215560Y-35369787D01*
X30864215Y-29833746D02*
X30864215Y-29833746D01*
X28608377Y-31603876D02*
X28608377Y-31603876D01*
X25381193Y-38434584D02*
X25381193Y-38434584D01*
X25183971Y-41767994D02*
X25183971Y-41767994D01*
X26215560Y-35369787D02*
X26867263Y-33986132D01*
X48089733Y-34186157D02*
X49277740Y-35502876D01*
X53044597Y-41310244D02*
X53044597Y-41310244D01*
X36458740Y-28448475D02*
X37982894Y-28575916D01*
X34966709Y-28511395D02*
X34966709Y-28511395D01*
X52255424Y-39819737D02*
X53044597Y-41310244D01*
X51364215Y-38340790D02*
X52255424Y-39819737D01*
X55629825Y-48232365D02*
X55629825Y-48232365D01*
X53044597Y-41310244D02*
X53734268Y-42791239D01*
X45460174Y-31857325D02*
X45460174Y-31857325D01*
X30864215Y-29833746D02*
X32151878Y-29207657D01*
X55266925Y-46979965D02*
X55629825Y-48232365D01*
X54837177Y-45644634D02*
X55266925Y-46979965D01*
X55266925Y-46979965D02*
X55266925Y-46979965D01*
X54837177Y-45644634D02*
X54837177Y-45644634D01*
X25203382Y-40077570D02*
X25381193Y-38434584D01*
X54329399Y-44242455D02*
X54837177Y-45644634D01*
X54329399Y-44242455D02*
X54329399Y-44242455D01*
X33525115Y-28765202D02*
X33525115Y-28765202D01*
X25203382Y-40077570D02*
X25203382Y-40077570D01*
X27667776Y-32725430D02*
X27667776Y-32725430D01*
X28608377Y-31603876D02*
X29678157Y-30635862D01*
X42566036Y-30053242D02*
X44039684Y-30881630D01*
X26867263Y-33986132D02*
X26867263Y-33986132D01*
X108031532Y-50280212D02*
X108031532Y-50280212D01*
X110484436Y-42871143D02*
X108826080Y-41445919D01*
X111813987Y-47325035D02*
X111813987Y-47325035D01*
X107114463Y-40092026D02*
X105356987Y-38812920D01*
X107114463Y-40092026D02*
X107114463Y-40092026D01*
X108826080Y-41445919D02*
X108826080Y-41445919D01*
X112799049Y-48585854D02*
X111813987Y-47325035D01*
X112799049Y-48585854D02*
X112799049Y-48585854D01*
X110907821Y-50063442D02*
X112799049Y-48585854D01*
X109016593Y-51541031D02*
X108031532Y-50280212D01*
X106140304Y-51757797D02*
X107125366Y-53018616D01*
X106140304Y-51757797D02*
X106140304Y-51757797D01*
X104320000Y-53180000D02*
X106140304Y-51757797D01*
X99886268Y-35450825D02*
X98022644Y-34494465D01*
X111813987Y-47325035D02*
X113613395Y-45919186D01*
X99886268Y-35450825D02*
X99886268Y-35450825D01*
X109922760Y-48802624D02*
X109922760Y-48802624D01*
X101735092Y-36490253D02*
X99886268Y-35450825D01*
X101735092Y-36490253D02*
X101735092Y-36490253D01*
X108826080Y-41445919D02*
X107114463Y-40092026D01*
X103561279Y-37611546D02*
X101735092Y-36490253D01*
X113613395Y-45919186D02*
X113613395Y-45919186D01*
X113613395Y-45919186D02*
X112082458Y-44363720D01*
X112082458Y-44363720D02*
X110484436Y-42871143D01*
X109016593Y-51541031D02*
X109016593Y-51541031D01*
X110907821Y-50063442D02*
X110907821Y-50063442D01*
X108031532Y-50280212D02*
X109922760Y-48802624D01*
X107125366Y-53018616D02*
X109016593Y-51541031D01*
X110484436Y-42871143D02*
X110484436Y-42871143D01*
X107125366Y-53018616D02*
X107125366Y-53018616D01*
X103561279Y-37611546D02*
X103561279Y-37611546D01*
X109922760Y-48802624D02*
X110907821Y-50063442D01*
X105356987Y-38812920D02*
X103561279Y-37611546D01*
X105356987Y-38812920D02*
X105356987Y-38812920D01*
X112082458Y-44363720D02*
X112082458Y-44363720D01*
X61869934Y-35827522D02*
X61869934Y-35827522D01*
X69564731Y-41062138D02*
X69564731Y-41062138D01*
X73379798Y-40761358D02*
X74270751Y-40722450D01*
X62326309Y-37097364D02*
X62656497Y-37740044D01*
X63446399Y-38937553D02*
X63446399Y-38937553D01*
X68314586Y-41138529D02*
X68921867Y-41108976D01*
X73379798Y-40761358D02*
X73379798Y-40761358D01*
X71728023Y-40874546D02*
X71728023Y-40874546D01*
X66178447Y-40949432D02*
X66178447Y-40949432D01*
X71728023Y-40874546D02*
X72532337Y-40813564D01*
X66675968Y-41057627D02*
X66675968Y-41057627D01*
X78263694Y-40784832D02*
X79364463Y-40874889D01*
X74270751Y-40722450D02*
X74270751Y-40722450D01*
X61766094Y-35230820D02*
X61766094Y-35230820D01*
X64321666Y-39899040D02*
X64772705Y-40268082D01*
X78263694Y-40784832D02*
X78263694Y-40784832D01*
X68921867Y-41108976D02*
X69564731Y-41062138D01*
X68921867Y-41108976D02*
X68921867Y-41108976D01*
X68314586Y-41138529D02*
X68314586Y-41138529D01*
X77202606Y-40728395D02*
X78263694Y-40784832D01*
X69564731Y-41062138D02*
X70245517Y-41003859D01*
X76182731Y-40701826D02*
X77202606Y-40728395D01*
X63878173Y-39454075D02*
X63878173Y-39454075D01*
X75205192Y-40701202D02*
X76182731Y-40701826D01*
X72532337Y-40813564D02*
X73379798Y-40761358D01*
X67195133Y-41119991D02*
X67740093Y-41144487D01*
X70966114Y-40939611D02*
X70966114Y-40939611D01*
X62656497Y-37740044D02*
X63034942Y-38360477D01*
X66675968Y-41057627D02*
X67195133Y-41119991D01*
X70966114Y-40939611D02*
X71728023Y-40874546D01*
X67740093Y-41144487D02*
X67740093Y-41144487D01*
X67740093Y-41144487D02*
X68314586Y-41138529D01*
X62656497Y-37740044D02*
X62656497Y-37740044D01*
X70245517Y-41003859D02*
X70245517Y-41003859D01*
X63878173Y-39454075D02*
X64321666Y-39899040D01*
X61766094Y-35230820D02*
X61869934Y-35827522D01*
X63034942Y-38360477D02*
X63034942Y-38360477D01*
X72532337Y-40813564D02*
X72532337Y-40813564D01*
X62059757Y-36453846D02*
X62326309Y-37097364D01*
X81677040Y-41169951D02*
X82883880Y-41381468D01*
X67195133Y-41119991D02*
X67195133Y-41119991D01*
X76182731Y-40701826D02*
X76182731Y-40701826D01*
X75205192Y-40701202D02*
X75205192Y-40701202D01*
X81677040Y-41169951D02*
X81677040Y-41169951D01*
X77202606Y-40728395D02*
X77202606Y-40728395D01*
X70245517Y-41003859D02*
X70966114Y-40939611D01*
X66178447Y-40949432D02*
X66675968Y-41057627D01*
X80503005Y-41002136D02*
X81677040Y-41169951D01*
X80503005Y-41002136D02*
X80503005Y-41002136D01*
X62059757Y-36453846D02*
X62059757Y-36453846D01*
X79364463Y-40874889D02*
X80503005Y-41002136D01*
X79364463Y-40874889D02*
X79364463Y-40874889D01*
X74270751Y-40722450D02*
X75205192Y-40701202D01*
X65698177Y-40787096D02*
X66178447Y-40949432D01*
X61869934Y-35827522D02*
X62059757Y-36453846D01*
X63446399Y-38937553D02*
X63878173Y-39454075D01*
X64321666Y-39899040D02*
X64321666Y-39899040D01*
X62326309Y-37097364D02*
X62326309Y-37097364D01*
X63034942Y-38360477D02*
X63446399Y-38937553D01*
X63047470Y-32367107D02*
X62614856Y-32772465D01*
X65577396Y-30942875D02*
X64828334Y-31270960D01*
X69321758Y-29847694D02*
X68275207Y-30084179D01*
X81786033Y-29548157D02*
X80157577Y-29369505D01*
X70440402Y-29641272D02*
X69321758Y-29847694D01*
X74216224Y-29240335D02*
X72889156Y-29333576D01*
X72889156Y-29333576D02*
X72889156Y-29333576D01*
X90572402Y-31503685D02*
X90572402Y-31503685D01*
X77065689Y-29196037D02*
X77065689Y-29196037D01*
X74216224Y-29240335D02*
X74216224Y-29240335D01*
X64828334Y-31270960D02*
X64828334Y-31270960D01*
X63561885Y-31982780D02*
X63047470Y-32367107D01*
X67301715Y-30347397D02*
X67301715Y-30347397D01*
X68275207Y-30084179D02*
X67301715Y-30347397D01*
X70440402Y-29641272D02*
X70440402Y-29641272D01*
X80157577Y-29369505D02*
X80157577Y-29369505D01*
X85187103Y-30108244D02*
X83464088Y-29793222D01*
X63561885Y-31982780D02*
X63561885Y-31982780D01*
X69321758Y-29847694D02*
X69321758Y-29847694D01*
X64156059Y-31617659D02*
X63561885Y-31982780D01*
X71630001Y-29468590D02*
X71630001Y-29468590D01*
X92419586Y-32127197D02*
X90572402Y-31503685D01*
X75609207Y-29193069D02*
X74216224Y-29240335D01*
X67301715Y-30347397D02*
X66402164Y-30634426D01*
X64156059Y-31617659D02*
X64156059Y-31617659D01*
X64828334Y-31270960D02*
X64156059Y-31617659D01*
X66402164Y-30634426D02*
X65577396Y-30942875D01*
X71630001Y-29468590D02*
X70440402Y-29641272D01*
X81786033Y-29548157D02*
X81786033Y-29548157D01*
X98022644Y-34494465D02*
X96151962Y-33621807D01*
X72889156Y-29333576D02*
X71630001Y-29468590D01*
X75609207Y-29193069D02*
X75609207Y-29193069D01*
X94281814Y-32832890D02*
X92419586Y-32127197D01*
X77065689Y-29196037D02*
X75609207Y-29193069D01*
X78582893Y-29253466D02*
X78582893Y-29253466D01*
X96151962Y-33621807D02*
X96151962Y-33621807D01*
X90572402Y-31503685D02*
X88747055Y-30960791D01*
X92419586Y-32127197D02*
X92419586Y-32127197D01*
X83464088Y-29793222D02*
X83464088Y-29793222D01*
X94281814Y-32832890D02*
X94281814Y-32832890D01*
X86949951Y-30496471D02*
X86949951Y-30496471D01*
X61753345Y-34670059D02*
X61766094Y-35230820D01*
X88747055Y-30960791D02*
X86949951Y-30496471D01*
X61753345Y-34670059D02*
X61753345Y-34670059D01*
X61833271Y-34146561D02*
X61833271Y-34146561D01*
X62266483Y-33201639D02*
X62266483Y-33201639D01*
X63047470Y-32367107D02*
X63047470Y-32367107D01*
X83464088Y-29793222D02*
X81786033Y-29548157D01*
X78582893Y-29253466D02*
X77065689Y-29196037D01*
X65577396Y-30942875D02*
X65577396Y-30942875D01*
X62266483Y-33201639D02*
X62005054Y-33658318D01*
X68275207Y-30084179D02*
X68275207Y-30084179D01*
X61833271Y-34146561D02*
X61753345Y-34670059D01*
X85187103Y-30108244D02*
X85187103Y-30108244D01*
X98022644Y-34494465D02*
X98022644Y-34494465D01*
X62005054Y-33658318D02*
X61833271Y-34146561D01*
X62005054Y-33658318D02*
X62005054Y-33658318D01*
X66402164Y-30634426D02*
X66402164Y-30634426D01*
X96151962Y-33621807D02*
X94281814Y-32832890D01*
X88747055Y-30960791D02*
X88747055Y-30960791D01*
X62614856Y-32772465D02*
X62266483Y-33201639D01*
X86949951Y-30496471D02*
X85187103Y-30108244D01*
X62614856Y-32772465D02*
X62614856Y-32772465D01*
X80157577Y-29369505D02*
X78582893Y-29253466D01*
X87972854Y-42718334D02*
X87972854Y-42718334D01*
X85383415Y-41946962D02*
X86668899Y-42305870D01*
X97216354Y-47194920D02*
X97216354Y-47194920D01*
X82883880Y-41381468D02*
X84120483Y-41639607D01*
X90618179Y-43710115D02*
X90618179Y-43710115D01*
X99737182Y-48983681D02*
X100950515Y-49957085D01*
X99737182Y-48983681D02*
X99737182Y-48983681D01*
X91949951Y-44291620D02*
X93280998Y-44930981D01*
X82883880Y-41381468D02*
X82883880Y-41381468D01*
X86668899Y-42305870D02*
X86668899Y-42305870D01*
X98490676Y-48062279D02*
X99737182Y-48983681D01*
X85383415Y-41946962D02*
X85383415Y-41946962D01*
X93280998Y-44930981D02*
X94606040Y-45628288D01*
X84120483Y-41639607D02*
X84120483Y-41639607D01*
X89290847Y-43185987D02*
X89290847Y-43185987D01*
X98490676Y-48062279D02*
X98490676Y-48062279D01*
X86668899Y-42305870D02*
X87972854Y-42718334D01*
X95919647Y-46383186D02*
X97216354Y-47194920D01*
X94606040Y-45628288D02*
X94606040Y-45628288D01*
X95919647Y-46383186D02*
X95919647Y-46383186D01*
X84120483Y-41639607D02*
X85383415Y-41946962D01*
X91949951Y-44291620D02*
X91949951Y-44291620D01*
X97216354Y-47194920D02*
X98490676Y-48062279D01*
X94606040Y-45628288D02*
X95919647Y-46383186D01*
X93280998Y-44930981D02*
X93280998Y-44930981D01*
X87972854Y-42718334D02*
X89290847Y-43185987D01*
X90618179Y-43710115D02*
X91949951Y-44291620D01*
X89290847Y-43185987D02*
X90618179Y-43710115D01*
X102125503Y-50980110D02*
X103260000Y-52050000D01*
X54999385Y-105707558D02*
X53404319Y-105582024D01*
X55187686Y-103314949D02*
X54999385Y-105707558D01*
X54255321Y-115161804D02*
X54255321Y-115161804D01*
X60109973Y-114832954D02*
X60109973Y-114832954D01*
X54622783Y-110492752D02*
X53027717Y-110367218D01*
X53027717Y-110367218D02*
X53027717Y-110367218D01*
X63024978Y-114486145D02*
X65917919Y-114022057D01*
X100950515Y-49957085D02*
X102125503Y-50980110D01*
X68778667Y-113444832D02*
X68778667Y-113444832D01*
X53216018Y-107974625D02*
X53216018Y-107974625D01*
X89440521Y-105461258D02*
X91637664Y-104149887D01*
X53404319Y-105582024D02*
X53216018Y-107974625D01*
X95720603Y-101405693D02*
X97601333Y-99989220D01*
X54999385Y-105707558D02*
X54999385Y-105707558D01*
X91637664Y-104149887D02*
X91637664Y-104149887D01*
X87144310Y-106721176D02*
X87144310Y-106721176D01*
X54434482Y-112885361D02*
X54434482Y-112885361D01*
X53216018Y-107974625D02*
X54811084Y-108100159D01*
X52839412Y-112759827D02*
X52839412Y-112759827D01*
X53027717Y-110367218D02*
X52839412Y-112759827D01*
X95720603Y-101405693D02*
X95720603Y-101405693D01*
X93732002Y-102795303D02*
X95720603Y-101405693D01*
X93732002Y-102795303D02*
X93732002Y-102795303D01*
X60109973Y-114832954D02*
X63024978Y-114486145D01*
X79711006Y-110111801D02*
X82273788Y-109054344D01*
X54434482Y-112885361D02*
X54255321Y-115161804D01*
X54255321Y-115161804D02*
X57183258Y-115059029D01*
X91637664Y-104149887D02*
X93732002Y-102795303D01*
X54811084Y-108100159D02*
X54622783Y-110492752D01*
X79711006Y-110111801D02*
X79711006Y-110111801D01*
X89440521Y-105461258D02*
X89440521Y-105461258D01*
X87144310Y-106721176D02*
X89440521Y-105461258D01*
X82273788Y-109054344D02*
X82273788Y-109054344D01*
X68778667Y-113444832D02*
X71597450Y-112759369D01*
X52839412Y-112759827D02*
X54434482Y-112885361D01*
X84753608Y-107921547D02*
X87144310Y-106721176D01*
X74364898Y-111971207D02*
X77072174Y-111086456D01*
X84753608Y-107921547D02*
X84753608Y-107921547D01*
X82273788Y-109054344D02*
X84753608Y-107921547D01*
X63024978Y-114486145D02*
X63024978Y-114486145D01*
X57183258Y-115059029D02*
X57183258Y-115059029D01*
X100950515Y-49957085D02*
X100950515Y-49957085D01*
X54622783Y-110492752D02*
X54622783Y-110492752D01*
X57183258Y-115059029D02*
X60109973Y-114832954D01*
X53404319Y-105582024D02*
X53404319Y-105582024D01*
X77072174Y-111086456D02*
X79711006Y-110111801D01*
X74364898Y-111971207D02*
X74364898Y-111971207D01*
X77072174Y-111086456D02*
X77072174Y-111086456D01*
X71597450Y-112759369D02*
X74364898Y-111971207D01*
X65917919Y-114022057D02*
X68778667Y-113444832D01*
X54811084Y-108100159D02*
X54811084Y-108100159D01*
X71597450Y-112759369D02*
X71597450Y-112759369D01*
X65917919Y-114022057D02*
X65917919Y-114022057D01*
X102125503Y-50980110D02*
X102125503Y-50980110D01*
X82928520Y-95968117D02*
X82928520Y-95968117D01*
X81104728Y-96943192D02*
X79209251Y-97871857D01*
X77246078Y-98747856D02*
X77246078Y-98747856D01*
X75219894Y-99565064D02*
X73135910Y-100317642D01*
X79209251Y-97871857D02*
X79209251Y-97871857D01*
X75219894Y-99565064D02*
X75219894Y-99565064D01*
X79209251Y-97871857D02*
X77246078Y-98747856D01*
X81104728Y-96943192D02*
X81104728Y-96943192D01*
X77246078Y-98747856D02*
X75219894Y-99565064D01*
X82928520Y-95968117D02*
X81104728Y-96943192D01*
X112621406Y-73450020D02*
X112047897Y-73116325D01*
X104779060Y-74705814D02*
X104779060Y-74705814D01*
X108590881Y-72480572D02*
X108590881Y-72480572D01*
X105253814Y-74178501D02*
X104779060Y-74705814D01*
X107331924Y-72751278D02*
X107331924Y-72751278D01*
X105253814Y-74178501D02*
X105253814Y-74178501D01*
X109993125Y-72516850D02*
X109993125Y-72516850D01*
X105736663Y-73716682D02*
X105253814Y-74178501D01*
X105736663Y-73716682D02*
X105736663Y-73716682D01*
X108590881Y-72480572D02*
X107939674Y-72577526D01*
X106766532Y-73000492D02*
X106237632Y-73323120D01*
X109993125Y-72516850D02*
X109279907Y-72460678D01*
X112047897Y-73116325D02*
X111403137Y-72847740D01*
X106237632Y-73323120D02*
X105736663Y-73716682D01*
X112047897Y-73116325D02*
X112047897Y-73116325D01*
X107939674Y-72577526D02*
X107939674Y-72577526D01*
X111403137Y-72847740D02*
X111403137Y-72847740D01*
X106237632Y-73323120D02*
X106237632Y-73323120D01*
X107331924Y-72751278D02*
X106766532Y-73000492D01*
X106766532Y-73000492D02*
X106766532Y-73000492D01*
X107939674Y-72577526D02*
X107331924Y-72751278D01*
X109279907Y-72460678D02*
X108590881Y-72480572D01*
X110709480Y-72646877D02*
X109993125Y-72516850D01*
X109279907Y-72460678D02*
X109279907Y-72460678D01*
X110709480Y-72646877D02*
X110709480Y-72646877D01*
X113107994Y-73847176D02*
X112621406Y-73450020D01*
X111403137Y-72847740D02*
X110709480Y-72646877D01*
X112621406Y-73450020D02*
X112621406Y-73450020D01*
X111889488Y-83542923D02*
X112452705Y-82399422D01*
X106593475Y-91359268D02*
X106593475Y-91359268D01*
X114034484Y-77561218D02*
X114105972Y-76781731D01*
X111239784Y-84738731D02*
X111889488Y-83542923D01*
X104029167Y-94211830D02*
X105364273Y-92776794D01*
X111239784Y-84738731D02*
X111239784Y-84738731D01*
X109669799Y-87272278D02*
X109669799Y-87272278D01*
X97601333Y-99989220D02*
X97601333Y-99989220D01*
X109669799Y-87272278D02*
X110500869Y-85983215D01*
X99372817Y-98553879D02*
X99372817Y-98553879D01*
X113988563Y-75416412D02*
X113792144Y-74830055D01*
X114091819Y-76066826D02*
X114091819Y-76066826D01*
X111889488Y-83542923D02*
X111889488Y-83542923D01*
X113880218Y-78404968D02*
X113880218Y-78404968D01*
X105364273Y-92776794D02*
X106593475Y-91359268D01*
X105364273Y-92776794D02*
X105364273Y-92776794D01*
X104029167Y-94211830D02*
X104029167Y-94211830D01*
X113988563Y-75416412D02*
X113988563Y-75416412D01*
X106593475Y-91359268D02*
X107719024Y-89965515D01*
X114034484Y-77561218D02*
X114034484Y-77561218D01*
X113644798Y-79312172D02*
X113880218Y-78404968D01*
X113328811Y-80281570D02*
X113644798Y-79312172D01*
X101034461Y-97107529D02*
X102586326Y-95657738D01*
X108743515Y-88601372D02*
X108743515Y-88601372D01*
X99372817Y-98553879D02*
X101034461Y-97107529D01*
X110500869Y-85983215D02*
X111239784Y-84738731D01*
X102586326Y-95657738D02*
X102586326Y-95657738D01*
X102586326Y-95657738D02*
X104029167Y-94211830D01*
X113644798Y-79312172D02*
X113644798Y-79312172D01*
X112931854Y-81311401D02*
X113328811Y-80281570D01*
X107719024Y-89965515D02*
X107719024Y-89965515D01*
X112452705Y-82399422D02*
X112931854Y-81311401D01*
X108743515Y-88601372D02*
X109669799Y-87272278D01*
X110500869Y-85983215D02*
X110500869Y-85983215D01*
X112931854Y-81311401D02*
X112931854Y-81311401D01*
X101034461Y-97107529D02*
X101034461Y-97107529D01*
X112452705Y-82399422D02*
X112452705Y-82399422D01*
X113328811Y-80281570D02*
X113328811Y-80281570D01*
X107719024Y-89965515D02*
X108743515Y-88601372D01*
X97601333Y-99989220D02*
X99372817Y-98553879D01*
X113107994Y-73847176D02*
X113107994Y-73847176D01*
X113499084Y-74307152D02*
X113107994Y-73847176D01*
X114105972Y-76781731D02*
X114105972Y-76781731D01*
X113499084Y-74307152D02*
X113499084Y-74307152D01*
X113792144Y-74830055D02*
X113499084Y-74307152D01*
X113792144Y-74830055D02*
X113792144Y-74830055D01*
X114091819Y-76066826D02*
X113988563Y-75416412D01*
X114105972Y-76781731D02*
X114091819Y-76066826D01*
X113880218Y-78404968D02*
X114034484Y-77561218D01*
X94675712Y-87265778D02*
X93490150Y-88382622D01*
X92224670Y-89503273D02*
X90878021Y-90621925D01*
X87939460Y-92828796D02*
X87939460Y-92828796D01*
X89449623Y-91732498D02*
X89449623Y-91732498D01*
X92224670Y-89503273D02*
X92224670Y-89503273D01*
X94675712Y-87265778D02*
X94675712Y-87265778D01*
X95783096Y-86158394D02*
X95783096Y-86158394D01*
X90878021Y-90621925D02*
X90878021Y-90621925D01*
X97773284Y-83993187D02*
X96814682Y-85065826D01*
X87939460Y-92828796D02*
X86348228Y-93904457D01*
X96814682Y-85065826D02*
X95783096Y-86158394D01*
X96814682Y-85065826D02*
X96814682Y-85065826D01*
X90878021Y-90621925D02*
X89449623Y-91732498D01*
X84677238Y-94953056D02*
X82928520Y-95968117D01*
X86348228Y-93904457D02*
X84677238Y-94953056D01*
X84677238Y-94953056D02*
X84677238Y-94953056D01*
X93490150Y-88382622D02*
X93490150Y-88382622D01*
X86348228Y-93904457D02*
X86348228Y-93904457D01*
X89449623Y-91732498D02*
X87939460Y-92828796D01*
X93490150Y-88382622D02*
X92224670Y-89503273D01*
X95783096Y-86158394D02*
X94675712Y-87265778D01*
X102211051Y-78227524D02*
X102211051Y-78227524D01*
X104779060Y-74705814D02*
X104302749Y-75295887D01*
X98662269Y-82945320D02*
X98662269Y-82945320D01*
X99485420Y-81926781D02*
X98662269Y-82945320D01*
X104302749Y-75295887D02*
X103815841Y-75945934D01*
X104302749Y-75295887D02*
X104302749Y-75295887D01*
X99485420Y-81926781D02*
X99485420Y-81926781D01*
X101604484Y-79088577D02*
X100951637Y-79994522D01*
X102777374Y-77414673D02*
X102777374Y-77414673D01*
X101604484Y-79088577D02*
X101604484Y-79088577D01*
X102777374Y-77414673D02*
X102211051Y-78227524D01*
X97773284Y-83993187D02*
X97773284Y-83993187D01*
X98662269Y-82945320D02*
X97773284Y-83993187D01*
X100246994Y-80941834D02*
X99485420Y-81926781D01*
X103309936Y-76653152D02*
X102777374Y-77414673D01*
X100246994Y-80941834D02*
X100246994Y-80941834D01*
X100951637Y-79994522D02*
X100246994Y-80941834D01*
X100951637Y-79994522D02*
X100951637Y-79994522D01*
X102211051Y-78227524D02*
X101604484Y-79088577D01*
X71000000Y-101000000D02*
X68818489Y-101606949D01*
X73135910Y-100317642D02*
X73135910Y-100317642D01*
X73135910Y-100317642D02*
X71000000Y-101000000D01*
X71000000Y-101000000D02*
X71000000Y-101000000D01*
M02*
