G04 #@! TF.GenerationSoftware,KiCad,Pcbnew,(5.1.4)-1*
G04 #@! TF.CreationDate,2019-12-24T18:48:46-08:00*
G04 #@! TF.ProjectId,tensigral_lamp_hardware,74656e73-6967-4726-916c-5f6c616d705f,rev?*
G04 #@! TF.SameCoordinates,Original*
G04 #@! TF.FileFunction,Soldermask,Bot*
G04 #@! TF.FilePolarity,Negative*
%FSLAX46Y46*%
G04 Gerber Fmt 4.6, Leading zero omitted, Abs format (unit mm)*
G04 Created by KiCad (PCBNEW (5.1.4)-1) date 2019-12-24 18:48:46*
%MOMM*%
%LPD*%
G04 APERTURE LIST*
%ADD10C,0.100000*%
G04 APERTURE END LIST*
D10*
G36*
X52756227Y-109800341D02*
G01*
X52756231Y-109800341D01*
X56393869Y-109999664D01*
X56393870Y-109999664D01*
X56400000Y-110000000D01*
X56190071Y-113358870D01*
X56050485Y-115592249D01*
X56050000Y-115600000D01*
X52450000Y-115600000D01*
X52750000Y-109800000D01*
X52756227Y-109800341D01*
X52756227Y-109800341D01*
G37*
G36*
X59929393Y-107499304D02*
G01*
X60166101Y-107597352D01*
X60166103Y-107597353D01*
X60379135Y-107739696D01*
X60560304Y-107920865D01*
X60699638Y-108129394D01*
X60702648Y-108133899D01*
X60800696Y-108370607D01*
X60850680Y-108621893D01*
X60850680Y-108878107D01*
X60800696Y-109129393D01*
X60702648Y-109366101D01*
X60702647Y-109366103D01*
X60560304Y-109579135D01*
X60379135Y-109760304D01*
X60166103Y-109902647D01*
X60166102Y-109902648D01*
X60166101Y-109902648D01*
X59929393Y-110000696D01*
X59678107Y-110050680D01*
X59421893Y-110050680D01*
X59170607Y-110000696D01*
X58933899Y-109902648D01*
X58933898Y-109902648D01*
X58933897Y-109902647D01*
X58720865Y-109760304D01*
X58539696Y-109579135D01*
X58397353Y-109366103D01*
X58397352Y-109366101D01*
X58299304Y-109129393D01*
X58249320Y-108878107D01*
X58249320Y-108621893D01*
X58299304Y-108370607D01*
X58397352Y-108133899D01*
X58400362Y-108129394D01*
X58539696Y-107920865D01*
X58720865Y-107739696D01*
X58933897Y-107597353D01*
X58933899Y-107597352D01*
X59170607Y-107499304D01*
X59421893Y-107449320D01*
X59678107Y-107449320D01*
X59929393Y-107499304D01*
X59929393Y-107499304D01*
G37*
G36*
X27229393Y-106499304D02*
G01*
X27466101Y-106597352D01*
X27466103Y-106597353D01*
X27679135Y-106739696D01*
X27860304Y-106920865D01*
X28002647Y-107133897D01*
X28002648Y-107133899D01*
X28100696Y-107370607D01*
X28150680Y-107621893D01*
X28150680Y-107878107D01*
X28100696Y-108129393D01*
X28002648Y-108366101D01*
X28002647Y-108366103D01*
X27860304Y-108579135D01*
X27679135Y-108760304D01*
X27466103Y-108902647D01*
X27466102Y-108902648D01*
X27466101Y-108902648D01*
X27229393Y-109000696D01*
X26978107Y-109050680D01*
X26721893Y-109050680D01*
X26470607Y-109000696D01*
X26233899Y-108902648D01*
X26233898Y-108902648D01*
X26233897Y-108902647D01*
X26020865Y-108760304D01*
X25839696Y-108579135D01*
X25697353Y-108366103D01*
X25697352Y-108366101D01*
X25599304Y-108129393D01*
X25549320Y-107878107D01*
X25549320Y-107621893D01*
X25599304Y-107370607D01*
X25697352Y-107133899D01*
X25697353Y-107133897D01*
X25839696Y-106920865D01*
X26020865Y-106739696D01*
X26233897Y-106597353D01*
X26233899Y-106597352D01*
X26470607Y-106499304D01*
X26721893Y-106449320D01*
X26978107Y-106449320D01*
X27229393Y-106499304D01*
X27229393Y-106499304D01*
G37*
G36*
X56749721Y-103507330D02*
G01*
X56749721Y-103507333D01*
X56588488Y-107739696D01*
X56550000Y-108750000D01*
X54601427Y-108710233D01*
X54115679Y-108700320D01*
X54084726Y-108703564D01*
X53887664Y-108749545D01*
X52600000Y-109050000D01*
X52633816Y-108749886D01*
X52999313Y-105506098D01*
X53000000Y-105500000D01*
X55000000Y-103500000D01*
X56750000Y-103500000D01*
X56749721Y-103507330D01*
X56749721Y-103507330D01*
G37*
G36*
X34229393Y-94399304D02*
G01*
X34466101Y-94497352D01*
X34466103Y-94497353D01*
X34679135Y-94639696D01*
X34860304Y-94820865D01*
X35002647Y-95033897D01*
X35002648Y-95033899D01*
X35100696Y-95270607D01*
X35150680Y-95521893D01*
X35150680Y-95778107D01*
X35100696Y-96029393D01*
X35002648Y-96266101D01*
X35002647Y-96266103D01*
X34860304Y-96479135D01*
X34679135Y-96660304D01*
X34466103Y-96802647D01*
X34466102Y-96802648D01*
X34466101Y-96802648D01*
X34229393Y-96900696D01*
X33978107Y-96950680D01*
X33721893Y-96950680D01*
X33470607Y-96900696D01*
X33233899Y-96802648D01*
X33233898Y-96802648D01*
X33233897Y-96802647D01*
X33020865Y-96660304D01*
X32839696Y-96479135D01*
X32697353Y-96266103D01*
X32697352Y-96266101D01*
X32599304Y-96029393D01*
X32549320Y-95778107D01*
X32549320Y-95521893D01*
X32599304Y-95270607D01*
X32697352Y-95033899D01*
X32697353Y-95033897D01*
X32839696Y-94820865D01*
X33020865Y-94639696D01*
X33233897Y-94497353D01*
X33233899Y-94497352D01*
X33470607Y-94399304D01*
X33721893Y-94349320D01*
X33978107Y-94349320D01*
X34229393Y-94399304D01*
X34229393Y-94399304D01*
G37*
G36*
X107279393Y-81149304D02*
G01*
X107516101Y-81247352D01*
X107516103Y-81247353D01*
X107729135Y-81389696D01*
X107910304Y-81570865D01*
X108052647Y-81783897D01*
X108052648Y-81783899D01*
X108150696Y-82020607D01*
X108200680Y-82271893D01*
X108200680Y-82528107D01*
X108150696Y-82779393D01*
X108052648Y-83016101D01*
X108052647Y-83016103D01*
X107910304Y-83229135D01*
X107729135Y-83410304D01*
X107516103Y-83552647D01*
X107516102Y-83552648D01*
X107516101Y-83552648D01*
X107279393Y-83650696D01*
X107028107Y-83700680D01*
X106771893Y-83700680D01*
X106520607Y-83650696D01*
X106283899Y-83552648D01*
X106283898Y-83552648D01*
X106283897Y-83552647D01*
X106070865Y-83410304D01*
X105889696Y-83229135D01*
X105747353Y-83016103D01*
X105747352Y-83016101D01*
X105649304Y-82779393D01*
X105599320Y-82528107D01*
X105599320Y-82271893D01*
X105649304Y-82020607D01*
X105747352Y-81783899D01*
X105747353Y-81783897D01*
X105889696Y-81570865D01*
X106070865Y-81389696D01*
X106283897Y-81247353D01*
X106283899Y-81247352D01*
X106520607Y-81149304D01*
X106771893Y-81099320D01*
X107028107Y-81099320D01*
X107279393Y-81149304D01*
X107279393Y-81149304D01*
G37*
G36*
X109929393Y-74899304D02*
G01*
X110166101Y-74997352D01*
X110166103Y-74997353D01*
X110379135Y-75139696D01*
X110560304Y-75320865D01*
X110696959Y-75525385D01*
X110702648Y-75533899D01*
X110800696Y-75770607D01*
X110850680Y-76021893D01*
X110850680Y-76278107D01*
X110800696Y-76529393D01*
X110702648Y-76766101D01*
X110702647Y-76766103D01*
X110560304Y-76979135D01*
X110379135Y-77160304D01*
X110166103Y-77302647D01*
X110166102Y-77302648D01*
X110166101Y-77302648D01*
X109929393Y-77400696D01*
X109678107Y-77450680D01*
X109421893Y-77450680D01*
X109170607Y-77400696D01*
X108933899Y-77302648D01*
X108933898Y-77302648D01*
X108933897Y-77302647D01*
X108720865Y-77160304D01*
X108539696Y-76979135D01*
X108397353Y-76766103D01*
X108397352Y-76766101D01*
X108299304Y-76529393D01*
X108249320Y-76278107D01*
X108249320Y-76021893D01*
X108299304Y-75770607D01*
X108397352Y-75533899D01*
X108403041Y-75525385D01*
X108539696Y-75320865D01*
X108720865Y-75139696D01*
X108933897Y-74997353D01*
X108933899Y-74997352D01*
X109170607Y-74899304D01*
X109421893Y-74849320D01*
X109678107Y-74849320D01*
X109929393Y-74899304D01*
X109929393Y-74899304D01*
G37*
G36*
X77303495Y-76837103D02*
G01*
X75562897Y-77303495D01*
X75096505Y-75562897D01*
X76837103Y-75096505D01*
X77303495Y-76837103D01*
X77303495Y-76837103D01*
G37*
G36*
X78763894Y-74648118D02*
G01*
X78830079Y-74654637D01*
X78999918Y-74706157D01*
X79156443Y-74789822D01*
X79192181Y-74819152D01*
X79293638Y-74902414D01*
X79371550Y-74997352D01*
X79406230Y-75039609D01*
X79489895Y-75196134D01*
X79541415Y-75365973D01*
X79558811Y-75542600D01*
X79541415Y-75719227D01*
X79489895Y-75889066D01*
X79406230Y-76045591D01*
X79376900Y-76081329D01*
X79293638Y-76182786D01*
X79192181Y-76266048D01*
X79156443Y-76295378D01*
X78999918Y-76379043D01*
X78830079Y-76430563D01*
X78763894Y-76437082D01*
X78697712Y-76443600D01*
X78609192Y-76443600D01*
X78543010Y-76437082D01*
X78476825Y-76430563D01*
X78306986Y-76379043D01*
X78150461Y-76295378D01*
X78114723Y-76266048D01*
X78013266Y-76182786D01*
X77930004Y-76081329D01*
X77900674Y-76045591D01*
X77817009Y-75889066D01*
X77765489Y-75719227D01*
X77748093Y-75542600D01*
X77765489Y-75365973D01*
X77817009Y-75196134D01*
X77900674Y-75039609D01*
X77935354Y-74997352D01*
X78013266Y-74902414D01*
X78114723Y-74819152D01*
X78150461Y-74789822D01*
X78306986Y-74706157D01*
X78476825Y-74654637D01*
X78543010Y-74648118D01*
X78609192Y-74641600D01*
X78697712Y-74641600D01*
X78763894Y-74648118D01*
X78763894Y-74648118D01*
G37*
G36*
X81217345Y-73990717D02*
G01*
X81283530Y-73997236D01*
X81453369Y-74048756D01*
X81609894Y-74132421D01*
X81645632Y-74161751D01*
X81747089Y-74245013D01*
X81830351Y-74346470D01*
X81859681Y-74382208D01*
X81943346Y-74538733D01*
X81994866Y-74708572D01*
X82012262Y-74885199D01*
X81994866Y-75061826D01*
X81943346Y-75231665D01*
X81859681Y-75388190D01*
X81830351Y-75423928D01*
X81747089Y-75525385D01*
X81645632Y-75608647D01*
X81609894Y-75637977D01*
X81453369Y-75721642D01*
X81283530Y-75773162D01*
X81217346Y-75779680D01*
X81151163Y-75786199D01*
X81062643Y-75786199D01*
X80996460Y-75779680D01*
X80930276Y-75773162D01*
X80760437Y-75721642D01*
X80603912Y-75637977D01*
X80568174Y-75608647D01*
X80466717Y-75525385D01*
X80383455Y-75423928D01*
X80354125Y-75388190D01*
X80270460Y-75231665D01*
X80218940Y-75061826D01*
X80201544Y-74885199D01*
X80218940Y-74708572D01*
X80270460Y-74538733D01*
X80354125Y-74382208D01*
X80383455Y-74346470D01*
X80466717Y-74245013D01*
X80568174Y-74161751D01*
X80603912Y-74132421D01*
X80760437Y-74048756D01*
X80930276Y-73997236D01*
X80996461Y-73990717D01*
X81062643Y-73984199D01*
X81151163Y-73984199D01*
X81217345Y-73990717D01*
X81217345Y-73990717D01*
G37*
G36*
X83056416Y-69339879D02*
G01*
X83247592Y-69419067D01*
X83247594Y-69419068D01*
X83419648Y-69534031D01*
X83565969Y-69680352D01*
X83680933Y-69852408D01*
X83760121Y-70043584D01*
X83800490Y-70246534D01*
X83800490Y-70453466D01*
X83760121Y-70656416D01*
X83680933Y-70847592D01*
X83680932Y-70847594D01*
X83565969Y-71019648D01*
X83419648Y-71165969D01*
X83247594Y-71280932D01*
X83247593Y-71280933D01*
X83247592Y-71280933D01*
X83056416Y-71360121D01*
X82853466Y-71400490D01*
X82646534Y-71400490D01*
X82443584Y-71360121D01*
X82252408Y-71280933D01*
X82252407Y-71280933D01*
X82252406Y-71280932D01*
X82080352Y-71165969D01*
X81934031Y-71019648D01*
X81819068Y-70847594D01*
X81819067Y-70847592D01*
X81739879Y-70656416D01*
X81699510Y-70453466D01*
X81699510Y-70246534D01*
X81739879Y-70043584D01*
X81819067Y-69852408D01*
X81934031Y-69680352D01*
X82080352Y-69534031D01*
X82252406Y-69419068D01*
X82252408Y-69419067D01*
X82443584Y-69339879D01*
X82646534Y-69299510D01*
X82853466Y-69299510D01*
X83056416Y-69339879D01*
X83056416Y-69339879D01*
G37*
G36*
X100729393Y-64049304D02*
G01*
X100966101Y-64147352D01*
X100966103Y-64147353D01*
X101179135Y-64289696D01*
X101360304Y-64470865D01*
X101502647Y-64683897D01*
X101502648Y-64683899D01*
X101600696Y-64920607D01*
X101650680Y-65171893D01*
X101650680Y-65428107D01*
X101600696Y-65679393D01*
X101502648Y-65916101D01*
X101502647Y-65916103D01*
X101360304Y-66129135D01*
X101179135Y-66310304D01*
X100966103Y-66452647D01*
X100966102Y-66452648D01*
X100966101Y-66452648D01*
X100729393Y-66550696D01*
X100478107Y-66600680D01*
X100221893Y-66600680D01*
X99970607Y-66550696D01*
X99733899Y-66452648D01*
X99733898Y-66452648D01*
X99733897Y-66452647D01*
X99520865Y-66310304D01*
X99339696Y-66129135D01*
X99197353Y-65916103D01*
X99197352Y-65916101D01*
X99099304Y-65679393D01*
X99049320Y-65428107D01*
X99049320Y-65171893D01*
X99099304Y-64920607D01*
X99197352Y-64683899D01*
X99197353Y-64683897D01*
X99339696Y-64470865D01*
X99520865Y-64289696D01*
X99733897Y-64147353D01*
X99733899Y-64147352D01*
X99970607Y-64049304D01*
X100221893Y-63999320D01*
X100478107Y-63999320D01*
X100729393Y-64049304D01*
X100729393Y-64049304D01*
G37*
G36*
X88756416Y-61039879D02*
G01*
X88947592Y-61119067D01*
X88947594Y-61119068D01*
X89119648Y-61234031D01*
X89265969Y-61380352D01*
X89380933Y-61552408D01*
X89460121Y-61743584D01*
X89500490Y-61946534D01*
X89500490Y-62153466D01*
X89460121Y-62356416D01*
X89380933Y-62547592D01*
X89380932Y-62547594D01*
X89265969Y-62719648D01*
X89119648Y-62865969D01*
X88947594Y-62980932D01*
X88947593Y-62980933D01*
X88947592Y-62980933D01*
X88756416Y-63060121D01*
X88553466Y-63100490D01*
X88346534Y-63100490D01*
X88143584Y-63060121D01*
X87952408Y-62980933D01*
X87952407Y-62980933D01*
X87952406Y-62980932D01*
X87780352Y-62865969D01*
X87634031Y-62719648D01*
X87519068Y-62547594D01*
X87519067Y-62547592D01*
X87439879Y-62356416D01*
X87399510Y-62153466D01*
X87399510Y-61946534D01*
X87439879Y-61743584D01*
X87519067Y-61552408D01*
X87634031Y-61380352D01*
X87780352Y-61234031D01*
X87952406Y-61119068D01*
X87952408Y-61119067D01*
X88143584Y-61039879D01*
X88346534Y-60999510D01*
X88553466Y-60999510D01*
X88756416Y-61039879D01*
X88756416Y-61039879D01*
G37*
G36*
X109550000Y-51500000D02*
G01*
X109545152Y-51503809D01*
X109545149Y-51503812D01*
X108601090Y-52245572D01*
X107450000Y-53150000D01*
X107443589Y-53150435D01*
X107443587Y-53150435D01*
X104506125Y-53349585D01*
X104506122Y-53349585D01*
X104500000Y-53350000D01*
X104496689Y-53345953D01*
X104496685Y-53345949D01*
X103603892Y-52254757D01*
X103603892Y-52254756D01*
X103600000Y-52250000D01*
X107700000Y-49150000D01*
X109550000Y-51500000D01*
X109550000Y-51500000D01*
G37*
G36*
X112907527Y-45105211D02*
G01*
X112907529Y-45105212D01*
X114194951Y-45996504D01*
X114194954Y-45996507D01*
X114200000Y-46000000D01*
X113350000Y-48450000D01*
X113346232Y-48453098D01*
X113346229Y-48453101D01*
X111104745Y-50296099D01*
X111104742Y-50296101D01*
X111100000Y-50300000D01*
X110150000Y-49900000D01*
X108850000Y-48300000D01*
X112900000Y-45100000D01*
X112907527Y-45105211D01*
X112907527Y-45105211D01*
G37*
G36*
X65429393Y-34299304D02*
G01*
X65666101Y-34397352D01*
X65666103Y-34397353D01*
X65879135Y-34539696D01*
X66060304Y-34720865D01*
X66194626Y-34921893D01*
X66202648Y-34933899D01*
X66300696Y-35170607D01*
X66350680Y-35421893D01*
X66350680Y-35678107D01*
X66300696Y-35929393D01*
X66202648Y-36166101D01*
X66202647Y-36166103D01*
X66060304Y-36379135D01*
X65879135Y-36560304D01*
X65666103Y-36702647D01*
X65666102Y-36702648D01*
X65666101Y-36702648D01*
X65429393Y-36800696D01*
X65178107Y-36850680D01*
X64921893Y-36850680D01*
X64670607Y-36800696D01*
X64433899Y-36702648D01*
X64433898Y-36702648D01*
X64433897Y-36702647D01*
X64220865Y-36560304D01*
X64039696Y-36379135D01*
X63897353Y-36166103D01*
X63897352Y-36166101D01*
X63799304Y-35929393D01*
X63749320Y-35678107D01*
X63749320Y-35421893D01*
X63799304Y-35170607D01*
X63897352Y-34933899D01*
X63905374Y-34921893D01*
X64039696Y-34720865D01*
X64220865Y-34539696D01*
X64433897Y-34397353D01*
X64433899Y-34397352D01*
X64670607Y-34299304D01*
X64921893Y-34249320D01*
X65178107Y-34249320D01*
X65429393Y-34299304D01*
X65429393Y-34299304D01*
G37*
G36*
X34229393Y-33799304D02*
G01*
X34466101Y-33897352D01*
X34466103Y-33897353D01*
X34679135Y-34039696D01*
X34860304Y-34220865D01*
X34978228Y-34397352D01*
X35002648Y-34433899D01*
X35100696Y-34670607D01*
X35150680Y-34921893D01*
X35150680Y-35178107D01*
X35100696Y-35429393D01*
X35002648Y-35666101D01*
X35002647Y-35666103D01*
X34860304Y-35879135D01*
X34679135Y-36060304D01*
X34466103Y-36202647D01*
X34466102Y-36202648D01*
X34466101Y-36202648D01*
X34229393Y-36300696D01*
X33978107Y-36350680D01*
X33721893Y-36350680D01*
X33470607Y-36300696D01*
X33233899Y-36202648D01*
X33233898Y-36202648D01*
X33233897Y-36202647D01*
X33020865Y-36060304D01*
X32839696Y-35879135D01*
X32697353Y-35666103D01*
X32697352Y-35666101D01*
X32599304Y-35429393D01*
X32549320Y-35178107D01*
X32549320Y-34921893D01*
X32599304Y-34670607D01*
X32697352Y-34433899D01*
X32721772Y-34397352D01*
X32839696Y-34220865D01*
X33020865Y-34039696D01*
X33233897Y-33897353D01*
X33233899Y-33897352D01*
X33470607Y-33799304D01*
X33721893Y-33749320D01*
X33978107Y-33749320D01*
X34229393Y-33799304D01*
X34229393Y-33799304D01*
G37*
G36*
X27179393Y-21699304D02*
G01*
X27416101Y-21797352D01*
X27416103Y-21797353D01*
X27629135Y-21939696D01*
X27810304Y-22120865D01*
X27952647Y-22333897D01*
X27952648Y-22333899D01*
X28050696Y-22570607D01*
X28100680Y-22821893D01*
X28100680Y-23078107D01*
X28050696Y-23329393D01*
X27952648Y-23566101D01*
X27952647Y-23566103D01*
X27810304Y-23779135D01*
X27629135Y-23960304D01*
X27416103Y-24102647D01*
X27416102Y-24102648D01*
X27416101Y-24102648D01*
X27179393Y-24200696D01*
X26928107Y-24250680D01*
X26671893Y-24250680D01*
X26420607Y-24200696D01*
X26183899Y-24102648D01*
X26183898Y-24102648D01*
X26183897Y-24102647D01*
X25970865Y-23960304D01*
X25789696Y-23779135D01*
X25647353Y-23566103D01*
X25647352Y-23566101D01*
X25549304Y-23329393D01*
X25499320Y-23078107D01*
X25499320Y-22821893D01*
X25549304Y-22570607D01*
X25647352Y-22333899D01*
X25647353Y-22333897D01*
X25789696Y-22120865D01*
X25970865Y-21939696D01*
X26183897Y-21797353D01*
X26183899Y-21797352D01*
X26420607Y-21699304D01*
X26671893Y-21649320D01*
X26928107Y-21649320D01*
X27179393Y-21699304D01*
X27179393Y-21699304D01*
G37*
M02*
