G04 #@! TF.GenerationSoftware,KiCad,Pcbnew,(5.1.4)-1*
G04 #@! TF.CreationDate,2019-12-24T18:48:46-08:00*
G04 #@! TF.ProjectId,tensigral_lamp_hardware,74656e73-6967-4726-916c-5f6c616d705f,rev?*
G04 #@! TF.SameCoordinates,Original*
G04 #@! TF.FileFunction,Paste,Top*
G04 #@! TF.FilePolarity,Positive*
%FSLAX46Y46*%
G04 Gerber Fmt 4.6, Leading zero omitted, Abs format (unit mm)*
G04 Created by KiCad (PCBNEW (5.1.4)-1) date 2019-12-24 18:48:46*
%MOMM*%
%LPD*%
G04 APERTURE LIST*
%ADD10C,1.651000*%
%ADD11C,0.100000*%
%ADD12C,1.651000*%
%ADD13C,1.150000*%
%ADD14R,1.500000X1.000000*%
%ADD15C,1.000000*%
%ADD16C,0.450000*%
%ADD17R,4.191000X1.651000*%
%ADD18O,4.191000X1.651000*%
%ADD19C,3.025000*%
%ADD20R,1.300000X2.000000*%
%ADD21R,1.560000X0.650000*%
%ADD22C,0.650000*%
%ADD23C,2.000000*%
%ADD24C,0.300000*%
%ADD25C,1.600000*%
%ADD26C,1.560000*%
%ADD27C,0.390000*%
G04 APERTURE END LIST*
D10*
X73796051Y-54389148D03*
D11*
G36*
X71558298Y-54134132D02*
G01*
X75606493Y-53049421D01*
X76033804Y-54644164D01*
X71985609Y-55728875D01*
X71558298Y-54134132D01*
X71558298Y-54134132D01*
G37*
D10*
X74453452Y-56842600D03*
D11*
G36*
X72215699Y-56587584D02*
G01*
X76263894Y-55502873D01*
X76691205Y-57097616D01*
X72643010Y-58182327D01*
X72215699Y-56587584D01*
X72215699Y-56587584D01*
G37*
D10*
X75110852Y-59296051D03*
D11*
G36*
X72873099Y-59041035D02*
G01*
X76921294Y-57956324D01*
X77348605Y-59551067D01*
X73300410Y-60635778D01*
X72873099Y-59041035D01*
X72873099Y-59041035D01*
G37*
D10*
X68889148Y-55703949D03*
D12*
X70115874Y-55375249D02*
X67662422Y-56032649D01*
D10*
X69546548Y-58157400D03*
D11*
G36*
X67308795Y-57902384D02*
G01*
X71356990Y-56817673D01*
X71784301Y-58412416D01*
X67736106Y-59497127D01*
X67308795Y-57902384D01*
X67308795Y-57902384D01*
G37*
D10*
X70203949Y-60610852D03*
D11*
G36*
X67966196Y-60355836D02*
G01*
X72014391Y-59271125D01*
X72441702Y-60865868D01*
X68393507Y-61950579D01*
X67966196Y-60355836D01*
X67966196Y-60355836D01*
G37*
G36*
X20674505Y-92901204D02*
G01*
X20698773Y-92904804D01*
X20722572Y-92910765D01*
X20745671Y-92919030D01*
X20767850Y-92929520D01*
X20788893Y-92942132D01*
X20808599Y-92956747D01*
X20826777Y-92973223D01*
X20843253Y-92991401D01*
X20857868Y-93011107D01*
X20870480Y-93032150D01*
X20880970Y-93054329D01*
X20889235Y-93077428D01*
X20895196Y-93101227D01*
X20898796Y-93125495D01*
X20900000Y-93149999D01*
X20900000Y-94050001D01*
X20898796Y-94074505D01*
X20895196Y-94098773D01*
X20889235Y-94122572D01*
X20880970Y-94145671D01*
X20870480Y-94167850D01*
X20857868Y-94188893D01*
X20843253Y-94208599D01*
X20826777Y-94226777D01*
X20808599Y-94243253D01*
X20788893Y-94257868D01*
X20767850Y-94270480D01*
X20745671Y-94280970D01*
X20722572Y-94289235D01*
X20698773Y-94295196D01*
X20674505Y-94298796D01*
X20650001Y-94300000D01*
X19999999Y-94300000D01*
X19975495Y-94298796D01*
X19951227Y-94295196D01*
X19927428Y-94289235D01*
X19904329Y-94280970D01*
X19882150Y-94270480D01*
X19861107Y-94257868D01*
X19841401Y-94243253D01*
X19823223Y-94226777D01*
X19806747Y-94208599D01*
X19792132Y-94188893D01*
X19779520Y-94167850D01*
X19769030Y-94145671D01*
X19760765Y-94122572D01*
X19754804Y-94098773D01*
X19751204Y-94074505D01*
X19750000Y-94050001D01*
X19750000Y-93149999D01*
X19751204Y-93125495D01*
X19754804Y-93101227D01*
X19760765Y-93077428D01*
X19769030Y-93054329D01*
X19779520Y-93032150D01*
X19792132Y-93011107D01*
X19806747Y-92991401D01*
X19823223Y-92973223D01*
X19841401Y-92956747D01*
X19861107Y-92942132D01*
X19882150Y-92929520D01*
X19904329Y-92919030D01*
X19927428Y-92910765D01*
X19951227Y-92904804D01*
X19975495Y-92901204D01*
X19999999Y-92900000D01*
X20650001Y-92900000D01*
X20674505Y-92901204D01*
X20674505Y-92901204D01*
G37*
D13*
X20325000Y-93600000D03*
D11*
G36*
X18624505Y-92901204D02*
G01*
X18648773Y-92904804D01*
X18672572Y-92910765D01*
X18695671Y-92919030D01*
X18717850Y-92929520D01*
X18738893Y-92942132D01*
X18758599Y-92956747D01*
X18776777Y-92973223D01*
X18793253Y-92991401D01*
X18807868Y-93011107D01*
X18820480Y-93032150D01*
X18830970Y-93054329D01*
X18839235Y-93077428D01*
X18845196Y-93101227D01*
X18848796Y-93125495D01*
X18850000Y-93149999D01*
X18850000Y-94050001D01*
X18848796Y-94074505D01*
X18845196Y-94098773D01*
X18839235Y-94122572D01*
X18830970Y-94145671D01*
X18820480Y-94167850D01*
X18807868Y-94188893D01*
X18793253Y-94208599D01*
X18776777Y-94226777D01*
X18758599Y-94243253D01*
X18738893Y-94257868D01*
X18717850Y-94270480D01*
X18695671Y-94280970D01*
X18672572Y-94289235D01*
X18648773Y-94295196D01*
X18624505Y-94298796D01*
X18600001Y-94300000D01*
X17949999Y-94300000D01*
X17925495Y-94298796D01*
X17901227Y-94295196D01*
X17877428Y-94289235D01*
X17854329Y-94280970D01*
X17832150Y-94270480D01*
X17811107Y-94257868D01*
X17791401Y-94243253D01*
X17773223Y-94226777D01*
X17756747Y-94208599D01*
X17742132Y-94188893D01*
X17729520Y-94167850D01*
X17719030Y-94145671D01*
X17710765Y-94122572D01*
X17704804Y-94098773D01*
X17701204Y-94074505D01*
X17700000Y-94050001D01*
X17700000Y-93149999D01*
X17701204Y-93125495D01*
X17704804Y-93101227D01*
X17710765Y-93077428D01*
X17719030Y-93054329D01*
X17729520Y-93032150D01*
X17742132Y-93011107D01*
X17756747Y-92991401D01*
X17773223Y-92973223D01*
X17791401Y-92956747D01*
X17811107Y-92942132D01*
X17832150Y-92929520D01*
X17854329Y-92919030D01*
X17877428Y-92910765D01*
X17901227Y-92904804D01*
X17925495Y-92901204D01*
X17949999Y-92900000D01*
X18600001Y-92900000D01*
X18624505Y-92901204D01*
X18624505Y-92901204D01*
G37*
D13*
X18275000Y-93600000D03*
D11*
G36*
X93936116Y-51203196D02*
G01*
X93960384Y-51206796D01*
X93984183Y-51212757D01*
X94007282Y-51221022D01*
X94029461Y-51231512D01*
X94050504Y-51244124D01*
X94070210Y-51258739D01*
X94088388Y-51275215D01*
X94724785Y-51911612D01*
X94741261Y-51929790D01*
X94755876Y-51949496D01*
X94768488Y-51970539D01*
X94778978Y-51992718D01*
X94787243Y-52015817D01*
X94793204Y-52039616D01*
X94796804Y-52063884D01*
X94798008Y-52088388D01*
X94796804Y-52112892D01*
X94793204Y-52137160D01*
X94787243Y-52160959D01*
X94778978Y-52184058D01*
X94768488Y-52206237D01*
X94755876Y-52227280D01*
X94741261Y-52246986D01*
X94724785Y-52265164D01*
X94265164Y-52724785D01*
X94246986Y-52741261D01*
X94227280Y-52755876D01*
X94206237Y-52768488D01*
X94184058Y-52778978D01*
X94160959Y-52787243D01*
X94137160Y-52793204D01*
X94112892Y-52796804D01*
X94088388Y-52798008D01*
X94063884Y-52796804D01*
X94039616Y-52793204D01*
X94015817Y-52787243D01*
X93992718Y-52778978D01*
X93970539Y-52768488D01*
X93949496Y-52755876D01*
X93929790Y-52741261D01*
X93911612Y-52724785D01*
X93275215Y-52088388D01*
X93258739Y-52070210D01*
X93244124Y-52050504D01*
X93231512Y-52029461D01*
X93221022Y-52007282D01*
X93212757Y-51984183D01*
X93206796Y-51960384D01*
X93203196Y-51936116D01*
X93201992Y-51911612D01*
X93203196Y-51887108D01*
X93206796Y-51862840D01*
X93212757Y-51839041D01*
X93221022Y-51815942D01*
X93231512Y-51793763D01*
X93244124Y-51772720D01*
X93258739Y-51753014D01*
X93275215Y-51734836D01*
X93734836Y-51275215D01*
X93753014Y-51258739D01*
X93772720Y-51244124D01*
X93793763Y-51231512D01*
X93815942Y-51221022D01*
X93839041Y-51212757D01*
X93862840Y-51206796D01*
X93887108Y-51203196D01*
X93911612Y-51201992D01*
X93936116Y-51203196D01*
X93936116Y-51203196D01*
G37*
D13*
X94000000Y-52000000D03*
D11*
G36*
X92486548Y-52652764D02*
G01*
X92510816Y-52656364D01*
X92534615Y-52662325D01*
X92557714Y-52670590D01*
X92579893Y-52681080D01*
X92600936Y-52693692D01*
X92620642Y-52708307D01*
X92638820Y-52724783D01*
X93275217Y-53361180D01*
X93291693Y-53379358D01*
X93306308Y-53399064D01*
X93318920Y-53420107D01*
X93329410Y-53442286D01*
X93337675Y-53465385D01*
X93343636Y-53489184D01*
X93347236Y-53513452D01*
X93348440Y-53537956D01*
X93347236Y-53562460D01*
X93343636Y-53586728D01*
X93337675Y-53610527D01*
X93329410Y-53633626D01*
X93318920Y-53655805D01*
X93306308Y-53676848D01*
X93291693Y-53696554D01*
X93275217Y-53714732D01*
X92815596Y-54174353D01*
X92797418Y-54190829D01*
X92777712Y-54205444D01*
X92756669Y-54218056D01*
X92734490Y-54228546D01*
X92711391Y-54236811D01*
X92687592Y-54242772D01*
X92663324Y-54246372D01*
X92638820Y-54247576D01*
X92614316Y-54246372D01*
X92590048Y-54242772D01*
X92566249Y-54236811D01*
X92543150Y-54228546D01*
X92520971Y-54218056D01*
X92499928Y-54205444D01*
X92480222Y-54190829D01*
X92462044Y-54174353D01*
X91825647Y-53537956D01*
X91809171Y-53519778D01*
X91794556Y-53500072D01*
X91781944Y-53479029D01*
X91771454Y-53456850D01*
X91763189Y-53433751D01*
X91757228Y-53409952D01*
X91753628Y-53385684D01*
X91752424Y-53361180D01*
X91753628Y-53336676D01*
X91757228Y-53312408D01*
X91763189Y-53288609D01*
X91771454Y-53265510D01*
X91781944Y-53243331D01*
X91794556Y-53222288D01*
X91809171Y-53202582D01*
X91825647Y-53184404D01*
X92285268Y-52724783D01*
X92303446Y-52708307D01*
X92323152Y-52693692D01*
X92344195Y-52681080D01*
X92366374Y-52670590D01*
X92389473Y-52662325D01*
X92413272Y-52656364D01*
X92437540Y-52652764D01*
X92462044Y-52651560D01*
X92486548Y-52652764D01*
X92486548Y-52652764D01*
G37*
D13*
X92550432Y-53449568D03*
D11*
G36*
X68974505Y-47501204D02*
G01*
X68998773Y-47504804D01*
X69022572Y-47510765D01*
X69045671Y-47519030D01*
X69067850Y-47529520D01*
X69088893Y-47542132D01*
X69108599Y-47556747D01*
X69126777Y-47573223D01*
X69143253Y-47591401D01*
X69157868Y-47611107D01*
X69170480Y-47632150D01*
X69180970Y-47654329D01*
X69189235Y-47677428D01*
X69195196Y-47701227D01*
X69198796Y-47725495D01*
X69200000Y-47749999D01*
X69200000Y-48400001D01*
X69198796Y-48424505D01*
X69195196Y-48448773D01*
X69189235Y-48472572D01*
X69180970Y-48495671D01*
X69170480Y-48517850D01*
X69157868Y-48538893D01*
X69143253Y-48558599D01*
X69126777Y-48576777D01*
X69108599Y-48593253D01*
X69088893Y-48607868D01*
X69067850Y-48620480D01*
X69045671Y-48630970D01*
X69022572Y-48639235D01*
X68998773Y-48645196D01*
X68974505Y-48648796D01*
X68950001Y-48650000D01*
X68049999Y-48650000D01*
X68025495Y-48648796D01*
X68001227Y-48645196D01*
X67977428Y-48639235D01*
X67954329Y-48630970D01*
X67932150Y-48620480D01*
X67911107Y-48607868D01*
X67891401Y-48593253D01*
X67873223Y-48576777D01*
X67856747Y-48558599D01*
X67842132Y-48538893D01*
X67829520Y-48517850D01*
X67819030Y-48495671D01*
X67810765Y-48472572D01*
X67804804Y-48448773D01*
X67801204Y-48424505D01*
X67800000Y-48400001D01*
X67800000Y-47749999D01*
X67801204Y-47725495D01*
X67804804Y-47701227D01*
X67810765Y-47677428D01*
X67819030Y-47654329D01*
X67829520Y-47632150D01*
X67842132Y-47611107D01*
X67856747Y-47591401D01*
X67873223Y-47573223D01*
X67891401Y-47556747D01*
X67911107Y-47542132D01*
X67932150Y-47529520D01*
X67954329Y-47519030D01*
X67977428Y-47510765D01*
X68001227Y-47504804D01*
X68025495Y-47501204D01*
X68049999Y-47500000D01*
X68950001Y-47500000D01*
X68974505Y-47501204D01*
X68974505Y-47501204D01*
G37*
D13*
X68500000Y-48075000D03*
D11*
G36*
X68974505Y-45451204D02*
G01*
X68998773Y-45454804D01*
X69022572Y-45460765D01*
X69045671Y-45469030D01*
X69067850Y-45479520D01*
X69088893Y-45492132D01*
X69108599Y-45506747D01*
X69126777Y-45523223D01*
X69143253Y-45541401D01*
X69157868Y-45561107D01*
X69170480Y-45582150D01*
X69180970Y-45604329D01*
X69189235Y-45627428D01*
X69195196Y-45651227D01*
X69198796Y-45675495D01*
X69200000Y-45699999D01*
X69200000Y-46350001D01*
X69198796Y-46374505D01*
X69195196Y-46398773D01*
X69189235Y-46422572D01*
X69180970Y-46445671D01*
X69170480Y-46467850D01*
X69157868Y-46488893D01*
X69143253Y-46508599D01*
X69126777Y-46526777D01*
X69108599Y-46543253D01*
X69088893Y-46557868D01*
X69067850Y-46570480D01*
X69045671Y-46580970D01*
X69022572Y-46589235D01*
X68998773Y-46595196D01*
X68974505Y-46598796D01*
X68950001Y-46600000D01*
X68049999Y-46600000D01*
X68025495Y-46598796D01*
X68001227Y-46595196D01*
X67977428Y-46589235D01*
X67954329Y-46580970D01*
X67932150Y-46570480D01*
X67911107Y-46557868D01*
X67891401Y-46543253D01*
X67873223Y-46526777D01*
X67856747Y-46508599D01*
X67842132Y-46488893D01*
X67829520Y-46467850D01*
X67819030Y-46445671D01*
X67810765Y-46422572D01*
X67804804Y-46398773D01*
X67801204Y-46374505D01*
X67800000Y-46350001D01*
X67800000Y-45699999D01*
X67801204Y-45675495D01*
X67804804Y-45651227D01*
X67810765Y-45627428D01*
X67819030Y-45604329D01*
X67829520Y-45582150D01*
X67842132Y-45561107D01*
X67856747Y-45541401D01*
X67873223Y-45523223D01*
X67891401Y-45506747D01*
X67911107Y-45492132D01*
X67932150Y-45479520D01*
X67954329Y-45469030D01*
X67977428Y-45460765D01*
X68001227Y-45454804D01*
X68025495Y-45451204D01*
X68049999Y-45450000D01*
X68950001Y-45450000D01*
X68974505Y-45451204D01*
X68974505Y-45451204D01*
G37*
D13*
X68500000Y-46025000D03*
D11*
G36*
X53637676Y-99027980D02*
G01*
X53661944Y-99031580D01*
X53685743Y-99037541D01*
X53708842Y-99045806D01*
X53731021Y-99056296D01*
X53752064Y-99068908D01*
X53771770Y-99083523D01*
X53789948Y-99099999D01*
X54249569Y-99559620D01*
X54266045Y-99577798D01*
X54280660Y-99597504D01*
X54293272Y-99618547D01*
X54303762Y-99640726D01*
X54312027Y-99663825D01*
X54317988Y-99687624D01*
X54321588Y-99711892D01*
X54322792Y-99736396D01*
X54321588Y-99760900D01*
X54317988Y-99785168D01*
X54312027Y-99808967D01*
X54303762Y-99832066D01*
X54293272Y-99854245D01*
X54280660Y-99875288D01*
X54266045Y-99894994D01*
X54249569Y-99913172D01*
X53613172Y-100549569D01*
X53594994Y-100566045D01*
X53575288Y-100580660D01*
X53554245Y-100593272D01*
X53532066Y-100603762D01*
X53508967Y-100612027D01*
X53485168Y-100617988D01*
X53460900Y-100621588D01*
X53436396Y-100622792D01*
X53411892Y-100621588D01*
X53387624Y-100617988D01*
X53363825Y-100612027D01*
X53340726Y-100603762D01*
X53318547Y-100593272D01*
X53297504Y-100580660D01*
X53277798Y-100566045D01*
X53259620Y-100549569D01*
X52799999Y-100089948D01*
X52783523Y-100071770D01*
X52768908Y-100052064D01*
X52756296Y-100031021D01*
X52745806Y-100008842D01*
X52737541Y-99985743D01*
X52731580Y-99961944D01*
X52727980Y-99937676D01*
X52726776Y-99913172D01*
X52727980Y-99888668D01*
X52731580Y-99864400D01*
X52737541Y-99840601D01*
X52745806Y-99817502D01*
X52756296Y-99795323D01*
X52768908Y-99774280D01*
X52783523Y-99754574D01*
X52799999Y-99736396D01*
X53436396Y-99099999D01*
X53454574Y-99083523D01*
X53474280Y-99068908D01*
X53495323Y-99056296D01*
X53517502Y-99045806D01*
X53540601Y-99037541D01*
X53564400Y-99031580D01*
X53588668Y-99027980D01*
X53613172Y-99026776D01*
X53637676Y-99027980D01*
X53637676Y-99027980D01*
G37*
D13*
X53524784Y-99824784D03*
D11*
G36*
X52188108Y-97578412D02*
G01*
X52212376Y-97582012D01*
X52236175Y-97587973D01*
X52259274Y-97596238D01*
X52281453Y-97606728D01*
X52302496Y-97619340D01*
X52322202Y-97633955D01*
X52340380Y-97650431D01*
X52800001Y-98110052D01*
X52816477Y-98128230D01*
X52831092Y-98147936D01*
X52843704Y-98168979D01*
X52854194Y-98191158D01*
X52862459Y-98214257D01*
X52868420Y-98238056D01*
X52872020Y-98262324D01*
X52873224Y-98286828D01*
X52872020Y-98311332D01*
X52868420Y-98335600D01*
X52862459Y-98359399D01*
X52854194Y-98382498D01*
X52843704Y-98404677D01*
X52831092Y-98425720D01*
X52816477Y-98445426D01*
X52800001Y-98463604D01*
X52163604Y-99100001D01*
X52145426Y-99116477D01*
X52125720Y-99131092D01*
X52104677Y-99143704D01*
X52082498Y-99154194D01*
X52059399Y-99162459D01*
X52035600Y-99168420D01*
X52011332Y-99172020D01*
X51986828Y-99173224D01*
X51962324Y-99172020D01*
X51938056Y-99168420D01*
X51914257Y-99162459D01*
X51891158Y-99154194D01*
X51868979Y-99143704D01*
X51847936Y-99131092D01*
X51828230Y-99116477D01*
X51810052Y-99100001D01*
X51350431Y-98640380D01*
X51333955Y-98622202D01*
X51319340Y-98602496D01*
X51306728Y-98581453D01*
X51296238Y-98559274D01*
X51287973Y-98536175D01*
X51282012Y-98512376D01*
X51278412Y-98488108D01*
X51277208Y-98463604D01*
X51278412Y-98439100D01*
X51282012Y-98414832D01*
X51287973Y-98391033D01*
X51296238Y-98367934D01*
X51306728Y-98345755D01*
X51319340Y-98324712D01*
X51333955Y-98305006D01*
X51350431Y-98286828D01*
X51986828Y-97650431D01*
X52005006Y-97633955D01*
X52024712Y-97619340D01*
X52045755Y-97606728D01*
X52067934Y-97596238D01*
X52091033Y-97587973D01*
X52114832Y-97582012D01*
X52139100Y-97578412D01*
X52163604Y-97577208D01*
X52188108Y-97578412D01*
X52188108Y-97578412D01*
G37*
D13*
X52075216Y-98375216D03*
D11*
G36*
X40776568Y-23079032D02*
G01*
X40800970Y-23081570D01*
X40825006Y-23086487D01*
X40848443Y-23093737D01*
X41694169Y-23401555D01*
X41716784Y-23411067D01*
X41738358Y-23422750D01*
X41758682Y-23436491D01*
X41777562Y-23452158D01*
X41794815Y-23469601D01*
X41810275Y-23488650D01*
X41823794Y-23509123D01*
X41835241Y-23530823D01*
X41844506Y-23553540D01*
X41851499Y-23577055D01*
X41856154Y-23601144D01*
X41858426Y-23625572D01*
X41858292Y-23650105D01*
X41855754Y-23674507D01*
X41850837Y-23698543D01*
X41843587Y-23721982D01*
X41621273Y-24332784D01*
X41611761Y-24355398D01*
X41600078Y-24376972D01*
X41586337Y-24397296D01*
X41570670Y-24416176D01*
X41553227Y-24433429D01*
X41534178Y-24448889D01*
X41513705Y-24462408D01*
X41492005Y-24473855D01*
X41469288Y-24483120D01*
X41445772Y-24490114D01*
X41421684Y-24494769D01*
X41397256Y-24497040D01*
X41372722Y-24496906D01*
X41348320Y-24494368D01*
X41324284Y-24489451D01*
X41300847Y-24482201D01*
X40455121Y-24174383D01*
X40432506Y-24164871D01*
X40410932Y-24153188D01*
X40390608Y-24139447D01*
X40371728Y-24123780D01*
X40354475Y-24106337D01*
X40339015Y-24087288D01*
X40325496Y-24066815D01*
X40314049Y-24045115D01*
X40304784Y-24022398D01*
X40297791Y-23998883D01*
X40293136Y-23974794D01*
X40290864Y-23950366D01*
X40290998Y-23925833D01*
X40293536Y-23901431D01*
X40298453Y-23877395D01*
X40305703Y-23853956D01*
X40528017Y-23243154D01*
X40537529Y-23220540D01*
X40549212Y-23198966D01*
X40562953Y-23178642D01*
X40578620Y-23159762D01*
X40596063Y-23142509D01*
X40615112Y-23127049D01*
X40635585Y-23113530D01*
X40657285Y-23102083D01*
X40680002Y-23092818D01*
X40703518Y-23085824D01*
X40727606Y-23081169D01*
X40752034Y-23078898D01*
X40776568Y-23079032D01*
X40776568Y-23079032D01*
G37*
D13*
X41074645Y-23787969D03*
D11*
G36*
X41477710Y-21152662D02*
G01*
X41502112Y-21155200D01*
X41526148Y-21160117D01*
X41549585Y-21167367D01*
X42395311Y-21475185D01*
X42417926Y-21484697D01*
X42439500Y-21496380D01*
X42459824Y-21510121D01*
X42478704Y-21525788D01*
X42495957Y-21543231D01*
X42511417Y-21562280D01*
X42524936Y-21582753D01*
X42536383Y-21604453D01*
X42545648Y-21627170D01*
X42552641Y-21650685D01*
X42557296Y-21674774D01*
X42559568Y-21699202D01*
X42559434Y-21723735D01*
X42556896Y-21748137D01*
X42551979Y-21772173D01*
X42544729Y-21795612D01*
X42322415Y-22406414D01*
X42312903Y-22429028D01*
X42301220Y-22450602D01*
X42287479Y-22470926D01*
X42271812Y-22489806D01*
X42254369Y-22507059D01*
X42235320Y-22522519D01*
X42214847Y-22536038D01*
X42193147Y-22547485D01*
X42170430Y-22556750D01*
X42146914Y-22563744D01*
X42122826Y-22568399D01*
X42098398Y-22570670D01*
X42073864Y-22570536D01*
X42049462Y-22567998D01*
X42025426Y-22563081D01*
X42001989Y-22555831D01*
X41156263Y-22248013D01*
X41133648Y-22238501D01*
X41112074Y-22226818D01*
X41091750Y-22213077D01*
X41072870Y-22197410D01*
X41055617Y-22179967D01*
X41040157Y-22160918D01*
X41026638Y-22140445D01*
X41015191Y-22118745D01*
X41005926Y-22096028D01*
X40998933Y-22072513D01*
X40994278Y-22048424D01*
X40992006Y-22023996D01*
X40992140Y-21999463D01*
X40994678Y-21975061D01*
X40999595Y-21951025D01*
X41006845Y-21927586D01*
X41229159Y-21316784D01*
X41238671Y-21294170D01*
X41250354Y-21272596D01*
X41264095Y-21252272D01*
X41279762Y-21233392D01*
X41297205Y-21216139D01*
X41316254Y-21200679D01*
X41336727Y-21187160D01*
X41358427Y-21175713D01*
X41381144Y-21166448D01*
X41404660Y-21159454D01*
X41428748Y-21154799D01*
X41453176Y-21152528D01*
X41477710Y-21152662D01*
X41477710Y-21152662D01*
G37*
D13*
X41775787Y-21861599D03*
D11*
G36*
X93812460Y-77652764D02*
G01*
X93836728Y-77656364D01*
X93860527Y-77662325D01*
X93883626Y-77670590D01*
X93905805Y-77681080D01*
X93926848Y-77693692D01*
X93946554Y-77708307D01*
X93964732Y-77724783D01*
X94424353Y-78184404D01*
X94440829Y-78202582D01*
X94455444Y-78222288D01*
X94468056Y-78243331D01*
X94478546Y-78265510D01*
X94486811Y-78288609D01*
X94492772Y-78312408D01*
X94496372Y-78336676D01*
X94497576Y-78361180D01*
X94496372Y-78385684D01*
X94492772Y-78409952D01*
X94486811Y-78433751D01*
X94478546Y-78456850D01*
X94468056Y-78479029D01*
X94455444Y-78500072D01*
X94440829Y-78519778D01*
X94424353Y-78537956D01*
X93787956Y-79174353D01*
X93769778Y-79190829D01*
X93750072Y-79205444D01*
X93729029Y-79218056D01*
X93706850Y-79228546D01*
X93683751Y-79236811D01*
X93659952Y-79242772D01*
X93635684Y-79246372D01*
X93611180Y-79247576D01*
X93586676Y-79246372D01*
X93562408Y-79242772D01*
X93538609Y-79236811D01*
X93515510Y-79228546D01*
X93493331Y-79218056D01*
X93472288Y-79205444D01*
X93452582Y-79190829D01*
X93434404Y-79174353D01*
X92974783Y-78714732D01*
X92958307Y-78696554D01*
X92943692Y-78676848D01*
X92931080Y-78655805D01*
X92920590Y-78633626D01*
X92912325Y-78610527D01*
X92906364Y-78586728D01*
X92902764Y-78562460D01*
X92901560Y-78537956D01*
X92902764Y-78513452D01*
X92906364Y-78489184D01*
X92912325Y-78465385D01*
X92920590Y-78442286D01*
X92931080Y-78420107D01*
X92943692Y-78399064D01*
X92958307Y-78379358D01*
X92974783Y-78361180D01*
X93611180Y-77724783D01*
X93629358Y-77708307D01*
X93649064Y-77693692D01*
X93670107Y-77681080D01*
X93692286Y-77670590D01*
X93715385Y-77662325D01*
X93739184Y-77656364D01*
X93763452Y-77652764D01*
X93787956Y-77651560D01*
X93812460Y-77652764D01*
X93812460Y-77652764D01*
G37*
D13*
X93699568Y-78449568D03*
D11*
G36*
X92362892Y-76203196D02*
G01*
X92387160Y-76206796D01*
X92410959Y-76212757D01*
X92434058Y-76221022D01*
X92456237Y-76231512D01*
X92477280Y-76244124D01*
X92496986Y-76258739D01*
X92515164Y-76275215D01*
X92974785Y-76734836D01*
X92991261Y-76753014D01*
X93005876Y-76772720D01*
X93018488Y-76793763D01*
X93028978Y-76815942D01*
X93037243Y-76839041D01*
X93043204Y-76862840D01*
X93046804Y-76887108D01*
X93048008Y-76911612D01*
X93046804Y-76936116D01*
X93043204Y-76960384D01*
X93037243Y-76984183D01*
X93028978Y-77007282D01*
X93018488Y-77029461D01*
X93005876Y-77050504D01*
X92991261Y-77070210D01*
X92974785Y-77088388D01*
X92338388Y-77724785D01*
X92320210Y-77741261D01*
X92300504Y-77755876D01*
X92279461Y-77768488D01*
X92257282Y-77778978D01*
X92234183Y-77787243D01*
X92210384Y-77793204D01*
X92186116Y-77796804D01*
X92161612Y-77798008D01*
X92137108Y-77796804D01*
X92112840Y-77793204D01*
X92089041Y-77787243D01*
X92065942Y-77778978D01*
X92043763Y-77768488D01*
X92022720Y-77755876D01*
X92003014Y-77741261D01*
X91984836Y-77724785D01*
X91525215Y-77265164D01*
X91508739Y-77246986D01*
X91494124Y-77227280D01*
X91481512Y-77206237D01*
X91471022Y-77184058D01*
X91462757Y-77160959D01*
X91456796Y-77137160D01*
X91453196Y-77112892D01*
X91451992Y-77088388D01*
X91453196Y-77063884D01*
X91456796Y-77039616D01*
X91462757Y-77015817D01*
X91471022Y-76992718D01*
X91481512Y-76970539D01*
X91494124Y-76949496D01*
X91508739Y-76929790D01*
X91525215Y-76911612D01*
X92161612Y-76275215D01*
X92179790Y-76258739D01*
X92199496Y-76244124D01*
X92220539Y-76231512D01*
X92242718Y-76221022D01*
X92265817Y-76212757D01*
X92289616Y-76206796D01*
X92313884Y-76203196D01*
X92338388Y-76201992D01*
X92362892Y-76203196D01*
X92362892Y-76203196D01*
G37*
D13*
X92250000Y-77000000D03*
D11*
G36*
X81274505Y-81851204D02*
G01*
X81298773Y-81854804D01*
X81322572Y-81860765D01*
X81345671Y-81869030D01*
X81367850Y-81879520D01*
X81388893Y-81892132D01*
X81408599Y-81906747D01*
X81426777Y-81923223D01*
X81443253Y-81941401D01*
X81457868Y-81961107D01*
X81470480Y-81982150D01*
X81480970Y-82004329D01*
X81489235Y-82027428D01*
X81495196Y-82051227D01*
X81498796Y-82075495D01*
X81500000Y-82099999D01*
X81500000Y-82750001D01*
X81498796Y-82774505D01*
X81495196Y-82798773D01*
X81489235Y-82822572D01*
X81480970Y-82845671D01*
X81470480Y-82867850D01*
X81457868Y-82888893D01*
X81443253Y-82908599D01*
X81426777Y-82926777D01*
X81408599Y-82943253D01*
X81388893Y-82957868D01*
X81367850Y-82970480D01*
X81345671Y-82980970D01*
X81322572Y-82989235D01*
X81298773Y-82995196D01*
X81274505Y-82998796D01*
X81250001Y-83000000D01*
X80349999Y-83000000D01*
X80325495Y-82998796D01*
X80301227Y-82995196D01*
X80277428Y-82989235D01*
X80254329Y-82980970D01*
X80232150Y-82970480D01*
X80211107Y-82957868D01*
X80191401Y-82943253D01*
X80173223Y-82926777D01*
X80156747Y-82908599D01*
X80142132Y-82888893D01*
X80129520Y-82867850D01*
X80119030Y-82845671D01*
X80110765Y-82822572D01*
X80104804Y-82798773D01*
X80101204Y-82774505D01*
X80100000Y-82750001D01*
X80100000Y-82099999D01*
X80101204Y-82075495D01*
X80104804Y-82051227D01*
X80110765Y-82027428D01*
X80119030Y-82004329D01*
X80129520Y-81982150D01*
X80142132Y-81961107D01*
X80156747Y-81941401D01*
X80173223Y-81923223D01*
X80191401Y-81906747D01*
X80211107Y-81892132D01*
X80232150Y-81879520D01*
X80254329Y-81869030D01*
X80277428Y-81860765D01*
X80301227Y-81854804D01*
X80325495Y-81851204D01*
X80349999Y-81850000D01*
X81250001Y-81850000D01*
X81274505Y-81851204D01*
X81274505Y-81851204D01*
G37*
D13*
X80800000Y-82425000D03*
D11*
G36*
X81274505Y-83901204D02*
G01*
X81298773Y-83904804D01*
X81322572Y-83910765D01*
X81345671Y-83919030D01*
X81367850Y-83929520D01*
X81388893Y-83942132D01*
X81408599Y-83956747D01*
X81426777Y-83973223D01*
X81443253Y-83991401D01*
X81457868Y-84011107D01*
X81470480Y-84032150D01*
X81480970Y-84054329D01*
X81489235Y-84077428D01*
X81495196Y-84101227D01*
X81498796Y-84125495D01*
X81500000Y-84149999D01*
X81500000Y-84800001D01*
X81498796Y-84824505D01*
X81495196Y-84848773D01*
X81489235Y-84872572D01*
X81480970Y-84895671D01*
X81470480Y-84917850D01*
X81457868Y-84938893D01*
X81443253Y-84958599D01*
X81426777Y-84976777D01*
X81408599Y-84993253D01*
X81388893Y-85007868D01*
X81367850Y-85020480D01*
X81345671Y-85030970D01*
X81322572Y-85039235D01*
X81298773Y-85045196D01*
X81274505Y-85048796D01*
X81250001Y-85050000D01*
X80349999Y-85050000D01*
X80325495Y-85048796D01*
X80301227Y-85045196D01*
X80277428Y-85039235D01*
X80254329Y-85030970D01*
X80232150Y-85020480D01*
X80211107Y-85007868D01*
X80191401Y-84993253D01*
X80173223Y-84976777D01*
X80156747Y-84958599D01*
X80142132Y-84938893D01*
X80129520Y-84917850D01*
X80119030Y-84895671D01*
X80110765Y-84872572D01*
X80104804Y-84848773D01*
X80101204Y-84824505D01*
X80100000Y-84800001D01*
X80100000Y-84149999D01*
X80101204Y-84125495D01*
X80104804Y-84101227D01*
X80110765Y-84077428D01*
X80119030Y-84054329D01*
X80129520Y-84032150D01*
X80142132Y-84011107D01*
X80156747Y-83991401D01*
X80173223Y-83973223D01*
X80191401Y-83956747D01*
X80211107Y-83942132D01*
X80232150Y-83929520D01*
X80254329Y-83919030D01*
X80277428Y-83910765D01*
X80301227Y-83904804D01*
X80325495Y-83901204D01*
X80349999Y-83900000D01*
X81250001Y-83900000D01*
X81274505Y-83901204D01*
X81274505Y-83901204D01*
G37*
D13*
X80800000Y-84475000D03*
D11*
G36*
X20223640Y-48019061D02*
G01*
X20247728Y-48023716D01*
X20271244Y-48030710D01*
X20293961Y-48039975D01*
X20315661Y-48051422D01*
X20336134Y-48064941D01*
X20355183Y-48080401D01*
X20372626Y-48097654D01*
X20388293Y-48116534D01*
X20402034Y-48136858D01*
X20413717Y-48158432D01*
X20423229Y-48181047D01*
X20731047Y-49026773D01*
X20738297Y-49050211D01*
X20743214Y-49074247D01*
X20745752Y-49098649D01*
X20745886Y-49123182D01*
X20743614Y-49147610D01*
X20738959Y-49171699D01*
X20731966Y-49195214D01*
X20722701Y-49217931D01*
X20711254Y-49239631D01*
X20697735Y-49260104D01*
X20682275Y-49279153D01*
X20665022Y-49296596D01*
X20646142Y-49312263D01*
X20625818Y-49326004D01*
X20604244Y-49337687D01*
X20581630Y-49347199D01*
X19970828Y-49569513D01*
X19947390Y-49576763D01*
X19923354Y-49581680D01*
X19898952Y-49584218D01*
X19874418Y-49584352D01*
X19849990Y-49582081D01*
X19825902Y-49577426D01*
X19802386Y-49570432D01*
X19779669Y-49561167D01*
X19757969Y-49549720D01*
X19737496Y-49536201D01*
X19718447Y-49520741D01*
X19701004Y-49503488D01*
X19685337Y-49484608D01*
X19671596Y-49464284D01*
X19659913Y-49442710D01*
X19650401Y-49420095D01*
X19342583Y-48574369D01*
X19335333Y-48550931D01*
X19330416Y-48526895D01*
X19327878Y-48502493D01*
X19327744Y-48477960D01*
X19330016Y-48453532D01*
X19334671Y-48429443D01*
X19341664Y-48405928D01*
X19350929Y-48383211D01*
X19362376Y-48361511D01*
X19375895Y-48341038D01*
X19391355Y-48321989D01*
X19408608Y-48304546D01*
X19427488Y-48288879D01*
X19447812Y-48275138D01*
X19469386Y-48263455D01*
X19492000Y-48253943D01*
X20102802Y-48031629D01*
X20126240Y-48024379D01*
X20150276Y-48019462D01*
X20174678Y-48016924D01*
X20199212Y-48016790D01*
X20223640Y-48019061D01*
X20223640Y-48019061D01*
G37*
D13*
X20036815Y-48800571D03*
D11*
G36*
X22150010Y-47317919D02*
G01*
X22174098Y-47322574D01*
X22197614Y-47329568D01*
X22220331Y-47338833D01*
X22242031Y-47350280D01*
X22262504Y-47363799D01*
X22281553Y-47379259D01*
X22298996Y-47396512D01*
X22314663Y-47415392D01*
X22328404Y-47435716D01*
X22340087Y-47457290D01*
X22349599Y-47479905D01*
X22657417Y-48325631D01*
X22664667Y-48349069D01*
X22669584Y-48373105D01*
X22672122Y-48397507D01*
X22672256Y-48422040D01*
X22669984Y-48446468D01*
X22665329Y-48470557D01*
X22658336Y-48494072D01*
X22649071Y-48516789D01*
X22637624Y-48538489D01*
X22624105Y-48558962D01*
X22608645Y-48578011D01*
X22591392Y-48595454D01*
X22572512Y-48611121D01*
X22552188Y-48624862D01*
X22530614Y-48636545D01*
X22508000Y-48646057D01*
X21897198Y-48868371D01*
X21873760Y-48875621D01*
X21849724Y-48880538D01*
X21825322Y-48883076D01*
X21800788Y-48883210D01*
X21776360Y-48880939D01*
X21752272Y-48876284D01*
X21728756Y-48869290D01*
X21706039Y-48860025D01*
X21684339Y-48848578D01*
X21663866Y-48835059D01*
X21644817Y-48819599D01*
X21627374Y-48802346D01*
X21611707Y-48783466D01*
X21597966Y-48763142D01*
X21586283Y-48741568D01*
X21576771Y-48718953D01*
X21268953Y-47873227D01*
X21261703Y-47849789D01*
X21256786Y-47825753D01*
X21254248Y-47801351D01*
X21254114Y-47776818D01*
X21256386Y-47752390D01*
X21261041Y-47728301D01*
X21268034Y-47704786D01*
X21277299Y-47682069D01*
X21288746Y-47660369D01*
X21302265Y-47639896D01*
X21317725Y-47620847D01*
X21334978Y-47603404D01*
X21353858Y-47587737D01*
X21374182Y-47573996D01*
X21395756Y-47562313D01*
X21418370Y-47552801D01*
X22029172Y-47330487D01*
X22052610Y-47323237D01*
X22076646Y-47318320D01*
X22101048Y-47315782D01*
X22125582Y-47315648D01*
X22150010Y-47317919D01*
X22150010Y-47317919D01*
G37*
D13*
X21963185Y-48099429D03*
D11*
G36*
X55724505Y-60951204D02*
G01*
X55748773Y-60954804D01*
X55772572Y-60960765D01*
X55795671Y-60969030D01*
X55817850Y-60979520D01*
X55838893Y-60992132D01*
X55858599Y-61006747D01*
X55876777Y-61023223D01*
X55893253Y-61041401D01*
X55907868Y-61061107D01*
X55920480Y-61082150D01*
X55930970Y-61104329D01*
X55939235Y-61127428D01*
X55945196Y-61151227D01*
X55948796Y-61175495D01*
X55950000Y-61199999D01*
X55950000Y-61850001D01*
X55948796Y-61874505D01*
X55945196Y-61898773D01*
X55939235Y-61922572D01*
X55930970Y-61945671D01*
X55920480Y-61967850D01*
X55907868Y-61988893D01*
X55893253Y-62008599D01*
X55876777Y-62026777D01*
X55858599Y-62043253D01*
X55838893Y-62057868D01*
X55817850Y-62070480D01*
X55795671Y-62080970D01*
X55772572Y-62089235D01*
X55748773Y-62095196D01*
X55724505Y-62098796D01*
X55700001Y-62100000D01*
X54799999Y-62100000D01*
X54775495Y-62098796D01*
X54751227Y-62095196D01*
X54727428Y-62089235D01*
X54704329Y-62080970D01*
X54682150Y-62070480D01*
X54661107Y-62057868D01*
X54641401Y-62043253D01*
X54623223Y-62026777D01*
X54606747Y-62008599D01*
X54592132Y-61988893D01*
X54579520Y-61967850D01*
X54569030Y-61945671D01*
X54560765Y-61922572D01*
X54554804Y-61898773D01*
X54551204Y-61874505D01*
X54550000Y-61850001D01*
X54550000Y-61199999D01*
X54551204Y-61175495D01*
X54554804Y-61151227D01*
X54560765Y-61127428D01*
X54569030Y-61104329D01*
X54579520Y-61082150D01*
X54592132Y-61061107D01*
X54606747Y-61041401D01*
X54623223Y-61023223D01*
X54641401Y-61006747D01*
X54661107Y-60992132D01*
X54682150Y-60979520D01*
X54704329Y-60969030D01*
X54727428Y-60960765D01*
X54751227Y-60954804D01*
X54775495Y-60951204D01*
X54799999Y-60950000D01*
X55700001Y-60950000D01*
X55724505Y-60951204D01*
X55724505Y-60951204D01*
G37*
D13*
X55250000Y-61525000D03*
D11*
G36*
X55724505Y-58901204D02*
G01*
X55748773Y-58904804D01*
X55772572Y-58910765D01*
X55795671Y-58919030D01*
X55817850Y-58929520D01*
X55838893Y-58942132D01*
X55858599Y-58956747D01*
X55876777Y-58973223D01*
X55893253Y-58991401D01*
X55907868Y-59011107D01*
X55920480Y-59032150D01*
X55930970Y-59054329D01*
X55939235Y-59077428D01*
X55945196Y-59101227D01*
X55948796Y-59125495D01*
X55950000Y-59149999D01*
X55950000Y-59800001D01*
X55948796Y-59824505D01*
X55945196Y-59848773D01*
X55939235Y-59872572D01*
X55930970Y-59895671D01*
X55920480Y-59917850D01*
X55907868Y-59938893D01*
X55893253Y-59958599D01*
X55876777Y-59976777D01*
X55858599Y-59993253D01*
X55838893Y-60007868D01*
X55817850Y-60020480D01*
X55795671Y-60030970D01*
X55772572Y-60039235D01*
X55748773Y-60045196D01*
X55724505Y-60048796D01*
X55700001Y-60050000D01*
X54799999Y-60050000D01*
X54775495Y-60048796D01*
X54751227Y-60045196D01*
X54727428Y-60039235D01*
X54704329Y-60030970D01*
X54682150Y-60020480D01*
X54661107Y-60007868D01*
X54641401Y-59993253D01*
X54623223Y-59976777D01*
X54606747Y-59958599D01*
X54592132Y-59938893D01*
X54579520Y-59917850D01*
X54569030Y-59895671D01*
X54560765Y-59872572D01*
X54554804Y-59848773D01*
X54551204Y-59824505D01*
X54550000Y-59800001D01*
X54550000Y-59149999D01*
X54551204Y-59125495D01*
X54554804Y-59101227D01*
X54560765Y-59077428D01*
X54569030Y-59054329D01*
X54579520Y-59032150D01*
X54592132Y-59011107D01*
X54606747Y-58991401D01*
X54623223Y-58973223D01*
X54641401Y-58956747D01*
X54661107Y-58942132D01*
X54682150Y-58929520D01*
X54704329Y-58919030D01*
X54727428Y-58910765D01*
X54751227Y-58904804D01*
X54775495Y-58901204D01*
X54799999Y-58900000D01*
X55700001Y-58900000D01*
X55724505Y-58901204D01*
X55724505Y-58901204D01*
G37*
D13*
X55250000Y-59475000D03*
D14*
X77000000Y-48750000D03*
X77000000Y-45550000D03*
X72100000Y-48750000D03*
X72100000Y-45550000D03*
D15*
X85905735Y-47264493D03*
D11*
G36*
X86796775Y-47128303D02*
G01*
X86374157Y-48034611D01*
X85014695Y-47400683D01*
X85437313Y-46494375D01*
X86796775Y-47128303D01*
X86796775Y-47128303D01*
G37*
D15*
X84553357Y-50164678D03*
D11*
G36*
X85444397Y-50028488D02*
G01*
X85021779Y-50934796D01*
X83662317Y-50300868D01*
X84084935Y-49394560D01*
X85444397Y-50028488D01*
X85444397Y-50028488D01*
G37*
D15*
X90346643Y-49335322D03*
D11*
G36*
X91237683Y-49199132D02*
G01*
X90815065Y-50105440D01*
X89455603Y-49471512D01*
X89878221Y-48565204D01*
X91237683Y-49199132D01*
X91237683Y-49199132D01*
G37*
D15*
X88994265Y-52235507D03*
D11*
G36*
X89885305Y-52099317D02*
G01*
X89462687Y-53005625D01*
X88103225Y-52371697D01*
X88525843Y-51465389D01*
X89885305Y-52099317D01*
X89885305Y-52099317D01*
G37*
D15*
X97089359Y-60771762D03*
D11*
G36*
X97897372Y-61171281D02*
G01*
X97031346Y-61671281D01*
X96281346Y-60372243D01*
X97147372Y-59872243D01*
X97897372Y-61171281D01*
X97897372Y-61171281D01*
G37*
D15*
X99860641Y-59171762D03*
D11*
G36*
X100668654Y-59571281D02*
G01*
X99802628Y-60071281D01*
X99052628Y-58772243D01*
X99918654Y-58272243D01*
X100668654Y-59571281D01*
X100668654Y-59571281D01*
G37*
D15*
X94639359Y-56528238D03*
D11*
G36*
X95447372Y-56927757D02*
G01*
X94581346Y-57427757D01*
X93831346Y-56128719D01*
X94697372Y-55628719D01*
X95447372Y-56927757D01*
X95447372Y-56927757D01*
G37*
D15*
X97410641Y-54928238D03*
D11*
G36*
X98218654Y-55327757D02*
G01*
X97352628Y-55827757D01*
X96602628Y-54528719D01*
X97468654Y-54028719D01*
X98218654Y-55327757D01*
X98218654Y-55327757D01*
G37*
D15*
X99860641Y-71528238D03*
D11*
G36*
X99918654Y-72427757D02*
G01*
X99052628Y-71927757D01*
X99802628Y-70628719D01*
X100668654Y-71128719D01*
X99918654Y-72427757D01*
X99918654Y-72427757D01*
G37*
D15*
X97089359Y-69928238D03*
D11*
G36*
X97147372Y-70827757D02*
G01*
X96281346Y-70327757D01*
X97031346Y-69028719D01*
X97897372Y-69528719D01*
X97147372Y-70827757D01*
X97147372Y-70827757D01*
G37*
D15*
X97410641Y-75771762D03*
D11*
G36*
X97468654Y-76671281D02*
G01*
X96602628Y-76171281D01*
X97352628Y-74872243D01*
X98218654Y-75372243D01*
X97468654Y-76671281D01*
X97468654Y-76671281D01*
G37*
D15*
X94639359Y-74171762D03*
D11*
G36*
X94697372Y-75071281D02*
G01*
X93831346Y-74571281D01*
X94581346Y-73272243D01*
X95447372Y-73772243D01*
X94697372Y-75071281D01*
X94697372Y-75071281D01*
G37*
D15*
X90346643Y-81714678D03*
D11*
G36*
X89878221Y-82484796D02*
G01*
X89455603Y-81578488D01*
X90815065Y-80944560D01*
X91237683Y-81850868D01*
X89878221Y-82484796D01*
X89878221Y-82484796D01*
G37*
D15*
X88994265Y-78814493D03*
D11*
G36*
X88525843Y-79584611D02*
G01*
X88103225Y-78678303D01*
X89462687Y-78044375D01*
X89885305Y-78950683D01*
X88525843Y-79584611D01*
X88525843Y-79584611D01*
G37*
D15*
X85905735Y-83785507D03*
D11*
G36*
X85437313Y-84555625D02*
G01*
X85014695Y-83649317D01*
X86374157Y-83015389D01*
X86796775Y-83921697D01*
X85437313Y-84555625D01*
X85437313Y-84555625D01*
G37*
D15*
X84553357Y-80885322D03*
D11*
G36*
X84084935Y-81655440D02*
G01*
X83662317Y-80749132D01*
X85021779Y-80115204D01*
X85444397Y-81021512D01*
X84084935Y-81655440D01*
X84084935Y-81655440D01*
G37*
D14*
X71900000Y-81800000D03*
X71900000Y-85000000D03*
X76800000Y-81800000D03*
X76800000Y-85000000D03*
D15*
X65121762Y-83960641D03*
D11*
G36*
X64722243Y-84768654D02*
G01*
X64222243Y-83902628D01*
X65521281Y-83152628D01*
X66021281Y-84018654D01*
X64722243Y-84768654D01*
X64722243Y-84768654D01*
G37*
D15*
X63521762Y-81189359D03*
D11*
G36*
X63122243Y-81997372D02*
G01*
X62622243Y-81131346D01*
X63921281Y-80381346D01*
X64421281Y-81247372D01*
X63122243Y-81997372D01*
X63122243Y-81997372D01*
G37*
D15*
X60878238Y-86410641D03*
D11*
G36*
X60478719Y-87218654D02*
G01*
X59978719Y-86352628D01*
X61277757Y-85602628D01*
X61777757Y-86468654D01*
X60478719Y-87218654D01*
X60478719Y-87218654D01*
G37*
D15*
X59278238Y-83639359D03*
D11*
G36*
X58878719Y-84447372D02*
G01*
X58378719Y-83581346D01*
X59677757Y-82831346D01*
X60177757Y-83697372D01*
X58878719Y-84447372D01*
X58878719Y-84447372D01*
G37*
D15*
X53189359Y-94971762D03*
D11*
G36*
X53247372Y-95871281D02*
G01*
X52381346Y-95371281D01*
X53131346Y-94072243D01*
X53997372Y-94572243D01*
X53247372Y-95871281D01*
X53247372Y-95871281D01*
G37*
D15*
X55960641Y-96571762D03*
D11*
G36*
X56018654Y-97471281D02*
G01*
X55152628Y-96971281D01*
X55902628Y-95672243D01*
X56768654Y-96172243D01*
X56018654Y-97471281D01*
X56018654Y-97471281D01*
G37*
D15*
X55639359Y-90728238D03*
D11*
G36*
X55697372Y-91627757D02*
G01*
X54831346Y-91127757D01*
X55581346Y-89828719D01*
X56447372Y-90328719D01*
X55697372Y-91627757D01*
X55697372Y-91627757D01*
G37*
D15*
X58410641Y-92328238D03*
D11*
G36*
X58468654Y-93227757D02*
G01*
X57602628Y-92727757D01*
X58352628Y-91428719D01*
X59218654Y-91928719D01*
X58468654Y-93227757D01*
X58468654Y-93227757D01*
G37*
D15*
X50555269Y-103050841D03*
D11*
G36*
X50302129Y-103915954D02*
G01*
X49659342Y-103149909D01*
X50808409Y-102185728D01*
X51451196Y-102951773D01*
X50302129Y-103915954D01*
X50302129Y-103915954D01*
G37*
D15*
X48498349Y-100599499D03*
D11*
G36*
X48245209Y-101464612D02*
G01*
X47602422Y-100698567D01*
X48751489Y-99734386D01*
X49394276Y-100500431D01*
X48245209Y-101464612D01*
X48245209Y-101464612D01*
G37*
D15*
X46801651Y-106200501D03*
D11*
G36*
X46548511Y-107065614D02*
G01*
X45905724Y-106299569D01*
X47054791Y-105335388D01*
X47697578Y-106101433D01*
X46548511Y-107065614D01*
X46548511Y-107065614D01*
G37*
D15*
X44744731Y-103749159D03*
D11*
G36*
X44491591Y-104614272D02*
G01*
X43848804Y-103848227D01*
X44997871Y-102884046D01*
X45640658Y-103650091D01*
X44491591Y-104614272D01*
X44491591Y-104614272D01*
G37*
D15*
X33169874Y-107669620D03*
D11*
G36*
X32466306Y-108233084D02*
G01*
X32379150Y-107236889D01*
X33873442Y-107106156D01*
X33960598Y-108102351D01*
X32466306Y-108233084D01*
X32466306Y-108233084D01*
G37*
D15*
X33448772Y-110857443D03*
D11*
G36*
X32745204Y-111420907D02*
G01*
X32658048Y-110424712D01*
X34152340Y-110293979D01*
X34239496Y-111290174D01*
X32745204Y-111420907D01*
X32745204Y-111420907D01*
G37*
D15*
X38051228Y-107242557D03*
D11*
G36*
X37347660Y-107806021D02*
G01*
X37260504Y-106809826D01*
X38754796Y-106679093D01*
X38841952Y-107675288D01*
X37347660Y-107806021D01*
X37347660Y-107806021D01*
G37*
D15*
X38330126Y-110430380D03*
D11*
G36*
X37626558Y-110993844D02*
G01*
X37539402Y-109997649D01*
X39033694Y-109866916D01*
X39120850Y-110863111D01*
X37626558Y-110993844D01*
X37626558Y-110993844D01*
G37*
D15*
X21639359Y-103571762D03*
D11*
G36*
X20831346Y-103172243D02*
G01*
X21697372Y-102672243D01*
X22447372Y-103971281D01*
X21581346Y-104471281D01*
X20831346Y-103172243D01*
X20831346Y-103172243D01*
G37*
D15*
X24410641Y-101971762D03*
D11*
G36*
X23602628Y-101572243D02*
G01*
X24468654Y-101072243D01*
X25218654Y-102371281D01*
X24352628Y-102871281D01*
X23602628Y-101572243D01*
X23602628Y-101572243D01*
G37*
D15*
X19189359Y-99328238D03*
D11*
G36*
X18381346Y-98928719D02*
G01*
X19247372Y-98428719D01*
X19997372Y-99727757D01*
X19131346Y-100227757D01*
X18381346Y-98928719D01*
X18381346Y-98928719D01*
G37*
D15*
X21960641Y-97728238D03*
D11*
G36*
X21152628Y-97328719D02*
G01*
X22018654Y-96828719D01*
X22768654Y-98127757D01*
X21902628Y-98627757D01*
X21152628Y-97328719D01*
X21152628Y-97328719D01*
G37*
D15*
X22164420Y-84716197D03*
D11*
G36*
X21831280Y-83878630D02*
G01*
X22809428Y-84086542D01*
X22497560Y-85553764D01*
X21519412Y-85345852D01*
X21831280Y-83878630D01*
X21831280Y-83878630D01*
G37*
D15*
X19034347Y-84050880D03*
D11*
G36*
X18701207Y-83213313D02*
G01*
X19679355Y-83421225D01*
X19367487Y-84888447D01*
X18389339Y-84680535D01*
X18701207Y-83213313D01*
X18701207Y-83213313D01*
G37*
D15*
X21145653Y-89509120D03*
D11*
G36*
X20812513Y-88671553D02*
G01*
X21790661Y-88879465D01*
X21478793Y-90346687D01*
X20500645Y-90138775D01*
X20812513Y-88671553D01*
X20812513Y-88671553D01*
G37*
D15*
X18015580Y-88843803D03*
D11*
G36*
X17682440Y-88006236D02*
G01*
X18660588Y-88214148D01*
X18348720Y-89681370D01*
X17370572Y-89473458D01*
X17682440Y-88006236D01*
X17682440Y-88006236D01*
G37*
D15*
X27560641Y-73178238D03*
D11*
G36*
X27502628Y-72278719D02*
G01*
X28368654Y-72778719D01*
X27618654Y-74077757D01*
X26752628Y-73577757D01*
X27502628Y-72278719D01*
X27502628Y-72278719D01*
G37*
D15*
X24789359Y-71578238D03*
D11*
G36*
X24731346Y-70678719D02*
G01*
X25597372Y-71178719D01*
X24847372Y-72477757D01*
X23981346Y-71977757D01*
X24731346Y-70678719D01*
X24731346Y-70678719D01*
G37*
D15*
X25110641Y-77421762D03*
D11*
G36*
X25052628Y-76522243D02*
G01*
X25918654Y-77022243D01*
X25168654Y-78321281D01*
X24302628Y-77821281D01*
X25052628Y-76522243D01*
X25052628Y-76522243D01*
G37*
D15*
X22339359Y-75821762D03*
D11*
G36*
X22281346Y-74922243D02*
G01*
X23147372Y-75422243D01*
X22397372Y-76721281D01*
X21531346Y-76221281D01*
X22281346Y-74922243D01*
X22281346Y-74922243D01*
G37*
D15*
X24639359Y-58921762D03*
D11*
G36*
X23831346Y-58522243D02*
G01*
X24697372Y-58022243D01*
X25447372Y-59321281D01*
X24581346Y-59821281D01*
X23831346Y-58522243D01*
X23831346Y-58522243D01*
G37*
D15*
X27410641Y-57321762D03*
D11*
G36*
X26602628Y-56922243D02*
G01*
X27468654Y-56422243D01*
X28218654Y-57721281D01*
X27352628Y-58221281D01*
X26602628Y-56922243D01*
X26602628Y-56922243D01*
G37*
D15*
X22189359Y-54678238D03*
D11*
G36*
X21381346Y-54278719D02*
G01*
X22247372Y-53778719D01*
X22997372Y-55077757D01*
X22131346Y-55577757D01*
X21381346Y-54278719D01*
X21381346Y-54278719D01*
G37*
D15*
X24960641Y-53078238D03*
D11*
G36*
X24152628Y-52678719D02*
G01*
X25018654Y-52178719D01*
X25768654Y-53477757D01*
X24902628Y-53977757D01*
X24152628Y-52678719D01*
X24152628Y-52678719D01*
G37*
D15*
X20300254Y-38109384D03*
D11*
G36*
X19677614Y-37457602D02*
G01*
X20662422Y-37283954D01*
X20922894Y-38761166D01*
X19938086Y-38934814D01*
X19677614Y-37457602D01*
X19677614Y-37457602D01*
G37*
D15*
X17148870Y-38665058D03*
D11*
G36*
X16526230Y-38013276D02*
G01*
X17511038Y-37839628D01*
X17771510Y-39316840D01*
X16786702Y-39490488D01*
X16526230Y-38013276D01*
X16526230Y-38013276D01*
G37*
D15*
X21151130Y-42934942D03*
D11*
G36*
X20528490Y-42283160D02*
G01*
X21513298Y-42109512D01*
X21773770Y-43586724D01*
X20788962Y-43760372D01*
X20528490Y-42283160D01*
X20528490Y-42283160D01*
G37*
D15*
X17999746Y-43490616D03*
D11*
G36*
X17377106Y-42838834D02*
G01*
X18361914Y-42665186D01*
X18622386Y-44142398D01*
X17637578Y-44316046D01*
X17377106Y-42838834D01*
X17377106Y-42838834D01*
G37*
D15*
X24650501Y-27251651D03*
D11*
G36*
X24749569Y-26355724D02*
G01*
X25515614Y-26998511D01*
X24551433Y-28147578D01*
X23785388Y-27504791D01*
X24749569Y-26355724D01*
X24749569Y-26355724D01*
G37*
D15*
X22199159Y-25194731D03*
D11*
G36*
X22298227Y-24298804D02*
G01*
X23064272Y-24941591D01*
X22100091Y-26090658D01*
X21334046Y-25447871D01*
X22298227Y-24298804D01*
X22298227Y-24298804D01*
G37*
D15*
X21500841Y-31005269D03*
D11*
G36*
X21599909Y-30109342D02*
G01*
X22365954Y-30752129D01*
X21401773Y-31901196D01*
X20635728Y-31258409D01*
X21599909Y-30109342D01*
X21599909Y-30109342D01*
G37*
D15*
X19049499Y-28948349D03*
D11*
G36*
X19148567Y-28052422D02*
G01*
X19914612Y-28695209D01*
X18950431Y-29844276D01*
X18184386Y-29201489D01*
X19148567Y-28052422D01*
X19148567Y-28052422D01*
G37*
D15*
X36951228Y-23357443D03*
D11*
G36*
X37741952Y-22924712D02*
G01*
X37654796Y-23920907D01*
X36160504Y-23790174D01*
X36247660Y-22793979D01*
X37741952Y-22924712D01*
X37741952Y-22924712D01*
G37*
D15*
X37230126Y-20169620D03*
D11*
G36*
X38020850Y-19736889D02*
G01*
X37933694Y-20733084D01*
X36439402Y-20602351D01*
X36526558Y-19606156D01*
X38020850Y-19736889D01*
X38020850Y-19736889D01*
G37*
D15*
X32069874Y-22930380D03*
D11*
G36*
X32860598Y-22497649D02*
G01*
X32773442Y-23493844D01*
X31279150Y-23363111D01*
X31366306Y-22366916D01*
X32860598Y-22497649D01*
X32860598Y-22497649D01*
G37*
D15*
X32348772Y-19742557D03*
D11*
G36*
X33139496Y-19309826D02*
G01*
X33052340Y-20306021D01*
X31558048Y-20175288D01*
X31645204Y-19179093D01*
X33139496Y-19309826D01*
X33139496Y-19309826D01*
G37*
D15*
X46551651Y-23399499D03*
D11*
G36*
X47447578Y-23498567D02*
G01*
X46804791Y-24264612D01*
X45655724Y-23300431D01*
X46298511Y-22534386D01*
X47447578Y-23498567D01*
X47447578Y-23498567D01*
G37*
D15*
X44494731Y-25850841D03*
D11*
G36*
X45390658Y-25949909D02*
G01*
X44747871Y-26715954D01*
X43598804Y-25751773D01*
X44241591Y-24985728D01*
X45390658Y-25949909D01*
X45390658Y-25949909D01*
G37*
D15*
X50305269Y-26549159D03*
D11*
G36*
X51201196Y-26648227D02*
G01*
X50558409Y-27414272D01*
X49409342Y-26450091D01*
X50052129Y-25684046D01*
X51201196Y-26648227D01*
X51201196Y-26648227D01*
G37*
D15*
X48248349Y-29000501D03*
D11*
G36*
X49144276Y-29099569D02*
G01*
X48501489Y-29865614D01*
X47352422Y-28901433D01*
X47995209Y-28135388D01*
X49144276Y-29099569D01*
X49144276Y-29099569D01*
G37*
D15*
X55339359Y-39371762D03*
D11*
G36*
X56147372Y-39771281D02*
G01*
X55281346Y-40271281D01*
X54531346Y-38972243D01*
X55397372Y-38472243D01*
X56147372Y-39771281D01*
X56147372Y-39771281D01*
G37*
D15*
X58110641Y-37771762D03*
D11*
G36*
X58918654Y-38171281D02*
G01*
X58052628Y-38671281D01*
X57302628Y-37372243D01*
X58168654Y-36872243D01*
X58918654Y-38171281D01*
X58918654Y-38171281D01*
G37*
D15*
X52889359Y-35128238D03*
D11*
G36*
X53697372Y-35527757D02*
G01*
X52831346Y-36027757D01*
X52081346Y-34728719D01*
X52947372Y-34228719D01*
X53697372Y-35527757D01*
X53697372Y-35527757D01*
G37*
D15*
X55660641Y-33528238D03*
D11*
G36*
X56468654Y-33927757D02*
G01*
X55602628Y-34427757D01*
X54852628Y-33128719D01*
X55718654Y-32628719D01*
X56468654Y-33927757D01*
X56468654Y-33927757D01*
G37*
D15*
X60678238Y-43439359D03*
D11*
G36*
X61577757Y-43381346D02*
G01*
X61077757Y-44247372D01*
X59778719Y-43497372D01*
X60278719Y-42631346D01*
X61577757Y-43381346D01*
X61577757Y-43381346D01*
G37*
D15*
X59078238Y-46210641D03*
D11*
G36*
X59977757Y-46152628D02*
G01*
X59477757Y-47018654D01*
X58178719Y-46268654D01*
X58678719Y-45402628D01*
X59977757Y-46152628D01*
X59977757Y-46152628D01*
G37*
D15*
X64921762Y-45889359D03*
D11*
G36*
X65821281Y-45831346D02*
G01*
X65321281Y-46697372D01*
X64022243Y-45947372D01*
X64522243Y-45081346D01*
X65821281Y-45831346D01*
X65821281Y-45831346D01*
G37*
D15*
X63321762Y-48660641D03*
D11*
G36*
X64221281Y-48602628D02*
G01*
X63721281Y-49468654D01*
X62422243Y-48718654D01*
X62922243Y-47852628D01*
X64221281Y-48602628D01*
X64221281Y-48602628D01*
G37*
D16*
X64338614Y-63420376D03*
D11*
G36*
X65013529Y-63072899D02*
G01*
X65091670Y-63516063D01*
X63663699Y-63767853D01*
X63585558Y-63324689D01*
X65013529Y-63072899D01*
X65013529Y-63072899D01*
G37*
D16*
X64225742Y-62780251D03*
D11*
G36*
X64900657Y-62432774D02*
G01*
X64978798Y-62875938D01*
X63550827Y-63127728D01*
X63472686Y-62684564D01*
X64900657Y-62432774D01*
X64900657Y-62432774D01*
G37*
D16*
X64112871Y-62140125D03*
D11*
G36*
X64787786Y-61792648D02*
G01*
X64865927Y-62235812D01*
X63437956Y-62487602D01*
X63359815Y-62044438D01*
X64787786Y-61792648D01*
X64787786Y-61792648D01*
G37*
D16*
X64000000Y-61500000D03*
D11*
G36*
X64674915Y-61152523D02*
G01*
X64753056Y-61595687D01*
X63325085Y-61847477D01*
X63246944Y-61404313D01*
X64674915Y-61152523D01*
X64674915Y-61152523D01*
G37*
D16*
X63887129Y-60859875D03*
D11*
G36*
X64562044Y-60512398D02*
G01*
X64640185Y-60955562D01*
X63212214Y-61207352D01*
X63134073Y-60764188D01*
X64562044Y-60512398D01*
X64562044Y-60512398D01*
G37*
D16*
X63774257Y-60219750D03*
D11*
G36*
X64449172Y-59872273D02*
G01*
X64527313Y-60315437D01*
X63099342Y-60567227D01*
X63021201Y-60124063D01*
X64449172Y-59872273D01*
X64449172Y-59872273D01*
G37*
D16*
X63661386Y-59579625D03*
D11*
G36*
X64336301Y-59232148D02*
G01*
X64414442Y-59675312D01*
X62986471Y-59927102D01*
X62908330Y-59483938D01*
X64336301Y-59232148D01*
X64336301Y-59232148D01*
G37*
D16*
X63548515Y-58939500D03*
D11*
G36*
X64223430Y-58592023D02*
G01*
X64301571Y-59035187D01*
X62873600Y-59286977D01*
X62795459Y-58843813D01*
X64223430Y-58592023D01*
X64223430Y-58592023D01*
G37*
D16*
X63435643Y-58299375D03*
D11*
G36*
X64110558Y-57951898D02*
G01*
X64188699Y-58395062D01*
X62760728Y-58646852D01*
X62682587Y-58203688D01*
X64110558Y-57951898D01*
X64110558Y-57951898D01*
G37*
D16*
X63322772Y-57659250D03*
D11*
G36*
X63997687Y-57311773D02*
G01*
X64075828Y-57754937D01*
X62647857Y-58006727D01*
X62569716Y-57563563D01*
X63997687Y-57311773D01*
X63997687Y-57311773D01*
G37*
D16*
X57512406Y-58683774D03*
D11*
G36*
X58187321Y-58336297D02*
G01*
X58265462Y-58779461D01*
X56837491Y-59031251D01*
X56759350Y-58588087D01*
X58187321Y-58336297D01*
X58187321Y-58336297D01*
G37*
D16*
X57625278Y-59323899D03*
D11*
G36*
X58300193Y-58976422D02*
G01*
X58378334Y-59419586D01*
X56950363Y-59671376D01*
X56872222Y-59228212D01*
X58300193Y-58976422D01*
X58300193Y-58976422D01*
G37*
D16*
X57738149Y-59964025D03*
D11*
G36*
X58413064Y-59616548D02*
G01*
X58491205Y-60059712D01*
X57063234Y-60311502D01*
X56985093Y-59868338D01*
X58413064Y-59616548D01*
X58413064Y-59616548D01*
G37*
D16*
X57851020Y-60604150D03*
D11*
G36*
X58525935Y-60256673D02*
G01*
X58604076Y-60699837D01*
X57176105Y-60951627D01*
X57097964Y-60508463D01*
X58525935Y-60256673D01*
X58525935Y-60256673D01*
G37*
D16*
X57963891Y-61244275D03*
D11*
G36*
X58638806Y-60896798D02*
G01*
X58716947Y-61339962D01*
X57288976Y-61591752D01*
X57210835Y-61148588D01*
X58638806Y-60896798D01*
X58638806Y-60896798D01*
G37*
D16*
X58076763Y-61884400D03*
D11*
G36*
X58751678Y-61536923D02*
G01*
X58829819Y-61980087D01*
X57401848Y-62231877D01*
X57323707Y-61788713D01*
X58751678Y-61536923D01*
X58751678Y-61536923D01*
G37*
D16*
X58189634Y-62524525D03*
D11*
G36*
X58864549Y-62177048D02*
G01*
X58942690Y-62620212D01*
X57514719Y-62872002D01*
X57436578Y-62428838D01*
X58864549Y-62177048D01*
X58864549Y-62177048D01*
G37*
D16*
X58302505Y-63164650D03*
D11*
G36*
X58977420Y-62817173D02*
G01*
X59055561Y-63260337D01*
X57627590Y-63512127D01*
X57549449Y-63068963D01*
X58977420Y-62817173D01*
X58977420Y-62817173D01*
G37*
D16*
X58415377Y-63804775D03*
D11*
G36*
X59090292Y-63457298D02*
G01*
X59168433Y-63900462D01*
X57740462Y-64152252D01*
X57662321Y-63709088D01*
X59090292Y-63457298D01*
X59090292Y-63457298D01*
G37*
D16*
X58528248Y-64444900D03*
D11*
G36*
X59203163Y-64097423D02*
G01*
X59281304Y-64540587D01*
X57853333Y-64792377D01*
X57775192Y-64349213D01*
X59203163Y-64097423D01*
X59203163Y-64097423D01*
G37*
G36*
X81724505Y-46151204D02*
G01*
X81748773Y-46154804D01*
X81772572Y-46160765D01*
X81795671Y-46169030D01*
X81817850Y-46179520D01*
X81838893Y-46192132D01*
X81858599Y-46206747D01*
X81876777Y-46223223D01*
X81893253Y-46241401D01*
X81907868Y-46261107D01*
X81920480Y-46282150D01*
X81930970Y-46304329D01*
X81939235Y-46327428D01*
X81945196Y-46351227D01*
X81948796Y-46375495D01*
X81950000Y-46399999D01*
X81950000Y-47050001D01*
X81948796Y-47074505D01*
X81945196Y-47098773D01*
X81939235Y-47122572D01*
X81930970Y-47145671D01*
X81920480Y-47167850D01*
X81907868Y-47188893D01*
X81893253Y-47208599D01*
X81876777Y-47226777D01*
X81858599Y-47243253D01*
X81838893Y-47257868D01*
X81817850Y-47270480D01*
X81795671Y-47280970D01*
X81772572Y-47289235D01*
X81748773Y-47295196D01*
X81724505Y-47298796D01*
X81700001Y-47300000D01*
X80799999Y-47300000D01*
X80775495Y-47298796D01*
X80751227Y-47295196D01*
X80727428Y-47289235D01*
X80704329Y-47280970D01*
X80682150Y-47270480D01*
X80661107Y-47257868D01*
X80641401Y-47243253D01*
X80623223Y-47226777D01*
X80606747Y-47208599D01*
X80592132Y-47188893D01*
X80579520Y-47167850D01*
X80569030Y-47145671D01*
X80560765Y-47122572D01*
X80554804Y-47098773D01*
X80551204Y-47074505D01*
X80550000Y-47050001D01*
X80550000Y-46399999D01*
X80551204Y-46375495D01*
X80554804Y-46351227D01*
X80560765Y-46327428D01*
X80569030Y-46304329D01*
X80579520Y-46282150D01*
X80592132Y-46261107D01*
X80606747Y-46241401D01*
X80623223Y-46223223D01*
X80641401Y-46206747D01*
X80661107Y-46192132D01*
X80682150Y-46179520D01*
X80704329Y-46169030D01*
X80727428Y-46160765D01*
X80751227Y-46154804D01*
X80775495Y-46151204D01*
X80799999Y-46150000D01*
X81700001Y-46150000D01*
X81724505Y-46151204D01*
X81724505Y-46151204D01*
G37*
D13*
X81250000Y-46725000D03*
D11*
G36*
X81724505Y-48201204D02*
G01*
X81748773Y-48204804D01*
X81772572Y-48210765D01*
X81795671Y-48219030D01*
X81817850Y-48229520D01*
X81838893Y-48242132D01*
X81858599Y-48256747D01*
X81876777Y-48273223D01*
X81893253Y-48291401D01*
X81907868Y-48311107D01*
X81920480Y-48332150D01*
X81930970Y-48354329D01*
X81939235Y-48377428D01*
X81945196Y-48401227D01*
X81948796Y-48425495D01*
X81950000Y-48449999D01*
X81950000Y-49100001D01*
X81948796Y-49124505D01*
X81945196Y-49148773D01*
X81939235Y-49172572D01*
X81930970Y-49195671D01*
X81920480Y-49217850D01*
X81907868Y-49238893D01*
X81893253Y-49258599D01*
X81876777Y-49276777D01*
X81858599Y-49293253D01*
X81838893Y-49307868D01*
X81817850Y-49320480D01*
X81795671Y-49330970D01*
X81772572Y-49339235D01*
X81748773Y-49345196D01*
X81724505Y-49348796D01*
X81700001Y-49350000D01*
X80799999Y-49350000D01*
X80775495Y-49348796D01*
X80751227Y-49345196D01*
X80727428Y-49339235D01*
X80704329Y-49330970D01*
X80682150Y-49320480D01*
X80661107Y-49307868D01*
X80641401Y-49293253D01*
X80623223Y-49276777D01*
X80606747Y-49258599D01*
X80592132Y-49238893D01*
X80579520Y-49217850D01*
X80569030Y-49195671D01*
X80560765Y-49172572D01*
X80554804Y-49148773D01*
X80551204Y-49124505D01*
X80550000Y-49100001D01*
X80550000Y-48449999D01*
X80551204Y-48425495D01*
X80554804Y-48401227D01*
X80560765Y-48377428D01*
X80569030Y-48354329D01*
X80579520Y-48332150D01*
X80592132Y-48311107D01*
X80606747Y-48291401D01*
X80623223Y-48273223D01*
X80641401Y-48256747D01*
X80661107Y-48242132D01*
X80682150Y-48229520D01*
X80704329Y-48219030D01*
X80727428Y-48210765D01*
X80751227Y-48204804D01*
X80775495Y-48201204D01*
X80799999Y-48200000D01*
X81700001Y-48200000D01*
X81724505Y-48201204D01*
X81724505Y-48201204D01*
G37*
D13*
X81250000Y-48775000D03*
D11*
G36*
X44504505Y-82551204D02*
G01*
X44528773Y-82554804D01*
X44552572Y-82560765D01*
X44575671Y-82569030D01*
X44597850Y-82579520D01*
X44618893Y-82592132D01*
X44638599Y-82606747D01*
X44656777Y-82623223D01*
X44673253Y-82641401D01*
X44687868Y-82661107D01*
X44700480Y-82682150D01*
X44710970Y-82704329D01*
X44719235Y-82727428D01*
X44725196Y-82751227D01*
X44728796Y-82775495D01*
X44730000Y-82799999D01*
X44730000Y-83700001D01*
X44728796Y-83724505D01*
X44725196Y-83748773D01*
X44719235Y-83772572D01*
X44710970Y-83795671D01*
X44700480Y-83817850D01*
X44687868Y-83838893D01*
X44673253Y-83858599D01*
X44656777Y-83876777D01*
X44638599Y-83893253D01*
X44618893Y-83907868D01*
X44597850Y-83920480D01*
X44575671Y-83930970D01*
X44552572Y-83939235D01*
X44528773Y-83945196D01*
X44504505Y-83948796D01*
X44480001Y-83950000D01*
X43829999Y-83950000D01*
X43805495Y-83948796D01*
X43781227Y-83945196D01*
X43757428Y-83939235D01*
X43734329Y-83930970D01*
X43712150Y-83920480D01*
X43691107Y-83907868D01*
X43671401Y-83893253D01*
X43653223Y-83876777D01*
X43636747Y-83858599D01*
X43622132Y-83838893D01*
X43609520Y-83817850D01*
X43599030Y-83795671D01*
X43590765Y-83772572D01*
X43584804Y-83748773D01*
X43581204Y-83724505D01*
X43580000Y-83700001D01*
X43580000Y-82799999D01*
X43581204Y-82775495D01*
X43584804Y-82751227D01*
X43590765Y-82727428D01*
X43599030Y-82704329D01*
X43609520Y-82682150D01*
X43622132Y-82661107D01*
X43636747Y-82641401D01*
X43653223Y-82623223D01*
X43671401Y-82606747D01*
X43691107Y-82592132D01*
X43712150Y-82579520D01*
X43734329Y-82569030D01*
X43757428Y-82560765D01*
X43781227Y-82554804D01*
X43805495Y-82551204D01*
X43829999Y-82550000D01*
X44480001Y-82550000D01*
X44504505Y-82551204D01*
X44504505Y-82551204D01*
G37*
D13*
X44155000Y-83250000D03*
D11*
G36*
X42454505Y-82551204D02*
G01*
X42478773Y-82554804D01*
X42502572Y-82560765D01*
X42525671Y-82569030D01*
X42547850Y-82579520D01*
X42568893Y-82592132D01*
X42588599Y-82606747D01*
X42606777Y-82623223D01*
X42623253Y-82641401D01*
X42637868Y-82661107D01*
X42650480Y-82682150D01*
X42660970Y-82704329D01*
X42669235Y-82727428D01*
X42675196Y-82751227D01*
X42678796Y-82775495D01*
X42680000Y-82799999D01*
X42680000Y-83700001D01*
X42678796Y-83724505D01*
X42675196Y-83748773D01*
X42669235Y-83772572D01*
X42660970Y-83795671D01*
X42650480Y-83817850D01*
X42637868Y-83838893D01*
X42623253Y-83858599D01*
X42606777Y-83876777D01*
X42588599Y-83893253D01*
X42568893Y-83907868D01*
X42547850Y-83920480D01*
X42525671Y-83930970D01*
X42502572Y-83939235D01*
X42478773Y-83945196D01*
X42454505Y-83948796D01*
X42430001Y-83950000D01*
X41779999Y-83950000D01*
X41755495Y-83948796D01*
X41731227Y-83945196D01*
X41707428Y-83939235D01*
X41684329Y-83930970D01*
X41662150Y-83920480D01*
X41641107Y-83907868D01*
X41621401Y-83893253D01*
X41603223Y-83876777D01*
X41586747Y-83858599D01*
X41572132Y-83838893D01*
X41559520Y-83817850D01*
X41549030Y-83795671D01*
X41540765Y-83772572D01*
X41534804Y-83748773D01*
X41531204Y-83724505D01*
X41530000Y-83700001D01*
X41530000Y-82799999D01*
X41531204Y-82775495D01*
X41534804Y-82751227D01*
X41540765Y-82727428D01*
X41549030Y-82704329D01*
X41559520Y-82682150D01*
X41572132Y-82661107D01*
X41586747Y-82641401D01*
X41603223Y-82623223D01*
X41621401Y-82606747D01*
X41641107Y-82592132D01*
X41662150Y-82579520D01*
X41684329Y-82569030D01*
X41707428Y-82560765D01*
X41731227Y-82554804D01*
X41755495Y-82551204D01*
X41779999Y-82550000D01*
X42430001Y-82550000D01*
X42454505Y-82551204D01*
X42454505Y-82551204D01*
G37*
D13*
X42105000Y-83250000D03*
D11*
G36*
X54569505Y-73551204D02*
G01*
X54593773Y-73554804D01*
X54617572Y-73560765D01*
X54640671Y-73569030D01*
X54662850Y-73579520D01*
X54683893Y-73592132D01*
X54703599Y-73606747D01*
X54721777Y-73623223D01*
X54738253Y-73641401D01*
X54752868Y-73661107D01*
X54765480Y-73682150D01*
X54775970Y-73704329D01*
X54784235Y-73727428D01*
X54790196Y-73751227D01*
X54793796Y-73775495D01*
X54795000Y-73799999D01*
X54795000Y-74700001D01*
X54793796Y-74724505D01*
X54790196Y-74748773D01*
X54784235Y-74772572D01*
X54775970Y-74795671D01*
X54765480Y-74817850D01*
X54752868Y-74838893D01*
X54738253Y-74858599D01*
X54721777Y-74876777D01*
X54703599Y-74893253D01*
X54683893Y-74907868D01*
X54662850Y-74920480D01*
X54640671Y-74930970D01*
X54617572Y-74939235D01*
X54593773Y-74945196D01*
X54569505Y-74948796D01*
X54545001Y-74950000D01*
X53894999Y-74950000D01*
X53870495Y-74948796D01*
X53846227Y-74945196D01*
X53822428Y-74939235D01*
X53799329Y-74930970D01*
X53777150Y-74920480D01*
X53756107Y-74907868D01*
X53736401Y-74893253D01*
X53718223Y-74876777D01*
X53701747Y-74858599D01*
X53687132Y-74838893D01*
X53674520Y-74817850D01*
X53664030Y-74795671D01*
X53655765Y-74772572D01*
X53649804Y-74748773D01*
X53646204Y-74724505D01*
X53645000Y-74700001D01*
X53645000Y-73799999D01*
X53646204Y-73775495D01*
X53649804Y-73751227D01*
X53655765Y-73727428D01*
X53664030Y-73704329D01*
X53674520Y-73682150D01*
X53687132Y-73661107D01*
X53701747Y-73641401D01*
X53718223Y-73623223D01*
X53736401Y-73606747D01*
X53756107Y-73592132D01*
X53777150Y-73579520D01*
X53799329Y-73569030D01*
X53822428Y-73560765D01*
X53846227Y-73554804D01*
X53870495Y-73551204D01*
X53894999Y-73550000D01*
X54545001Y-73550000D01*
X54569505Y-73551204D01*
X54569505Y-73551204D01*
G37*
D13*
X54220000Y-74250000D03*
D11*
G36*
X56619505Y-73551204D02*
G01*
X56643773Y-73554804D01*
X56667572Y-73560765D01*
X56690671Y-73569030D01*
X56712850Y-73579520D01*
X56733893Y-73592132D01*
X56753599Y-73606747D01*
X56771777Y-73623223D01*
X56788253Y-73641401D01*
X56802868Y-73661107D01*
X56815480Y-73682150D01*
X56825970Y-73704329D01*
X56834235Y-73727428D01*
X56840196Y-73751227D01*
X56843796Y-73775495D01*
X56845000Y-73799999D01*
X56845000Y-74700001D01*
X56843796Y-74724505D01*
X56840196Y-74748773D01*
X56834235Y-74772572D01*
X56825970Y-74795671D01*
X56815480Y-74817850D01*
X56802868Y-74838893D01*
X56788253Y-74858599D01*
X56771777Y-74876777D01*
X56753599Y-74893253D01*
X56733893Y-74907868D01*
X56712850Y-74920480D01*
X56690671Y-74930970D01*
X56667572Y-74939235D01*
X56643773Y-74945196D01*
X56619505Y-74948796D01*
X56595001Y-74950000D01*
X55944999Y-74950000D01*
X55920495Y-74948796D01*
X55896227Y-74945196D01*
X55872428Y-74939235D01*
X55849329Y-74930970D01*
X55827150Y-74920480D01*
X55806107Y-74907868D01*
X55786401Y-74893253D01*
X55768223Y-74876777D01*
X55751747Y-74858599D01*
X55737132Y-74838893D01*
X55724520Y-74817850D01*
X55714030Y-74795671D01*
X55705765Y-74772572D01*
X55699804Y-74748773D01*
X55696204Y-74724505D01*
X55695000Y-74700001D01*
X55695000Y-73799999D01*
X55696204Y-73775495D01*
X55699804Y-73751227D01*
X55705765Y-73727428D01*
X55714030Y-73704329D01*
X55724520Y-73682150D01*
X55737132Y-73661107D01*
X55751747Y-73641401D01*
X55768223Y-73623223D01*
X55786401Y-73606747D01*
X55806107Y-73592132D01*
X55827150Y-73579520D01*
X55849329Y-73569030D01*
X55872428Y-73560765D01*
X55896227Y-73554804D01*
X55920495Y-73551204D01*
X55944999Y-73550000D01*
X56595001Y-73550000D01*
X56619505Y-73551204D01*
X56619505Y-73551204D01*
G37*
D13*
X56270000Y-74250000D03*
D11*
G36*
X44124505Y-76301204D02*
G01*
X44148773Y-76304804D01*
X44172572Y-76310765D01*
X44195671Y-76319030D01*
X44217850Y-76329520D01*
X44238893Y-76342132D01*
X44258599Y-76356747D01*
X44276777Y-76373223D01*
X44293253Y-76391401D01*
X44307868Y-76411107D01*
X44320480Y-76432150D01*
X44330970Y-76454329D01*
X44339235Y-76477428D01*
X44345196Y-76501227D01*
X44348796Y-76525495D01*
X44350000Y-76549999D01*
X44350000Y-77450001D01*
X44348796Y-77474505D01*
X44345196Y-77498773D01*
X44339235Y-77522572D01*
X44330970Y-77545671D01*
X44320480Y-77567850D01*
X44307868Y-77588893D01*
X44293253Y-77608599D01*
X44276777Y-77626777D01*
X44258599Y-77643253D01*
X44238893Y-77657868D01*
X44217850Y-77670480D01*
X44195671Y-77680970D01*
X44172572Y-77689235D01*
X44148773Y-77695196D01*
X44124505Y-77698796D01*
X44100001Y-77700000D01*
X43449999Y-77700000D01*
X43425495Y-77698796D01*
X43401227Y-77695196D01*
X43377428Y-77689235D01*
X43354329Y-77680970D01*
X43332150Y-77670480D01*
X43311107Y-77657868D01*
X43291401Y-77643253D01*
X43273223Y-77626777D01*
X43256747Y-77608599D01*
X43242132Y-77588893D01*
X43229520Y-77567850D01*
X43219030Y-77545671D01*
X43210765Y-77522572D01*
X43204804Y-77498773D01*
X43201204Y-77474505D01*
X43200000Y-77450001D01*
X43200000Y-76549999D01*
X43201204Y-76525495D01*
X43204804Y-76501227D01*
X43210765Y-76477428D01*
X43219030Y-76454329D01*
X43229520Y-76432150D01*
X43242132Y-76411107D01*
X43256747Y-76391401D01*
X43273223Y-76373223D01*
X43291401Y-76356747D01*
X43311107Y-76342132D01*
X43332150Y-76329520D01*
X43354329Y-76319030D01*
X43377428Y-76310765D01*
X43401227Y-76304804D01*
X43425495Y-76301204D01*
X43449999Y-76300000D01*
X44100001Y-76300000D01*
X44124505Y-76301204D01*
X44124505Y-76301204D01*
G37*
D13*
X43775000Y-77000000D03*
D11*
G36*
X42074505Y-76301204D02*
G01*
X42098773Y-76304804D01*
X42122572Y-76310765D01*
X42145671Y-76319030D01*
X42167850Y-76329520D01*
X42188893Y-76342132D01*
X42208599Y-76356747D01*
X42226777Y-76373223D01*
X42243253Y-76391401D01*
X42257868Y-76411107D01*
X42270480Y-76432150D01*
X42280970Y-76454329D01*
X42289235Y-76477428D01*
X42295196Y-76501227D01*
X42298796Y-76525495D01*
X42300000Y-76549999D01*
X42300000Y-77450001D01*
X42298796Y-77474505D01*
X42295196Y-77498773D01*
X42289235Y-77522572D01*
X42280970Y-77545671D01*
X42270480Y-77567850D01*
X42257868Y-77588893D01*
X42243253Y-77608599D01*
X42226777Y-77626777D01*
X42208599Y-77643253D01*
X42188893Y-77657868D01*
X42167850Y-77670480D01*
X42145671Y-77680970D01*
X42122572Y-77689235D01*
X42098773Y-77695196D01*
X42074505Y-77698796D01*
X42050001Y-77700000D01*
X41399999Y-77700000D01*
X41375495Y-77698796D01*
X41351227Y-77695196D01*
X41327428Y-77689235D01*
X41304329Y-77680970D01*
X41282150Y-77670480D01*
X41261107Y-77657868D01*
X41241401Y-77643253D01*
X41223223Y-77626777D01*
X41206747Y-77608599D01*
X41192132Y-77588893D01*
X41179520Y-77567850D01*
X41169030Y-77545671D01*
X41160765Y-77522572D01*
X41154804Y-77498773D01*
X41151204Y-77474505D01*
X41150000Y-77450001D01*
X41150000Y-76549999D01*
X41151204Y-76525495D01*
X41154804Y-76501227D01*
X41160765Y-76477428D01*
X41169030Y-76454329D01*
X41179520Y-76432150D01*
X41192132Y-76411107D01*
X41206747Y-76391401D01*
X41223223Y-76373223D01*
X41241401Y-76356747D01*
X41261107Y-76342132D01*
X41282150Y-76329520D01*
X41304329Y-76319030D01*
X41327428Y-76310765D01*
X41351227Y-76304804D01*
X41375495Y-76301204D01*
X41399999Y-76300000D01*
X42050001Y-76300000D01*
X42074505Y-76301204D01*
X42074505Y-76301204D01*
G37*
D13*
X41725000Y-77000000D03*
D11*
G36*
X47224505Y-88201204D02*
G01*
X47248773Y-88204804D01*
X47272572Y-88210765D01*
X47295671Y-88219030D01*
X47317850Y-88229520D01*
X47338893Y-88242132D01*
X47358599Y-88256747D01*
X47376777Y-88273223D01*
X47393253Y-88291401D01*
X47407868Y-88311107D01*
X47420480Y-88332150D01*
X47430970Y-88354329D01*
X47439235Y-88377428D01*
X47445196Y-88401227D01*
X47448796Y-88425495D01*
X47450000Y-88449999D01*
X47450000Y-89100001D01*
X47448796Y-89124505D01*
X47445196Y-89148773D01*
X47439235Y-89172572D01*
X47430970Y-89195671D01*
X47420480Y-89217850D01*
X47407868Y-89238893D01*
X47393253Y-89258599D01*
X47376777Y-89276777D01*
X47358599Y-89293253D01*
X47338893Y-89307868D01*
X47317850Y-89320480D01*
X47295671Y-89330970D01*
X47272572Y-89339235D01*
X47248773Y-89345196D01*
X47224505Y-89348796D01*
X47200001Y-89350000D01*
X46299999Y-89350000D01*
X46275495Y-89348796D01*
X46251227Y-89345196D01*
X46227428Y-89339235D01*
X46204329Y-89330970D01*
X46182150Y-89320480D01*
X46161107Y-89307868D01*
X46141401Y-89293253D01*
X46123223Y-89276777D01*
X46106747Y-89258599D01*
X46092132Y-89238893D01*
X46079520Y-89217850D01*
X46069030Y-89195671D01*
X46060765Y-89172572D01*
X46054804Y-89148773D01*
X46051204Y-89124505D01*
X46050000Y-89100001D01*
X46050000Y-88449999D01*
X46051204Y-88425495D01*
X46054804Y-88401227D01*
X46060765Y-88377428D01*
X46069030Y-88354329D01*
X46079520Y-88332150D01*
X46092132Y-88311107D01*
X46106747Y-88291401D01*
X46123223Y-88273223D01*
X46141401Y-88256747D01*
X46161107Y-88242132D01*
X46182150Y-88229520D01*
X46204329Y-88219030D01*
X46227428Y-88210765D01*
X46251227Y-88204804D01*
X46275495Y-88201204D01*
X46299999Y-88200000D01*
X47200001Y-88200000D01*
X47224505Y-88201204D01*
X47224505Y-88201204D01*
G37*
D13*
X46750000Y-88775000D03*
D11*
G36*
X47224505Y-86151204D02*
G01*
X47248773Y-86154804D01*
X47272572Y-86160765D01*
X47295671Y-86169030D01*
X47317850Y-86179520D01*
X47338893Y-86192132D01*
X47358599Y-86206747D01*
X47376777Y-86223223D01*
X47393253Y-86241401D01*
X47407868Y-86261107D01*
X47420480Y-86282150D01*
X47430970Y-86304329D01*
X47439235Y-86327428D01*
X47445196Y-86351227D01*
X47448796Y-86375495D01*
X47450000Y-86399999D01*
X47450000Y-87050001D01*
X47448796Y-87074505D01*
X47445196Y-87098773D01*
X47439235Y-87122572D01*
X47430970Y-87145671D01*
X47420480Y-87167850D01*
X47407868Y-87188893D01*
X47393253Y-87208599D01*
X47376777Y-87226777D01*
X47358599Y-87243253D01*
X47338893Y-87257868D01*
X47317850Y-87270480D01*
X47295671Y-87280970D01*
X47272572Y-87289235D01*
X47248773Y-87295196D01*
X47224505Y-87298796D01*
X47200001Y-87300000D01*
X46299999Y-87300000D01*
X46275495Y-87298796D01*
X46251227Y-87295196D01*
X46227428Y-87289235D01*
X46204329Y-87280970D01*
X46182150Y-87270480D01*
X46161107Y-87257868D01*
X46141401Y-87243253D01*
X46123223Y-87226777D01*
X46106747Y-87208599D01*
X46092132Y-87188893D01*
X46079520Y-87167850D01*
X46069030Y-87145671D01*
X46060765Y-87122572D01*
X46054804Y-87098773D01*
X46051204Y-87074505D01*
X46050000Y-87050001D01*
X46050000Y-86399999D01*
X46051204Y-86375495D01*
X46054804Y-86351227D01*
X46060765Y-86327428D01*
X46069030Y-86304329D01*
X46079520Y-86282150D01*
X46092132Y-86261107D01*
X46106747Y-86241401D01*
X46123223Y-86223223D01*
X46141401Y-86206747D01*
X46161107Y-86192132D01*
X46182150Y-86179520D01*
X46204329Y-86169030D01*
X46227428Y-86160765D01*
X46251227Y-86154804D01*
X46275495Y-86151204D01*
X46299999Y-86150000D01*
X47200001Y-86150000D01*
X47224505Y-86151204D01*
X47224505Y-86151204D01*
G37*
D13*
X46750000Y-86725000D03*
D11*
G36*
X58230419Y-69570328D02*
G01*
X58254557Y-69574720D01*
X58278147Y-69581456D01*
X58300964Y-69590473D01*
X58322787Y-69601682D01*
X59102212Y-70051683D01*
X59122832Y-70064978D01*
X59142049Y-70080230D01*
X59159678Y-70097292D01*
X59175551Y-70115999D01*
X59189513Y-70136173D01*
X59201430Y-70157617D01*
X59211189Y-70180127D01*
X59218693Y-70203484D01*
X59223873Y-70227465D01*
X59226677Y-70251838D01*
X59227078Y-70276369D01*
X59225073Y-70300820D01*
X59220681Y-70324958D01*
X59213945Y-70348548D01*
X59204928Y-70371365D01*
X59193719Y-70393188D01*
X58868718Y-70956107D01*
X58855423Y-70976727D01*
X58840171Y-70995944D01*
X58823109Y-71013573D01*
X58804402Y-71029445D01*
X58784229Y-71043408D01*
X58762784Y-71055325D01*
X58740274Y-71065083D01*
X58716917Y-71072588D01*
X58692936Y-71077768D01*
X58668563Y-71080572D01*
X58644032Y-71080973D01*
X58619581Y-71078968D01*
X58595443Y-71074576D01*
X58571853Y-71067840D01*
X58549036Y-71058823D01*
X58527213Y-71047614D01*
X57747788Y-70597613D01*
X57727168Y-70584318D01*
X57707951Y-70569066D01*
X57690322Y-70552004D01*
X57674449Y-70533297D01*
X57660487Y-70513123D01*
X57648570Y-70491679D01*
X57638811Y-70469169D01*
X57631307Y-70445812D01*
X57626127Y-70421831D01*
X57623323Y-70397458D01*
X57622922Y-70372927D01*
X57624927Y-70348476D01*
X57629319Y-70324338D01*
X57636055Y-70300748D01*
X57645072Y-70277931D01*
X57656281Y-70256108D01*
X57981282Y-69693189D01*
X57994577Y-69672569D01*
X58009829Y-69653352D01*
X58026891Y-69635723D01*
X58045598Y-69619851D01*
X58065771Y-69605888D01*
X58087216Y-69593971D01*
X58109726Y-69584213D01*
X58133083Y-69576708D01*
X58157064Y-69571528D01*
X58181437Y-69568724D01*
X58205968Y-69568323D01*
X58230419Y-69570328D01*
X58230419Y-69570328D01*
G37*
D13*
X58425000Y-70324648D03*
D11*
G36*
X57205419Y-71345680D02*
G01*
X57229557Y-71350072D01*
X57253147Y-71356808D01*
X57275964Y-71365825D01*
X57297787Y-71377034D01*
X58077212Y-71827035D01*
X58097832Y-71840330D01*
X58117049Y-71855582D01*
X58134678Y-71872644D01*
X58150551Y-71891351D01*
X58164513Y-71911525D01*
X58176430Y-71932969D01*
X58186189Y-71955479D01*
X58193693Y-71978836D01*
X58198873Y-72002817D01*
X58201677Y-72027190D01*
X58202078Y-72051721D01*
X58200073Y-72076172D01*
X58195681Y-72100310D01*
X58188945Y-72123900D01*
X58179928Y-72146717D01*
X58168719Y-72168540D01*
X57843718Y-72731459D01*
X57830423Y-72752079D01*
X57815171Y-72771296D01*
X57798109Y-72788925D01*
X57779402Y-72804797D01*
X57759229Y-72818760D01*
X57737784Y-72830677D01*
X57715274Y-72840435D01*
X57691917Y-72847940D01*
X57667936Y-72853120D01*
X57643563Y-72855924D01*
X57619032Y-72856325D01*
X57594581Y-72854320D01*
X57570443Y-72849928D01*
X57546853Y-72843192D01*
X57524036Y-72834175D01*
X57502213Y-72822966D01*
X56722788Y-72372965D01*
X56702168Y-72359670D01*
X56682951Y-72344418D01*
X56665322Y-72327356D01*
X56649449Y-72308649D01*
X56635487Y-72288475D01*
X56623570Y-72267031D01*
X56613811Y-72244521D01*
X56606307Y-72221164D01*
X56601127Y-72197183D01*
X56598323Y-72172810D01*
X56597922Y-72148279D01*
X56599927Y-72123828D01*
X56604319Y-72099690D01*
X56611055Y-72076100D01*
X56620072Y-72053283D01*
X56631281Y-72031460D01*
X56956282Y-71468541D01*
X56969577Y-71447921D01*
X56984829Y-71428704D01*
X57001891Y-71411075D01*
X57020598Y-71395203D01*
X57040771Y-71381240D01*
X57062216Y-71369323D01*
X57084726Y-71359565D01*
X57108083Y-71352060D01*
X57132064Y-71346880D01*
X57156437Y-71344076D01*
X57180968Y-71343675D01*
X57205419Y-71345680D01*
X57205419Y-71345680D01*
G37*
D13*
X57400000Y-72100000D03*
D17*
X62960000Y-73540000D03*
X62960000Y-71000000D03*
D18*
X62960000Y-68460000D03*
D17*
X68040000Y-73540000D03*
X68040000Y-71000000D03*
X68040000Y-68460000D03*
D11*
G36*
X48274503Y-76776204D02*
G01*
X48298772Y-76779804D01*
X48322570Y-76785765D01*
X48345670Y-76794030D01*
X48367849Y-76804520D01*
X48388892Y-76817133D01*
X48408598Y-76831748D01*
X48426776Y-76848224D01*
X48443252Y-76866402D01*
X48457867Y-76886108D01*
X48470480Y-76907151D01*
X48480970Y-76929330D01*
X48489235Y-76952430D01*
X48495196Y-76976228D01*
X48498796Y-77000497D01*
X48500000Y-77025001D01*
X48500000Y-80974999D01*
X48498796Y-80999503D01*
X48495196Y-81023772D01*
X48489235Y-81047570D01*
X48480970Y-81070670D01*
X48470480Y-81092849D01*
X48457867Y-81113892D01*
X48443252Y-81133598D01*
X48426776Y-81151776D01*
X48408598Y-81168252D01*
X48388892Y-81182867D01*
X48367849Y-81195480D01*
X48345670Y-81205970D01*
X48322570Y-81214235D01*
X48298772Y-81220196D01*
X48274503Y-81223796D01*
X48249999Y-81225000D01*
X45725001Y-81225000D01*
X45700497Y-81223796D01*
X45676228Y-81220196D01*
X45652430Y-81214235D01*
X45629330Y-81205970D01*
X45607151Y-81195480D01*
X45586108Y-81182867D01*
X45566402Y-81168252D01*
X45548224Y-81151776D01*
X45531748Y-81133598D01*
X45517133Y-81113892D01*
X45504520Y-81092849D01*
X45494030Y-81070670D01*
X45485765Y-81047570D01*
X45479804Y-81023772D01*
X45476204Y-80999503D01*
X45475000Y-80974999D01*
X45475000Y-77025001D01*
X45476204Y-77000497D01*
X45479804Y-76976228D01*
X45485765Y-76952430D01*
X45494030Y-76929330D01*
X45504520Y-76907151D01*
X45517133Y-76886108D01*
X45531748Y-76866402D01*
X45548224Y-76848224D01*
X45566402Y-76831748D01*
X45586108Y-76817133D01*
X45607151Y-76804520D01*
X45629330Y-76794030D01*
X45652430Y-76785765D01*
X45676228Y-76779804D01*
X45700497Y-76776204D01*
X45725001Y-76775000D01*
X48249999Y-76775000D01*
X48274503Y-76776204D01*
X48274503Y-76776204D01*
G37*
D19*
X46987500Y-79000000D03*
D11*
G36*
X53299503Y-76776204D02*
G01*
X53323772Y-76779804D01*
X53347570Y-76785765D01*
X53370670Y-76794030D01*
X53392849Y-76804520D01*
X53413892Y-76817133D01*
X53433598Y-76831748D01*
X53451776Y-76848224D01*
X53468252Y-76866402D01*
X53482867Y-76886108D01*
X53495480Y-76907151D01*
X53505970Y-76929330D01*
X53514235Y-76952430D01*
X53520196Y-76976228D01*
X53523796Y-77000497D01*
X53525000Y-77025001D01*
X53525000Y-80974999D01*
X53523796Y-80999503D01*
X53520196Y-81023772D01*
X53514235Y-81047570D01*
X53505970Y-81070670D01*
X53495480Y-81092849D01*
X53482867Y-81113892D01*
X53468252Y-81133598D01*
X53451776Y-81151776D01*
X53433598Y-81168252D01*
X53413892Y-81182867D01*
X53392849Y-81195480D01*
X53370670Y-81205970D01*
X53347570Y-81214235D01*
X53323772Y-81220196D01*
X53299503Y-81223796D01*
X53274999Y-81225000D01*
X50750001Y-81225000D01*
X50725497Y-81223796D01*
X50701228Y-81220196D01*
X50677430Y-81214235D01*
X50654330Y-81205970D01*
X50632151Y-81195480D01*
X50611108Y-81182867D01*
X50591402Y-81168252D01*
X50573224Y-81151776D01*
X50556748Y-81133598D01*
X50542133Y-81113892D01*
X50529520Y-81092849D01*
X50519030Y-81070670D01*
X50510765Y-81047570D01*
X50504804Y-81023772D01*
X50501204Y-80999503D01*
X50500000Y-80974999D01*
X50500000Y-77025001D01*
X50501204Y-77000497D01*
X50504804Y-76976228D01*
X50510765Y-76952430D01*
X50519030Y-76929330D01*
X50529520Y-76907151D01*
X50542133Y-76886108D01*
X50556748Y-76866402D01*
X50573224Y-76848224D01*
X50591402Y-76831748D01*
X50611108Y-76817133D01*
X50632151Y-76804520D01*
X50654330Y-76794030D01*
X50677430Y-76785765D01*
X50701228Y-76779804D01*
X50725497Y-76776204D01*
X50750001Y-76775000D01*
X53274999Y-76775000D01*
X53299503Y-76776204D01*
X53299503Y-76776204D01*
G37*
D19*
X52012500Y-79000000D03*
D11*
G36*
X40624505Y-90551204D02*
G01*
X40648773Y-90554804D01*
X40672572Y-90560765D01*
X40695671Y-90569030D01*
X40717850Y-90579520D01*
X40738893Y-90592132D01*
X40758599Y-90606747D01*
X40776777Y-90623223D01*
X40793253Y-90641401D01*
X40807868Y-90661107D01*
X40820480Y-90682150D01*
X40830970Y-90704329D01*
X40839235Y-90727428D01*
X40845196Y-90751227D01*
X40848796Y-90775495D01*
X40850000Y-90799999D01*
X40850000Y-91700001D01*
X40848796Y-91724505D01*
X40845196Y-91748773D01*
X40839235Y-91772572D01*
X40830970Y-91795671D01*
X40820480Y-91817850D01*
X40807868Y-91838893D01*
X40793253Y-91858599D01*
X40776777Y-91876777D01*
X40758599Y-91893253D01*
X40738893Y-91907868D01*
X40717850Y-91920480D01*
X40695671Y-91930970D01*
X40672572Y-91939235D01*
X40648773Y-91945196D01*
X40624505Y-91948796D01*
X40600001Y-91950000D01*
X39949999Y-91950000D01*
X39925495Y-91948796D01*
X39901227Y-91945196D01*
X39877428Y-91939235D01*
X39854329Y-91930970D01*
X39832150Y-91920480D01*
X39811107Y-91907868D01*
X39791401Y-91893253D01*
X39773223Y-91876777D01*
X39756747Y-91858599D01*
X39742132Y-91838893D01*
X39729520Y-91817850D01*
X39719030Y-91795671D01*
X39710765Y-91772572D01*
X39704804Y-91748773D01*
X39701204Y-91724505D01*
X39700000Y-91700001D01*
X39700000Y-90799999D01*
X39701204Y-90775495D01*
X39704804Y-90751227D01*
X39710765Y-90727428D01*
X39719030Y-90704329D01*
X39729520Y-90682150D01*
X39742132Y-90661107D01*
X39756747Y-90641401D01*
X39773223Y-90623223D01*
X39791401Y-90606747D01*
X39811107Y-90592132D01*
X39832150Y-90579520D01*
X39854329Y-90569030D01*
X39877428Y-90560765D01*
X39901227Y-90554804D01*
X39925495Y-90551204D01*
X39949999Y-90550000D01*
X40600001Y-90550000D01*
X40624505Y-90551204D01*
X40624505Y-90551204D01*
G37*
D13*
X40275000Y-91250000D03*
D11*
G36*
X38574505Y-90551204D02*
G01*
X38598773Y-90554804D01*
X38622572Y-90560765D01*
X38645671Y-90569030D01*
X38667850Y-90579520D01*
X38688893Y-90592132D01*
X38708599Y-90606747D01*
X38726777Y-90623223D01*
X38743253Y-90641401D01*
X38757868Y-90661107D01*
X38770480Y-90682150D01*
X38780970Y-90704329D01*
X38789235Y-90727428D01*
X38795196Y-90751227D01*
X38798796Y-90775495D01*
X38800000Y-90799999D01*
X38800000Y-91700001D01*
X38798796Y-91724505D01*
X38795196Y-91748773D01*
X38789235Y-91772572D01*
X38780970Y-91795671D01*
X38770480Y-91817850D01*
X38757868Y-91838893D01*
X38743253Y-91858599D01*
X38726777Y-91876777D01*
X38708599Y-91893253D01*
X38688893Y-91907868D01*
X38667850Y-91920480D01*
X38645671Y-91930970D01*
X38622572Y-91939235D01*
X38598773Y-91945196D01*
X38574505Y-91948796D01*
X38550001Y-91950000D01*
X37899999Y-91950000D01*
X37875495Y-91948796D01*
X37851227Y-91945196D01*
X37827428Y-91939235D01*
X37804329Y-91930970D01*
X37782150Y-91920480D01*
X37761107Y-91907868D01*
X37741401Y-91893253D01*
X37723223Y-91876777D01*
X37706747Y-91858599D01*
X37692132Y-91838893D01*
X37679520Y-91817850D01*
X37669030Y-91795671D01*
X37660765Y-91772572D01*
X37654804Y-91748773D01*
X37651204Y-91724505D01*
X37650000Y-91700001D01*
X37650000Y-90799999D01*
X37651204Y-90775495D01*
X37654804Y-90751227D01*
X37660765Y-90727428D01*
X37669030Y-90704329D01*
X37679520Y-90682150D01*
X37692132Y-90661107D01*
X37706747Y-90641401D01*
X37723223Y-90623223D01*
X37741401Y-90606747D01*
X37761107Y-90592132D01*
X37782150Y-90579520D01*
X37804329Y-90569030D01*
X37827428Y-90560765D01*
X37851227Y-90554804D01*
X37875495Y-90551204D01*
X37899999Y-90550000D01*
X38550001Y-90550000D01*
X38574505Y-90551204D01*
X38574505Y-90551204D01*
G37*
D13*
X38225000Y-91250000D03*
D11*
G36*
X38724505Y-85651204D02*
G01*
X38748773Y-85654804D01*
X38772572Y-85660765D01*
X38795671Y-85669030D01*
X38817850Y-85679520D01*
X38838893Y-85692132D01*
X38858599Y-85706747D01*
X38876777Y-85723223D01*
X38893253Y-85741401D01*
X38907868Y-85761107D01*
X38920480Y-85782150D01*
X38930970Y-85804329D01*
X38939235Y-85827428D01*
X38945196Y-85851227D01*
X38948796Y-85875495D01*
X38950000Y-85899999D01*
X38950000Y-86550001D01*
X38948796Y-86574505D01*
X38945196Y-86598773D01*
X38939235Y-86622572D01*
X38930970Y-86645671D01*
X38920480Y-86667850D01*
X38907868Y-86688893D01*
X38893253Y-86708599D01*
X38876777Y-86726777D01*
X38858599Y-86743253D01*
X38838893Y-86757868D01*
X38817850Y-86770480D01*
X38795671Y-86780970D01*
X38772572Y-86789235D01*
X38748773Y-86795196D01*
X38724505Y-86798796D01*
X38700001Y-86800000D01*
X37799999Y-86800000D01*
X37775495Y-86798796D01*
X37751227Y-86795196D01*
X37727428Y-86789235D01*
X37704329Y-86780970D01*
X37682150Y-86770480D01*
X37661107Y-86757868D01*
X37641401Y-86743253D01*
X37623223Y-86726777D01*
X37606747Y-86708599D01*
X37592132Y-86688893D01*
X37579520Y-86667850D01*
X37569030Y-86645671D01*
X37560765Y-86622572D01*
X37554804Y-86598773D01*
X37551204Y-86574505D01*
X37550000Y-86550001D01*
X37550000Y-85899999D01*
X37551204Y-85875495D01*
X37554804Y-85851227D01*
X37560765Y-85827428D01*
X37569030Y-85804329D01*
X37579520Y-85782150D01*
X37592132Y-85761107D01*
X37606747Y-85741401D01*
X37623223Y-85723223D01*
X37641401Y-85706747D01*
X37661107Y-85692132D01*
X37682150Y-85679520D01*
X37704329Y-85669030D01*
X37727428Y-85660765D01*
X37751227Y-85654804D01*
X37775495Y-85651204D01*
X37799999Y-85650000D01*
X38700001Y-85650000D01*
X38724505Y-85651204D01*
X38724505Y-85651204D01*
G37*
D13*
X38250000Y-86225000D03*
D11*
G36*
X38724505Y-87701204D02*
G01*
X38748773Y-87704804D01*
X38772572Y-87710765D01*
X38795671Y-87719030D01*
X38817850Y-87729520D01*
X38838893Y-87742132D01*
X38858599Y-87756747D01*
X38876777Y-87773223D01*
X38893253Y-87791401D01*
X38907868Y-87811107D01*
X38920480Y-87832150D01*
X38930970Y-87854329D01*
X38939235Y-87877428D01*
X38945196Y-87901227D01*
X38948796Y-87925495D01*
X38950000Y-87949999D01*
X38950000Y-88600001D01*
X38948796Y-88624505D01*
X38945196Y-88648773D01*
X38939235Y-88672572D01*
X38930970Y-88695671D01*
X38920480Y-88717850D01*
X38907868Y-88738893D01*
X38893253Y-88758599D01*
X38876777Y-88776777D01*
X38858599Y-88793253D01*
X38838893Y-88807868D01*
X38817850Y-88820480D01*
X38795671Y-88830970D01*
X38772572Y-88839235D01*
X38748773Y-88845196D01*
X38724505Y-88848796D01*
X38700001Y-88850000D01*
X37799999Y-88850000D01*
X37775495Y-88848796D01*
X37751227Y-88845196D01*
X37727428Y-88839235D01*
X37704329Y-88830970D01*
X37682150Y-88820480D01*
X37661107Y-88807868D01*
X37641401Y-88793253D01*
X37623223Y-88776777D01*
X37606747Y-88758599D01*
X37592132Y-88738893D01*
X37579520Y-88717850D01*
X37569030Y-88695671D01*
X37560765Y-88672572D01*
X37554804Y-88648773D01*
X37551204Y-88624505D01*
X37550000Y-88600001D01*
X37550000Y-87949999D01*
X37551204Y-87925495D01*
X37554804Y-87901227D01*
X37560765Y-87877428D01*
X37569030Y-87854329D01*
X37579520Y-87832150D01*
X37592132Y-87811107D01*
X37606747Y-87791401D01*
X37623223Y-87773223D01*
X37641401Y-87756747D01*
X37661107Y-87742132D01*
X37682150Y-87729520D01*
X37704329Y-87719030D01*
X37727428Y-87710765D01*
X37751227Y-87704804D01*
X37775495Y-87701204D01*
X37799999Y-87700000D01*
X38700001Y-87700000D01*
X38724505Y-87701204D01*
X38724505Y-87701204D01*
G37*
D13*
X38250000Y-88275000D03*
D11*
G36*
X40274505Y-53451204D02*
G01*
X40298773Y-53454804D01*
X40322572Y-53460765D01*
X40345671Y-53469030D01*
X40367850Y-53479520D01*
X40388893Y-53492132D01*
X40408599Y-53506747D01*
X40426777Y-53523223D01*
X40443253Y-53541401D01*
X40457868Y-53561107D01*
X40470480Y-53582150D01*
X40480970Y-53604329D01*
X40489235Y-53627428D01*
X40495196Y-53651227D01*
X40498796Y-53675495D01*
X40500000Y-53699999D01*
X40500000Y-54600001D01*
X40498796Y-54624505D01*
X40495196Y-54648773D01*
X40489235Y-54672572D01*
X40480970Y-54695671D01*
X40470480Y-54717850D01*
X40457868Y-54738893D01*
X40443253Y-54758599D01*
X40426777Y-54776777D01*
X40408599Y-54793253D01*
X40388893Y-54807868D01*
X40367850Y-54820480D01*
X40345671Y-54830970D01*
X40322572Y-54839235D01*
X40298773Y-54845196D01*
X40274505Y-54848796D01*
X40250001Y-54850000D01*
X39599999Y-54850000D01*
X39575495Y-54848796D01*
X39551227Y-54845196D01*
X39527428Y-54839235D01*
X39504329Y-54830970D01*
X39482150Y-54820480D01*
X39461107Y-54807868D01*
X39441401Y-54793253D01*
X39423223Y-54776777D01*
X39406747Y-54758599D01*
X39392132Y-54738893D01*
X39379520Y-54717850D01*
X39369030Y-54695671D01*
X39360765Y-54672572D01*
X39354804Y-54648773D01*
X39351204Y-54624505D01*
X39350000Y-54600001D01*
X39350000Y-53699999D01*
X39351204Y-53675495D01*
X39354804Y-53651227D01*
X39360765Y-53627428D01*
X39369030Y-53604329D01*
X39379520Y-53582150D01*
X39392132Y-53561107D01*
X39406747Y-53541401D01*
X39423223Y-53523223D01*
X39441401Y-53506747D01*
X39461107Y-53492132D01*
X39482150Y-53479520D01*
X39504329Y-53469030D01*
X39527428Y-53460765D01*
X39551227Y-53454804D01*
X39575495Y-53451204D01*
X39599999Y-53450000D01*
X40250001Y-53450000D01*
X40274505Y-53451204D01*
X40274505Y-53451204D01*
G37*
D13*
X39925000Y-54150000D03*
D11*
G36*
X38224505Y-53451204D02*
G01*
X38248773Y-53454804D01*
X38272572Y-53460765D01*
X38295671Y-53469030D01*
X38317850Y-53479520D01*
X38338893Y-53492132D01*
X38358599Y-53506747D01*
X38376777Y-53523223D01*
X38393253Y-53541401D01*
X38407868Y-53561107D01*
X38420480Y-53582150D01*
X38430970Y-53604329D01*
X38439235Y-53627428D01*
X38445196Y-53651227D01*
X38448796Y-53675495D01*
X38450000Y-53699999D01*
X38450000Y-54600001D01*
X38448796Y-54624505D01*
X38445196Y-54648773D01*
X38439235Y-54672572D01*
X38430970Y-54695671D01*
X38420480Y-54717850D01*
X38407868Y-54738893D01*
X38393253Y-54758599D01*
X38376777Y-54776777D01*
X38358599Y-54793253D01*
X38338893Y-54807868D01*
X38317850Y-54820480D01*
X38295671Y-54830970D01*
X38272572Y-54839235D01*
X38248773Y-54845196D01*
X38224505Y-54848796D01*
X38200001Y-54850000D01*
X37549999Y-54850000D01*
X37525495Y-54848796D01*
X37501227Y-54845196D01*
X37477428Y-54839235D01*
X37454329Y-54830970D01*
X37432150Y-54820480D01*
X37411107Y-54807868D01*
X37391401Y-54793253D01*
X37373223Y-54776777D01*
X37356747Y-54758599D01*
X37342132Y-54738893D01*
X37329520Y-54717850D01*
X37319030Y-54695671D01*
X37310765Y-54672572D01*
X37304804Y-54648773D01*
X37301204Y-54624505D01*
X37300000Y-54600001D01*
X37300000Y-53699999D01*
X37301204Y-53675495D01*
X37304804Y-53651227D01*
X37310765Y-53627428D01*
X37319030Y-53604329D01*
X37329520Y-53582150D01*
X37342132Y-53561107D01*
X37356747Y-53541401D01*
X37373223Y-53523223D01*
X37391401Y-53506747D01*
X37411107Y-53492132D01*
X37432150Y-53479520D01*
X37454329Y-53469030D01*
X37477428Y-53460765D01*
X37501227Y-53454804D01*
X37525495Y-53451204D01*
X37549999Y-53450000D01*
X38200001Y-53450000D01*
X38224505Y-53451204D01*
X38224505Y-53451204D01*
G37*
D13*
X37875000Y-54150000D03*
D20*
X35950000Y-43100000D03*
X31450000Y-43100000D03*
X31450000Y-51300000D03*
X35950000Y-51300000D03*
D21*
X41670000Y-85360000D03*
X41670000Y-86310000D03*
X41670000Y-87260000D03*
X44370000Y-87260000D03*
X44370000Y-85360000D03*
X44370000Y-86310000D03*
D22*
X98858493Y-44624778D03*
D11*
G36*
X99757115Y-44768320D02*
G01*
X99432115Y-45331236D01*
X97959871Y-44481236D01*
X98284871Y-43918320D01*
X99757115Y-44768320D01*
X99757115Y-44768320D01*
G37*
D22*
X99493493Y-43524926D03*
D11*
G36*
X100392115Y-43668468D02*
G01*
X100067115Y-44231384D01*
X98594871Y-43381384D01*
X98919871Y-42818468D01*
X100392115Y-43668468D01*
X100392115Y-43668468D01*
G37*
D22*
X100128493Y-42425074D03*
D11*
G36*
X101027115Y-42568616D02*
G01*
X100702115Y-43131532D01*
X99229871Y-42281532D01*
X99554871Y-41718616D01*
X101027115Y-42568616D01*
X101027115Y-42568616D01*
G37*
D22*
X100763493Y-41325222D03*
D11*
G36*
X101662115Y-41468764D02*
G01*
X101337115Y-42031680D01*
X99864871Y-41181680D01*
X100189871Y-40618764D01*
X101662115Y-41468764D01*
X101662115Y-41468764D01*
G37*
D22*
X94441507Y-37675222D03*
D11*
G36*
X95340129Y-37818764D02*
G01*
X95015129Y-38381680D01*
X93542885Y-37531680D01*
X93867885Y-36968764D01*
X95340129Y-37818764D01*
X95340129Y-37818764D01*
G37*
D22*
X93806507Y-38775074D03*
D11*
G36*
X94705129Y-38918616D02*
G01*
X94380129Y-39481532D01*
X92907885Y-38631532D01*
X93232885Y-38068616D01*
X94705129Y-38918616D01*
X94705129Y-38918616D01*
G37*
D22*
X93171507Y-39874926D03*
D11*
G36*
X94070129Y-40018468D02*
G01*
X93745129Y-40581384D01*
X92272885Y-39731384D01*
X92597885Y-39168468D01*
X94070129Y-40018468D01*
X94070129Y-40018468D01*
G37*
D22*
X92536507Y-40974778D03*
D11*
G36*
X93435129Y-41118320D02*
G01*
X93110129Y-41681236D01*
X91637885Y-40831236D01*
X91962885Y-40268320D01*
X93435129Y-41118320D01*
X93435129Y-41118320D01*
G37*
D10*
X75522903Y-37299808D03*
D11*
G36*
X77588317Y-38197937D02*
G01*
X73399870Y-38051673D01*
X73457489Y-36401679D01*
X77645936Y-36547943D01*
X77588317Y-38197937D01*
X77588317Y-38197937D01*
G37*
D10*
X75611547Y-34761355D03*
D11*
G36*
X77676961Y-35659484D02*
G01*
X73488514Y-35513220D01*
X73546133Y-33863226D01*
X77734580Y-34009490D01*
X77676961Y-35659484D01*
X77676961Y-35659484D01*
G37*
D10*
X75700192Y-32222903D03*
D11*
G36*
X77765606Y-33121032D02*
G01*
X73577159Y-32974768D01*
X73634778Y-31324774D01*
X77823225Y-31471038D01*
X77765606Y-33121032D01*
X77765606Y-33121032D01*
G37*
D10*
X80599808Y-37477097D03*
D12*
X79330582Y-37432775D02*
X81869034Y-37521419D01*
D10*
X80688453Y-34938645D03*
D11*
G36*
X82753867Y-35836774D02*
G01*
X78565420Y-35690510D01*
X78623039Y-34040516D01*
X82811486Y-34186780D01*
X82753867Y-35836774D01*
X82753867Y-35836774D01*
G37*
D10*
X80777097Y-32400192D03*
D11*
G36*
X82842511Y-33298321D02*
G01*
X78654064Y-33152057D01*
X78711683Y-31502063D01*
X82900130Y-31648327D01*
X82842511Y-33298321D01*
X82842511Y-33298321D01*
G37*
D23*
X46450000Y-42350000D03*
X49950000Y-42350000D03*
D11*
G36*
X87024505Y-39051204D02*
G01*
X87048773Y-39054804D01*
X87072572Y-39060765D01*
X87095671Y-39069030D01*
X87117850Y-39079520D01*
X87138893Y-39092132D01*
X87158599Y-39106747D01*
X87176777Y-39123223D01*
X87193253Y-39141401D01*
X87207868Y-39161107D01*
X87220480Y-39182150D01*
X87230970Y-39204329D01*
X87239235Y-39227428D01*
X87245196Y-39251227D01*
X87248796Y-39275495D01*
X87250000Y-39299999D01*
X87250000Y-40200001D01*
X87248796Y-40224505D01*
X87245196Y-40248773D01*
X87239235Y-40272572D01*
X87230970Y-40295671D01*
X87220480Y-40317850D01*
X87207868Y-40338893D01*
X87193253Y-40358599D01*
X87176777Y-40376777D01*
X87158599Y-40393253D01*
X87138893Y-40407868D01*
X87117850Y-40420480D01*
X87095671Y-40430970D01*
X87072572Y-40439235D01*
X87048773Y-40445196D01*
X87024505Y-40448796D01*
X87000001Y-40450000D01*
X86349999Y-40450000D01*
X86325495Y-40448796D01*
X86301227Y-40445196D01*
X86277428Y-40439235D01*
X86254329Y-40430970D01*
X86232150Y-40420480D01*
X86211107Y-40407868D01*
X86191401Y-40393253D01*
X86173223Y-40376777D01*
X86156747Y-40358599D01*
X86142132Y-40338893D01*
X86129520Y-40317850D01*
X86119030Y-40295671D01*
X86110765Y-40272572D01*
X86104804Y-40248773D01*
X86101204Y-40224505D01*
X86100000Y-40200001D01*
X86100000Y-39299999D01*
X86101204Y-39275495D01*
X86104804Y-39251227D01*
X86110765Y-39227428D01*
X86119030Y-39204329D01*
X86129520Y-39182150D01*
X86142132Y-39161107D01*
X86156747Y-39141401D01*
X86173223Y-39123223D01*
X86191401Y-39106747D01*
X86211107Y-39092132D01*
X86232150Y-39079520D01*
X86254329Y-39069030D01*
X86277428Y-39060765D01*
X86301227Y-39054804D01*
X86325495Y-39051204D01*
X86349999Y-39050000D01*
X87000001Y-39050000D01*
X87024505Y-39051204D01*
X87024505Y-39051204D01*
G37*
D13*
X86675000Y-39750000D03*
D11*
G36*
X89074505Y-39051204D02*
G01*
X89098773Y-39054804D01*
X89122572Y-39060765D01*
X89145671Y-39069030D01*
X89167850Y-39079520D01*
X89188893Y-39092132D01*
X89208599Y-39106747D01*
X89226777Y-39123223D01*
X89243253Y-39141401D01*
X89257868Y-39161107D01*
X89270480Y-39182150D01*
X89280970Y-39204329D01*
X89289235Y-39227428D01*
X89295196Y-39251227D01*
X89298796Y-39275495D01*
X89300000Y-39299999D01*
X89300000Y-40200001D01*
X89298796Y-40224505D01*
X89295196Y-40248773D01*
X89289235Y-40272572D01*
X89280970Y-40295671D01*
X89270480Y-40317850D01*
X89257868Y-40338893D01*
X89243253Y-40358599D01*
X89226777Y-40376777D01*
X89208599Y-40393253D01*
X89188893Y-40407868D01*
X89167850Y-40420480D01*
X89145671Y-40430970D01*
X89122572Y-40439235D01*
X89098773Y-40445196D01*
X89074505Y-40448796D01*
X89050001Y-40450000D01*
X88399999Y-40450000D01*
X88375495Y-40448796D01*
X88351227Y-40445196D01*
X88327428Y-40439235D01*
X88304329Y-40430970D01*
X88282150Y-40420480D01*
X88261107Y-40407868D01*
X88241401Y-40393253D01*
X88223223Y-40376777D01*
X88206747Y-40358599D01*
X88192132Y-40338893D01*
X88179520Y-40317850D01*
X88169030Y-40295671D01*
X88160765Y-40272572D01*
X88154804Y-40248773D01*
X88151204Y-40224505D01*
X88150000Y-40200001D01*
X88150000Y-39299999D01*
X88151204Y-39275495D01*
X88154804Y-39251227D01*
X88160765Y-39227428D01*
X88169030Y-39204329D01*
X88179520Y-39182150D01*
X88192132Y-39161107D01*
X88206747Y-39141401D01*
X88223223Y-39123223D01*
X88241401Y-39106747D01*
X88261107Y-39092132D01*
X88282150Y-39079520D01*
X88304329Y-39069030D01*
X88327428Y-39060765D01*
X88351227Y-39054804D01*
X88375495Y-39051204D01*
X88399999Y-39050000D01*
X89050001Y-39050000D01*
X89074505Y-39051204D01*
X89074505Y-39051204D01*
G37*
D13*
X88725000Y-39750000D03*
D11*
G36*
X107238108Y-42128412D02*
G01*
X107262376Y-42132012D01*
X107286175Y-42137973D01*
X107309274Y-42146238D01*
X107331453Y-42156728D01*
X107352496Y-42169340D01*
X107372202Y-42183955D01*
X107390380Y-42200431D01*
X107850001Y-42660052D01*
X107866477Y-42678230D01*
X107881092Y-42697936D01*
X107893704Y-42718979D01*
X107904194Y-42741158D01*
X107912459Y-42764257D01*
X107918420Y-42788056D01*
X107922020Y-42812324D01*
X107923224Y-42836828D01*
X107922020Y-42861332D01*
X107918420Y-42885600D01*
X107912459Y-42909399D01*
X107904194Y-42932498D01*
X107893704Y-42954677D01*
X107881092Y-42975720D01*
X107866477Y-42995426D01*
X107850001Y-43013604D01*
X107213604Y-43650001D01*
X107195426Y-43666477D01*
X107175720Y-43681092D01*
X107154677Y-43693704D01*
X107132498Y-43704194D01*
X107109399Y-43712459D01*
X107085600Y-43718420D01*
X107061332Y-43722020D01*
X107036828Y-43723224D01*
X107012324Y-43722020D01*
X106988056Y-43718420D01*
X106964257Y-43712459D01*
X106941158Y-43704194D01*
X106918979Y-43693704D01*
X106897936Y-43681092D01*
X106878230Y-43666477D01*
X106860052Y-43650001D01*
X106400431Y-43190380D01*
X106383955Y-43172202D01*
X106369340Y-43152496D01*
X106356728Y-43131453D01*
X106346238Y-43109274D01*
X106337973Y-43086175D01*
X106332012Y-43062376D01*
X106328412Y-43038108D01*
X106327208Y-43013604D01*
X106328412Y-42989100D01*
X106332012Y-42964832D01*
X106337973Y-42941033D01*
X106346238Y-42917934D01*
X106356728Y-42895755D01*
X106369340Y-42874712D01*
X106383955Y-42855006D01*
X106400431Y-42836828D01*
X107036828Y-42200431D01*
X107055006Y-42183955D01*
X107074712Y-42169340D01*
X107095755Y-42156728D01*
X107117934Y-42146238D01*
X107141033Y-42137973D01*
X107164832Y-42132012D01*
X107189100Y-42128412D01*
X107213604Y-42127208D01*
X107238108Y-42128412D01*
X107238108Y-42128412D01*
G37*
D13*
X107125216Y-42925216D03*
D11*
G36*
X108687676Y-43577980D02*
G01*
X108711944Y-43581580D01*
X108735743Y-43587541D01*
X108758842Y-43595806D01*
X108781021Y-43606296D01*
X108802064Y-43618908D01*
X108821770Y-43633523D01*
X108839948Y-43649999D01*
X109299569Y-44109620D01*
X109316045Y-44127798D01*
X109330660Y-44147504D01*
X109343272Y-44168547D01*
X109353762Y-44190726D01*
X109362027Y-44213825D01*
X109367988Y-44237624D01*
X109371588Y-44261892D01*
X109372792Y-44286396D01*
X109371588Y-44310900D01*
X109367988Y-44335168D01*
X109362027Y-44358967D01*
X109353762Y-44382066D01*
X109343272Y-44404245D01*
X109330660Y-44425288D01*
X109316045Y-44444994D01*
X109299569Y-44463172D01*
X108663172Y-45099569D01*
X108644994Y-45116045D01*
X108625288Y-45130660D01*
X108604245Y-45143272D01*
X108582066Y-45153762D01*
X108558967Y-45162027D01*
X108535168Y-45167988D01*
X108510900Y-45171588D01*
X108486396Y-45172792D01*
X108461892Y-45171588D01*
X108437624Y-45167988D01*
X108413825Y-45162027D01*
X108390726Y-45153762D01*
X108368547Y-45143272D01*
X108347504Y-45130660D01*
X108327798Y-45116045D01*
X108309620Y-45099569D01*
X107849999Y-44639948D01*
X107833523Y-44621770D01*
X107818908Y-44602064D01*
X107806296Y-44581021D01*
X107795806Y-44558842D01*
X107787541Y-44535743D01*
X107781580Y-44511944D01*
X107777980Y-44487676D01*
X107776776Y-44463172D01*
X107777980Y-44438668D01*
X107781580Y-44414400D01*
X107787541Y-44390601D01*
X107795806Y-44367502D01*
X107806296Y-44345323D01*
X107818908Y-44324280D01*
X107833523Y-44304574D01*
X107849999Y-44286396D01*
X108486396Y-43649999D01*
X108504574Y-43633523D01*
X108524280Y-43618908D01*
X108545323Y-43606296D01*
X108567502Y-43595806D01*
X108590601Y-43587541D01*
X108614400Y-43581580D01*
X108638668Y-43577980D01*
X108663172Y-43576776D01*
X108687676Y-43577980D01*
X108687676Y-43577980D01*
G37*
D13*
X108574784Y-44374784D03*
D11*
G36*
X102562892Y-46653196D02*
G01*
X102587160Y-46656796D01*
X102610959Y-46662757D01*
X102634058Y-46671022D01*
X102656237Y-46681512D01*
X102677280Y-46694124D01*
X102696986Y-46708739D01*
X102715164Y-46725215D01*
X103174785Y-47184836D01*
X103191261Y-47203014D01*
X103205876Y-47222720D01*
X103218488Y-47243763D01*
X103228978Y-47265942D01*
X103237243Y-47289041D01*
X103243204Y-47312840D01*
X103246804Y-47337108D01*
X103248008Y-47361612D01*
X103246804Y-47386116D01*
X103243204Y-47410384D01*
X103237243Y-47434183D01*
X103228978Y-47457282D01*
X103218488Y-47479461D01*
X103205876Y-47500504D01*
X103191261Y-47520210D01*
X103174785Y-47538388D01*
X102538388Y-48174785D01*
X102520210Y-48191261D01*
X102500504Y-48205876D01*
X102479461Y-48218488D01*
X102457282Y-48228978D01*
X102434183Y-48237243D01*
X102410384Y-48243204D01*
X102386116Y-48246804D01*
X102361612Y-48248008D01*
X102337108Y-48246804D01*
X102312840Y-48243204D01*
X102289041Y-48237243D01*
X102265942Y-48228978D01*
X102243763Y-48218488D01*
X102222720Y-48205876D01*
X102203014Y-48191261D01*
X102184836Y-48174785D01*
X101725215Y-47715164D01*
X101708739Y-47696986D01*
X101694124Y-47677280D01*
X101681512Y-47656237D01*
X101671022Y-47634058D01*
X101662757Y-47610959D01*
X101656796Y-47587160D01*
X101653196Y-47562892D01*
X101651992Y-47538388D01*
X101653196Y-47513884D01*
X101656796Y-47489616D01*
X101662757Y-47465817D01*
X101671022Y-47442718D01*
X101681512Y-47420539D01*
X101694124Y-47399496D01*
X101708739Y-47379790D01*
X101725215Y-47361612D01*
X102361612Y-46725215D01*
X102379790Y-46708739D01*
X102399496Y-46694124D01*
X102420539Y-46681512D01*
X102442718Y-46671022D01*
X102465817Y-46662757D01*
X102489616Y-46656796D01*
X102513884Y-46653196D01*
X102538388Y-46651992D01*
X102562892Y-46653196D01*
X102562892Y-46653196D01*
G37*
D13*
X102450000Y-47450000D03*
D11*
G36*
X104012460Y-48102764D02*
G01*
X104036728Y-48106364D01*
X104060527Y-48112325D01*
X104083626Y-48120590D01*
X104105805Y-48131080D01*
X104126848Y-48143692D01*
X104146554Y-48158307D01*
X104164732Y-48174783D01*
X104624353Y-48634404D01*
X104640829Y-48652582D01*
X104655444Y-48672288D01*
X104668056Y-48693331D01*
X104678546Y-48715510D01*
X104686811Y-48738609D01*
X104692772Y-48762408D01*
X104696372Y-48786676D01*
X104697576Y-48811180D01*
X104696372Y-48835684D01*
X104692772Y-48859952D01*
X104686811Y-48883751D01*
X104678546Y-48906850D01*
X104668056Y-48929029D01*
X104655444Y-48950072D01*
X104640829Y-48969778D01*
X104624353Y-48987956D01*
X103987956Y-49624353D01*
X103969778Y-49640829D01*
X103950072Y-49655444D01*
X103929029Y-49668056D01*
X103906850Y-49678546D01*
X103883751Y-49686811D01*
X103859952Y-49692772D01*
X103835684Y-49696372D01*
X103811180Y-49697576D01*
X103786676Y-49696372D01*
X103762408Y-49692772D01*
X103738609Y-49686811D01*
X103715510Y-49678546D01*
X103693331Y-49668056D01*
X103672288Y-49655444D01*
X103652582Y-49640829D01*
X103634404Y-49624353D01*
X103174783Y-49164732D01*
X103158307Y-49146554D01*
X103143692Y-49126848D01*
X103131080Y-49105805D01*
X103120590Y-49083626D01*
X103112325Y-49060527D01*
X103106364Y-49036728D01*
X103102764Y-49012460D01*
X103101560Y-48987956D01*
X103102764Y-48963452D01*
X103106364Y-48939184D01*
X103112325Y-48915385D01*
X103120590Y-48892286D01*
X103131080Y-48870107D01*
X103143692Y-48849064D01*
X103158307Y-48829358D01*
X103174783Y-48811180D01*
X103811180Y-48174783D01*
X103829358Y-48158307D01*
X103849064Y-48143692D01*
X103870107Y-48131080D01*
X103892286Y-48120590D01*
X103915385Y-48112325D01*
X103939184Y-48106364D01*
X103963452Y-48102764D01*
X103987956Y-48101560D01*
X104012460Y-48102764D01*
X104012460Y-48102764D01*
G37*
D13*
X103899568Y-48899568D03*
D11*
G36*
X103424505Y-41201204D02*
G01*
X103448773Y-41204804D01*
X103472572Y-41210765D01*
X103495671Y-41219030D01*
X103517850Y-41229520D01*
X103538893Y-41242132D01*
X103558599Y-41256747D01*
X103576777Y-41273223D01*
X103593253Y-41291401D01*
X103607868Y-41311107D01*
X103620480Y-41332150D01*
X103630970Y-41354329D01*
X103639235Y-41377428D01*
X103645196Y-41401227D01*
X103648796Y-41425495D01*
X103650000Y-41449999D01*
X103650000Y-42350001D01*
X103648796Y-42374505D01*
X103645196Y-42398773D01*
X103639235Y-42422572D01*
X103630970Y-42445671D01*
X103620480Y-42467850D01*
X103607868Y-42488893D01*
X103593253Y-42508599D01*
X103576777Y-42526777D01*
X103558599Y-42543253D01*
X103538893Y-42557868D01*
X103517850Y-42570480D01*
X103495671Y-42580970D01*
X103472572Y-42589235D01*
X103448773Y-42595196D01*
X103424505Y-42598796D01*
X103400001Y-42600000D01*
X102749999Y-42600000D01*
X102725495Y-42598796D01*
X102701227Y-42595196D01*
X102677428Y-42589235D01*
X102654329Y-42580970D01*
X102632150Y-42570480D01*
X102611107Y-42557868D01*
X102591401Y-42543253D01*
X102573223Y-42526777D01*
X102556747Y-42508599D01*
X102542132Y-42488893D01*
X102529520Y-42467850D01*
X102519030Y-42445671D01*
X102510765Y-42422572D01*
X102504804Y-42398773D01*
X102501204Y-42374505D01*
X102500000Y-42350001D01*
X102500000Y-41449999D01*
X102501204Y-41425495D01*
X102504804Y-41401227D01*
X102510765Y-41377428D01*
X102519030Y-41354329D01*
X102529520Y-41332150D01*
X102542132Y-41311107D01*
X102556747Y-41291401D01*
X102573223Y-41273223D01*
X102591401Y-41256747D01*
X102611107Y-41242132D01*
X102632150Y-41229520D01*
X102654329Y-41219030D01*
X102677428Y-41210765D01*
X102701227Y-41204804D01*
X102725495Y-41201204D01*
X102749999Y-41200000D01*
X103400001Y-41200000D01*
X103424505Y-41201204D01*
X103424505Y-41201204D01*
G37*
D13*
X103075000Y-41900000D03*
D11*
G36*
X105474505Y-41201204D02*
G01*
X105498773Y-41204804D01*
X105522572Y-41210765D01*
X105545671Y-41219030D01*
X105567850Y-41229520D01*
X105588893Y-41242132D01*
X105608599Y-41256747D01*
X105626777Y-41273223D01*
X105643253Y-41291401D01*
X105657868Y-41311107D01*
X105670480Y-41332150D01*
X105680970Y-41354329D01*
X105689235Y-41377428D01*
X105695196Y-41401227D01*
X105698796Y-41425495D01*
X105700000Y-41449999D01*
X105700000Y-42350001D01*
X105698796Y-42374505D01*
X105695196Y-42398773D01*
X105689235Y-42422572D01*
X105680970Y-42445671D01*
X105670480Y-42467850D01*
X105657868Y-42488893D01*
X105643253Y-42508599D01*
X105626777Y-42526777D01*
X105608599Y-42543253D01*
X105588893Y-42557868D01*
X105567850Y-42570480D01*
X105545671Y-42580970D01*
X105522572Y-42589235D01*
X105498773Y-42595196D01*
X105474505Y-42598796D01*
X105450001Y-42600000D01*
X104799999Y-42600000D01*
X104775495Y-42598796D01*
X104751227Y-42595196D01*
X104727428Y-42589235D01*
X104704329Y-42580970D01*
X104682150Y-42570480D01*
X104661107Y-42557868D01*
X104641401Y-42543253D01*
X104623223Y-42526777D01*
X104606747Y-42508599D01*
X104592132Y-42488893D01*
X104579520Y-42467850D01*
X104569030Y-42445671D01*
X104560765Y-42422572D01*
X104554804Y-42398773D01*
X104551204Y-42374505D01*
X104550000Y-42350001D01*
X104550000Y-41449999D01*
X104551204Y-41425495D01*
X104554804Y-41401227D01*
X104560765Y-41377428D01*
X104569030Y-41354329D01*
X104579520Y-41332150D01*
X104592132Y-41311107D01*
X104606747Y-41291401D01*
X104623223Y-41273223D01*
X104641401Y-41256747D01*
X104661107Y-41242132D01*
X104682150Y-41229520D01*
X104704329Y-41219030D01*
X104727428Y-41210765D01*
X104751227Y-41204804D01*
X104775495Y-41201204D01*
X104799999Y-41200000D01*
X105450001Y-41200000D01*
X105474505Y-41201204D01*
X105474505Y-41201204D01*
G37*
D13*
X105125000Y-41900000D03*
D11*
G36*
X30319505Y-34596204D02*
G01*
X30343773Y-34599804D01*
X30367572Y-34605765D01*
X30390671Y-34614030D01*
X30412850Y-34624520D01*
X30433893Y-34637132D01*
X30453599Y-34651747D01*
X30471777Y-34668223D01*
X30488253Y-34686401D01*
X30502868Y-34706107D01*
X30515480Y-34727150D01*
X30525970Y-34749329D01*
X30534235Y-34772428D01*
X30540196Y-34796227D01*
X30543796Y-34820495D01*
X30545000Y-34844999D01*
X30545000Y-35495001D01*
X30543796Y-35519505D01*
X30540196Y-35543773D01*
X30534235Y-35567572D01*
X30525970Y-35590671D01*
X30515480Y-35612850D01*
X30502868Y-35633893D01*
X30488253Y-35653599D01*
X30471777Y-35671777D01*
X30453599Y-35688253D01*
X30433893Y-35702868D01*
X30412850Y-35715480D01*
X30390671Y-35725970D01*
X30367572Y-35734235D01*
X30343773Y-35740196D01*
X30319505Y-35743796D01*
X30295001Y-35745000D01*
X29394999Y-35745000D01*
X29370495Y-35743796D01*
X29346227Y-35740196D01*
X29322428Y-35734235D01*
X29299329Y-35725970D01*
X29277150Y-35715480D01*
X29256107Y-35702868D01*
X29236401Y-35688253D01*
X29218223Y-35671777D01*
X29201747Y-35653599D01*
X29187132Y-35633893D01*
X29174520Y-35612850D01*
X29164030Y-35590671D01*
X29155765Y-35567572D01*
X29149804Y-35543773D01*
X29146204Y-35519505D01*
X29145000Y-35495001D01*
X29145000Y-34844999D01*
X29146204Y-34820495D01*
X29149804Y-34796227D01*
X29155765Y-34772428D01*
X29164030Y-34749329D01*
X29174520Y-34727150D01*
X29187132Y-34706107D01*
X29201747Y-34686401D01*
X29218223Y-34668223D01*
X29236401Y-34651747D01*
X29256107Y-34637132D01*
X29277150Y-34624520D01*
X29299329Y-34614030D01*
X29322428Y-34605765D01*
X29346227Y-34599804D01*
X29370495Y-34596204D01*
X29394999Y-34595000D01*
X30295001Y-34595000D01*
X30319505Y-34596204D01*
X30319505Y-34596204D01*
G37*
D13*
X29845000Y-35170000D03*
D11*
G36*
X30319505Y-36646204D02*
G01*
X30343773Y-36649804D01*
X30367572Y-36655765D01*
X30390671Y-36664030D01*
X30412850Y-36674520D01*
X30433893Y-36687132D01*
X30453599Y-36701747D01*
X30471777Y-36718223D01*
X30488253Y-36736401D01*
X30502868Y-36756107D01*
X30515480Y-36777150D01*
X30525970Y-36799329D01*
X30534235Y-36822428D01*
X30540196Y-36846227D01*
X30543796Y-36870495D01*
X30545000Y-36894999D01*
X30545000Y-37545001D01*
X30543796Y-37569505D01*
X30540196Y-37593773D01*
X30534235Y-37617572D01*
X30525970Y-37640671D01*
X30515480Y-37662850D01*
X30502868Y-37683893D01*
X30488253Y-37703599D01*
X30471777Y-37721777D01*
X30453599Y-37738253D01*
X30433893Y-37752868D01*
X30412850Y-37765480D01*
X30390671Y-37775970D01*
X30367572Y-37784235D01*
X30343773Y-37790196D01*
X30319505Y-37793796D01*
X30295001Y-37795000D01*
X29394999Y-37795000D01*
X29370495Y-37793796D01*
X29346227Y-37790196D01*
X29322428Y-37784235D01*
X29299329Y-37775970D01*
X29277150Y-37765480D01*
X29256107Y-37752868D01*
X29236401Y-37738253D01*
X29218223Y-37721777D01*
X29201747Y-37703599D01*
X29187132Y-37683893D01*
X29174520Y-37662850D01*
X29164030Y-37640671D01*
X29155765Y-37617572D01*
X29149804Y-37593773D01*
X29146204Y-37569505D01*
X29145000Y-37545001D01*
X29145000Y-36894999D01*
X29146204Y-36870495D01*
X29149804Y-36846227D01*
X29155765Y-36822428D01*
X29164030Y-36799329D01*
X29174520Y-36777150D01*
X29187132Y-36756107D01*
X29201747Y-36736401D01*
X29218223Y-36718223D01*
X29236401Y-36701747D01*
X29256107Y-36687132D01*
X29277150Y-36674520D01*
X29299329Y-36664030D01*
X29322428Y-36655765D01*
X29346227Y-36649804D01*
X29370495Y-36646204D01*
X29394999Y-36645000D01*
X30295001Y-36645000D01*
X30319505Y-36646204D01*
X30319505Y-36646204D01*
G37*
D13*
X29845000Y-37220000D03*
D11*
G36*
X104539971Y-44374973D02*
G01*
X104547262Y-44375974D01*
X104554421Y-44377684D01*
X104561378Y-44380088D01*
X104568065Y-44383162D01*
X104574419Y-44386877D01*
X104580378Y-44391197D01*
X104585885Y-44396080D01*
X104590887Y-44401479D01*
X104687305Y-44516385D01*
X104691754Y-44522248D01*
X104695606Y-44528520D01*
X104698826Y-44535138D01*
X104701381Y-44542041D01*
X104703247Y-44549161D01*
X104704406Y-44556429D01*
X104704848Y-44563776D01*
X104704567Y-44571131D01*
X104703566Y-44578422D01*
X104701856Y-44585581D01*
X104699452Y-44592538D01*
X104696378Y-44599225D01*
X104692663Y-44605579D01*
X104688343Y-44611538D01*
X104683460Y-44617045D01*
X104678061Y-44622047D01*
X104563155Y-44718465D01*
X104557292Y-44722914D01*
X104551020Y-44726766D01*
X104544402Y-44729986D01*
X104537499Y-44732541D01*
X104530379Y-44734407D01*
X104523111Y-44735566D01*
X104515764Y-44736008D01*
X104508409Y-44735727D01*
X104501118Y-44734726D01*
X104493959Y-44733016D01*
X104487002Y-44730612D01*
X104480315Y-44727538D01*
X104473961Y-44723823D01*
X104468002Y-44719503D01*
X104462495Y-44714620D01*
X104457493Y-44709221D01*
X104361075Y-44594315D01*
X104356626Y-44588452D01*
X104352774Y-44582180D01*
X104349554Y-44575562D01*
X104346999Y-44568659D01*
X104345133Y-44561539D01*
X104343974Y-44554271D01*
X104343532Y-44546924D01*
X104343813Y-44539569D01*
X104344814Y-44532278D01*
X104346524Y-44525119D01*
X104348928Y-44518162D01*
X104352002Y-44511475D01*
X104355717Y-44505121D01*
X104360037Y-44499162D01*
X104364920Y-44493655D01*
X104370319Y-44488653D01*
X104485225Y-44392235D01*
X104491088Y-44387786D01*
X104497360Y-44383934D01*
X104503978Y-44380714D01*
X104510881Y-44378159D01*
X104518001Y-44376293D01*
X104525269Y-44375134D01*
X104532616Y-44374692D01*
X104539971Y-44374973D01*
X104539971Y-44374973D01*
G37*
D24*
X104524190Y-44555350D03*
D11*
G36*
X104861365Y-44757995D02*
G01*
X104868656Y-44758996D01*
X104875815Y-44760706D01*
X104882772Y-44763110D01*
X104889459Y-44766184D01*
X104895813Y-44769899D01*
X104901772Y-44774219D01*
X104907279Y-44779102D01*
X104912281Y-44784501D01*
X105008699Y-44899407D01*
X105013148Y-44905270D01*
X105017000Y-44911542D01*
X105020220Y-44918160D01*
X105022775Y-44925063D01*
X105024641Y-44932183D01*
X105025800Y-44939451D01*
X105026242Y-44946798D01*
X105025961Y-44954153D01*
X105024960Y-44961444D01*
X105023250Y-44968603D01*
X105020846Y-44975560D01*
X105017772Y-44982247D01*
X105014057Y-44988601D01*
X105009737Y-44994560D01*
X105004854Y-45000067D01*
X104999455Y-45005069D01*
X104884549Y-45101487D01*
X104878686Y-45105936D01*
X104872414Y-45109788D01*
X104865796Y-45113008D01*
X104858893Y-45115563D01*
X104851773Y-45117429D01*
X104844505Y-45118588D01*
X104837158Y-45119030D01*
X104829803Y-45118749D01*
X104822512Y-45117748D01*
X104815353Y-45116038D01*
X104808396Y-45113634D01*
X104801709Y-45110560D01*
X104795355Y-45106845D01*
X104789396Y-45102525D01*
X104783889Y-45097642D01*
X104778887Y-45092243D01*
X104682469Y-44977337D01*
X104678020Y-44971474D01*
X104674168Y-44965202D01*
X104670948Y-44958584D01*
X104668393Y-44951681D01*
X104666527Y-44944561D01*
X104665368Y-44937293D01*
X104664926Y-44929946D01*
X104665207Y-44922591D01*
X104666208Y-44915300D01*
X104667918Y-44908141D01*
X104670322Y-44901184D01*
X104673396Y-44894497D01*
X104677111Y-44888143D01*
X104681431Y-44882184D01*
X104686314Y-44876677D01*
X104691713Y-44871675D01*
X104806619Y-44775257D01*
X104812482Y-44770808D01*
X104818754Y-44766956D01*
X104825372Y-44763736D01*
X104832275Y-44761181D01*
X104839395Y-44759315D01*
X104846663Y-44758156D01*
X104854010Y-44757714D01*
X104861365Y-44757995D01*
X104861365Y-44757995D01*
G37*
D24*
X104845584Y-44938372D03*
D11*
G36*
X105182759Y-45141017D02*
G01*
X105190050Y-45142018D01*
X105197209Y-45143728D01*
X105204166Y-45146132D01*
X105210853Y-45149206D01*
X105217207Y-45152921D01*
X105223166Y-45157241D01*
X105228673Y-45162124D01*
X105233675Y-45167523D01*
X105330093Y-45282429D01*
X105334542Y-45288292D01*
X105338394Y-45294564D01*
X105341614Y-45301182D01*
X105344169Y-45308085D01*
X105346035Y-45315205D01*
X105347194Y-45322473D01*
X105347636Y-45329820D01*
X105347355Y-45337175D01*
X105346354Y-45344466D01*
X105344644Y-45351625D01*
X105342240Y-45358582D01*
X105339166Y-45365269D01*
X105335451Y-45371623D01*
X105331131Y-45377582D01*
X105326248Y-45383089D01*
X105320849Y-45388091D01*
X105205943Y-45484509D01*
X105200080Y-45488958D01*
X105193808Y-45492810D01*
X105187190Y-45496030D01*
X105180287Y-45498585D01*
X105173167Y-45500451D01*
X105165899Y-45501610D01*
X105158552Y-45502052D01*
X105151197Y-45501771D01*
X105143906Y-45500770D01*
X105136747Y-45499060D01*
X105129790Y-45496656D01*
X105123103Y-45493582D01*
X105116749Y-45489867D01*
X105110790Y-45485547D01*
X105105283Y-45480664D01*
X105100281Y-45475265D01*
X105003863Y-45360359D01*
X104999414Y-45354496D01*
X104995562Y-45348224D01*
X104992342Y-45341606D01*
X104989787Y-45334703D01*
X104987921Y-45327583D01*
X104986762Y-45320315D01*
X104986320Y-45312968D01*
X104986601Y-45305613D01*
X104987602Y-45298322D01*
X104989312Y-45291163D01*
X104991716Y-45284206D01*
X104994790Y-45277519D01*
X104998505Y-45271165D01*
X105002825Y-45265206D01*
X105007708Y-45259699D01*
X105013107Y-45254697D01*
X105128013Y-45158279D01*
X105133876Y-45153830D01*
X105140148Y-45149978D01*
X105146766Y-45146758D01*
X105153669Y-45144203D01*
X105160789Y-45142337D01*
X105168057Y-45141178D01*
X105175404Y-45140736D01*
X105182759Y-45141017D01*
X105182759Y-45141017D01*
G37*
D24*
X105166978Y-45321394D03*
D11*
G36*
X105565781Y-44819623D02*
G01*
X105573072Y-44820624D01*
X105580231Y-44822334D01*
X105587188Y-44824738D01*
X105593875Y-44827812D01*
X105600229Y-44831527D01*
X105606188Y-44835847D01*
X105611695Y-44840730D01*
X105616697Y-44846129D01*
X105713115Y-44961035D01*
X105717564Y-44966898D01*
X105721416Y-44973170D01*
X105724636Y-44979788D01*
X105727191Y-44986691D01*
X105729057Y-44993811D01*
X105730216Y-45001079D01*
X105730658Y-45008426D01*
X105730377Y-45015781D01*
X105729376Y-45023072D01*
X105727666Y-45030231D01*
X105725262Y-45037188D01*
X105722188Y-45043875D01*
X105718473Y-45050229D01*
X105714153Y-45056188D01*
X105709270Y-45061695D01*
X105703871Y-45066697D01*
X105588965Y-45163115D01*
X105583102Y-45167564D01*
X105576830Y-45171416D01*
X105570212Y-45174636D01*
X105563309Y-45177191D01*
X105556189Y-45179057D01*
X105548921Y-45180216D01*
X105541574Y-45180658D01*
X105534219Y-45180377D01*
X105526928Y-45179376D01*
X105519769Y-45177666D01*
X105512812Y-45175262D01*
X105506125Y-45172188D01*
X105499771Y-45168473D01*
X105493812Y-45164153D01*
X105488305Y-45159270D01*
X105483303Y-45153871D01*
X105386885Y-45038965D01*
X105382436Y-45033102D01*
X105378584Y-45026830D01*
X105375364Y-45020212D01*
X105372809Y-45013309D01*
X105370943Y-45006189D01*
X105369784Y-44998921D01*
X105369342Y-44991574D01*
X105369623Y-44984219D01*
X105370624Y-44976928D01*
X105372334Y-44969769D01*
X105374738Y-44962812D01*
X105377812Y-44956125D01*
X105381527Y-44949771D01*
X105385847Y-44943812D01*
X105390730Y-44938305D01*
X105396129Y-44933303D01*
X105511035Y-44836885D01*
X105516898Y-44832436D01*
X105523170Y-44828584D01*
X105529788Y-44825364D01*
X105536691Y-44822809D01*
X105543811Y-44820943D01*
X105551079Y-44819784D01*
X105558426Y-44819342D01*
X105565781Y-44819623D01*
X105565781Y-44819623D01*
G37*
D24*
X105550000Y-45000000D03*
D11*
G36*
X105244387Y-44436601D02*
G01*
X105251678Y-44437602D01*
X105258837Y-44439312D01*
X105265794Y-44441716D01*
X105272481Y-44444790D01*
X105278835Y-44448505D01*
X105284794Y-44452825D01*
X105290301Y-44457708D01*
X105295303Y-44463107D01*
X105391721Y-44578013D01*
X105396170Y-44583876D01*
X105400022Y-44590148D01*
X105403242Y-44596766D01*
X105405797Y-44603669D01*
X105407663Y-44610789D01*
X105408822Y-44618057D01*
X105409264Y-44625404D01*
X105408983Y-44632759D01*
X105407982Y-44640050D01*
X105406272Y-44647209D01*
X105403868Y-44654166D01*
X105400794Y-44660853D01*
X105397079Y-44667207D01*
X105392759Y-44673166D01*
X105387876Y-44678673D01*
X105382477Y-44683675D01*
X105267571Y-44780093D01*
X105261708Y-44784542D01*
X105255436Y-44788394D01*
X105248818Y-44791614D01*
X105241915Y-44794169D01*
X105234795Y-44796035D01*
X105227527Y-44797194D01*
X105220180Y-44797636D01*
X105212825Y-44797355D01*
X105205534Y-44796354D01*
X105198375Y-44794644D01*
X105191418Y-44792240D01*
X105184731Y-44789166D01*
X105178377Y-44785451D01*
X105172418Y-44781131D01*
X105166911Y-44776248D01*
X105161909Y-44770849D01*
X105065491Y-44655943D01*
X105061042Y-44650080D01*
X105057190Y-44643808D01*
X105053970Y-44637190D01*
X105051415Y-44630287D01*
X105049549Y-44623167D01*
X105048390Y-44615899D01*
X105047948Y-44608552D01*
X105048229Y-44601197D01*
X105049230Y-44593906D01*
X105050940Y-44586747D01*
X105053344Y-44579790D01*
X105056418Y-44573103D01*
X105060133Y-44566749D01*
X105064453Y-44560790D01*
X105069336Y-44555283D01*
X105074735Y-44550281D01*
X105189641Y-44453863D01*
X105195504Y-44449414D01*
X105201776Y-44445562D01*
X105208394Y-44442342D01*
X105215297Y-44439787D01*
X105222417Y-44437921D01*
X105229685Y-44436762D01*
X105237032Y-44436320D01*
X105244387Y-44436601D01*
X105244387Y-44436601D01*
G37*
D24*
X105228606Y-44616978D03*
D11*
G36*
X104922993Y-44053579D02*
G01*
X104930284Y-44054580D01*
X104937443Y-44056290D01*
X104944400Y-44058694D01*
X104951087Y-44061768D01*
X104957441Y-44065483D01*
X104963400Y-44069803D01*
X104968907Y-44074686D01*
X104973909Y-44080085D01*
X105070327Y-44194991D01*
X105074776Y-44200854D01*
X105078628Y-44207126D01*
X105081848Y-44213744D01*
X105084403Y-44220647D01*
X105086269Y-44227767D01*
X105087428Y-44235035D01*
X105087870Y-44242382D01*
X105087589Y-44249737D01*
X105086588Y-44257028D01*
X105084878Y-44264187D01*
X105082474Y-44271144D01*
X105079400Y-44277831D01*
X105075685Y-44284185D01*
X105071365Y-44290144D01*
X105066482Y-44295651D01*
X105061083Y-44300653D01*
X104946177Y-44397071D01*
X104940314Y-44401520D01*
X104934042Y-44405372D01*
X104927424Y-44408592D01*
X104920521Y-44411147D01*
X104913401Y-44413013D01*
X104906133Y-44414172D01*
X104898786Y-44414614D01*
X104891431Y-44414333D01*
X104884140Y-44413332D01*
X104876981Y-44411622D01*
X104870024Y-44409218D01*
X104863337Y-44406144D01*
X104856983Y-44402429D01*
X104851024Y-44398109D01*
X104845517Y-44393226D01*
X104840515Y-44387827D01*
X104744097Y-44272921D01*
X104739648Y-44267058D01*
X104735796Y-44260786D01*
X104732576Y-44254168D01*
X104730021Y-44247265D01*
X104728155Y-44240145D01*
X104726996Y-44232877D01*
X104726554Y-44225530D01*
X104726835Y-44218175D01*
X104727836Y-44210884D01*
X104729546Y-44203725D01*
X104731950Y-44196768D01*
X104735024Y-44190081D01*
X104738739Y-44183727D01*
X104743059Y-44177768D01*
X104747942Y-44172261D01*
X104753341Y-44167259D01*
X104868247Y-44070841D01*
X104874110Y-44066392D01*
X104880382Y-44062540D01*
X104887000Y-44059320D01*
X104893903Y-44056765D01*
X104901023Y-44054899D01*
X104908291Y-44053740D01*
X104915638Y-44053298D01*
X104922993Y-44053579D01*
X104922993Y-44053579D01*
G37*
D24*
X104907212Y-44233956D03*
D11*
G36*
X39699305Y-69418292D02*
G01*
X39738228Y-69423374D01*
X39776467Y-69432246D01*
X39813652Y-69444823D01*
X39849424Y-69460984D01*
X39883441Y-69480574D01*
X39915373Y-69503404D01*
X39944914Y-69529254D01*
X40520386Y-70084980D01*
X40547251Y-70113601D01*
X40571182Y-70144717D01*
X40591947Y-70178029D01*
X40609347Y-70213216D01*
X40623214Y-70249939D01*
X40633415Y-70287845D01*
X40639852Y-70326567D01*
X40642462Y-70365735D01*
X40641221Y-70404969D01*
X40636139Y-70443893D01*
X40627267Y-70482132D01*
X40614690Y-70519316D01*
X40598529Y-70555089D01*
X40578939Y-70589106D01*
X40556109Y-70621038D01*
X40530259Y-70650579D01*
X39488271Y-71729589D01*
X39459650Y-71756454D01*
X39428534Y-71780385D01*
X39395222Y-71801150D01*
X39360035Y-71818550D01*
X39323312Y-71832417D01*
X39285406Y-71842618D01*
X39246683Y-71849055D01*
X39207516Y-71851665D01*
X39168281Y-71850424D01*
X39129358Y-71845342D01*
X39091119Y-71836470D01*
X39053934Y-71823893D01*
X39018162Y-71807732D01*
X38984145Y-71788142D01*
X38952213Y-71765312D01*
X38922672Y-71739462D01*
X38347200Y-71183736D01*
X38320335Y-71155115D01*
X38296404Y-71123999D01*
X38275639Y-71090687D01*
X38258239Y-71055500D01*
X38244372Y-71018777D01*
X38234171Y-70980871D01*
X38227734Y-70942149D01*
X38225124Y-70902981D01*
X38226365Y-70863747D01*
X38231447Y-70824823D01*
X38240319Y-70786584D01*
X38252896Y-70749400D01*
X38269057Y-70713627D01*
X38288647Y-70679610D01*
X38311477Y-70647678D01*
X38337327Y-70618137D01*
X39379315Y-69539127D01*
X39407936Y-69512262D01*
X39439052Y-69488331D01*
X39472364Y-69467566D01*
X39507551Y-69450166D01*
X39544274Y-69436299D01*
X39582180Y-69426098D01*
X39620903Y-69419661D01*
X39660070Y-69417051D01*
X39699305Y-69418292D01*
X39699305Y-69418292D01*
G37*
D25*
X39433793Y-70634358D03*
D11*
G36*
X35531354Y-73734331D02*
G01*
X35570277Y-73739413D01*
X35608516Y-73748285D01*
X35645701Y-73760862D01*
X35681473Y-73777023D01*
X35715490Y-73796613D01*
X35747422Y-73819443D01*
X35776963Y-73845293D01*
X36352435Y-74401019D01*
X36379300Y-74429640D01*
X36403231Y-74460756D01*
X36423996Y-74494068D01*
X36441396Y-74529255D01*
X36455263Y-74565978D01*
X36465464Y-74603884D01*
X36471901Y-74642606D01*
X36474511Y-74681774D01*
X36473270Y-74721008D01*
X36468188Y-74759932D01*
X36459316Y-74798171D01*
X36446739Y-74835355D01*
X36430578Y-74871128D01*
X36410988Y-74905145D01*
X36388158Y-74937077D01*
X36362308Y-74966618D01*
X35320320Y-76045628D01*
X35291699Y-76072493D01*
X35260583Y-76096424D01*
X35227271Y-76117189D01*
X35192084Y-76134589D01*
X35155361Y-76148456D01*
X35117455Y-76158657D01*
X35078732Y-76165094D01*
X35039565Y-76167704D01*
X35000330Y-76166463D01*
X34961407Y-76161381D01*
X34923168Y-76152509D01*
X34885983Y-76139932D01*
X34850211Y-76123771D01*
X34816194Y-76104181D01*
X34784262Y-76081351D01*
X34754721Y-76055501D01*
X34179249Y-75499775D01*
X34152384Y-75471154D01*
X34128453Y-75440038D01*
X34107688Y-75406726D01*
X34090288Y-75371539D01*
X34076421Y-75334816D01*
X34066220Y-75296910D01*
X34059783Y-75258188D01*
X34057173Y-75219020D01*
X34058414Y-75179786D01*
X34063496Y-75140862D01*
X34072368Y-75102623D01*
X34084945Y-75065439D01*
X34101106Y-75029666D01*
X34120696Y-74995649D01*
X34143526Y-74963717D01*
X34169376Y-74934176D01*
X35211364Y-73855166D01*
X35239985Y-73828301D01*
X35271101Y-73804370D01*
X35304413Y-73783605D01*
X35339600Y-73766205D01*
X35376323Y-73752338D01*
X35414229Y-73742137D01*
X35452952Y-73735700D01*
X35492119Y-73733090D01*
X35531354Y-73734331D01*
X35531354Y-73734331D01*
G37*
D25*
X35265842Y-74950397D03*
D11*
G36*
X37874618Y-67444534D02*
G01*
X37912569Y-67449488D01*
X37949851Y-67458138D01*
X37986106Y-67470401D01*
X38020985Y-67486159D01*
X38054151Y-67505259D01*
X38085285Y-67527518D01*
X38114088Y-67552722D01*
X38675173Y-68094556D01*
X38701366Y-68122461D01*
X38724698Y-68152799D01*
X38744944Y-68185279D01*
X38761910Y-68219586D01*
X38775430Y-68255391D01*
X38785376Y-68292349D01*
X38791652Y-68330104D01*
X38794197Y-68368292D01*
X38792986Y-68406545D01*
X38788032Y-68444496D01*
X38779382Y-68481779D01*
X38767119Y-68518034D01*
X38751361Y-68552912D01*
X38732261Y-68586078D01*
X38710002Y-68617212D01*
X38684799Y-68646015D01*
X36448000Y-70962289D01*
X36420094Y-70988482D01*
X36389756Y-71011814D01*
X36357277Y-71032060D01*
X36322969Y-71049025D01*
X36287164Y-71062546D01*
X36250206Y-71072492D01*
X36212452Y-71078768D01*
X36174264Y-71081313D01*
X36136010Y-71080102D01*
X36098059Y-71075148D01*
X36060777Y-71066498D01*
X36024522Y-71054235D01*
X35989643Y-71038477D01*
X35956477Y-71019377D01*
X35925343Y-70997118D01*
X35896540Y-70971914D01*
X35335455Y-70430080D01*
X35309262Y-70402175D01*
X35285930Y-70371837D01*
X35265684Y-70339357D01*
X35248718Y-70305050D01*
X35235198Y-70269245D01*
X35225252Y-70232287D01*
X35218976Y-70194532D01*
X35216431Y-70156344D01*
X35217642Y-70118091D01*
X35222596Y-70080140D01*
X35231246Y-70042857D01*
X35243509Y-70006602D01*
X35259267Y-69971724D01*
X35278367Y-69938558D01*
X35300626Y-69907424D01*
X35325829Y-69878621D01*
X37562628Y-67562347D01*
X37590534Y-67536154D01*
X37620872Y-67512822D01*
X37653351Y-67492576D01*
X37687659Y-67475611D01*
X37723464Y-67462090D01*
X37760422Y-67452144D01*
X37798176Y-67445868D01*
X37836364Y-67443323D01*
X37874618Y-67444534D01*
X37874618Y-67444534D01*
G37*
D26*
X37005314Y-69262318D03*
D11*
G36*
X34679190Y-70753498D02*
G01*
X34717141Y-70758452D01*
X34754423Y-70767102D01*
X34790678Y-70779365D01*
X34825557Y-70795123D01*
X34858723Y-70814223D01*
X34889857Y-70836482D01*
X34918660Y-70861686D01*
X35479745Y-71403520D01*
X35505938Y-71431425D01*
X35529270Y-71461763D01*
X35549516Y-71494243D01*
X35566482Y-71528550D01*
X35580002Y-71564355D01*
X35589948Y-71601313D01*
X35596224Y-71639068D01*
X35598769Y-71677256D01*
X35597558Y-71715509D01*
X35592604Y-71753460D01*
X35583954Y-71790743D01*
X35571691Y-71826998D01*
X35555933Y-71861876D01*
X35536833Y-71895042D01*
X35514574Y-71926176D01*
X35489371Y-71954979D01*
X33252572Y-74271253D01*
X33224666Y-74297446D01*
X33194328Y-74320778D01*
X33161849Y-74341024D01*
X33127541Y-74357989D01*
X33091736Y-74371510D01*
X33054778Y-74381456D01*
X33017024Y-74387732D01*
X32978836Y-74390277D01*
X32940582Y-74389066D01*
X32902631Y-74384112D01*
X32865349Y-74375462D01*
X32829094Y-74363199D01*
X32794215Y-74347441D01*
X32761049Y-74328341D01*
X32729915Y-74306082D01*
X32701112Y-74280878D01*
X32140027Y-73739044D01*
X32113834Y-73711139D01*
X32090502Y-73680801D01*
X32070256Y-73648321D01*
X32053290Y-73614014D01*
X32039770Y-73578209D01*
X32029824Y-73541251D01*
X32023548Y-73503496D01*
X32021003Y-73465308D01*
X32022214Y-73427055D01*
X32027168Y-73389104D01*
X32035818Y-73351821D01*
X32048081Y-73315566D01*
X32063839Y-73280688D01*
X32082939Y-73247522D01*
X32105198Y-73216388D01*
X32130401Y-73187585D01*
X34367200Y-70871311D01*
X34395106Y-70845118D01*
X34425444Y-70821786D01*
X34457923Y-70801540D01*
X34492231Y-70784575D01*
X34528036Y-70771054D01*
X34564994Y-70761108D01*
X34602748Y-70754832D01*
X34640936Y-70752287D01*
X34679190Y-70753498D01*
X34679190Y-70753498D01*
G37*
D26*
X33809886Y-72571282D03*
D27*
X36446762Y-73727519D03*
D11*
G36*
X36096666Y-73118353D02*
G01*
X37067775Y-74056142D01*
X36796858Y-74336685D01*
X35825749Y-73398896D01*
X36096666Y-73118353D01*
X36096666Y-73118353D01*
G37*
D27*
X36898290Y-73259948D03*
D11*
G36*
X36548194Y-72650782D02*
G01*
X37519303Y-73588571D01*
X37248386Y-73869114D01*
X36277277Y-72931325D01*
X36548194Y-72650782D01*
X36548194Y-72650782D01*
G37*
D27*
X37349817Y-72792378D03*
D11*
G36*
X36999721Y-72183212D02*
G01*
X37970830Y-73121001D01*
X37699913Y-73401544D01*
X36728804Y-72463755D01*
X36999721Y-72183212D01*
X36999721Y-72183212D01*
G37*
D27*
X37801345Y-72324807D03*
D11*
G36*
X37451249Y-71715641D02*
G01*
X38422358Y-72653430D01*
X38151441Y-72933973D01*
X37180332Y-71996184D01*
X37451249Y-71715641D01*
X37451249Y-71715641D01*
G37*
D27*
X38252873Y-71857236D03*
D11*
G36*
X37902777Y-71248070D02*
G01*
X38873886Y-72185859D01*
X38602969Y-72466402D01*
X37631860Y-71528613D01*
X37902777Y-71248070D01*
X37902777Y-71248070D01*
G37*
M02*
