G04 #@! TF.GenerationSoftware,KiCad,Pcbnew,(5.1.4)-1*
G04 #@! TF.CreationDate,2019-12-24T17:10:30-08:00*
G04 #@! TF.ProjectId,tensigral_lamp_hardware,74656e73-6967-4726-916c-5f6c616d705f,rev?*
G04 #@! TF.SameCoordinates,Original*
G04 #@! TF.FileFunction,Legend,Top*
G04 #@! TF.FilePolarity,Positive*
%FSLAX46Y46*%
G04 Gerber Fmt 4.6, Leading zero omitted, Abs format (unit mm)*
G04 Created by KiCad (PCBNEW (5.1.4)-1) date 2019-12-24 17:10:30*
%MOMM*%
%LPD*%
G04 APERTURE LIST*
%ADD10C,0.150000*%
%ADD11C,0.120000*%
%ADD12C,0.300000*%
G04 APERTURE END LIST*
D10*
X57131104Y-112129866D02*
X57607295Y-112129866D01*
X57035866Y-112415580D02*
X57369200Y-111415580D01*
X57702533Y-112415580D01*
X58035866Y-111415580D02*
X58035866Y-112225104D01*
X58083485Y-112320342D01*
X58131104Y-112367961D01*
X58226342Y-112415580D01*
X58416819Y-112415580D01*
X58512057Y-112367961D01*
X58559676Y-112320342D01*
X58607295Y-112225104D01*
X58607295Y-111415580D01*
X58988247Y-111415580D02*
X59654914Y-112415580D01*
X59654914Y-111415580D02*
X58988247Y-112415580D01*
X87611104Y-68594266D02*
X88087295Y-68594266D01*
X87515866Y-68879980D02*
X87849200Y-67879980D01*
X88182533Y-68879980D01*
X88515866Y-67879980D02*
X88515866Y-68689504D01*
X88563485Y-68784742D01*
X88611104Y-68832361D01*
X88706342Y-68879980D01*
X88896819Y-68879980D01*
X88992057Y-68832361D01*
X89039676Y-68784742D01*
X89087295Y-68689504D01*
X89087295Y-67879980D01*
X89468247Y-67879980D02*
X90134914Y-68879980D01*
X90134914Y-67879980D02*
X89468247Y-68879980D01*
X78851238Y-65136780D02*
X79089333Y-66136780D01*
X79279809Y-65422495D01*
X79470285Y-66136780D01*
X79708380Y-65136780D01*
X80041714Y-66089161D02*
X80184571Y-66136780D01*
X80422666Y-66136780D01*
X80517904Y-66089161D01*
X80565523Y-66041542D01*
X80613142Y-65946304D01*
X80613142Y-65851066D01*
X80565523Y-65755828D01*
X80517904Y-65708209D01*
X80422666Y-65660590D01*
X80232190Y-65612971D01*
X80136952Y-65565352D01*
X80089333Y-65517733D01*
X80041714Y-65422495D01*
X80041714Y-65327257D01*
X80089333Y-65232019D01*
X80136952Y-65184400D01*
X80232190Y-65136780D01*
X80470285Y-65136780D01*
X80613142Y-65184400D01*
X30618323Y-67473580D02*
X30951657Y-68473580D01*
X31284990Y-67473580D01*
X32094514Y-68473580D02*
X31618323Y-68473580D01*
X31618323Y-67473580D01*
X32427847Y-67949771D02*
X32761180Y-67949771D01*
X32904038Y-68473580D02*
X32427847Y-68473580D01*
X32427847Y-67473580D01*
X32904038Y-67473580D01*
X33332609Y-68473580D02*
X33332609Y-67473580D01*
X33570704Y-67473580D01*
X33713561Y-67521200D01*
X33808800Y-67616438D01*
X33856419Y-67711676D01*
X33904038Y-67902152D01*
X33904038Y-68045009D01*
X33856419Y-68235485D01*
X33808800Y-68330723D01*
X33713561Y-68425961D01*
X33570704Y-68473580D01*
X33332609Y-68473580D01*
X26416095Y-62136400D02*
X26320857Y-62088780D01*
X26178000Y-62088780D01*
X26035142Y-62136400D01*
X25939904Y-62231638D01*
X25892285Y-62326876D01*
X25844666Y-62517352D01*
X25844666Y-62660209D01*
X25892285Y-62850685D01*
X25939904Y-62945923D01*
X26035142Y-63041161D01*
X26178000Y-63088780D01*
X26273238Y-63088780D01*
X26416095Y-63041161D01*
X26463714Y-62993542D01*
X26463714Y-62660209D01*
X26273238Y-62660209D01*
X26892285Y-63088780D02*
X26892285Y-62088780D01*
X27463714Y-63088780D01*
X27463714Y-62088780D01*
X27939904Y-63088780D02*
X27939904Y-62088780D01*
X28178000Y-62088780D01*
X28320857Y-62136400D01*
X28416095Y-62231638D01*
X28463714Y-62326876D01*
X28511333Y-62517352D01*
X28511333Y-62660209D01*
X28463714Y-62850685D01*
X28416095Y-62945923D01*
X28320857Y-63041161D01*
X28178000Y-63088780D01*
X27939904Y-63088780D01*
X52959047Y-44521428D02*
X53720952Y-44521428D01*
X42164047Y-41981428D02*
X42925952Y-41981428D01*
X42545000Y-42362380D02*
X42545000Y-41600476D01*
D11*
X69850000Y-106045000D02*
X69215000Y-105410000D01*
X68580000Y-106045000D02*
X69850000Y-106045000D01*
X67945000Y-106680000D02*
X68580000Y-106045000D01*
X67945000Y-107315000D02*
X67945000Y-106680000D01*
X68580000Y-107315000D02*
X67945000Y-107315000D01*
X69215000Y-106680000D02*
X68580000Y-107315000D01*
X69215000Y-105410000D02*
X69215000Y-106680000D01*
D12*
X74439801Y-103633881D02*
X74934672Y-103348166D01*
X74375377Y-103093725D02*
X75018235Y-104207186D01*
X75151522Y-104295190D01*
X75310954Y-104285620D01*
X75434672Y-104214192D01*
X76326842Y-103616619D02*
X76238839Y-103749906D01*
X75991403Y-103892763D01*
X75831971Y-103902333D01*
X75698683Y-103814329D01*
X75412969Y-103319458D01*
X75403399Y-103160025D01*
X75491403Y-103026738D01*
X75738839Y-102883881D01*
X75898271Y-102874311D01*
X76031558Y-102962315D01*
X76102987Y-103086033D01*
X75555826Y-103566893D01*
X76481146Y-102455309D02*
X76981146Y-103321335D01*
X76552575Y-102579027D02*
X76578719Y-102481454D01*
X76666723Y-102348166D01*
X76852300Y-102241024D01*
X77011732Y-102231454D01*
X77145020Y-102319458D01*
X77537877Y-102999906D01*
X78058893Y-102616619D02*
X78218325Y-102607049D01*
X78465761Y-102464192D01*
X78553765Y-102330904D01*
X78544195Y-102171472D01*
X78508481Y-102109613D01*
X78375193Y-102021610D01*
X78215761Y-102031179D01*
X78030184Y-102138322D01*
X77870752Y-102147892D01*
X77737465Y-102059888D01*
X77701750Y-101998029D01*
X77692181Y-101838597D01*
X77780184Y-101705309D01*
X77965761Y-101598166D01*
X78125193Y-101588597D01*
X79208069Y-102035620D02*
X78708069Y-101169595D01*
X78458069Y-100736582D02*
X78431924Y-100834156D01*
X78529497Y-100860300D01*
X78555642Y-100762727D01*
X78458069Y-100736582D01*
X78529497Y-100860300D01*
X79883389Y-100491024D02*
X80490532Y-101542626D01*
X80500101Y-101702058D01*
X80473957Y-101799631D01*
X80385953Y-101932919D01*
X80200376Y-102040062D01*
X80040944Y-102049631D01*
X80347675Y-101295190D02*
X80259671Y-101428478D01*
X80012235Y-101571335D01*
X79852803Y-101580904D01*
X79755230Y-101554760D01*
X79621942Y-101466756D01*
X79407656Y-101095602D01*
X79398087Y-100936170D01*
X79424231Y-100838597D01*
X79512235Y-100705309D01*
X79759671Y-100562452D01*
X79919103Y-100552883D01*
X81001978Y-100999906D02*
X80501978Y-100133881D01*
X80644836Y-100381317D02*
X80635266Y-100221884D01*
X80661411Y-100124311D01*
X80749414Y-99991024D01*
X80873132Y-99919595D01*
X82362875Y-100214192D02*
X81970018Y-99533743D01*
X81836731Y-99445740D01*
X81677299Y-99455309D01*
X81429863Y-99598166D01*
X81341859Y-99731454D01*
X82327161Y-100152333D02*
X82239158Y-100285620D01*
X81929863Y-100464192D01*
X81770431Y-100473761D01*
X81637143Y-100385758D01*
X81565714Y-100262040D01*
X81556145Y-100102608D01*
X81644148Y-99969320D01*
X81953443Y-99790749D01*
X82041447Y-99657461D01*
X83167042Y-99749906D02*
X83007610Y-99759476D01*
X82874322Y-99671472D01*
X82231465Y-98558011D01*
X83424047Y-99766481D02*
X84413791Y-99195053D01*
X84837234Y-98785620D02*
X84677802Y-98795190D01*
X84544514Y-98707186D01*
X83901657Y-97593725D01*
X85888836Y-98178478D02*
X85495979Y-97498029D01*
X85362691Y-97410025D01*
X85203259Y-97419595D01*
X84955823Y-97562452D01*
X84867820Y-97695740D01*
X85853122Y-98116619D02*
X85765118Y-98249906D01*
X85455823Y-98428478D01*
X85296391Y-98438047D01*
X85163104Y-98350044D01*
X85091675Y-98226326D01*
X85082105Y-98066893D01*
X85170109Y-97933606D01*
X85479404Y-97755035D01*
X85567407Y-97621747D01*
X86507426Y-97821335D02*
X86007426Y-96955309D01*
X86078854Y-97079027D02*
X86104999Y-96981454D01*
X86193002Y-96848166D01*
X86378579Y-96741024D01*
X86538012Y-96731454D01*
X86671299Y-96819458D01*
X87064156Y-97499906D01*
X86671299Y-96819458D02*
X86661729Y-96660025D01*
X86749733Y-96526738D01*
X86935310Y-96419595D01*
X87094742Y-96410025D01*
X87228030Y-96498029D01*
X87620887Y-97178478D01*
X87739476Y-95955309D02*
X88489476Y-97254347D01*
X87775191Y-96017168D02*
X87863194Y-95883881D01*
X88110630Y-95741024D01*
X88270062Y-95731454D01*
X88367636Y-95757599D01*
X88500923Y-95845602D01*
X88715209Y-96216756D01*
X88724778Y-96376188D01*
X88698634Y-96473761D01*
X88610630Y-96607049D01*
X88363194Y-96749906D01*
X88203762Y-96759476D01*
X90404540Y-95571335D02*
X89904540Y-94705309D01*
X90047397Y-94952745D02*
X90037827Y-94793313D01*
X90063972Y-94695740D01*
X90151976Y-94562452D01*
X90275694Y-94491024D01*
X91912735Y-94040749D02*
X92902479Y-93469320D01*
X64709034Y-113351128D02*
X63959034Y-112052090D01*
X65265765Y-113029700D02*
X64872908Y-112349251D01*
X64739620Y-112261248D01*
X64580188Y-112270817D01*
X64394611Y-112377960D01*
X64306608Y-112511248D01*
X64280463Y-112608821D01*
X65198778Y-111913674D02*
X65693649Y-111627960D01*
X65134355Y-111373519D02*
X65777212Y-112486980D01*
X65910499Y-112574984D01*
X66069932Y-112565414D01*
X66193649Y-112493985D01*
X65941085Y-111485103D02*
X66435957Y-111199389D01*
X65876662Y-110944947D02*
X66519519Y-112058409D01*
X66652807Y-112146412D01*
X66812239Y-112136843D01*
X66935957Y-112065414D01*
X66868970Y-110949389D02*
X67618970Y-112248427D01*
X66904684Y-111011248D02*
X66992688Y-110877960D01*
X67240123Y-110735103D01*
X67399556Y-110725533D01*
X67497129Y-110751678D01*
X67630416Y-110839682D01*
X67844702Y-111210835D01*
X67854272Y-111370268D01*
X67828127Y-111467841D01*
X67740123Y-111601128D01*
X67492688Y-111743985D01*
X67333255Y-111753555D01*
X68446717Y-111110698D02*
X68606149Y-111101128D01*
X68853585Y-110958271D01*
X68941588Y-110824984D01*
X68932019Y-110665551D01*
X68896304Y-110603692D01*
X68763017Y-110515689D01*
X68603585Y-110525258D01*
X68418008Y-110632401D01*
X68258576Y-110641971D01*
X68125288Y-110553967D01*
X68089574Y-110492108D01*
X68080004Y-110332676D01*
X68168008Y-110199389D01*
X68353585Y-110092246D01*
X68513017Y-110082676D01*
X69524464Y-110405982D02*
X69622037Y-110432126D01*
X69595892Y-110529700D01*
X69498319Y-110503555D01*
X69524464Y-110405982D01*
X69595892Y-110529700D01*
X69131606Y-109725533D02*
X69229180Y-109751678D01*
X69203035Y-109849251D01*
X69105462Y-109823107D01*
X69131606Y-109725533D01*
X69203035Y-109849251D01*
X70356652Y-108275946D02*
X70207476Y-110588995D01*
X71717549Y-107490231D02*
X71568373Y-109803280D01*
X72993006Y-107413674D02*
X73600149Y-108465277D01*
X73609719Y-108624709D01*
X73583574Y-108722282D01*
X73495571Y-108855570D01*
X73309994Y-108962712D01*
X73150562Y-108972282D01*
X73457292Y-108217841D02*
X73369289Y-108351128D01*
X73121853Y-108493985D01*
X72962420Y-108503555D01*
X72864847Y-108477410D01*
X72731560Y-108389407D01*
X72517274Y-108018253D01*
X72507704Y-107858821D01*
X72533849Y-107761248D01*
X72621853Y-107627960D01*
X72869289Y-107485103D01*
X73028721Y-107475533D01*
X74111596Y-107922557D02*
X73611596Y-107056531D01*
X73361596Y-106623519D02*
X73335451Y-106721092D01*
X73433025Y-106747237D01*
X73459169Y-106649663D01*
X73361596Y-106623519D01*
X73433025Y-106747237D01*
X74044609Y-106806531D02*
X74539480Y-106520817D01*
X73980186Y-106266376D02*
X74623043Y-107379837D01*
X74756330Y-107467841D01*
X74915762Y-107458271D01*
X75039480Y-107386843D01*
X75472493Y-107136843D02*
X74722493Y-105837804D01*
X76029224Y-106815414D02*
X75636367Y-106134965D01*
X75503079Y-106046962D01*
X75343647Y-106056531D01*
X75158070Y-106163674D01*
X75070066Y-106296962D01*
X75043922Y-106394535D01*
X76704544Y-105270817D02*
X77204544Y-106136843D01*
X76147813Y-105592246D02*
X76540670Y-106272694D01*
X76673958Y-106360698D01*
X76833390Y-106351128D01*
X77018967Y-106243985D01*
X77106971Y-106110698D01*
X77133115Y-106013125D01*
X77823133Y-105779700D02*
X77073133Y-104480662D01*
X77358848Y-104975533D02*
X77446851Y-104842246D01*
X77694287Y-104699389D01*
X77853719Y-104689819D01*
X77951293Y-104715964D01*
X78084580Y-104803967D01*
X78298866Y-105175121D01*
X78308435Y-105334553D01*
X78282291Y-105432126D01*
X78194287Y-105565414D01*
X77946851Y-105708271D01*
X77787419Y-105717841D01*
X78927025Y-104977410D02*
X79024598Y-105003555D01*
X78998454Y-105101128D01*
X78900880Y-105074984D01*
X78927025Y-104977410D01*
X78998454Y-105101128D01*
X80138060Y-104360698D02*
X80050056Y-104493985D01*
X79802620Y-104636843D01*
X79643188Y-104646412D01*
X79545615Y-104620268D01*
X79412327Y-104532264D01*
X79198041Y-104161110D01*
X79188472Y-104001678D01*
X79214616Y-103904105D01*
X79302620Y-103770817D01*
X79550056Y-103627960D01*
X79709488Y-103618390D01*
X80916081Y-103993985D02*
X80756649Y-104003555D01*
X80659076Y-103977410D01*
X80525788Y-103889407D01*
X80311503Y-103518253D01*
X80301933Y-103358821D01*
X80328078Y-103261248D01*
X80416081Y-103127960D01*
X80601658Y-103020817D01*
X80761090Y-103011248D01*
X80858664Y-103037392D01*
X80991951Y-103125396D01*
X81206237Y-103496550D01*
X81215806Y-103655982D01*
X81189662Y-103753555D01*
X81101658Y-103886843D01*
X80916081Y-103993985D01*
X81905825Y-103422557D02*
X81405825Y-102556531D01*
X81477253Y-102680249D02*
X81503398Y-102582676D01*
X81591402Y-102449389D01*
X81776978Y-102342246D01*
X81936411Y-102332676D01*
X82069698Y-102420680D01*
X82462555Y-103101128D01*
X82069698Y-102420680D02*
X82060129Y-102261248D01*
X82148132Y-102127960D01*
X82333709Y-102020817D01*
X82493141Y-102011248D01*
X82626429Y-102099251D01*
X83019286Y-102779700D01*
X83780046Y-100525946D02*
X83630870Y-102838995D01*
X85519789Y-101253555D02*
X85431785Y-101386843D01*
X85184349Y-101529700D01*
X85024917Y-101539269D01*
X84927344Y-101513125D01*
X84794056Y-101425121D01*
X84579771Y-101053967D01*
X84570201Y-100894535D01*
X84596346Y-100796962D01*
X84684349Y-100663674D01*
X84931785Y-100520817D01*
X85091217Y-100511248D01*
X85612234Y-100127960D02*
X86112234Y-100993985D01*
X85683662Y-100251678D02*
X85709807Y-100154105D01*
X85797811Y-100020817D01*
X85983387Y-99913674D01*
X86142820Y-99904105D01*
X86276107Y-99992108D01*
X86668964Y-100672557D01*
X87473131Y-100208271D02*
X87313699Y-100217841D01*
X87180411Y-100129837D01*
X86537554Y-99016376D01*
X88153579Y-99815414D02*
X87994147Y-99824984D01*
X87896574Y-99798839D01*
X87763286Y-99710835D01*
X87549001Y-99339682D01*
X87539431Y-99180249D01*
X87565576Y-99082676D01*
X87653579Y-98949389D01*
X87839156Y-98842246D01*
X87998588Y-98832676D01*
X88096162Y-98858821D01*
X88229449Y-98946824D01*
X88443735Y-99317978D01*
X88453305Y-99477410D01*
X88427160Y-99574984D01*
X88339156Y-99708271D01*
X88153579Y-99815414D01*
X89143323Y-99243985D02*
X88393323Y-97944947D01*
X89700053Y-98922557D02*
X89307196Y-98242108D01*
X89173909Y-98154105D01*
X89014476Y-98163674D01*
X88828900Y-98270817D01*
X88740896Y-98404105D01*
X88714751Y-98501678D01*
X90318643Y-98565414D02*
X89818643Y-97699389D01*
X89961500Y-97946824D02*
X89951930Y-97787392D01*
X89978075Y-97689819D01*
X90066079Y-97556531D01*
X90189797Y-97485103D01*
X91264979Y-96204517D02*
X91115804Y-98517566D01*
X91798129Y-96556531D02*
X92293001Y-96270817D01*
X91733706Y-96016376D02*
X92376564Y-97129837D01*
X92509851Y-97217841D01*
X92669283Y-97208271D01*
X92793001Y-97136843D01*
X93685171Y-96539269D02*
X93597168Y-96672557D01*
X93349732Y-96815414D01*
X93190300Y-96824984D01*
X93057012Y-96736980D01*
X92771298Y-96242108D01*
X92761728Y-96082676D01*
X92849732Y-95949389D01*
X93097168Y-95806531D01*
X93256600Y-95796962D01*
X93389887Y-95884965D01*
X93461316Y-96008683D01*
X92914155Y-96489544D01*
X93839475Y-95377960D02*
X94339475Y-96243985D01*
X93910904Y-95501678D02*
X93937048Y-95404105D01*
X94025052Y-95270817D01*
X94210629Y-95163674D01*
X94370061Y-95154105D01*
X94503349Y-95242108D01*
X94896206Y-95922557D01*
X95417222Y-95539269D02*
X95576654Y-95529700D01*
X95824090Y-95386843D01*
X95912094Y-95253555D01*
X95902524Y-95094123D01*
X95866810Y-95032264D01*
X95733522Y-94944260D01*
X95574090Y-94953830D01*
X95388513Y-95060973D01*
X95229081Y-95070542D01*
X95095793Y-94982539D01*
X95060079Y-94920680D01*
X95050510Y-94761248D01*
X95138513Y-94627960D01*
X95324090Y-94520817D01*
X95483522Y-94511248D01*
X96566398Y-94958271D02*
X96066398Y-94092246D01*
X95816398Y-93659233D02*
X95790253Y-93756806D01*
X95887826Y-93782951D01*
X95913971Y-93685378D01*
X95816398Y-93659233D01*
X95887826Y-93782951D01*
X97241718Y-93413674D02*
X97848861Y-94465277D01*
X97858430Y-94624709D01*
X97832286Y-94722282D01*
X97744282Y-94855570D01*
X97558705Y-94962712D01*
X97399273Y-94972282D01*
X97706003Y-94217841D02*
X97618000Y-94351128D01*
X97370564Y-94493985D01*
X97211132Y-94503555D01*
X97113559Y-94477410D01*
X96980271Y-94389407D01*
X96765985Y-94018253D01*
X96756416Y-93858821D01*
X96782560Y-93761248D01*
X96870564Y-93627960D01*
X97118000Y-93485103D01*
X97277432Y-93475533D01*
X98360307Y-93922557D02*
X97860307Y-93056531D01*
X98003164Y-93303967D02*
X97993595Y-93144535D01*
X98019740Y-93046962D01*
X98107743Y-92913674D01*
X98231461Y-92842246D01*
X99721204Y-93136843D02*
X99328347Y-92456394D01*
X99195060Y-92368390D01*
X99035628Y-92377960D01*
X98788192Y-92520817D01*
X98700188Y-92654105D01*
X99685490Y-93074984D02*
X99597486Y-93208271D01*
X99288192Y-93386843D01*
X99128759Y-93396412D01*
X98995472Y-93308409D01*
X98924043Y-93184691D01*
X98914474Y-93025258D01*
X99002477Y-92891971D01*
X99311772Y-92713400D01*
X99399776Y-92580112D01*
X100525371Y-92672557D02*
X100365939Y-92682126D01*
X100232651Y-92594123D01*
X99589794Y-91480662D01*
X100782376Y-92689132D02*
X101772120Y-92117703D01*
X102195563Y-91708271D02*
X102036130Y-91717841D01*
X101902843Y-91629837D01*
X101259986Y-90516376D01*
X103247165Y-91101128D02*
X102854308Y-90420680D01*
X102721020Y-90332676D01*
X102561588Y-90342246D01*
X102314152Y-90485103D01*
X102226149Y-90618390D01*
X103211451Y-91039269D02*
X103123447Y-91172557D01*
X102814152Y-91351128D01*
X102654720Y-91360698D01*
X102521433Y-91272694D01*
X102450004Y-91148976D01*
X102440434Y-90989544D01*
X102528438Y-90856257D01*
X102837733Y-90677685D01*
X102925736Y-90544398D01*
X103865755Y-90743985D02*
X103365755Y-89877960D01*
X103437183Y-90001678D02*
X103463328Y-89904105D01*
X103551331Y-89770817D01*
X103736908Y-89663674D01*
X103896340Y-89654105D01*
X104029628Y-89742108D01*
X104422485Y-90422557D01*
X104029628Y-89742108D02*
X104020058Y-89582676D01*
X104108062Y-89449389D01*
X104293639Y-89342246D01*
X104453071Y-89332676D01*
X104586359Y-89420680D01*
X104979216Y-90101128D01*
X105097805Y-88877960D02*
X105847805Y-90176998D01*
X105133520Y-88939819D02*
X105221523Y-88806531D01*
X105468959Y-88663674D01*
X105628391Y-88654105D01*
X105725965Y-88680249D01*
X105859252Y-88768253D01*
X106073538Y-89139407D01*
X106083107Y-89298839D01*
X106056963Y-89396412D01*
X105968959Y-89529700D01*
X105721523Y-89672557D01*
X105562091Y-89682126D01*
D10*
X71016666Y-69754761D02*
X71159523Y-69802380D01*
X71397619Y-69802380D01*
X71492857Y-69754761D01*
X71540476Y-69707142D01*
X71588095Y-69611904D01*
X71588095Y-69516666D01*
X71540476Y-69421428D01*
X71492857Y-69373809D01*
X71397619Y-69326190D01*
X71207142Y-69278571D01*
X71111904Y-69230952D01*
X71064285Y-69183333D01*
X71016666Y-69088095D01*
X71016666Y-68992857D01*
X71064285Y-68897619D01*
X71111904Y-68850000D01*
X71207142Y-68802380D01*
X71445238Y-68802380D01*
X71588095Y-68850000D01*
X71921428Y-68802380D02*
X72159523Y-69802380D01*
X72350000Y-69088095D01*
X72540476Y-69802380D01*
X72778571Y-68802380D01*
X73159523Y-69802380D02*
X73159523Y-68802380D01*
X73397619Y-68802380D01*
X73540476Y-68850000D01*
X73635714Y-68945238D01*
X73683333Y-69040476D01*
X73730952Y-69230952D01*
X73730952Y-69373809D01*
X73683333Y-69564285D01*
X73635714Y-69659523D01*
X73540476Y-69754761D01*
X73397619Y-69802380D01*
X73159523Y-69802380D01*
X74921428Y-69421428D02*
X75683333Y-69421428D01*
X75302380Y-69802380D02*
X75302380Y-69040476D01*
X76635714Y-68802380D02*
X76159523Y-68802380D01*
X76111904Y-69278571D01*
X76159523Y-69230952D01*
X76254761Y-69183333D01*
X76492857Y-69183333D01*
X76588095Y-69230952D01*
X76635714Y-69278571D01*
X76683333Y-69373809D01*
X76683333Y-69611904D01*
X76635714Y-69707142D01*
X76588095Y-69754761D01*
X76492857Y-69802380D01*
X76254761Y-69802380D01*
X76159523Y-69754761D01*
X76111904Y-69707142D01*
X71088095Y-71404761D02*
X71230952Y-71452380D01*
X71469047Y-71452380D01*
X71564285Y-71404761D01*
X71611904Y-71357142D01*
X71659523Y-71261904D01*
X71659523Y-71166666D01*
X71611904Y-71071428D01*
X71564285Y-71023809D01*
X71469047Y-70976190D01*
X71278571Y-70928571D01*
X71183333Y-70880952D01*
X71135714Y-70833333D01*
X71088095Y-70738095D01*
X71088095Y-70642857D01*
X71135714Y-70547619D01*
X71183333Y-70500000D01*
X71278571Y-70452380D01*
X71516666Y-70452380D01*
X71659523Y-70500000D01*
X71992857Y-70452380D02*
X72230952Y-71452380D01*
X72421428Y-70738095D01*
X72611904Y-71452380D01*
X72850000Y-70452380D01*
X73802380Y-71357142D02*
X73754761Y-71404761D01*
X73611904Y-71452380D01*
X73516666Y-71452380D01*
X73373809Y-71404761D01*
X73278571Y-71309523D01*
X73230952Y-71214285D01*
X73183333Y-71023809D01*
X73183333Y-70880952D01*
X73230952Y-70690476D01*
X73278571Y-70595238D01*
X73373809Y-70500000D01*
X73516666Y-70452380D01*
X73611904Y-70452380D01*
X73754761Y-70500000D01*
X73802380Y-70547619D01*
X74992857Y-71452380D02*
X74992857Y-70452380D01*
X75564285Y-71452380D01*
X75564285Y-70452380D01*
X76611904Y-71357142D02*
X76564285Y-71404761D01*
X76421428Y-71452380D01*
X76326190Y-71452380D01*
X76183333Y-71404761D01*
X76088095Y-71309523D01*
X76040476Y-71214285D01*
X75992857Y-71023809D01*
X75992857Y-70880952D01*
X76040476Y-70690476D01*
X76088095Y-70595238D01*
X76183333Y-70500000D01*
X76326190Y-70452380D01*
X76421428Y-70452380D01*
X76564285Y-70500000D01*
X76611904Y-70547619D01*
X71635714Y-73102380D02*
X71302380Y-72626190D01*
X71064285Y-73102380D02*
X71064285Y-72102380D01*
X71445238Y-72102380D01*
X71540476Y-72150000D01*
X71588095Y-72197619D01*
X71635714Y-72292857D01*
X71635714Y-72435714D01*
X71588095Y-72530952D01*
X71540476Y-72578571D01*
X71445238Y-72626190D01*
X71064285Y-72626190D01*
X72016666Y-73054761D02*
X72159523Y-73102380D01*
X72397619Y-73102380D01*
X72492857Y-73054761D01*
X72540476Y-73007142D01*
X72588095Y-72911904D01*
X72588095Y-72816666D01*
X72540476Y-72721428D01*
X72492857Y-72673809D01*
X72397619Y-72626190D01*
X72207142Y-72578571D01*
X72111904Y-72530952D01*
X72064285Y-72483333D01*
X72016666Y-72388095D01*
X72016666Y-72292857D01*
X72064285Y-72197619D01*
X72111904Y-72150000D01*
X72207142Y-72102380D01*
X72445238Y-72102380D01*
X72588095Y-72150000D01*
X72873809Y-72102380D02*
X73445238Y-72102380D01*
X73159523Y-73102380D02*
X73159523Y-72102380D01*
X75492857Y-72102380D02*
X75588095Y-72102380D01*
X75683333Y-72150000D01*
X75730952Y-72197619D01*
X75778571Y-72292857D01*
X75826190Y-72483333D01*
X75826190Y-72721428D01*
X75778571Y-72911904D01*
X75730952Y-73007142D01*
X75683333Y-73054761D01*
X75588095Y-73102380D01*
X75492857Y-73102380D01*
X75397619Y-73054761D01*
X75350000Y-73007142D01*
X75302380Y-72911904D01*
X75254761Y-72721428D01*
X75254761Y-72483333D01*
X75302380Y-72292857D01*
X75350000Y-72197619D01*
X75397619Y-72150000D01*
X75492857Y-72102380D01*
X76111904Y-72102380D02*
X76445238Y-73102380D01*
X76778571Y-72102380D01*
D11*
X19561252Y-94310000D02*
X19038748Y-94310000D01*
X19561252Y-92890000D02*
X19038748Y-92890000D01*
X93592529Y-53411563D02*
X93961995Y-53042097D01*
X92588437Y-52407471D02*
X92957903Y-52038005D01*
X67790000Y-47311252D02*
X67790000Y-46788748D01*
X69210000Y-47311252D02*
X69210000Y-46788748D01*
X52113221Y-99417313D02*
X52482687Y-99786779D01*
X53117313Y-98413221D02*
X53486779Y-98782687D01*
X40668681Y-22827446D02*
X40847388Y-22336453D01*
X42003044Y-23313115D02*
X42181751Y-22822122D01*
X92288005Y-78042097D02*
X92657471Y-78411563D01*
X93292097Y-77038005D02*
X93661563Y-77407471D01*
X81510000Y-83188748D02*
X81510000Y-83711252D01*
X80090000Y-83188748D02*
X80090000Y-83711252D01*
X21002662Y-47693465D02*
X20511669Y-47872172D01*
X21488331Y-49027828D02*
X20997338Y-49206535D01*
X54540000Y-60761252D02*
X54540000Y-60238748D01*
X55960000Y-60761252D02*
X55960000Y-60238748D01*
X70900000Y-44400000D02*
X70900000Y-45550000D01*
X78200000Y-44400000D02*
X70900000Y-44400000D01*
X78200000Y-49900000D02*
X70900000Y-49900000D01*
X89595823Y-53784903D02*
X82979776Y-50699790D01*
X91920224Y-48800210D02*
X85304177Y-45715097D01*
X85304177Y-45715097D02*
X84818166Y-46757351D01*
X97806570Y-53314007D02*
X96810641Y-53889007D01*
X101456570Y-59635993D02*
X97806570Y-53314007D01*
X96693430Y-62385993D02*
X93043430Y-56064007D01*
X93043430Y-74635993D02*
X96693430Y-68314007D01*
X97806570Y-77385993D02*
X101456570Y-71064007D01*
X101456570Y-71064007D02*
X100460641Y-70489007D01*
X82979776Y-80350210D02*
X89595823Y-77265097D01*
X85304177Y-85334903D02*
X91920224Y-82249790D01*
X91920224Y-82249790D02*
X91434213Y-81207536D01*
X78000000Y-86150000D02*
X78000000Y-85000000D01*
X70700000Y-86150000D02*
X78000000Y-86150000D01*
X70700000Y-80650000D02*
X78000000Y-80650000D01*
X57664007Y-83243430D02*
X63985993Y-79593430D01*
X60414007Y-88006570D02*
X66735993Y-84356570D01*
X66735993Y-84356570D02*
X66160993Y-83360641D01*
X60006570Y-91864007D02*
X59010641Y-91289007D01*
X56356570Y-98185993D02*
X60006570Y-91864007D01*
X51593430Y-95435993D02*
X55243430Y-89114007D01*
X43086272Y-103639553D02*
X48678396Y-98947203D01*
X46621604Y-107852797D02*
X52213728Y-103160447D01*
X52213728Y-103160447D02*
X51474522Y-102279496D01*
X39625789Y-111471417D02*
X39525560Y-110325793D01*
X32353568Y-112107654D02*
X39625789Y-111471417D01*
X31874211Y-106628583D02*
X39146432Y-105992346D01*
X22356570Y-96114007D02*
X26006570Y-102435993D01*
X17593430Y-98864007D02*
X21243430Y-105185993D01*
X21243430Y-105185993D02*
X22239359Y-104610993D01*
X16641216Y-89778482D02*
X17766086Y-90017580D01*
X18158972Y-82638004D02*
X16641216Y-89778482D01*
X23538784Y-83781518D02*
X22021028Y-90921996D01*
X20743430Y-76285993D02*
X21739359Y-76860993D01*
X24393430Y-69964007D02*
X20743430Y-76285993D01*
X29156570Y-72714007D02*
X25506570Y-79035993D01*
X25356570Y-51464007D02*
X29006570Y-57785993D01*
X20593430Y-54214007D02*
X24243430Y-60535993D01*
X24243430Y-60535993D02*
X25239359Y-59960993D01*
X17075595Y-44872081D02*
X18208123Y-44672385D01*
X15807963Y-37682984D02*
X17075595Y-44872081D01*
X21224405Y-36727919D02*
X22492037Y-43917016D01*
X17397203Y-29128396D02*
X18278154Y-29867602D01*
X22089553Y-23536272D02*
X17397203Y-29128396D01*
X26302797Y-27071604D02*
X21610447Y-32663728D01*
X31253568Y-18492346D02*
X31153339Y-19637970D01*
X38525789Y-19128583D02*
X31253568Y-18492346D01*
X38046432Y-24607654D02*
X30774211Y-23971417D01*
X48428396Y-30652797D02*
X42836272Y-25960447D01*
X51963728Y-26439553D02*
X46371604Y-21747203D01*
X46371604Y-21747203D02*
X45632398Y-22628154D01*
X56056570Y-31914007D02*
X55060641Y-32489007D01*
X59706570Y-38235993D02*
X56056570Y-31914007D01*
X54943430Y-40985993D02*
X51293430Y-34664007D01*
X63785993Y-50256570D02*
X57464007Y-46606570D01*
X66535993Y-45493430D02*
X60214007Y-41843430D01*
X60214007Y-41843430D02*
X59639007Y-42839359D01*
X35102201Y-75952675D02*
X35361360Y-75674760D01*
X32140219Y-73190581D02*
X31950067Y-73013262D01*
X35102201Y-75952675D02*
X33807705Y-74745538D01*
X40299029Y-70379760D02*
X40039869Y-70657674D01*
X39004533Y-69172622D02*
X40299029Y-70379760D01*
X37146894Y-67440347D02*
X37337046Y-67617666D01*
D10*
X62517621Y-57268121D02*
X58135227Y-58040855D01*
X65217625Y-63798481D02*
X59333399Y-64836029D01*
D11*
X81960000Y-48011252D02*
X81960000Y-47488748D01*
X80540000Y-48011252D02*
X80540000Y-47488748D01*
X42868748Y-83960000D02*
X43391252Y-83960000D01*
X42868748Y-82540000D02*
X43391252Y-82540000D01*
X54983748Y-73540000D02*
X55506252Y-73540000D01*
X54983748Y-74960000D02*
X55506252Y-74960000D01*
X43011252Y-77710000D02*
X42488748Y-77710000D01*
X43011252Y-76290000D02*
X42488748Y-76290000D01*
X46040000Y-87488748D02*
X46040000Y-88011252D01*
X47460000Y-87488748D02*
X47460000Y-88011252D01*
X58658004Y-71341073D02*
X58396752Y-71793575D01*
X57428248Y-70631073D02*
X57166996Y-71083575D01*
X48702631Y-76790000D02*
X50297369Y-76790000D01*
X48702631Y-81210000D02*
X50297369Y-81210000D01*
X38988748Y-91960000D02*
X39511252Y-91960000D01*
X38988748Y-90540000D02*
X39511252Y-90540000D01*
X38960000Y-86988748D02*
X38960000Y-87511252D01*
X37540000Y-86988748D02*
X37540000Y-87511252D01*
X39161252Y-54860000D02*
X38638748Y-54860000D01*
X39161252Y-53440000D02*
X38638748Y-53440000D01*
D10*
X34800000Y-43900000D02*
X32600000Y-43900000D01*
X32600000Y-50500000D02*
X34800000Y-50500000D01*
X30400000Y-43900000D02*
X30400000Y-50500000D01*
X37000000Y-43900000D02*
X37000000Y-50500000D01*
D11*
X42120000Y-87920000D02*
X43920000Y-87920000D01*
X43920000Y-84700000D02*
X40970000Y-84700000D01*
X82735814Y-75825651D02*
X82047355Y-73256289D01*
X77770955Y-77155981D02*
X82735814Y-75825651D01*
X77082496Y-74586618D02*
X82047355Y-73256289D01*
X77770955Y-77155981D02*
X77082496Y-74586618D01*
X76544229Y-77484681D02*
X75259548Y-77828911D01*
X75259548Y-77828911D02*
X74915319Y-76544229D01*
D10*
X97654070Y-44910900D02*
X97756570Y-44733365D01*
X92890930Y-42160900D02*
X93040930Y-41901092D01*
X95645930Y-37389100D02*
X95495930Y-37648908D01*
X100409070Y-40139100D02*
X100259070Y-40398908D01*
X97654070Y-44910900D02*
X92890930Y-42160900D01*
X100409070Y-40139100D02*
X95645930Y-37389100D01*
X97756570Y-44733365D02*
X99272114Y-45608365D01*
X52700000Y-42350000D02*
G75*
G03X52700000Y-42350000I-4500000J0D01*
G01*
D11*
X87961252Y-39040000D02*
X87438748Y-39040000D01*
X87961252Y-40460000D02*
X87438748Y-40460000D01*
X108167313Y-42963221D02*
X108536779Y-43332687D01*
X107163221Y-43967313D02*
X107532687Y-44336779D01*
X103492097Y-47488005D02*
X103861563Y-47857471D01*
X102488005Y-48492097D02*
X102857471Y-48861563D01*
X104361252Y-41190000D02*
X103838748Y-41190000D01*
X104361252Y-42610000D02*
X103838748Y-42610000D01*
X30555000Y-35933748D02*
X30555000Y-36456252D01*
X29135000Y-35933748D02*
X29135000Y-36456252D01*
D10*
X103980471Y-44685232D02*
X104944652Y-45834299D01*
X105296860Y-45865113D02*
X106062905Y-45222326D01*
X106093719Y-44870118D02*
X105129538Y-43721051D01*
X104777330Y-43690237D02*
X104011285Y-44333024D01*
X103980471Y-44685232D02*
X104011285Y-44333024D01*
X104011285Y-44333024D02*
X103819774Y-44493721D01*
X103819774Y-44493721D02*
X103980471Y-44685232D01*
X81988095Y-58377380D02*
X82559523Y-58377380D01*
X82273809Y-59377380D02*
X82273809Y-58377380D01*
X82845238Y-58472619D02*
X82892857Y-58425000D01*
X82988095Y-58377380D01*
X83226190Y-58377380D01*
X83321428Y-58425000D01*
X83369047Y-58472619D01*
X83416666Y-58567857D01*
X83416666Y-58663095D01*
X83369047Y-58805952D01*
X82797619Y-59377380D01*
X83416666Y-59377380D01*
X64786290Y-55907313D02*
X64971161Y-56597260D01*
X64962138Y-56747574D01*
X64894795Y-56864217D01*
X64769130Y-56947187D01*
X64677137Y-56971837D01*
X65154262Y-55808715D02*
X65752216Y-55648494D01*
X65528838Y-56102739D01*
X65666828Y-56065765D01*
X65771145Y-56087112D01*
X65829467Y-56120783D01*
X65900112Y-56200452D01*
X65961736Y-56430434D01*
X65940389Y-56534752D01*
X65906717Y-56593073D01*
X65827049Y-56663719D01*
X65551070Y-56737667D01*
X65446753Y-56716320D01*
X65388431Y-56682648D01*
X63854687Y-54991078D02*
X64176663Y-54904805D01*
X64450224Y-55373792D02*
X63990259Y-55497039D01*
X63731440Y-54531114D01*
X64191405Y-54407866D01*
X64513380Y-54321593D02*
X65416150Y-55114973D01*
X65157331Y-54149047D02*
X64772199Y-55287519D01*
X65387313Y-54087424D02*
X65939271Y-53939527D01*
X65922111Y-54979401D02*
X65663292Y-54013475D01*
X67047373Y-54579290D02*
X67013701Y-54637612D01*
X66888037Y-54720582D01*
X66796044Y-54745232D01*
X66645730Y-54736209D01*
X66529087Y-54668866D01*
X66458441Y-54589198D01*
X66363146Y-54417537D01*
X66326172Y-54279547D01*
X66322869Y-54083237D01*
X66344216Y-53978919D01*
X66411560Y-53862276D01*
X66537225Y-53779306D01*
X66629218Y-53754656D01*
X66779532Y-53763679D01*
X66837853Y-53797351D01*
X67089182Y-53631409D02*
X67641140Y-53483513D01*
X67623980Y-54523387D02*
X67365161Y-53557461D01*
X68681899Y-54239918D02*
X68221934Y-54363165D01*
X67963115Y-53397240D01*
X19133333Y-95607142D02*
X19085714Y-95654761D01*
X18942857Y-95702380D01*
X18847619Y-95702380D01*
X18704761Y-95654761D01*
X18609523Y-95559523D01*
X18561904Y-95464285D01*
X18514285Y-95273809D01*
X18514285Y-95130952D01*
X18561904Y-94940476D01*
X18609523Y-94845238D01*
X18704761Y-94750000D01*
X18847619Y-94702380D01*
X18942857Y-94702380D01*
X19085714Y-94750000D01*
X19133333Y-94797619D01*
X20085714Y-95702380D02*
X19514285Y-95702380D01*
X19800000Y-95702380D02*
X19800000Y-94702380D01*
X19704761Y-94845238D01*
X19609523Y-94940476D01*
X19514285Y-94988095D01*
X17657142Y-91497619D02*
X17704761Y-91450000D01*
X17800000Y-91402380D01*
X18038095Y-91402380D01*
X18133333Y-91450000D01*
X18180952Y-91497619D01*
X18228571Y-91592857D01*
X18228571Y-91688095D01*
X18180952Y-91830952D01*
X17609523Y-92402380D01*
X18228571Y-92402380D01*
X18609523Y-91497619D02*
X18657142Y-91450000D01*
X18752380Y-91402380D01*
X18990476Y-91402380D01*
X19085714Y-91450000D01*
X19133333Y-91497619D01*
X19180952Y-91592857D01*
X19180952Y-91688095D01*
X19133333Y-91830952D01*
X18561904Y-92402380D01*
X19180952Y-92402380D01*
X19609523Y-91735714D02*
X19609523Y-92402380D01*
X19609523Y-91830952D02*
X19657142Y-91783333D01*
X19752380Y-91735714D01*
X19895238Y-91735714D01*
X19990476Y-91783333D01*
X20038095Y-91878571D01*
X20038095Y-92402380D01*
X20847619Y-91878571D02*
X20514285Y-91878571D01*
X20514285Y-92402380D02*
X20514285Y-91402380D01*
X20990476Y-91402380D01*
X92243177Y-51928447D02*
X92243177Y-51995790D01*
X92175833Y-52130477D01*
X92108490Y-52197821D01*
X91973802Y-52265164D01*
X91839115Y-52265164D01*
X91738100Y-52231493D01*
X91569741Y-52130477D01*
X91468726Y-52029462D01*
X91367711Y-51861103D01*
X91334039Y-51760088D01*
X91334039Y-51625401D01*
X91401383Y-51490714D01*
X91468726Y-51423370D01*
X91603413Y-51356027D01*
X91670757Y-51356027D01*
X91940131Y-51086653D02*
X91940131Y-51019309D01*
X91973802Y-50918294D01*
X92142161Y-50749935D01*
X92243177Y-50716264D01*
X92310520Y-50716264D01*
X92411535Y-50749935D01*
X92478879Y-50817279D01*
X92546222Y-50951966D01*
X92546222Y-51760088D01*
X92983955Y-51322355D01*
X92960384Y-54733303D02*
X92960384Y-54665960D01*
X92994056Y-54564945D01*
X93162415Y-54396586D01*
X93263430Y-54362914D01*
X93330774Y-54362914D01*
X93431789Y-54396586D01*
X93499132Y-54463929D01*
X93566476Y-54598616D01*
X93566476Y-55406738D01*
X94004209Y-54969006D01*
X93633819Y-54059868D02*
X93633819Y-53992525D01*
X93667491Y-53891510D01*
X93835850Y-53723151D01*
X93936865Y-53689479D01*
X94004209Y-53689479D01*
X94105224Y-53723151D01*
X94172567Y-53790494D01*
X94239911Y-53925181D01*
X94239911Y-54733303D01*
X94677644Y-54295571D01*
X94509285Y-53521120D02*
X94980690Y-53992525D01*
X94576629Y-53588464D02*
X94576629Y-53521120D01*
X94610300Y-53420105D01*
X94711316Y-53319090D01*
X94812331Y-53285418D01*
X94913346Y-53319090D01*
X95283735Y-53689479D01*
X95485766Y-52746670D02*
X95250064Y-52982372D01*
X95620453Y-53352761D02*
X94913346Y-52645655D01*
X95250064Y-52308937D01*
X67207142Y-47216666D02*
X67254761Y-47264285D01*
X67302380Y-47407142D01*
X67302380Y-47502380D01*
X67254761Y-47645238D01*
X67159523Y-47740476D01*
X67064285Y-47788095D01*
X66873809Y-47835714D01*
X66730952Y-47835714D01*
X66540476Y-47788095D01*
X66445238Y-47740476D01*
X66350000Y-47645238D01*
X66302380Y-47502380D01*
X66302380Y-47407142D01*
X66350000Y-47264285D01*
X66397619Y-47216666D01*
X66302380Y-46883333D02*
X66302380Y-46264285D01*
X66683333Y-46597619D01*
X66683333Y-46454761D01*
X66730952Y-46359523D01*
X66778571Y-46311904D01*
X66873809Y-46264285D01*
X67111904Y-46264285D01*
X67207142Y-46311904D01*
X67254761Y-46359523D01*
X67302380Y-46454761D01*
X67302380Y-46740476D01*
X67254761Y-46835714D01*
X67207142Y-46883333D01*
X69697619Y-48692857D02*
X69650000Y-48645238D01*
X69602380Y-48550000D01*
X69602380Y-48311904D01*
X69650000Y-48216666D01*
X69697619Y-48169047D01*
X69792857Y-48121428D01*
X69888095Y-48121428D01*
X70030952Y-48169047D01*
X70602380Y-48740476D01*
X70602380Y-48121428D01*
X69697619Y-47740476D02*
X69650000Y-47692857D01*
X69602380Y-47597619D01*
X69602380Y-47359523D01*
X69650000Y-47264285D01*
X69697619Y-47216666D01*
X69792857Y-47169047D01*
X69888095Y-47169047D01*
X70030952Y-47216666D01*
X70602380Y-47788095D01*
X70602380Y-47169047D01*
X69935714Y-46740476D02*
X70602380Y-46740476D01*
X70030952Y-46740476D02*
X69983333Y-46692857D01*
X69935714Y-46597619D01*
X69935714Y-46454761D01*
X69983333Y-46359523D01*
X70078571Y-46311904D01*
X70602380Y-46311904D01*
X70078571Y-45502380D02*
X70078571Y-45835714D01*
X70602380Y-45835714D02*
X69602380Y-45835714D01*
X69602380Y-45359523D01*
X53596336Y-98067961D02*
X53528993Y-98067961D01*
X53394306Y-98000617D01*
X53326962Y-97933274D01*
X53259619Y-97798586D01*
X53259619Y-97663899D01*
X53293290Y-97562884D01*
X53394306Y-97394525D01*
X53495321Y-97293510D01*
X53663680Y-97192495D01*
X53764695Y-97158823D01*
X53899382Y-97158823D01*
X54034069Y-97226167D01*
X54101413Y-97293510D01*
X54168756Y-97428197D01*
X54168756Y-97495541D01*
X54606489Y-98269991D02*
X54135084Y-98741396D01*
X54707504Y-97832258D02*
X54034069Y-98168976D01*
X54471802Y-98606709D01*
X50791480Y-98785168D02*
X50858823Y-98785168D01*
X50959838Y-98818840D01*
X51128197Y-98987199D01*
X51161869Y-99088214D01*
X51161869Y-99155558D01*
X51128197Y-99256573D01*
X51060854Y-99323916D01*
X50926167Y-99391260D01*
X50118045Y-99391260D01*
X50555777Y-99828993D01*
X51464915Y-99458603D02*
X51532258Y-99458603D01*
X51633273Y-99492275D01*
X51801632Y-99660634D01*
X51835304Y-99761649D01*
X51835304Y-99828993D01*
X51801632Y-99930008D01*
X51734289Y-99997351D01*
X51599602Y-100064695D01*
X50791480Y-100064695D01*
X51229212Y-100502428D01*
X52003663Y-100334069D02*
X51532258Y-100805474D01*
X51936319Y-100401413D02*
X52003663Y-100401413D01*
X52104678Y-100435084D01*
X52205693Y-100536100D01*
X52239365Y-100637115D01*
X52205693Y-100738130D01*
X51835304Y-101108519D01*
X52778113Y-101310550D02*
X52542411Y-101074848D01*
X52172022Y-101445237D02*
X52879128Y-100738130D01*
X53215846Y-101074848D01*
X40153324Y-22539216D02*
X40181784Y-22600250D01*
X40177671Y-22750778D01*
X40145098Y-22840273D01*
X40051491Y-22958228D01*
X39929423Y-23015149D01*
X39823642Y-23027323D01*
X39628366Y-23006924D01*
X39494124Y-22958064D01*
X39331422Y-22848170D01*
X39258214Y-22770849D01*
X39201293Y-22648781D01*
X39205406Y-22498253D01*
X39237979Y-22408758D01*
X39331586Y-22290803D01*
X39392620Y-22262343D01*
X39612572Y-21379571D02*
X39449706Y-21827044D01*
X39880892Y-22034658D01*
X39852431Y-21973624D01*
X39840257Y-21867843D01*
X39921690Y-21644106D01*
X39999011Y-21570898D01*
X40060045Y-21542438D01*
X40165826Y-21530264D01*
X40389563Y-21611697D01*
X40462770Y-21689018D01*
X40491231Y-21750052D01*
X40503405Y-21855833D01*
X40421972Y-22079569D01*
X40344651Y-22152777D01*
X40283617Y-22181238D01*
X41988719Y-24778174D02*
X41960259Y-24717140D01*
X41948085Y-24611359D01*
X42029518Y-24387622D01*
X42106839Y-24314414D01*
X42167873Y-24285954D01*
X42273654Y-24273780D01*
X42363148Y-24306353D01*
X42481104Y-24399961D01*
X42822631Y-25132368D01*
X43034357Y-24550653D01*
X42314453Y-23883228D02*
X42285992Y-23822195D01*
X42273818Y-23716413D01*
X42355252Y-23492677D01*
X42432572Y-23419469D01*
X42493606Y-23391009D01*
X42599387Y-23378835D01*
X42688882Y-23411408D01*
X42806837Y-23505015D01*
X43148364Y-24237423D01*
X43360091Y-23655708D01*
X42880209Y-23024969D02*
X43506671Y-23252983D01*
X42969704Y-23057543D02*
X42941243Y-22996509D01*
X42929069Y-22890727D01*
X42977929Y-22756486D01*
X43055250Y-22683278D01*
X43161031Y-22671104D01*
X43653251Y-22850257D01*
X43437904Y-21910400D02*
X43323898Y-22223631D01*
X43816118Y-22402785D02*
X42876425Y-22060764D01*
X43039292Y-21613292D01*
X94879610Y-76969687D02*
X94812267Y-76969687D01*
X94677580Y-76902343D01*
X94610236Y-76835000D01*
X94542893Y-76700312D01*
X94542893Y-76565625D01*
X94576564Y-76464610D01*
X94677580Y-76296251D01*
X94778595Y-76195236D01*
X94946954Y-76094221D01*
X95047969Y-76060549D01*
X95182656Y-76060549D01*
X95317343Y-76127893D01*
X95384687Y-76195236D01*
X95452030Y-76329923D01*
X95452030Y-76397267D01*
X96125465Y-76936015D02*
X95990778Y-76801328D01*
X95889763Y-76767656D01*
X95822419Y-76767656D01*
X95654061Y-76801328D01*
X95485702Y-76902343D01*
X95216328Y-77171717D01*
X95182656Y-77272732D01*
X95182656Y-77340076D01*
X95216328Y-77441091D01*
X95351015Y-77575778D01*
X95452030Y-77609450D01*
X95519374Y-77609450D01*
X95620389Y-77575778D01*
X95788748Y-77407419D01*
X95822419Y-77306404D01*
X95822419Y-77239061D01*
X95788748Y-77138045D01*
X95654061Y-77003358D01*
X95553045Y-76969687D01*
X95485702Y-76969687D01*
X95384687Y-77003358D01*
X90966264Y-77409952D02*
X91033607Y-77409952D01*
X91134622Y-77443624D01*
X91302981Y-77611983D01*
X91336653Y-77712998D01*
X91336653Y-77780342D01*
X91302981Y-77881357D01*
X91235638Y-77948700D01*
X91100951Y-78016044D01*
X90292829Y-78016044D01*
X90730561Y-78453777D01*
X91639699Y-78083387D02*
X91707042Y-78083387D01*
X91808058Y-78117059D01*
X91976416Y-78285418D01*
X92010088Y-78386433D01*
X92010088Y-78453777D01*
X91976416Y-78554792D01*
X91909073Y-78622135D01*
X91774386Y-78689479D01*
X90966264Y-78689479D01*
X91403996Y-79127212D01*
X92178447Y-78958853D02*
X91707042Y-79430258D01*
X92111103Y-79026197D02*
X92178447Y-79026197D01*
X92279462Y-79059868D01*
X92380477Y-79160884D01*
X92414149Y-79261899D01*
X92380477Y-79362914D01*
X92010088Y-79733303D01*
X92952897Y-79935334D02*
X92717195Y-79699632D01*
X92346806Y-80070021D02*
X93053912Y-79362914D01*
X93390630Y-79699632D01*
X82807142Y-83616666D02*
X82854761Y-83664285D01*
X82902380Y-83807142D01*
X82902380Y-83902380D01*
X82854761Y-84045238D01*
X82759523Y-84140476D01*
X82664285Y-84188095D01*
X82473809Y-84235714D01*
X82330952Y-84235714D01*
X82140476Y-84188095D01*
X82045238Y-84140476D01*
X81950000Y-84045238D01*
X81902380Y-83902380D01*
X81902380Y-83807142D01*
X81950000Y-83664285D01*
X81997619Y-83616666D01*
X81902380Y-83283333D02*
X81902380Y-82616666D01*
X82902380Y-83045238D01*
X78697619Y-85092857D02*
X78650000Y-85045238D01*
X78602380Y-84950000D01*
X78602380Y-84711904D01*
X78650000Y-84616666D01*
X78697619Y-84569047D01*
X78792857Y-84521428D01*
X78888095Y-84521428D01*
X79030952Y-84569047D01*
X79602380Y-85140476D01*
X79602380Y-84521428D01*
X78697619Y-84140476D02*
X78650000Y-84092857D01*
X78602380Y-83997619D01*
X78602380Y-83759523D01*
X78650000Y-83664285D01*
X78697619Y-83616666D01*
X78792857Y-83569047D01*
X78888095Y-83569047D01*
X79030952Y-83616666D01*
X79602380Y-84188095D01*
X79602380Y-83569047D01*
X78935714Y-83140476D02*
X79602380Y-83140476D01*
X79030952Y-83140476D02*
X78983333Y-83092857D01*
X78935714Y-82997619D01*
X78935714Y-82854761D01*
X78983333Y-82759523D01*
X79078571Y-82711904D01*
X79602380Y-82711904D01*
X79078571Y-81902380D02*
X79078571Y-82235714D01*
X79602380Y-82235714D02*
X78602380Y-82235714D01*
X78602380Y-81759523D01*
X21529867Y-50393100D02*
X21501407Y-50454134D01*
X21383451Y-50547742D01*
X21293957Y-50580315D01*
X21143428Y-50584428D01*
X21021360Y-50527507D01*
X20944040Y-50454299D01*
X20834146Y-50291596D01*
X20785286Y-50157354D01*
X20764886Y-49962079D01*
X20777060Y-49856297D01*
X20833982Y-49734230D01*
X20951937Y-49640622D01*
X21041431Y-49608049D01*
X21191960Y-49603936D01*
X21252994Y-49632397D01*
X21903968Y-49750188D02*
X21798186Y-49738014D01*
X21737152Y-49709553D01*
X21659832Y-49636345D01*
X21643545Y-49591598D01*
X21655719Y-49485817D01*
X21684180Y-49424783D01*
X21757388Y-49347462D01*
X21936377Y-49282316D01*
X22042158Y-49294489D01*
X22103192Y-49322950D01*
X22180512Y-49396158D01*
X22196799Y-49440905D01*
X22184625Y-49546686D01*
X22156165Y-49607720D01*
X22082957Y-49685041D01*
X21903968Y-49750188D01*
X21830760Y-49827508D01*
X21802299Y-49888542D01*
X21790125Y-49994323D01*
X21855272Y-50173312D01*
X21932593Y-50246520D01*
X21993626Y-50274981D01*
X22099408Y-50287155D01*
X22278397Y-50222008D01*
X22351605Y-50144688D01*
X22380065Y-50083654D01*
X22392239Y-49977872D01*
X22327092Y-49798883D01*
X22249772Y-49725675D01*
X22188738Y-49697215D01*
X22082957Y-49685041D01*
X18737162Y-47036298D02*
X18765623Y-46975264D01*
X18838831Y-46897943D01*
X19062567Y-46816510D01*
X19168348Y-46828684D01*
X19229382Y-46857144D01*
X19306703Y-46930352D01*
X19339276Y-47019847D01*
X19343389Y-47170375D01*
X19001862Y-47902782D01*
X19583576Y-47691056D01*
X19632108Y-46710564D02*
X19660568Y-46649530D01*
X19733776Y-46572210D01*
X19957513Y-46490776D01*
X20063294Y-46502950D01*
X20124328Y-46531411D01*
X20201648Y-46604619D01*
X20234222Y-46694113D01*
X20238334Y-46844642D01*
X19896807Y-47577049D01*
X20478522Y-47365322D01*
X20653234Y-46592280D02*
X20881247Y-47218742D01*
X20685807Y-46681775D02*
X20714268Y-46620741D01*
X20787476Y-46543420D01*
X20921717Y-46494560D01*
X21027499Y-46506734D01*
X21104819Y-46579942D01*
X21283973Y-47072162D01*
X21865523Y-46303069D02*
X21552292Y-46417075D01*
X21731445Y-46909295D02*
X21389425Y-45969603D01*
X21836898Y-45806736D01*
X53957142Y-60666666D02*
X54004761Y-60714285D01*
X54052380Y-60857142D01*
X54052380Y-60952380D01*
X54004761Y-61095238D01*
X53909523Y-61190476D01*
X53814285Y-61238095D01*
X53623809Y-61285714D01*
X53480952Y-61285714D01*
X53290476Y-61238095D01*
X53195238Y-61190476D01*
X53100000Y-61095238D01*
X53052380Y-60952380D01*
X53052380Y-60857142D01*
X53100000Y-60714285D01*
X53147619Y-60666666D01*
X54052380Y-60190476D02*
X54052380Y-60000000D01*
X54004761Y-59904761D01*
X53957142Y-59857142D01*
X53814285Y-59761904D01*
X53623809Y-59714285D01*
X53242857Y-59714285D01*
X53147619Y-59761904D01*
X53100000Y-59809523D01*
X53052380Y-59904761D01*
X53052380Y-60095238D01*
X53100000Y-60190476D01*
X53147619Y-60238095D01*
X53242857Y-60285714D01*
X53480952Y-60285714D01*
X53576190Y-60238095D01*
X53623809Y-60190476D01*
X53671428Y-60095238D01*
X53671428Y-59904761D01*
X53623809Y-59809523D01*
X53576190Y-59761904D01*
X53480952Y-59714285D01*
X54797619Y-65892857D02*
X54750000Y-65845238D01*
X54702380Y-65750000D01*
X54702380Y-65511904D01*
X54750000Y-65416666D01*
X54797619Y-65369047D01*
X54892857Y-65321428D01*
X54988095Y-65321428D01*
X55130952Y-65369047D01*
X55702380Y-65940476D01*
X55702380Y-65321428D01*
X54797619Y-64940476D02*
X54750000Y-64892857D01*
X54702380Y-64797619D01*
X54702380Y-64559523D01*
X54750000Y-64464285D01*
X54797619Y-64416666D01*
X54892857Y-64369047D01*
X54988095Y-64369047D01*
X55130952Y-64416666D01*
X55702380Y-64988095D01*
X55702380Y-64369047D01*
X55035714Y-63940476D02*
X55702380Y-63940476D01*
X55130952Y-63940476D02*
X55083333Y-63892857D01*
X55035714Y-63797619D01*
X55035714Y-63654761D01*
X55083333Y-63559523D01*
X55178571Y-63511904D01*
X55702380Y-63511904D01*
X55178571Y-62702380D02*
X55178571Y-63035714D01*
X55702380Y-63035714D02*
X54702380Y-63035714D01*
X54702380Y-62559523D01*
X68761904Y-50452380D02*
X68761904Y-49452380D01*
X69000000Y-49452380D01*
X69142857Y-49500000D01*
X69238095Y-49595238D01*
X69285714Y-49690476D01*
X69333333Y-49880952D01*
X69333333Y-50023809D01*
X69285714Y-50214285D01*
X69238095Y-50309523D01*
X69142857Y-50404761D01*
X69000000Y-50452380D01*
X68761904Y-50452380D01*
X70285714Y-50452380D02*
X69714285Y-50452380D01*
X70000000Y-50452380D02*
X70000000Y-49452380D01*
X69904761Y-49595238D01*
X69809523Y-49690476D01*
X69714285Y-49738095D01*
X78985714Y-49202380D02*
X78414285Y-49202380D01*
X78700000Y-49202380D02*
X78700000Y-48202380D01*
X78604761Y-48345238D01*
X78509523Y-48440476D01*
X78414285Y-48488095D01*
X89889874Y-54848063D02*
X90312492Y-53941756D01*
X90528279Y-54042379D01*
X90637627Y-54145911D01*
X90683693Y-54272475D01*
X90686601Y-54378915D01*
X90649260Y-54571669D01*
X90588886Y-54701142D01*
X90465230Y-54853647D01*
X90381823Y-54919838D01*
X90255258Y-54965903D01*
X90105661Y-54948687D01*
X89889874Y-54848063D01*
X91135393Y-54430564D02*
X91198675Y-54407531D01*
X91305115Y-54404623D01*
X91520902Y-54505247D01*
X91587093Y-54588653D01*
X91610125Y-54651936D01*
X91613034Y-54758375D01*
X91572784Y-54844690D01*
X91469253Y-54954038D01*
X90709866Y-55230432D01*
X91270914Y-55492053D01*
X90602748Y-53484702D02*
X90084858Y-53243206D01*
X90343803Y-53363954D02*
X90766421Y-52457646D01*
X90619732Y-52546869D01*
X90493168Y-52592935D01*
X90386728Y-52595843D01*
X93458089Y-59186981D02*
X94324115Y-58686981D01*
X94443163Y-58893177D01*
X94473352Y-59040705D01*
X94438492Y-59170802D01*
X94379823Y-59259661D01*
X94238675Y-59396138D01*
X94114958Y-59467567D01*
X93926191Y-59521565D01*
X93819903Y-59527945D01*
X93689805Y-59493086D01*
X93577137Y-59393177D01*
X93458089Y-59186981D01*
X94776496Y-59470528D02*
X95086020Y-60006639D01*
X94589439Y-59908440D01*
X94660867Y-60032157D01*
X94667247Y-60138446D01*
X94649817Y-60203494D01*
X94591148Y-60292353D01*
X94384951Y-60411400D01*
X94278663Y-60417780D01*
X94213615Y-60400350D01*
X94124756Y-60341681D01*
X93981899Y-60094245D01*
X93975519Y-59987957D01*
X93992949Y-59922908D01*
X97690442Y-62717631D02*
X97404728Y-62222759D01*
X97547585Y-62470195D02*
X98413611Y-61970195D01*
X98242274Y-61959145D01*
X98112176Y-61924285D01*
X98023318Y-61865616D01*
X94241636Y-71965399D02*
X93375611Y-71465399D01*
X93494658Y-71259203D01*
X93607326Y-71159294D01*
X93737424Y-71124435D01*
X93843712Y-71130814D01*
X94032479Y-71184813D01*
X94156197Y-71256242D01*
X94297345Y-71392719D01*
X94356014Y-71481578D01*
X94390873Y-71611675D01*
X94360684Y-71759203D01*
X94241636Y-71965399D01*
X94378572Y-70394887D02*
X94955922Y-70728220D01*
X93929610Y-70410607D02*
X94429152Y-70973946D01*
X94738675Y-70437835D01*
X94323989Y-75622759D02*
X94038275Y-76117631D01*
X94181132Y-75870195D02*
X93315106Y-75370195D01*
X93391205Y-75524102D01*
X93426065Y-75654200D01*
X93419685Y-75760488D01*
X92232242Y-82001928D02*
X91809624Y-81095621D01*
X92025412Y-80994997D01*
X92175009Y-80977781D01*
X92301573Y-81023846D01*
X92384980Y-81090037D01*
X92508637Y-81242542D01*
X92569011Y-81372015D01*
X92606352Y-81564769D01*
X92603444Y-81671209D01*
X92557378Y-81797773D01*
X92448030Y-81901305D01*
X92232242Y-82001928D01*
X93147507Y-80471756D02*
X92715932Y-80673002D01*
X92874021Y-81124702D01*
X92897054Y-81061420D01*
X92963244Y-80978013D01*
X93179032Y-80877390D01*
X93285472Y-80880298D01*
X93348754Y-80903331D01*
X93432161Y-80969521D01*
X93532784Y-81185309D01*
X93529876Y-81291748D01*
X93506843Y-81355031D01*
X93440653Y-81438437D01*
X93224865Y-81539061D01*
X93118426Y-81536153D01*
X93055143Y-81513120D01*
X83462762Y-81893021D02*
X82944872Y-82134517D01*
X83203817Y-82013769D02*
X82781199Y-81107461D01*
X82755258Y-81277183D01*
X82709192Y-81403747D01*
X82643002Y-81487154D01*
X68491904Y-84692380D02*
X68491904Y-83692380D01*
X68730000Y-83692380D01*
X68872857Y-83740000D01*
X68968095Y-83835238D01*
X69015714Y-83930476D01*
X69063333Y-84120952D01*
X69063333Y-84263809D01*
X69015714Y-84454285D01*
X68968095Y-84549523D01*
X68872857Y-84644761D01*
X68730000Y-84692380D01*
X68491904Y-84692380D01*
X69920476Y-83692380D02*
X69730000Y-83692380D01*
X69634761Y-83740000D01*
X69587142Y-83787619D01*
X69491904Y-83930476D01*
X69444285Y-84120952D01*
X69444285Y-84501904D01*
X69491904Y-84597142D01*
X69539523Y-84644761D01*
X69634761Y-84692380D01*
X69825238Y-84692380D01*
X69920476Y-84644761D01*
X69968095Y-84597142D01*
X70015714Y-84501904D01*
X70015714Y-84263809D01*
X69968095Y-84168571D01*
X69920476Y-84120952D01*
X69825238Y-84073333D01*
X69634761Y-84073333D01*
X69539523Y-84120952D01*
X69491904Y-84168571D01*
X69444285Y-84263809D01*
X70485714Y-82252380D02*
X69914285Y-82252380D01*
X70200000Y-82252380D02*
X70200000Y-81252380D01*
X70104761Y-81395238D01*
X70009523Y-81490476D01*
X69914285Y-81538095D01*
X60036981Y-81529732D02*
X59536981Y-80663706D01*
X59743177Y-80544658D01*
X59890705Y-80514469D01*
X60020802Y-80549329D01*
X60109661Y-80607998D01*
X60246138Y-80749146D01*
X60317567Y-80872863D01*
X60371565Y-81061630D01*
X60377945Y-81167918D01*
X60343086Y-81298016D01*
X60243177Y-81410684D01*
X60036981Y-81529732D01*
X60320528Y-80211325D02*
X60897878Y-79877992D01*
X61026724Y-80958303D01*
X58279621Y-84738275D02*
X57784749Y-85023989D01*
X58032185Y-84881132D02*
X57532185Y-84015106D01*
X57521135Y-84186443D01*
X57486275Y-84316541D01*
X57427606Y-84405399D01*
X58842725Y-90705399D02*
X57976700Y-90205399D01*
X58095747Y-89999203D01*
X58208415Y-89899294D01*
X58338513Y-89864435D01*
X58444801Y-89870814D01*
X58633568Y-89924813D01*
X58757286Y-89996242D01*
X58898434Y-90132719D01*
X58957103Y-90221578D01*
X58991962Y-90351675D01*
X58961773Y-90499203D01*
X58842725Y-90705399D01*
X58919282Y-89429942D02*
X58830424Y-89488611D01*
X58765375Y-89506040D01*
X58659087Y-89499661D01*
X58617848Y-89475851D01*
X58559178Y-89386993D01*
X58541749Y-89321944D01*
X58548128Y-89215656D01*
X58643367Y-89050699D01*
X58732225Y-88992030D01*
X58797274Y-88974600D01*
X58903562Y-88980980D01*
X58944801Y-89004789D01*
X59003470Y-89093647D01*
X59020900Y-89158696D01*
X59014520Y-89264984D01*
X58919282Y-89429942D01*
X58912902Y-89536230D01*
X58930332Y-89601279D01*
X58989001Y-89690137D01*
X59153959Y-89785375D01*
X59260247Y-89791755D01*
X59325295Y-89774325D01*
X59414154Y-89715656D01*
X59509392Y-89550699D01*
X59515772Y-89444411D01*
X59498342Y-89379362D01*
X59439673Y-89290503D01*
X59274716Y-89195265D01*
X59168427Y-89188886D01*
X59103379Y-89206315D01*
X59014520Y-89264984D01*
X52873989Y-96422759D02*
X52588275Y-96917631D01*
X52731132Y-96670195D02*
X51865106Y-96170195D01*
X51941205Y-96324102D01*
X51976065Y-96454200D01*
X51969685Y-96560488D01*
X44345371Y-109380982D02*
X43702583Y-108614937D01*
X43884975Y-108461893D01*
X44025018Y-108406544D01*
X44159193Y-108418283D01*
X44256889Y-108460631D01*
X44415803Y-108575935D01*
X44507630Y-108685370D01*
X44593587Y-108861892D01*
X44618327Y-108965458D01*
X44606588Y-109099632D01*
X44527762Y-109227937D01*
X44345371Y-109380982D01*
X45147893Y-108707585D02*
X45293807Y-108585150D01*
X45336154Y-108487453D01*
X45342024Y-108420366D01*
X45323153Y-108249713D01*
X45237196Y-108073191D01*
X44992325Y-107781365D01*
X44894628Y-107739017D01*
X44827541Y-107733148D01*
X44723976Y-107757887D01*
X44578062Y-107880323D01*
X44535715Y-107978019D01*
X44529845Y-108045106D01*
X44554585Y-108148672D01*
X44707630Y-108331064D01*
X44805326Y-108373411D01*
X44872413Y-108379281D01*
X44975979Y-108354541D01*
X45121892Y-108232105D01*
X45164239Y-108134409D01*
X45170109Y-108067322D01*
X45145369Y-107963756D01*
X43952109Y-105004787D02*
X43514370Y-105372094D01*
X43733239Y-105188440D02*
X43090452Y-104422396D01*
X43109322Y-104593049D01*
X43097583Y-104727223D01*
X43055236Y-104824919D01*
X39879762Y-109186491D02*
X39792606Y-108190296D01*
X40029796Y-108169545D01*
X40176259Y-108204532D01*
X40279436Y-108291107D01*
X40335174Y-108381832D01*
X40399213Y-108567434D01*
X40411664Y-108709747D01*
X40380827Y-108903649D01*
X40341690Y-109002675D01*
X40255115Y-109105851D01*
X40116951Y-109165740D01*
X39879762Y-109186491D01*
X41397773Y-109053682D02*
X40828519Y-109103486D01*
X41113146Y-109078584D02*
X41025990Y-108082389D01*
X40943565Y-108233003D01*
X40856990Y-108336179D01*
X40766265Y-108391918D01*
X41927309Y-108003534D02*
X42022185Y-107995233D01*
X42121211Y-108034371D01*
X42172799Y-108077658D01*
X42228537Y-108168384D01*
X42292576Y-108353985D01*
X42313328Y-108591174D01*
X42282491Y-108785076D01*
X42243354Y-108884102D01*
X42200066Y-108935690D01*
X42109341Y-108991428D01*
X42014465Y-108999729D01*
X41915439Y-108960591D01*
X41863851Y-108917304D01*
X41808113Y-108826578D01*
X41744074Y-108640977D01*
X41723322Y-108403788D01*
X41754159Y-108209886D01*
X41793296Y-108110860D01*
X41836584Y-108059272D01*
X41927309Y-108003534D01*
X31800397Y-108243542D02*
X31231143Y-108293346D01*
X31515770Y-108268444D02*
X31428614Y-107272249D01*
X31346189Y-107422863D01*
X31259614Y-107526040D01*
X31168889Y-107581778D01*
X16291083Y-96114588D02*
X17157109Y-95614588D01*
X17276156Y-95820784D01*
X17306346Y-95968312D01*
X17271486Y-96098409D01*
X17212817Y-96187268D01*
X17071669Y-96323745D01*
X16947951Y-96395174D01*
X16759185Y-96449172D01*
X16652896Y-96455552D01*
X16522799Y-96420693D01*
X16410131Y-96320784D01*
X16291083Y-96114588D01*
X17052988Y-97434245D02*
X16767274Y-96939374D01*
X16910131Y-97186810D02*
X17776156Y-96686810D01*
X17604819Y-96675760D01*
X17474722Y-96640900D01*
X17385863Y-96582231D01*
X17529178Y-98259032D02*
X17243464Y-97764160D01*
X17386321Y-98011596D02*
X18252347Y-97511596D01*
X18081010Y-97500546D01*
X17950912Y-97465686D01*
X17862054Y-97407017D01*
X20861724Y-96729621D02*
X20576010Y-96234749D01*
X20718867Y-96482185D02*
X21584893Y-95982185D01*
X21413556Y-95971135D01*
X21283458Y-95936275D01*
X21194600Y-95877606D01*
X21340031Y-83061805D02*
X20361883Y-82853894D01*
X20411386Y-82621001D01*
X20487666Y-82491167D01*
X20600624Y-82417811D01*
X20703681Y-82391034D01*
X20899896Y-82384057D01*
X21039631Y-82413759D01*
X21216044Y-82499940D01*
X21299301Y-82566319D01*
X21372657Y-82679277D01*
X21389533Y-82828913D01*
X21340031Y-83061805D01*
X21656848Y-81571295D02*
X21538042Y-82130236D01*
X21597445Y-81850766D02*
X20619298Y-81642854D01*
X20739232Y-81765712D01*
X20812588Y-81878670D01*
X20839365Y-81981728D01*
X20851062Y-81010557D02*
X20814384Y-80954078D01*
X20787607Y-80851020D01*
X20837110Y-80618128D01*
X20903489Y-80534871D01*
X20959968Y-80498194D01*
X21063026Y-80471416D01*
X21156183Y-80491217D01*
X21286018Y-80567497D01*
X21726152Y-81245246D01*
X21854860Y-80639726D01*
X23019768Y-82867930D02*
X22900962Y-83426872D01*
X22960365Y-83147401D02*
X21982217Y-82939489D01*
X22102152Y-83062348D01*
X22175507Y-83175306D01*
X22202285Y-83278363D01*
X27114630Y-71357792D02*
X26248605Y-70857792D01*
X26367652Y-70651596D01*
X26480320Y-70551687D01*
X26610418Y-70516828D01*
X26716706Y-70523208D01*
X26905473Y-70577206D01*
X27029191Y-70648635D01*
X27170338Y-70785112D01*
X27229007Y-70873971D01*
X27263867Y-71004068D01*
X27233678Y-71151596D01*
X27114630Y-71357792D01*
X27876535Y-70038134D02*
X27590821Y-70533006D01*
X27733678Y-70285570D02*
X26867652Y-69785570D01*
X26943751Y-69939478D01*
X26978611Y-70069575D01*
X26972231Y-70175863D01*
X27177176Y-69249459D02*
X27486700Y-68713348D01*
X27649948Y-69192500D01*
X27721376Y-69068782D01*
X27810235Y-69010113D01*
X27875283Y-68992683D01*
X27981572Y-68999063D01*
X28187768Y-69118110D01*
X28246437Y-69206969D01*
X28263867Y-69272017D01*
X28257487Y-69378306D01*
X28114630Y-69625741D01*
X28025772Y-69684411D01*
X27960723Y-69701840D01*
X28945271Y-71684749D02*
X28659557Y-72179621D01*
X28802414Y-71932185D02*
X27936388Y-71432185D01*
X28012487Y-71586092D01*
X28047347Y-71716190D01*
X28040967Y-71822478D01*
X23651083Y-49024588D02*
X24517109Y-48524588D01*
X24636156Y-48730784D01*
X24666346Y-48878312D01*
X24631486Y-49008409D01*
X24572817Y-49097268D01*
X24431669Y-49233745D01*
X24307951Y-49305174D01*
X24119185Y-49359172D01*
X24012896Y-49365552D01*
X23882799Y-49330693D01*
X23770131Y-49230784D01*
X23651083Y-49024588D01*
X24412988Y-50344245D02*
X24127274Y-49849374D01*
X24270131Y-50096810D02*
X25136156Y-49596810D01*
X24964819Y-49585760D01*
X24834722Y-49550900D01*
X24745863Y-49492231D01*
X25418910Y-50753220D02*
X24841559Y-51086553D01*
X25629777Y-50356547D02*
X24892139Y-50507493D01*
X25201663Y-51043604D01*
X23861724Y-52079621D02*
X23576010Y-51584749D01*
X23718867Y-51832185D02*
X24584893Y-51332185D01*
X24413556Y-51321135D01*
X24283458Y-51286275D01*
X24194600Y-51227606D01*
X20593633Y-34132717D02*
X21578440Y-33959068D01*
X21619785Y-34193547D01*
X21597697Y-34342502D01*
X21520443Y-34452831D01*
X21434921Y-34516265D01*
X21255608Y-34596236D01*
X21114921Y-34621043D01*
X20919069Y-34607224D01*
X20817009Y-34576866D01*
X20706680Y-34499613D01*
X20634978Y-34367195D01*
X20593633Y-34132717D01*
X20858239Y-35633376D02*
X20759012Y-35070629D01*
X20808626Y-35352002D02*
X21793433Y-35178354D01*
X21636209Y-35109370D01*
X21525880Y-35032117D01*
X21462446Y-34946594D01*
X22000157Y-36350744D02*
X21917468Y-35881788D01*
X21440243Y-35917582D01*
X21495407Y-35956209D01*
X21558841Y-36041731D01*
X21600186Y-36276209D01*
X21569828Y-36378269D01*
X21531201Y-36433434D01*
X21445679Y-36496868D01*
X21211201Y-36538212D01*
X21109141Y-36507855D01*
X21053976Y-36469228D01*
X20990543Y-36383706D01*
X20949198Y-36149228D01*
X20979556Y-36047168D01*
X21018182Y-35992003D01*
X19609157Y-36795139D02*
X19509929Y-36232392D01*
X19559543Y-36513766D02*
X20544351Y-36340117D01*
X20387126Y-36271133D01*
X20276797Y-36193880D01*
X20213364Y-36108358D01*
X24097172Y-31570738D02*
X23331127Y-30927951D01*
X23484172Y-30745559D01*
X23612477Y-30666733D01*
X23746651Y-30654994D01*
X23850217Y-30679734D01*
X24026739Y-30765691D01*
X24136174Y-30857518D01*
X24251478Y-31016432D01*
X24293826Y-31114128D01*
X24305565Y-31248303D01*
X24250216Y-31388347D01*
X24097172Y-31570738D01*
X25076657Y-30403432D02*
X24709350Y-30841172D01*
X24893004Y-30622302D02*
X24126959Y-29979515D01*
X24175176Y-30144298D01*
X24186915Y-30278473D01*
X24162176Y-30382038D01*
X24861574Y-29104035D02*
X24739138Y-29249948D01*
X24714399Y-29353514D01*
X24720268Y-29420601D01*
X24768485Y-29585385D01*
X24883789Y-29744299D01*
X25175616Y-29989170D01*
X25279181Y-30013910D01*
X25346269Y-30008040D01*
X25443965Y-29965693D01*
X25566400Y-29819779D01*
X25591140Y-29716214D01*
X25585271Y-29649127D01*
X25542923Y-29551431D01*
X25360531Y-29398386D01*
X25256966Y-29373646D01*
X25189879Y-29379516D01*
X25092182Y-29421863D01*
X24969747Y-29567777D01*
X24945007Y-29671342D01*
X24950877Y-29738429D01*
X24993224Y-29836126D01*
X26273437Y-26021291D02*
X25906130Y-26459030D01*
X26089783Y-26240160D02*
X25323739Y-25597373D01*
X25371956Y-25762156D01*
X25383695Y-25896331D01*
X25358955Y-25999896D01*
X33095862Y-25381508D02*
X33183018Y-24385313D01*
X33420207Y-24406065D01*
X33558370Y-24465953D01*
X33644945Y-24569130D01*
X33684083Y-24668156D01*
X33714919Y-24862057D01*
X33702468Y-25004371D01*
X33638430Y-25189972D01*
X33582691Y-25280697D01*
X33479515Y-25367272D01*
X33333051Y-25402259D01*
X33095862Y-25381508D01*
X34613873Y-25514317D02*
X34044619Y-25464514D01*
X34329246Y-25489415D02*
X34416402Y-24493220D01*
X34309075Y-24627233D01*
X34205899Y-24713809D01*
X34106873Y-24752946D01*
X35033094Y-24547174D02*
X35697223Y-24605278D01*
X35183127Y-25564120D01*
X38889958Y-23981169D02*
X38320704Y-23931365D01*
X38605331Y-23956267D02*
X38692487Y-22960072D01*
X38585160Y-23094085D01*
X38481984Y-23180660D01*
X38382958Y-23219798D01*
X43929261Y-28447172D02*
X44572048Y-27681127D01*
X44754440Y-27834172D01*
X44833266Y-27962477D01*
X44845005Y-28096651D01*
X44820265Y-28200217D01*
X44734308Y-28376739D01*
X44642481Y-28486174D01*
X44483567Y-28601478D01*
X44385871Y-28643826D01*
X44251696Y-28655565D01*
X44111652Y-28600216D01*
X43929261Y-28447172D01*
X45096567Y-29426657D02*
X44658827Y-29059350D01*
X44877697Y-29243004D02*
X45520484Y-28476959D01*
X45355701Y-28525176D01*
X45221526Y-28536915D01*
X45117961Y-28512176D01*
X45901614Y-29356225D02*
X45859266Y-29258529D01*
X45853396Y-29191442D01*
X45878136Y-29087876D01*
X45908745Y-29051398D01*
X46006441Y-29009050D01*
X46073528Y-29003181D01*
X46177094Y-29027920D01*
X46323007Y-29150356D01*
X46365355Y-29248052D01*
X46371224Y-29315139D01*
X46346485Y-29418705D01*
X46315876Y-29455183D01*
X46218180Y-29497531D01*
X46151092Y-29503400D01*
X46047527Y-29478661D01*
X45901614Y-29356225D01*
X45798048Y-29331485D01*
X45730961Y-29337355D01*
X45633265Y-29379703D01*
X45510829Y-29525616D01*
X45486089Y-29629181D01*
X45491959Y-29696269D01*
X45534306Y-29793965D01*
X45680220Y-29916400D01*
X45783785Y-29941140D01*
X45850872Y-29935271D01*
X45948568Y-29892923D01*
X46071004Y-29747010D01*
X46095744Y-29643444D01*
X46089874Y-29576357D01*
X46047527Y-29478661D01*
X49478708Y-30623437D02*
X49040969Y-30256130D01*
X49259839Y-30439783D02*
X49902626Y-29673739D01*
X49737843Y-29721956D01*
X49603668Y-29733695D01*
X49500103Y-29708955D01*
X55301083Y-42124588D02*
X56167109Y-41624588D01*
X56286156Y-41830784D01*
X56316346Y-41978312D01*
X56281486Y-42108409D01*
X56222817Y-42197268D01*
X56081669Y-42333745D01*
X55957951Y-42405174D01*
X55769185Y-42459172D01*
X55662896Y-42465552D01*
X55532799Y-42430693D01*
X55420131Y-42330784D01*
X55301083Y-42124588D01*
X56062988Y-43444245D02*
X55777274Y-42949374D01*
X55920131Y-43196810D02*
X56786156Y-42696810D01*
X56614819Y-42685760D01*
X56484722Y-42650900D01*
X56395863Y-42592231D01*
X56301083Y-43856639D02*
X56396321Y-44021596D01*
X56485180Y-44080265D01*
X56550229Y-44097695D01*
X56721565Y-44108745D01*
X56910332Y-44054746D01*
X57240247Y-43864270D01*
X57298916Y-43775411D01*
X57316346Y-43710362D01*
X57309966Y-43604074D01*
X57214728Y-43439117D01*
X57125869Y-43380448D01*
X57060821Y-43363018D01*
X56954532Y-43369398D01*
X56748336Y-43488446D01*
X56689667Y-43577304D01*
X56672237Y-43642353D01*
X56678617Y-43748641D01*
X56773855Y-43913598D01*
X56862713Y-43972267D01*
X56927762Y-43989697D01*
X57034050Y-43983317D01*
X55940442Y-41317631D02*
X55654728Y-40822759D01*
X55797585Y-41070195D02*
X56663611Y-40570195D01*
X56492274Y-40559145D01*
X56362176Y-40524285D01*
X56273318Y-40465616D01*
X58972207Y-48865719D02*
X59472207Y-47999694D01*
X59678403Y-48118741D01*
X59778312Y-48231409D01*
X59813171Y-48361507D01*
X59806791Y-48467795D01*
X59752793Y-48656562D01*
X59681364Y-48780280D01*
X59544887Y-48921427D01*
X59456028Y-48980096D01*
X59325931Y-49014956D01*
X59178403Y-48984767D01*
X58972207Y-48865719D01*
X60249374Y-48558363D02*
X60314423Y-48540933D01*
X60420711Y-48547313D01*
X60626907Y-48666360D01*
X60685576Y-48755219D01*
X60703006Y-48820267D01*
X60696626Y-48926556D01*
X60649007Y-49009034D01*
X60536339Y-49108943D01*
X59755754Y-49318100D01*
X60291865Y-49627624D01*
X61327975Y-49071122D02*
X61410454Y-49118741D01*
X61469123Y-49207600D01*
X61486553Y-49272648D01*
X61480173Y-49378937D01*
X61426174Y-49567703D01*
X61307127Y-49773900D01*
X61170649Y-49915048D01*
X61081791Y-49973717D01*
X61016742Y-49991146D01*
X60910454Y-49984767D01*
X60827975Y-49937148D01*
X60769306Y-49848289D01*
X60751877Y-49783240D01*
X60758256Y-49676952D01*
X60812255Y-49488186D01*
X60931303Y-49281989D01*
X61067780Y-49140841D01*
X61156639Y-49082172D01*
X61221687Y-49064742D01*
X61327975Y-49071122D01*
X64815250Y-50045271D02*
X64320378Y-49759557D01*
X64567814Y-49902414D02*
X65067814Y-49036388D01*
X64913907Y-49112487D01*
X64783809Y-49147347D01*
X64677521Y-49140967D01*
X31032163Y-76230309D02*
X31554559Y-76717450D01*
X31626562Y-76849705D01*
X31631262Y-76984310D01*
X31568661Y-77121265D01*
X31503708Y-77190918D01*
X32445516Y-76180953D02*
X32055802Y-76598870D01*
X32250659Y-76389912D02*
X31519305Y-75707913D01*
X31558832Y-75874994D01*
X31563533Y-76009599D01*
X31533407Y-76111728D01*
X60826774Y-64879751D02*
X60967346Y-65676977D01*
X61030780Y-65762499D01*
X61085944Y-65801126D01*
X61188004Y-65831483D01*
X61375587Y-65798407D01*
X61461109Y-65734974D01*
X61499736Y-65679809D01*
X61530093Y-65577749D01*
X61389521Y-64780524D01*
X62547977Y-65591683D02*
X61985230Y-65690911D01*
X62266603Y-65641297D02*
X62092955Y-64656489D01*
X62023971Y-64813714D01*
X61946718Y-64924043D01*
X61861195Y-64987477D01*
X63802126Y-65565694D02*
X63951082Y-65587783D01*
X64185560Y-65546438D01*
X64271082Y-65483005D01*
X64309709Y-65427840D01*
X64340066Y-65325780D01*
X64323528Y-65231989D01*
X64260095Y-65146467D01*
X64204930Y-65107840D01*
X64102870Y-65077482D01*
X63907019Y-65063662D01*
X63804959Y-65033305D01*
X63749794Y-64994678D01*
X63686361Y-64909156D01*
X63669823Y-64815365D01*
X63700180Y-64713304D01*
X63738807Y-64658140D01*
X63824329Y-64594706D01*
X64058807Y-64553362D01*
X64207763Y-64575450D01*
X64480868Y-64478941D02*
X65043615Y-64379713D01*
X64935890Y-65414135D02*
X64762241Y-64429327D01*
X65545532Y-65306638D02*
X65371884Y-64321831D01*
X65824188Y-64967382D01*
X66028423Y-64206065D01*
X66202071Y-65190873D01*
X66403588Y-64139914D02*
X67013230Y-64032417D01*
X66751113Y-64465465D01*
X66891800Y-64440658D01*
X66993860Y-64471015D01*
X67049024Y-64509642D01*
X67112458Y-64595164D01*
X67153803Y-64829642D01*
X67123445Y-64931703D01*
X67084818Y-64986867D01*
X66999296Y-65050301D01*
X66717923Y-65099914D01*
X66615862Y-65069557D01*
X66560698Y-65030930D01*
X67404933Y-64060057D02*
X67443560Y-64004892D01*
X67529082Y-63941458D01*
X67763560Y-63900114D01*
X67865620Y-63930471D01*
X67920785Y-63969098D01*
X67984218Y-64054620D01*
X68000756Y-64148411D01*
X67978668Y-64297367D01*
X67515148Y-64959342D01*
X68124791Y-64851846D01*
X68784162Y-64203691D02*
X68455893Y-64261573D01*
X68546851Y-64777425D02*
X68373203Y-63792617D01*
X68842159Y-63709928D01*
X69404906Y-63610700D02*
X69498698Y-63594162D01*
X69600758Y-63624520D01*
X69655922Y-63663146D01*
X69719356Y-63748669D01*
X69799327Y-63927982D01*
X69840672Y-64162460D01*
X69826852Y-64358312D01*
X69796495Y-64460372D01*
X69757868Y-64515536D01*
X69672346Y-64578970D01*
X69578555Y-64595508D01*
X69476494Y-64565150D01*
X69421330Y-64526523D01*
X69357896Y-64441001D01*
X69277925Y-64261688D01*
X69236580Y-64027210D01*
X69250400Y-63831358D01*
X69280758Y-63729298D01*
X69319384Y-63674134D01*
X69404906Y-63610700D01*
X70635179Y-63732245D02*
X70750945Y-64388784D01*
X70334550Y-63398425D02*
X70224106Y-64143204D01*
X70833749Y-64035708D01*
X71062791Y-63415078D02*
X71101417Y-63359913D01*
X71186940Y-63296480D01*
X71421418Y-63255135D01*
X71523478Y-63285492D01*
X71578642Y-63324119D01*
X71642076Y-63409641D01*
X71658614Y-63503433D01*
X71636525Y-63652388D01*
X71173005Y-64314363D01*
X71782648Y-64206867D01*
X72442019Y-63558712D02*
X72113750Y-63616594D01*
X72204709Y-64132446D02*
X72031060Y-63147638D01*
X72500017Y-63064949D01*
X73355125Y-63252646D02*
X73470890Y-63909184D01*
X73054495Y-62918825D02*
X72944051Y-63663604D01*
X73553694Y-63556108D01*
X73986742Y-63818225D02*
X73813094Y-62833418D01*
X74188258Y-62767266D01*
X74290319Y-62797624D01*
X74345483Y-62836250D01*
X74408917Y-62921773D01*
X74433724Y-63062459D01*
X74403366Y-63164520D01*
X74364739Y-63219684D01*
X74279217Y-63283118D01*
X73904052Y-63349269D01*
X74877758Y-63661115D02*
X75277844Y-62913618D01*
X74761993Y-63004577D02*
X75393610Y-63570157D01*
X79957142Y-48392857D02*
X80004761Y-48440476D01*
X80052380Y-48583333D01*
X80052380Y-48678571D01*
X80004761Y-48821428D01*
X79909523Y-48916666D01*
X79814285Y-48964285D01*
X79623809Y-49011904D01*
X79480952Y-49011904D01*
X79290476Y-48964285D01*
X79195238Y-48916666D01*
X79100000Y-48821428D01*
X79052380Y-48678571D01*
X79052380Y-48583333D01*
X79100000Y-48440476D01*
X79147619Y-48392857D01*
X80052380Y-47440476D02*
X80052380Y-48011904D01*
X80052380Y-47726190D02*
X79052380Y-47726190D01*
X79195238Y-47821428D01*
X79290476Y-47916666D01*
X79338095Y-48011904D01*
X79052380Y-46821428D02*
X79052380Y-46726190D01*
X79100000Y-46630952D01*
X79147619Y-46583333D01*
X79242857Y-46535714D01*
X79433333Y-46488095D01*
X79671428Y-46488095D01*
X79861904Y-46535714D01*
X79957142Y-46583333D01*
X80004761Y-46630952D01*
X80052380Y-46726190D01*
X80052380Y-46821428D01*
X80004761Y-46916666D01*
X79957142Y-46964285D01*
X79861904Y-47011904D01*
X79671428Y-47059523D01*
X79433333Y-47059523D01*
X79242857Y-47011904D01*
X79147619Y-46964285D01*
X79100000Y-46916666D01*
X79052380Y-46821428D01*
X82447619Y-49392857D02*
X82400000Y-49345238D01*
X82352380Y-49250000D01*
X82352380Y-49011904D01*
X82400000Y-48916666D01*
X82447619Y-48869047D01*
X82542857Y-48821428D01*
X82638095Y-48821428D01*
X82780952Y-48869047D01*
X83352380Y-49440476D01*
X83352380Y-48821428D01*
X82447619Y-48440476D02*
X82400000Y-48392857D01*
X82352380Y-48297619D01*
X82352380Y-48059523D01*
X82400000Y-47964285D01*
X82447619Y-47916666D01*
X82542857Y-47869047D01*
X82638095Y-47869047D01*
X82780952Y-47916666D01*
X83352380Y-48488095D01*
X83352380Y-47869047D01*
X82685714Y-47011904D02*
X83352380Y-47011904D01*
X82685714Y-47440476D02*
X83209523Y-47440476D01*
X83304761Y-47392857D01*
X83352380Y-47297619D01*
X83352380Y-47154761D01*
X83304761Y-47059523D01*
X83257142Y-47011904D01*
X82828571Y-46202380D02*
X82828571Y-46535714D01*
X83352380Y-46535714D02*
X82352380Y-46535714D01*
X82352380Y-46059523D01*
X42357142Y-81857142D02*
X42309523Y-81904761D01*
X42166666Y-81952380D01*
X42071428Y-81952380D01*
X41928571Y-81904761D01*
X41833333Y-81809523D01*
X41785714Y-81714285D01*
X41738095Y-81523809D01*
X41738095Y-81380952D01*
X41785714Y-81190476D01*
X41833333Y-81095238D01*
X41928571Y-81000000D01*
X42071428Y-80952380D01*
X42166666Y-80952380D01*
X42309523Y-81000000D01*
X42357142Y-81047619D01*
X43309523Y-81952380D02*
X42738095Y-81952380D01*
X43023809Y-81952380D02*
X43023809Y-80952380D01*
X42928571Y-81095238D01*
X42833333Y-81190476D01*
X42738095Y-81238095D01*
X44261904Y-81952380D02*
X43690476Y-81952380D01*
X43976190Y-81952380D02*
X43976190Y-80952380D01*
X43880952Y-81095238D01*
X43785714Y-81190476D01*
X43690476Y-81238095D01*
X37607142Y-82297619D02*
X37654761Y-82250000D01*
X37750000Y-82202380D01*
X37988095Y-82202380D01*
X38083333Y-82250000D01*
X38130952Y-82297619D01*
X38178571Y-82392857D01*
X38178571Y-82488095D01*
X38130952Y-82630952D01*
X37559523Y-83202380D01*
X38178571Y-83202380D01*
X38559523Y-82297619D02*
X38607142Y-82250000D01*
X38702380Y-82202380D01*
X38940476Y-82202380D01*
X39035714Y-82250000D01*
X39083333Y-82297619D01*
X39130952Y-82392857D01*
X39130952Y-82488095D01*
X39083333Y-82630952D01*
X38511904Y-83202380D01*
X39130952Y-83202380D01*
X39559523Y-82535714D02*
X39559523Y-83202380D01*
X39559523Y-82630952D02*
X39607142Y-82583333D01*
X39702380Y-82535714D01*
X39845238Y-82535714D01*
X39940476Y-82583333D01*
X39988095Y-82678571D01*
X39988095Y-83202380D01*
X40797619Y-82678571D02*
X40464285Y-82678571D01*
X40464285Y-83202380D02*
X40464285Y-82202380D01*
X40940476Y-82202380D01*
X58102142Y-74857142D02*
X58054523Y-74904761D01*
X57911666Y-74952380D01*
X57816428Y-74952380D01*
X57673571Y-74904761D01*
X57578333Y-74809523D01*
X57530714Y-74714285D01*
X57483095Y-74523809D01*
X57483095Y-74380952D01*
X57530714Y-74190476D01*
X57578333Y-74095238D01*
X57673571Y-74000000D01*
X57816428Y-73952380D01*
X57911666Y-73952380D01*
X58054523Y-74000000D01*
X58102142Y-74047619D01*
X59054523Y-74952380D02*
X58483095Y-74952380D01*
X58768809Y-74952380D02*
X58768809Y-73952380D01*
X58673571Y-74095238D01*
X58578333Y-74190476D01*
X58483095Y-74238095D01*
X59435476Y-74047619D02*
X59483095Y-74000000D01*
X59578333Y-73952380D01*
X59816428Y-73952380D01*
X59911666Y-74000000D01*
X59959285Y-74047619D01*
X60006904Y-74142857D01*
X60006904Y-74238095D01*
X59959285Y-74380952D01*
X59387857Y-74952380D01*
X60006904Y-74952380D01*
X49852142Y-73797619D02*
X49899761Y-73750000D01*
X49995000Y-73702380D01*
X50233095Y-73702380D01*
X50328333Y-73750000D01*
X50375952Y-73797619D01*
X50423571Y-73892857D01*
X50423571Y-73988095D01*
X50375952Y-74130952D01*
X49804523Y-74702380D01*
X50423571Y-74702380D01*
X50804523Y-73797619D02*
X50852142Y-73750000D01*
X50947380Y-73702380D01*
X51185476Y-73702380D01*
X51280714Y-73750000D01*
X51328333Y-73797619D01*
X51375952Y-73892857D01*
X51375952Y-73988095D01*
X51328333Y-74130952D01*
X50756904Y-74702380D01*
X51375952Y-74702380D01*
X52233095Y-74035714D02*
X52233095Y-74702380D01*
X51804523Y-74035714D02*
X51804523Y-74559523D01*
X51852142Y-74654761D01*
X51947380Y-74702380D01*
X52090238Y-74702380D01*
X52185476Y-74654761D01*
X52233095Y-74607142D01*
X53042619Y-74178571D02*
X52709285Y-74178571D01*
X52709285Y-74702380D02*
X52709285Y-73702380D01*
X53185476Y-73702380D01*
X42107142Y-79007142D02*
X42059523Y-79054761D01*
X41916666Y-79102380D01*
X41821428Y-79102380D01*
X41678571Y-79054761D01*
X41583333Y-78959523D01*
X41535714Y-78864285D01*
X41488095Y-78673809D01*
X41488095Y-78530952D01*
X41535714Y-78340476D01*
X41583333Y-78245238D01*
X41678571Y-78150000D01*
X41821428Y-78102380D01*
X41916666Y-78102380D01*
X42059523Y-78150000D01*
X42107142Y-78197619D01*
X43059523Y-79102380D02*
X42488095Y-79102380D01*
X42773809Y-79102380D02*
X42773809Y-78102380D01*
X42678571Y-78245238D01*
X42583333Y-78340476D01*
X42488095Y-78388095D01*
X43392857Y-78102380D02*
X44011904Y-78102380D01*
X43678571Y-78483333D01*
X43821428Y-78483333D01*
X43916666Y-78530952D01*
X43964285Y-78578571D01*
X44011904Y-78673809D01*
X44011904Y-78911904D01*
X43964285Y-79007142D01*
X43916666Y-79054761D01*
X43821428Y-79102380D01*
X43535714Y-79102380D01*
X43440476Y-79054761D01*
X43392857Y-79007142D01*
X41107142Y-74897619D02*
X41154761Y-74850000D01*
X41250000Y-74802380D01*
X41488095Y-74802380D01*
X41583333Y-74850000D01*
X41630952Y-74897619D01*
X41678571Y-74992857D01*
X41678571Y-75088095D01*
X41630952Y-75230952D01*
X41059523Y-75802380D01*
X41678571Y-75802380D01*
X42059523Y-74897619D02*
X42107142Y-74850000D01*
X42202380Y-74802380D01*
X42440476Y-74802380D01*
X42535714Y-74850000D01*
X42583333Y-74897619D01*
X42630952Y-74992857D01*
X42630952Y-75088095D01*
X42583333Y-75230952D01*
X42011904Y-75802380D01*
X42630952Y-75802380D01*
X43488095Y-75135714D02*
X43488095Y-75802380D01*
X43059523Y-75135714D02*
X43059523Y-75659523D01*
X43107142Y-75754761D01*
X43202380Y-75802380D01*
X43345238Y-75802380D01*
X43440476Y-75754761D01*
X43488095Y-75707142D01*
X44297619Y-75278571D02*
X43964285Y-75278571D01*
X43964285Y-75802380D02*
X43964285Y-74802380D01*
X44440476Y-74802380D01*
X46930365Y-85034100D02*
X46977984Y-85081719D01*
X47025603Y-85224576D01*
X47025603Y-85319814D01*
X46977984Y-85462671D01*
X46882746Y-85557909D01*
X46787508Y-85605528D01*
X46597032Y-85653147D01*
X46454175Y-85653147D01*
X46263699Y-85605528D01*
X46168461Y-85557909D01*
X46073223Y-85462671D01*
X46025603Y-85319814D01*
X46025603Y-85224576D01*
X46073223Y-85081719D01*
X46120842Y-85034100D01*
X47025603Y-84081719D02*
X47025603Y-84653147D01*
X47025603Y-84367433D02*
X46025603Y-84367433D01*
X46168461Y-84462671D01*
X46263699Y-84557909D01*
X46311318Y-84653147D01*
X46358937Y-83224576D02*
X47025603Y-83224576D01*
X45977984Y-83462671D02*
X46692270Y-83700766D01*
X46692270Y-83081719D01*
X47797619Y-89392857D02*
X47750000Y-89345238D01*
X47702380Y-89250000D01*
X47702380Y-89011904D01*
X47750000Y-88916666D01*
X47797619Y-88869047D01*
X47892857Y-88821428D01*
X47988095Y-88821428D01*
X48130952Y-88869047D01*
X48702380Y-89440476D01*
X48702380Y-88821428D01*
X47797619Y-88440476D02*
X47750000Y-88392857D01*
X47702380Y-88297619D01*
X47702380Y-88059523D01*
X47750000Y-87964285D01*
X47797619Y-87916666D01*
X47892857Y-87869047D01*
X47988095Y-87869047D01*
X48130952Y-87916666D01*
X48702380Y-88488095D01*
X48702380Y-87869047D01*
X48035714Y-87440476D02*
X48702380Y-87440476D01*
X48130952Y-87440476D02*
X48083333Y-87392857D01*
X48035714Y-87297619D01*
X48035714Y-87154761D01*
X48083333Y-87059523D01*
X48178571Y-87011904D01*
X48702380Y-87011904D01*
X48178571Y-86202380D02*
X48178571Y-86535714D01*
X48702380Y-86535714D02*
X47702380Y-86535714D01*
X47702380Y-86059523D01*
X59329308Y-72772626D02*
X59346737Y-72837674D01*
X59316548Y-72985202D01*
X59268929Y-73067680D01*
X59156261Y-73167589D01*
X59026164Y-73202448D01*
X58919876Y-73196069D01*
X58731109Y-73142070D01*
X58607391Y-73070641D01*
X58466243Y-72934164D01*
X58407574Y-72845306D01*
X58372715Y-72715208D01*
X58402904Y-72567680D01*
X58450523Y-72485202D01*
X58563191Y-72385293D01*
X58628240Y-72367864D01*
X59887977Y-71995458D02*
X59602263Y-72490330D01*
X59745120Y-72242894D02*
X58879094Y-71742894D01*
X58955193Y-71896802D01*
X58990053Y-72026899D01*
X58983673Y-72133187D01*
X59474332Y-70711912D02*
X59236237Y-71124305D01*
X59624821Y-71403639D01*
X59607391Y-71338590D01*
X59613771Y-71232302D01*
X59732818Y-71026106D01*
X59821677Y-70967437D01*
X59886725Y-70950007D01*
X59993014Y-70956387D01*
X60199210Y-71075434D01*
X60257879Y-71164293D01*
X60275309Y-71229341D01*
X60268929Y-71335630D01*
X60149882Y-71541826D01*
X60061023Y-71600495D01*
X59995974Y-71617925D01*
X55270356Y-71583889D02*
X55252926Y-71518840D01*
X55259305Y-71412552D01*
X55378353Y-71206356D01*
X55467211Y-71147686D01*
X55532260Y-71130257D01*
X55638548Y-71136636D01*
X55721027Y-71184255D01*
X55820935Y-71296923D01*
X56030093Y-72077509D01*
X56339617Y-71541398D01*
X55746546Y-70759103D02*
X55729116Y-70694054D01*
X55735496Y-70587766D01*
X55854544Y-70381569D01*
X55943402Y-70322900D01*
X56008451Y-70305471D01*
X56114739Y-70311850D01*
X56197218Y-70359469D01*
X56297126Y-70472137D01*
X56506283Y-71252723D01*
X56815807Y-70716612D01*
X56452743Y-70012125D02*
X57030093Y-70345458D01*
X56535221Y-70059744D02*
X56517791Y-69994695D01*
X56524171Y-69888407D01*
X56595600Y-69764689D01*
X56684458Y-69706020D01*
X56790746Y-69712400D01*
X57244379Y-69974305D01*
X57195508Y-69011332D02*
X57028841Y-69300007D01*
X57482474Y-69561912D02*
X56616448Y-69061912D01*
X56854544Y-68649519D01*
X58866666Y-66752380D02*
X58866666Y-67466666D01*
X58819047Y-67609523D01*
X58723809Y-67704761D01*
X58580952Y-67752380D01*
X58485714Y-67752380D01*
X59295238Y-66847619D02*
X59342857Y-66800000D01*
X59438095Y-66752380D01*
X59676190Y-66752380D01*
X59771428Y-66800000D01*
X59819047Y-66847619D01*
X59866666Y-66942857D01*
X59866666Y-67038095D01*
X59819047Y-67180952D01*
X59247619Y-67752380D01*
X59866666Y-67752380D01*
X62883333Y-66052380D02*
X62883333Y-66766666D01*
X62835714Y-66909523D01*
X62740476Y-67004761D01*
X62597619Y-67052380D01*
X62502380Y-67052380D01*
X63216666Y-66052380D02*
X63788095Y-66052380D01*
X63502380Y-67052380D02*
X63502380Y-66052380D01*
X64073809Y-66766666D02*
X64550000Y-66766666D01*
X63978571Y-67052380D02*
X64311904Y-66052380D01*
X64645238Y-67052380D01*
X65502380Y-66100000D02*
X65407142Y-66052380D01*
X65264285Y-66052380D01*
X65121428Y-66100000D01*
X65026190Y-66195238D01*
X64978571Y-66290476D01*
X64930952Y-66480952D01*
X64930952Y-66623809D01*
X64978571Y-66814285D01*
X65026190Y-66909523D01*
X65121428Y-67004761D01*
X65264285Y-67052380D01*
X65359523Y-67052380D01*
X65502380Y-67004761D01*
X65550000Y-66957142D01*
X65550000Y-66623809D01*
X65359523Y-66623809D01*
X49333333Y-76272380D02*
X48857142Y-76272380D01*
X48857142Y-75272380D01*
X50190476Y-76272380D02*
X49619047Y-76272380D01*
X49904761Y-76272380D02*
X49904761Y-75272380D01*
X49809523Y-75415238D01*
X49714285Y-75510476D01*
X49619047Y-75558095D01*
X48333333Y-82632380D02*
X47761904Y-82632380D01*
X48047619Y-82632380D02*
X48047619Y-81632380D01*
X47952380Y-81775238D01*
X47857142Y-81870476D01*
X47761904Y-81918095D01*
X48952380Y-81632380D02*
X49047619Y-81632380D01*
X49142857Y-81680000D01*
X49190476Y-81727619D01*
X49238095Y-81822857D01*
X49285714Y-82013333D01*
X49285714Y-82251428D01*
X49238095Y-82441904D01*
X49190476Y-82537142D01*
X49142857Y-82584761D01*
X49047619Y-82632380D01*
X48952380Y-82632380D01*
X48857142Y-82584761D01*
X48809523Y-82537142D01*
X48761904Y-82441904D01*
X48714285Y-82251428D01*
X48714285Y-82013333D01*
X48761904Y-81822857D01*
X48809523Y-81727619D01*
X48857142Y-81680000D01*
X48952380Y-81632380D01*
X50142857Y-81965714D02*
X50142857Y-82632380D01*
X49714285Y-81965714D02*
X49714285Y-82489523D01*
X49761904Y-82584761D01*
X49857142Y-82632380D01*
X50000000Y-82632380D01*
X50095238Y-82584761D01*
X50142857Y-82537142D01*
X50619047Y-82632380D02*
X50619047Y-81632380D01*
X50619047Y-82108571D02*
X51190476Y-82108571D01*
X51190476Y-82632380D02*
X51190476Y-81632380D01*
X39083333Y-90052380D02*
X38750000Y-89576190D01*
X38511904Y-90052380D02*
X38511904Y-89052380D01*
X38892857Y-89052380D01*
X38988095Y-89100000D01*
X39035714Y-89147619D01*
X39083333Y-89242857D01*
X39083333Y-89385714D01*
X39035714Y-89480952D01*
X38988095Y-89528571D01*
X38892857Y-89576190D01*
X38511904Y-89576190D01*
X40035714Y-90052380D02*
X39464285Y-90052380D01*
X39750000Y-90052380D02*
X39750000Y-89052380D01*
X39654761Y-89195238D01*
X39559523Y-89290476D01*
X39464285Y-89338095D01*
X36750000Y-92352380D02*
X37369047Y-92352380D01*
X37035714Y-92733333D01*
X37178571Y-92733333D01*
X37273809Y-92780952D01*
X37321428Y-92828571D01*
X37369047Y-92923809D01*
X37369047Y-93161904D01*
X37321428Y-93257142D01*
X37273809Y-93304761D01*
X37178571Y-93352380D01*
X36892857Y-93352380D01*
X36797619Y-93304761D01*
X36750000Y-93257142D01*
X37702380Y-92352380D02*
X38321428Y-92352380D01*
X37988095Y-92733333D01*
X38130952Y-92733333D01*
X38226190Y-92780952D01*
X38273809Y-92828571D01*
X38321428Y-92923809D01*
X38321428Y-93161904D01*
X38273809Y-93257142D01*
X38226190Y-93304761D01*
X38130952Y-93352380D01*
X37845238Y-93352380D01*
X37750000Y-93304761D01*
X37702380Y-93257142D01*
X38750000Y-93352380D02*
X38750000Y-92352380D01*
X38845238Y-92971428D02*
X39130952Y-93352380D01*
X39130952Y-92685714D02*
X38750000Y-93066666D01*
X39607142Y-93304761D02*
X39607142Y-93352380D01*
X39559523Y-93447619D01*
X39511904Y-93495238D01*
X40559523Y-93352380D02*
X39988095Y-93352380D01*
X40273809Y-93352380D02*
X40273809Y-92352380D01*
X40178571Y-92495238D01*
X40083333Y-92590476D01*
X39988095Y-92638095D01*
X40940476Y-93352380D02*
X41702380Y-92352380D01*
X41083333Y-92352380D02*
X41178571Y-92400000D01*
X41226190Y-92495238D01*
X41178571Y-92590476D01*
X41083333Y-92638095D01*
X40988095Y-92590476D01*
X40940476Y-92495238D01*
X40988095Y-92400000D01*
X41083333Y-92352380D01*
X41654761Y-93304761D02*
X41702380Y-93209523D01*
X41654761Y-93114285D01*
X41559523Y-93066666D01*
X41464285Y-93114285D01*
X41416666Y-93209523D01*
X41464285Y-93304761D01*
X41559523Y-93352380D01*
X41654761Y-93304761D01*
X40352380Y-87416666D02*
X39876190Y-87750000D01*
X40352380Y-87988095D02*
X39352380Y-87988095D01*
X39352380Y-87607142D01*
X39400000Y-87511904D01*
X39447619Y-87464285D01*
X39542857Y-87416666D01*
X39685714Y-87416666D01*
X39780952Y-87464285D01*
X39828571Y-87511904D01*
X39876190Y-87607142D01*
X39876190Y-87988095D01*
X39447619Y-87035714D02*
X39400000Y-86988095D01*
X39352380Y-86892857D01*
X39352380Y-86654761D01*
X39400000Y-86559523D01*
X39447619Y-86511904D01*
X39542857Y-86464285D01*
X39638095Y-86464285D01*
X39780952Y-86511904D01*
X40352380Y-87083333D01*
X40352380Y-86464285D01*
X36052380Y-89464285D02*
X36052380Y-89654761D01*
X36100000Y-89750000D01*
X36147619Y-89797619D01*
X36290476Y-89892857D01*
X36480952Y-89940476D01*
X36861904Y-89940476D01*
X36957142Y-89892857D01*
X37004761Y-89845238D01*
X37052380Y-89750000D01*
X37052380Y-89559523D01*
X37004761Y-89464285D01*
X36957142Y-89416666D01*
X36861904Y-89369047D01*
X36623809Y-89369047D01*
X36528571Y-89416666D01*
X36480952Y-89464285D01*
X36433333Y-89559523D01*
X36433333Y-89750000D01*
X36480952Y-89845238D01*
X36528571Y-89892857D01*
X36623809Y-89940476D01*
X36957142Y-88940476D02*
X37004761Y-88892857D01*
X37052380Y-88940476D01*
X37004761Y-88988095D01*
X36957142Y-88940476D01*
X37052380Y-88940476D01*
X36480952Y-88321428D02*
X36433333Y-88416666D01*
X36385714Y-88464285D01*
X36290476Y-88511904D01*
X36242857Y-88511904D01*
X36147619Y-88464285D01*
X36100000Y-88416666D01*
X36052380Y-88321428D01*
X36052380Y-88130952D01*
X36100000Y-88035714D01*
X36147619Y-87988095D01*
X36242857Y-87940476D01*
X36290476Y-87940476D01*
X36385714Y-87988095D01*
X36433333Y-88035714D01*
X36480952Y-88130952D01*
X36480952Y-88321428D01*
X36528571Y-88416666D01*
X36576190Y-88464285D01*
X36671428Y-88511904D01*
X36861904Y-88511904D01*
X36957142Y-88464285D01*
X37004761Y-88416666D01*
X37052380Y-88321428D01*
X37052380Y-88130952D01*
X37004761Y-88035714D01*
X36957142Y-87988095D01*
X36861904Y-87940476D01*
X36671428Y-87940476D01*
X36576190Y-87988095D01*
X36528571Y-88035714D01*
X36480952Y-88130952D01*
X37052380Y-87511904D02*
X36052380Y-87511904D01*
X36671428Y-87416666D02*
X37052380Y-87130952D01*
X36385714Y-87130952D02*
X36766666Y-87511904D01*
X37004761Y-86654761D02*
X37052380Y-86654761D01*
X37147619Y-86702380D01*
X37195238Y-86750000D01*
X37052380Y-85702380D02*
X37052380Y-86273809D01*
X37052380Y-85988095D02*
X36052380Y-85988095D01*
X36195238Y-86083333D01*
X36290476Y-86178571D01*
X36338095Y-86273809D01*
X37052380Y-85321428D02*
X36052380Y-84559523D01*
X36052380Y-85178571D02*
X36100000Y-85083333D01*
X36195238Y-85035714D01*
X36290476Y-85083333D01*
X36338095Y-85178571D01*
X36290476Y-85273809D01*
X36195238Y-85321428D01*
X36100000Y-85273809D01*
X36052380Y-85178571D01*
X37004761Y-84607142D02*
X36909523Y-84559523D01*
X36814285Y-84607142D01*
X36766666Y-84702380D01*
X36814285Y-84797619D01*
X36909523Y-84845238D01*
X37004761Y-84797619D01*
X37052380Y-84702380D01*
X37004761Y-84607142D01*
X38733333Y-56252380D02*
X38400000Y-55776190D01*
X38161904Y-56252380D02*
X38161904Y-55252380D01*
X38542857Y-55252380D01*
X38638095Y-55300000D01*
X38685714Y-55347619D01*
X38733333Y-55442857D01*
X38733333Y-55585714D01*
X38685714Y-55680952D01*
X38638095Y-55728571D01*
X38542857Y-55776190D01*
X38161904Y-55776190D01*
X39066666Y-55252380D02*
X39685714Y-55252380D01*
X39352380Y-55633333D01*
X39495238Y-55633333D01*
X39590476Y-55680952D01*
X39638095Y-55728571D01*
X39685714Y-55823809D01*
X39685714Y-56061904D01*
X39638095Y-56157142D01*
X39590476Y-56204761D01*
X39495238Y-56252380D01*
X39209523Y-56252380D01*
X39114285Y-56204761D01*
X39066666Y-56157142D01*
X39695714Y-51952380D02*
X39505238Y-51952380D01*
X39410000Y-52000000D01*
X39362380Y-52047619D01*
X39267142Y-52190476D01*
X39219523Y-52380952D01*
X39219523Y-52761904D01*
X39267142Y-52857142D01*
X39314761Y-52904761D01*
X39410000Y-52952380D01*
X39600476Y-52952380D01*
X39695714Y-52904761D01*
X39743333Y-52857142D01*
X39790952Y-52761904D01*
X39790952Y-52523809D01*
X39743333Y-52428571D01*
X39695714Y-52380952D01*
X39600476Y-52333333D01*
X39410000Y-52333333D01*
X39314761Y-52380952D01*
X39267142Y-52428571D01*
X39219523Y-52523809D01*
X40219523Y-52857142D02*
X40267142Y-52904761D01*
X40219523Y-52952380D01*
X40171904Y-52904761D01*
X40219523Y-52857142D01*
X40219523Y-52952380D01*
X40838571Y-52380952D02*
X40743333Y-52333333D01*
X40695714Y-52285714D01*
X40648095Y-52190476D01*
X40648095Y-52142857D01*
X40695714Y-52047619D01*
X40743333Y-52000000D01*
X40838571Y-51952380D01*
X41029047Y-51952380D01*
X41124285Y-52000000D01*
X41171904Y-52047619D01*
X41219523Y-52142857D01*
X41219523Y-52190476D01*
X41171904Y-52285714D01*
X41124285Y-52333333D01*
X41029047Y-52380952D01*
X40838571Y-52380952D01*
X40743333Y-52428571D01*
X40695714Y-52476190D01*
X40648095Y-52571428D01*
X40648095Y-52761904D01*
X40695714Y-52857142D01*
X40743333Y-52904761D01*
X40838571Y-52952380D01*
X41029047Y-52952380D01*
X41124285Y-52904761D01*
X41171904Y-52857142D01*
X41219523Y-52761904D01*
X41219523Y-52571428D01*
X41171904Y-52476190D01*
X41124285Y-52428571D01*
X41029047Y-52380952D01*
X41648095Y-52952380D02*
X41648095Y-51952380D01*
X41743333Y-52571428D02*
X42029047Y-52952380D01*
X42029047Y-52285714D02*
X41648095Y-52666666D01*
X42505238Y-52904761D02*
X42505238Y-52952380D01*
X42457619Y-53047619D01*
X42410000Y-53095238D01*
X43457619Y-52952380D02*
X42886190Y-52952380D01*
X43171904Y-52952380D02*
X43171904Y-51952380D01*
X43076666Y-52095238D01*
X42981428Y-52190476D01*
X42886190Y-52238095D01*
X43838571Y-52952380D02*
X44600476Y-51952380D01*
X43981428Y-51952380D02*
X44076666Y-52000000D01*
X44124285Y-52095238D01*
X44076666Y-52190476D01*
X43981428Y-52238095D01*
X43886190Y-52190476D01*
X43838571Y-52095238D01*
X43886190Y-52000000D01*
X43981428Y-51952380D01*
X44552857Y-52904761D02*
X44600476Y-52809523D01*
X44552857Y-52714285D01*
X44457619Y-52666666D01*
X44362380Y-52714285D01*
X44314761Y-52809523D01*
X44362380Y-52904761D01*
X44457619Y-52952380D01*
X44552857Y-52904761D01*
X38204761Y-48533333D02*
X38252380Y-48390476D01*
X38252380Y-48152380D01*
X38204761Y-48057142D01*
X38157142Y-48009523D01*
X38061904Y-47961904D01*
X37966666Y-47961904D01*
X37871428Y-48009523D01*
X37823809Y-48057142D01*
X37776190Y-48152380D01*
X37728571Y-48342857D01*
X37680952Y-48438095D01*
X37633333Y-48485714D01*
X37538095Y-48533333D01*
X37442857Y-48533333D01*
X37347619Y-48485714D01*
X37300000Y-48438095D01*
X37252380Y-48342857D01*
X37252380Y-48104761D01*
X37300000Y-47961904D01*
X37252380Y-47628571D02*
X38252380Y-47390476D01*
X37538095Y-47200000D01*
X38252380Y-47009523D01*
X37252380Y-46771428D01*
X38252380Y-45866666D02*
X38252380Y-46438095D01*
X38252380Y-46152380D02*
X37252380Y-46152380D01*
X37395238Y-46247619D01*
X37490476Y-46342857D01*
X37538095Y-46438095D01*
X29052380Y-49890476D02*
X29052380Y-49319047D01*
X30052380Y-49604761D02*
X29052380Y-49604761D01*
X29766666Y-49033333D02*
X29766666Y-48557142D01*
X30052380Y-49128571D02*
X29052380Y-48795238D01*
X30052380Y-48461904D01*
X29957142Y-47557142D02*
X30004761Y-47604761D01*
X30052380Y-47747619D01*
X30052380Y-47842857D01*
X30004761Y-47985714D01*
X29909523Y-48080952D01*
X29814285Y-48128571D01*
X29623809Y-48176190D01*
X29480952Y-48176190D01*
X29290476Y-48128571D01*
X29195238Y-48080952D01*
X29100000Y-47985714D01*
X29052380Y-47842857D01*
X29052380Y-47747619D01*
X29100000Y-47604761D01*
X29147619Y-47557142D01*
X29052380Y-47271428D02*
X29052380Y-46700000D01*
X30052380Y-46985714D02*
X29052380Y-46985714D01*
X30052380Y-46366666D02*
X29052380Y-46366666D01*
X30052380Y-45414285D02*
X30052380Y-45890476D01*
X29052380Y-45890476D01*
X29528571Y-45080952D02*
X29528571Y-44747619D01*
X30052380Y-44604761D02*
X30052380Y-45080952D01*
X29052380Y-45080952D01*
X29052380Y-44604761D01*
X31038095Y-84702380D02*
X31609523Y-84702380D01*
X31323809Y-85702380D02*
X31323809Y-84702380D01*
X32133333Y-84702380D02*
X32228571Y-84702380D01*
X32323809Y-84750000D01*
X32371428Y-84797619D01*
X32419047Y-84892857D01*
X32466666Y-85083333D01*
X32466666Y-85321428D01*
X32419047Y-85511904D01*
X32371428Y-85607142D01*
X32323809Y-85654761D01*
X32228571Y-85702380D01*
X32133333Y-85702380D01*
X32038095Y-85654761D01*
X31990476Y-85607142D01*
X31942857Y-85511904D01*
X31895238Y-85321428D01*
X31895238Y-85083333D01*
X31942857Y-84892857D01*
X31990476Y-84797619D01*
X32038095Y-84750000D01*
X32133333Y-84702380D01*
X39838095Y-35477380D02*
X40409523Y-35477380D01*
X40123809Y-36477380D02*
X40123809Y-35477380D01*
X41266666Y-36477380D02*
X40695238Y-36477380D01*
X40980952Y-36477380D02*
X40980952Y-35477380D01*
X40885714Y-35620238D01*
X40790476Y-35715476D01*
X40695238Y-35763095D01*
X38988095Y-83702380D02*
X38988095Y-84511904D01*
X39035714Y-84607142D01*
X39083333Y-84654761D01*
X39178571Y-84702380D01*
X39369047Y-84702380D01*
X39464285Y-84654761D01*
X39511904Y-84607142D01*
X39559523Y-84511904D01*
X39559523Y-83702380D01*
X39988095Y-83797619D02*
X40035714Y-83750000D01*
X40130952Y-83702380D01*
X40369047Y-83702380D01*
X40464285Y-83750000D01*
X40511904Y-83797619D01*
X40559523Y-83892857D01*
X40559523Y-83988095D01*
X40511904Y-84130952D01*
X39940476Y-84702380D01*
X40559523Y-84702380D01*
X40400952Y-89662380D02*
X40400952Y-88662380D01*
X40734285Y-89376666D01*
X41067619Y-88662380D01*
X41067619Y-89662380D01*
X41400952Y-88662380D02*
X41972380Y-88662380D01*
X41686666Y-89662380D02*
X41686666Y-88662380D01*
X42258095Y-88757619D02*
X42305714Y-88710000D01*
X42400952Y-88662380D01*
X42639047Y-88662380D01*
X42734285Y-88710000D01*
X42781904Y-88757619D01*
X42829523Y-88852857D01*
X42829523Y-88948095D01*
X42781904Y-89090952D01*
X42210476Y-89662380D01*
X42829523Y-89662380D01*
X43686666Y-88995714D02*
X43686666Y-89662380D01*
X43448571Y-88614761D02*
X43210476Y-89329047D01*
X43829523Y-89329047D01*
X44258095Y-89662380D02*
X44448571Y-89662380D01*
X44543809Y-89614761D01*
X44591428Y-89567142D01*
X44686666Y-89424285D01*
X44734285Y-89233809D01*
X44734285Y-88852857D01*
X44686666Y-88757619D01*
X44639047Y-88710000D01*
X44543809Y-88662380D01*
X44353333Y-88662380D01*
X44258095Y-88710000D01*
X44210476Y-88757619D01*
X44162857Y-88852857D01*
X44162857Y-89090952D01*
X44210476Y-89186190D01*
X44258095Y-89233809D01*
X44353333Y-89281428D01*
X44543809Y-89281428D01*
X44639047Y-89233809D01*
X44686666Y-89186190D01*
X44734285Y-89090952D01*
X45115238Y-88757619D02*
X45162857Y-88710000D01*
X45258095Y-88662380D01*
X45496190Y-88662380D01*
X45591428Y-88710000D01*
X45639047Y-88757619D01*
X45686666Y-88852857D01*
X45686666Y-88948095D01*
X45639047Y-89090952D01*
X45067619Y-89662380D01*
X45686666Y-89662380D01*
X74392079Y-76339338D02*
X73702132Y-76524209D01*
X73551818Y-76515186D01*
X73435175Y-76447843D01*
X73352205Y-76322178D01*
X73327555Y-76230185D01*
X74304273Y-77299544D02*
X73660323Y-77472090D01*
X74610621Y-76970964D02*
X73859051Y-76925852D01*
X74019272Y-77523806D01*
X99611904Y-61942380D02*
X99611904Y-60942380D01*
X99992857Y-60942380D01*
X100088095Y-60990000D01*
X100135714Y-61037619D01*
X100183333Y-61132857D01*
X100183333Y-61275714D01*
X100135714Y-61370952D01*
X100088095Y-61418571D01*
X99992857Y-61466190D01*
X99611904Y-61466190D01*
X101135714Y-61942380D02*
X100564285Y-61942380D01*
X100850000Y-61942380D02*
X100850000Y-60942380D01*
X100754761Y-61085238D01*
X100659523Y-61180476D01*
X100564285Y-61228095D01*
X58811904Y-105392380D02*
X58811904Y-104392380D01*
X59192857Y-104392380D01*
X59288095Y-104440000D01*
X59335714Y-104487619D01*
X59383333Y-104582857D01*
X59383333Y-104725714D01*
X59335714Y-104820952D01*
X59288095Y-104868571D01*
X59192857Y-104916190D01*
X58811904Y-104916190D01*
X59764285Y-104487619D02*
X59811904Y-104440000D01*
X59907142Y-104392380D01*
X60145238Y-104392380D01*
X60240476Y-104440000D01*
X60288095Y-104487619D01*
X60335714Y-104582857D01*
X60335714Y-104678095D01*
X60288095Y-104820952D01*
X59716666Y-105392380D01*
X60335714Y-105392380D01*
X57416666Y-106002380D02*
X57654761Y-107002380D01*
X57845238Y-106288095D01*
X58035714Y-107002380D01*
X58273809Y-106002380D01*
X58607142Y-106954761D02*
X58750000Y-107002380D01*
X58988095Y-107002380D01*
X59083333Y-106954761D01*
X59130952Y-106907142D01*
X59178571Y-106811904D01*
X59178571Y-106716666D01*
X59130952Y-106621428D01*
X59083333Y-106573809D01*
X58988095Y-106526190D01*
X58797619Y-106478571D01*
X58702380Y-106430952D01*
X58654761Y-106383333D01*
X58607142Y-106288095D01*
X58607142Y-106192857D01*
X58654761Y-106097619D01*
X58702380Y-106050000D01*
X58797619Y-106002380D01*
X59035714Y-106002380D01*
X59178571Y-106050000D01*
X59797619Y-106002380D02*
X59988095Y-106002380D01*
X60083333Y-106050000D01*
X60178571Y-106145238D01*
X60226190Y-106335714D01*
X60226190Y-106669047D01*
X60178571Y-106859523D01*
X60083333Y-106954761D01*
X59988095Y-107002380D01*
X59797619Y-107002380D01*
X59702380Y-106954761D01*
X59607142Y-106859523D01*
X59559523Y-106669047D01*
X59559523Y-106335714D01*
X59607142Y-106145238D01*
X59702380Y-106050000D01*
X59797619Y-106002380D01*
X60654761Y-106002380D02*
X60654761Y-106811904D01*
X60702380Y-106907142D01*
X60750000Y-106954761D01*
X60845238Y-107002380D01*
X61035714Y-107002380D01*
X61130952Y-106954761D01*
X61178571Y-106907142D01*
X61226190Y-106811904D01*
X61226190Y-106002380D01*
X61559523Y-106002380D02*
X62130952Y-106002380D01*
X61845238Y-107002380D02*
X61845238Y-106002380D01*
X26111904Y-104392380D02*
X26111904Y-103392380D01*
X26492857Y-103392380D01*
X26588095Y-103440000D01*
X26635714Y-103487619D01*
X26683333Y-103582857D01*
X26683333Y-103725714D01*
X26635714Y-103820952D01*
X26588095Y-103868571D01*
X26492857Y-103916190D01*
X26111904Y-103916190D01*
X27016666Y-103392380D02*
X27635714Y-103392380D01*
X27302380Y-103773333D01*
X27445238Y-103773333D01*
X27540476Y-103820952D01*
X27588095Y-103868571D01*
X27635714Y-103963809D01*
X27635714Y-104201904D01*
X27588095Y-104297142D01*
X27540476Y-104344761D01*
X27445238Y-104392380D01*
X27159523Y-104392380D01*
X27064285Y-104344761D01*
X27016666Y-104297142D01*
X33111904Y-31692380D02*
X33111904Y-30692380D01*
X33492857Y-30692380D01*
X33588095Y-30740000D01*
X33635714Y-30787619D01*
X33683333Y-30882857D01*
X33683333Y-31025714D01*
X33635714Y-31120952D01*
X33588095Y-31168571D01*
X33492857Y-31216190D01*
X33111904Y-31216190D01*
X34540476Y-31025714D02*
X34540476Y-31692380D01*
X34302380Y-30644761D02*
X34064285Y-31359047D01*
X34683333Y-31359047D01*
X32159523Y-37677380D02*
X32492857Y-38677380D01*
X32826190Y-37677380D01*
X33635714Y-38677380D02*
X33159523Y-38677380D01*
X33159523Y-37677380D01*
X33969047Y-38153571D02*
X34302380Y-38153571D01*
X34445238Y-38677380D02*
X33969047Y-38677380D01*
X33969047Y-37677380D01*
X34445238Y-37677380D01*
X34873809Y-38677380D02*
X34873809Y-37677380D01*
X35111904Y-37677380D01*
X35254761Y-37725000D01*
X35350000Y-37820238D01*
X35397619Y-37915476D01*
X35445238Y-38105952D01*
X35445238Y-38248809D01*
X35397619Y-38439285D01*
X35350000Y-38534523D01*
X35254761Y-38629761D01*
X35111904Y-38677380D01*
X34873809Y-38677380D01*
X26061904Y-19592380D02*
X26061904Y-18592380D01*
X26442857Y-18592380D01*
X26538095Y-18640000D01*
X26585714Y-18687619D01*
X26633333Y-18782857D01*
X26633333Y-18925714D01*
X26585714Y-19020952D01*
X26538095Y-19068571D01*
X26442857Y-19116190D01*
X26061904Y-19116190D01*
X27538095Y-18592380D02*
X27061904Y-18592380D01*
X27014285Y-19068571D01*
X27061904Y-19020952D01*
X27157142Y-18973333D01*
X27395238Y-18973333D01*
X27490476Y-19020952D01*
X27538095Y-19068571D01*
X27585714Y-19163809D01*
X27585714Y-19401904D01*
X27538095Y-19497142D01*
X27490476Y-19544761D01*
X27395238Y-19592380D01*
X27157142Y-19592380D01*
X27061904Y-19544761D01*
X27014285Y-19497142D01*
X33111904Y-92292380D02*
X33111904Y-91292380D01*
X33492857Y-91292380D01*
X33588095Y-91340000D01*
X33635714Y-91387619D01*
X33683333Y-91482857D01*
X33683333Y-91625714D01*
X33635714Y-91720952D01*
X33588095Y-91768571D01*
X33492857Y-91816190D01*
X33111904Y-91816190D01*
X34540476Y-91292380D02*
X34350000Y-91292380D01*
X34254761Y-91340000D01*
X34207142Y-91387619D01*
X34111904Y-91530476D01*
X34064285Y-91720952D01*
X34064285Y-92101904D01*
X34111904Y-92197142D01*
X34159523Y-92244761D01*
X34254761Y-92292380D01*
X34445238Y-92292380D01*
X34540476Y-92244761D01*
X34588095Y-92197142D01*
X34635714Y-92101904D01*
X34635714Y-91863809D01*
X34588095Y-91768571D01*
X34540476Y-91720952D01*
X34445238Y-91673333D01*
X34254761Y-91673333D01*
X34159523Y-91720952D01*
X34111904Y-91768571D01*
X34064285Y-91863809D01*
X33088095Y-98325000D02*
X32992857Y-98277380D01*
X32850000Y-98277380D01*
X32707142Y-98325000D01*
X32611904Y-98420238D01*
X32564285Y-98515476D01*
X32516666Y-98705952D01*
X32516666Y-98848809D01*
X32564285Y-99039285D01*
X32611904Y-99134523D01*
X32707142Y-99229761D01*
X32850000Y-99277380D01*
X32945238Y-99277380D01*
X33088095Y-99229761D01*
X33135714Y-99182142D01*
X33135714Y-98848809D01*
X32945238Y-98848809D01*
X33564285Y-99277380D02*
X33564285Y-98277380D01*
X34135714Y-99277380D01*
X34135714Y-98277380D01*
X34611904Y-99277380D02*
X34611904Y-98277380D01*
X34850000Y-98277380D01*
X34992857Y-98325000D01*
X35088095Y-98420238D01*
X35135714Y-98515476D01*
X35183333Y-98705952D01*
X35183333Y-98848809D01*
X35135714Y-99039285D01*
X35088095Y-99134523D01*
X34992857Y-99229761D01*
X34850000Y-99277380D01*
X34611904Y-99277380D01*
X78861904Y-71202380D02*
X78861904Y-70202380D01*
X79242857Y-70202380D01*
X79338095Y-70250000D01*
X79385714Y-70297619D01*
X79433333Y-70392857D01*
X79433333Y-70535714D01*
X79385714Y-70630952D01*
X79338095Y-70678571D01*
X79242857Y-70726190D01*
X78861904Y-70726190D01*
X79766666Y-70202380D02*
X80433333Y-70202380D01*
X80004761Y-71202380D01*
X81511904Y-73056666D02*
X81988095Y-73056666D01*
X81416666Y-73342380D02*
X81750000Y-72342380D01*
X82083333Y-73342380D01*
X82416666Y-72342380D02*
X82416666Y-73151904D01*
X82464285Y-73247142D01*
X82511904Y-73294761D01*
X82607142Y-73342380D01*
X82797619Y-73342380D01*
X82892857Y-73294761D01*
X82940476Y-73247142D01*
X82988095Y-73151904D01*
X82988095Y-72342380D01*
X83369047Y-72342380D02*
X84035714Y-73342380D01*
X84035714Y-72342380D02*
X83369047Y-73342380D01*
X87711904Y-59962380D02*
X87711904Y-58962380D01*
X88092857Y-58962380D01*
X88188095Y-59010000D01*
X88235714Y-59057619D01*
X88283333Y-59152857D01*
X88283333Y-59295714D01*
X88235714Y-59390952D01*
X88188095Y-59438571D01*
X88092857Y-59486190D01*
X87711904Y-59486190D01*
X88854761Y-59390952D02*
X88759523Y-59343333D01*
X88711904Y-59295714D01*
X88664285Y-59200476D01*
X88664285Y-59152857D01*
X88711904Y-59057619D01*
X88759523Y-59010000D01*
X88854761Y-58962380D01*
X89045238Y-58962380D01*
X89140476Y-59010000D01*
X89188095Y-59057619D01*
X89235714Y-59152857D01*
X89235714Y-59200476D01*
X89188095Y-59295714D01*
X89140476Y-59343333D01*
X89045238Y-59390952D01*
X88854761Y-59390952D01*
X88759523Y-59438571D01*
X88711904Y-59486190D01*
X88664285Y-59581428D01*
X88664285Y-59771904D01*
X88711904Y-59867142D01*
X88759523Y-59914761D01*
X88854761Y-59962380D01*
X89045238Y-59962380D01*
X89140476Y-59914761D01*
X89188095Y-59867142D01*
X89235714Y-59771904D01*
X89235714Y-59581428D01*
X89188095Y-59486190D01*
X89140476Y-59438571D01*
X89045238Y-59390952D01*
X84895238Y-61652380D02*
X85133333Y-62652380D01*
X85323809Y-61938095D01*
X85514285Y-62652380D01*
X85752380Y-61652380D01*
X86085714Y-62604761D02*
X86228571Y-62652380D01*
X86466666Y-62652380D01*
X86561904Y-62604761D01*
X86609523Y-62557142D01*
X86657142Y-62461904D01*
X86657142Y-62366666D01*
X86609523Y-62271428D01*
X86561904Y-62223809D01*
X86466666Y-62176190D01*
X86276190Y-62128571D01*
X86180952Y-62080952D01*
X86133333Y-62033333D01*
X86085714Y-61938095D01*
X86085714Y-61842857D01*
X86133333Y-61747619D01*
X86180952Y-61700000D01*
X86276190Y-61652380D01*
X86514285Y-61652380D01*
X86657142Y-61700000D01*
X108861904Y-74052380D02*
X108861904Y-73052380D01*
X109242857Y-73052380D01*
X109338095Y-73100000D01*
X109385714Y-73147619D01*
X109433333Y-73242857D01*
X109433333Y-73385714D01*
X109385714Y-73480952D01*
X109338095Y-73528571D01*
X109242857Y-73576190D01*
X108861904Y-73576190D01*
X109909523Y-74052380D02*
X110100000Y-74052380D01*
X110195238Y-74004761D01*
X110242857Y-73957142D01*
X110338095Y-73814285D01*
X110385714Y-73623809D01*
X110385714Y-73242857D01*
X110338095Y-73147619D01*
X110290476Y-73100000D01*
X110195238Y-73052380D01*
X110004761Y-73052380D01*
X109909523Y-73100000D01*
X109861904Y-73147619D01*
X109814285Y-73242857D01*
X109814285Y-73480952D01*
X109861904Y-73576190D01*
X109909523Y-73623809D01*
X110004761Y-73671428D01*
X110195238Y-73671428D01*
X110290476Y-73623809D01*
X110338095Y-73576190D01*
X110385714Y-73480952D01*
X106883333Y-79491666D02*
X107359523Y-79491666D01*
X106788095Y-79777380D02*
X107121428Y-78777380D01*
X107454761Y-79777380D01*
X107788095Y-78777380D02*
X107788095Y-79586904D01*
X107835714Y-79682142D01*
X107883333Y-79729761D01*
X107978571Y-79777380D01*
X108169047Y-79777380D01*
X108264285Y-79729761D01*
X108311904Y-79682142D01*
X108359523Y-79586904D01*
X108359523Y-78777380D01*
X108740476Y-78777380D02*
X109407142Y-79777380D01*
X109407142Y-78777380D02*
X108740476Y-79777380D01*
X109978571Y-78777380D02*
X110169047Y-78777380D01*
X110264285Y-78825000D01*
X110359523Y-78920238D01*
X110407142Y-79110714D01*
X110407142Y-79444047D01*
X110359523Y-79634523D01*
X110264285Y-79729761D01*
X110169047Y-79777380D01*
X109978571Y-79777380D01*
X109883333Y-79729761D01*
X109788095Y-79634523D01*
X109740476Y-79444047D01*
X109740476Y-79110714D01*
X109788095Y-78920238D01*
X109883333Y-78825000D01*
X109978571Y-78777380D01*
X110835714Y-78777380D02*
X110835714Y-79586904D01*
X110883333Y-79682142D01*
X110930952Y-79729761D01*
X111026190Y-79777380D01*
X111216666Y-79777380D01*
X111311904Y-79729761D01*
X111359523Y-79682142D01*
X111407142Y-79586904D01*
X111407142Y-78777380D01*
X111740476Y-78777380D02*
X112311904Y-78777380D01*
X112026190Y-79777380D02*
X112026190Y-78777380D01*
X94423980Y-43481768D02*
X94019218Y-44182836D01*
X94012838Y-44289124D01*
X94030268Y-44354173D01*
X94088937Y-44443032D01*
X94253895Y-44538270D01*
X94360183Y-44544649D01*
X94425232Y-44527220D01*
X94514090Y-44468551D01*
X94918852Y-43767482D01*
X95248766Y-43957959D02*
X95784877Y-44267482D01*
X95305726Y-44430730D01*
X95429444Y-44502159D01*
X95488113Y-44591017D01*
X95505543Y-44656066D01*
X95499163Y-44762354D01*
X95380115Y-44968551D01*
X95291257Y-45027220D01*
X95226208Y-45044649D01*
X95119920Y-45038270D01*
X94872484Y-44895413D01*
X94813815Y-44806554D01*
X94796385Y-44741505D01*
X93643526Y-35357364D02*
X94055919Y-35595459D01*
X93418191Y-35557181D02*
X94206866Y-34857822D01*
X93995541Y-35890514D01*
X94660498Y-35119727D02*
X95155370Y-35405441D01*
X94407934Y-36128609D02*
X94907934Y-35262584D01*
X95153660Y-35789354D02*
X95483575Y-35979831D01*
X95444045Y-35572108D02*
X95015474Y-36314415D01*
X95009094Y-36420703D01*
X95067763Y-36509562D01*
X95150242Y-36557181D01*
X95438917Y-36723848D02*
X95772250Y-36146497D01*
X95938917Y-35857822D02*
X95873868Y-35875252D01*
X95891298Y-35940301D01*
X95956346Y-35922871D01*
X95938917Y-35857822D01*
X95891298Y-35940301D01*
X96184643Y-36384592D02*
X95851310Y-36961943D01*
X96137024Y-36467071D02*
X96202073Y-36449641D01*
X96308361Y-36456021D01*
X96432079Y-36527450D01*
X96490748Y-36616308D01*
X96484368Y-36722596D01*
X96222463Y-37176228D01*
X96885711Y-36789354D02*
X96758574Y-37485752D01*
X97298104Y-37027450D02*
X96758574Y-37485752D01*
X96557048Y-37644330D01*
X96491999Y-37661760D01*
X96385711Y-37655380D01*
X97704118Y-37371833D02*
X97645448Y-37282975D01*
X97628019Y-37217926D01*
X97634398Y-37111638D01*
X97658208Y-37070398D01*
X97747066Y-37011729D01*
X97812115Y-36994300D01*
X97918403Y-37000679D01*
X98083360Y-37095917D01*
X98142030Y-37184776D01*
X98159459Y-37249825D01*
X98153080Y-37356113D01*
X98129270Y-37397352D01*
X98040412Y-37456021D01*
X97975363Y-37473451D01*
X97869075Y-37467071D01*
X97704118Y-37371833D01*
X97597829Y-37365453D01*
X97532781Y-37382883D01*
X97443922Y-37441552D01*
X97348684Y-37606509D01*
X97342304Y-37712797D01*
X97359734Y-37777846D01*
X97418403Y-37866705D01*
X97583360Y-37961943D01*
X97689649Y-37968322D01*
X97754697Y-37950893D01*
X97843556Y-37892224D01*
X97938794Y-37727266D01*
X97945174Y-37620978D01*
X97927744Y-37555929D01*
X97869075Y-37467071D01*
X99031865Y-37643536D02*
X98619471Y-37405441D01*
X98340137Y-37794025D01*
X98405186Y-37776595D01*
X98511474Y-37782975D01*
X98717670Y-37902022D01*
X98776339Y-37990881D01*
X98793769Y-38055929D01*
X98787390Y-38162218D01*
X98668342Y-38368414D01*
X98579484Y-38427083D01*
X98514435Y-38444513D01*
X98408147Y-38438133D01*
X98201950Y-38319086D01*
X98143281Y-38230227D01*
X98125851Y-38165178D01*
X99134734Y-38417743D02*
X99794563Y-38798695D01*
X100427621Y-38559348D02*
X100492670Y-38541919D01*
X100598958Y-38548298D01*
X100805155Y-38667346D01*
X100863824Y-38756204D01*
X100881253Y-38821253D01*
X100874874Y-38927541D01*
X100827255Y-39010020D01*
X100714587Y-39109928D01*
X99934001Y-39319086D01*
X100470112Y-39628609D01*
X101506223Y-39072108D02*
X101588701Y-39119727D01*
X101647370Y-39208585D01*
X101664800Y-39273634D01*
X101658421Y-39379922D01*
X101604422Y-39568689D01*
X101485374Y-39774885D01*
X101348897Y-39916033D01*
X101260038Y-39974702D01*
X101194990Y-39992132D01*
X101088701Y-39985752D01*
X101006223Y-39938133D01*
X100947554Y-39849275D01*
X100930124Y-39784226D01*
X100936504Y-39677938D01*
X100990502Y-39489171D01*
X101109550Y-39282975D01*
X101246027Y-39141827D01*
X101334886Y-39083158D01*
X101399935Y-39065728D01*
X101506223Y-39072108D01*
X101648622Y-40254037D02*
X101748530Y-40366705D01*
X101954727Y-40485752D01*
X102061015Y-40492132D01*
X102126064Y-40474702D01*
X102214922Y-40416033D01*
X102262541Y-40333555D01*
X102268921Y-40227266D01*
X102251491Y-40162218D01*
X102192822Y-40073359D01*
X102051674Y-39936882D01*
X101993005Y-39848023D01*
X101975575Y-39782975D01*
X101981955Y-39676687D01*
X102029574Y-39594208D01*
X102118433Y-39535539D01*
X102183481Y-39518109D01*
X102289770Y-39524489D01*
X102495966Y-39643536D01*
X102595875Y-39756204D01*
X102990838Y-39929251D02*
X102586076Y-40630319D01*
X102579696Y-40736607D01*
X102597126Y-40801656D01*
X102655795Y-40890514D01*
X102820752Y-40985752D01*
X102927040Y-40992132D01*
X102992089Y-40974702D01*
X103080948Y-40916033D01*
X103485709Y-40214965D01*
X101935714Y-82752380D02*
X101935714Y-81752380D01*
X102316666Y-81752380D01*
X102411904Y-81800000D01*
X102459523Y-81847619D01*
X102507142Y-81942857D01*
X102507142Y-82085714D01*
X102459523Y-82180952D01*
X102411904Y-82228571D01*
X102316666Y-82276190D01*
X101935714Y-82276190D01*
X103459523Y-82752380D02*
X102888095Y-82752380D01*
X103173809Y-82752380D02*
X103173809Y-81752380D01*
X103078571Y-81895238D01*
X102983333Y-81990476D01*
X102888095Y-82038095D01*
X104078571Y-81752380D02*
X104173809Y-81752380D01*
X104269047Y-81800000D01*
X104316666Y-81847619D01*
X104364285Y-81942857D01*
X104411904Y-82133333D01*
X104411904Y-82371428D01*
X104364285Y-82561904D01*
X104316666Y-82657142D01*
X104269047Y-82704761D01*
X104173809Y-82752380D01*
X104078571Y-82752380D01*
X103983333Y-82704761D01*
X103935714Y-82657142D01*
X103888095Y-82561904D01*
X103840476Y-82371428D01*
X103840476Y-82133333D01*
X103888095Y-81942857D01*
X103935714Y-81847619D01*
X103983333Y-81800000D01*
X104078571Y-81752380D01*
X104233333Y-85741666D02*
X104709523Y-85741666D01*
X104138095Y-86027380D02*
X104471428Y-85027380D01*
X104804761Y-86027380D01*
X105138095Y-85027380D02*
X105138095Y-85836904D01*
X105185714Y-85932142D01*
X105233333Y-85979761D01*
X105328571Y-86027380D01*
X105519047Y-86027380D01*
X105614285Y-85979761D01*
X105661904Y-85932142D01*
X105709523Y-85836904D01*
X105709523Y-85027380D01*
X106090476Y-85027380D02*
X106757142Y-86027380D01*
X106757142Y-85027380D02*
X106090476Y-86027380D01*
X107328571Y-85027380D02*
X107519047Y-85027380D01*
X107614285Y-85075000D01*
X107709523Y-85170238D01*
X107757142Y-85360714D01*
X107757142Y-85694047D01*
X107709523Y-85884523D01*
X107614285Y-85979761D01*
X107519047Y-86027380D01*
X107328571Y-86027380D01*
X107233333Y-85979761D01*
X107138095Y-85884523D01*
X107090476Y-85694047D01*
X107090476Y-85360714D01*
X107138095Y-85170238D01*
X107233333Y-85075000D01*
X107328571Y-85027380D01*
X108185714Y-85027380D02*
X108185714Y-85836904D01*
X108233333Y-85932142D01*
X108280952Y-85979761D01*
X108376190Y-86027380D01*
X108566666Y-86027380D01*
X108661904Y-85979761D01*
X108709523Y-85932142D01*
X108757142Y-85836904D01*
X108757142Y-85027380D01*
X109090476Y-85027380D02*
X109661904Y-85027380D01*
X109376190Y-86027380D02*
X109376190Y-85027380D01*
X77991109Y-29848788D02*
X77966181Y-30562638D01*
X77913605Y-30703747D01*
X77815101Y-30795603D01*
X77670669Y-30838207D01*
X77575489Y-30834884D01*
X78942910Y-29882025D02*
X78467009Y-29865407D01*
X78402800Y-30339645D01*
X78452052Y-30293717D01*
X78548894Y-30249451D01*
X78786844Y-30257760D01*
X78880363Y-30308674D01*
X78926291Y-30357926D01*
X78970557Y-30454768D01*
X78962248Y-30692718D01*
X78911334Y-30786236D01*
X78862082Y-30832164D01*
X78765240Y-30876431D01*
X78527290Y-30868121D01*
X78433772Y-30817207D01*
X78387843Y-30767956D01*
X75133653Y-39359145D02*
X75609553Y-39375764D01*
X75028501Y-39641361D02*
X75396531Y-38653604D01*
X75694762Y-39664628D01*
X75920021Y-38671884D02*
X76218252Y-39682908D01*
X76586282Y-38695151D01*
X77455593Y-39726117D02*
X77139082Y-39238584D01*
X76884513Y-39706175D02*
X76919412Y-38706784D01*
X77300133Y-38720079D01*
X77393651Y-38770993D01*
X77439579Y-38820245D01*
X77483845Y-38917087D01*
X77478860Y-39059857D01*
X77427946Y-39153375D01*
X77378694Y-39199303D01*
X77281852Y-39243569D01*
X76901132Y-39230274D01*
X77883904Y-39741074D02*
X77918803Y-38741683D01*
X78313876Y-39708441D02*
X78454984Y-39761017D01*
X78692934Y-39769326D01*
X78789776Y-39725060D01*
X78839028Y-39679132D01*
X78889942Y-39585613D01*
X78893266Y-39490433D01*
X78848999Y-39393591D01*
X78803071Y-39344339D01*
X78709553Y-39293426D01*
X78520855Y-39239188D01*
X78427337Y-39188274D01*
X78381408Y-39139022D01*
X78337142Y-39042180D01*
X78340466Y-38947000D01*
X78391380Y-38853482D01*
X78440632Y-38807554D01*
X78537474Y-38763288D01*
X78775424Y-38771597D01*
X78916532Y-38824173D01*
X79311605Y-39790931D02*
X79346504Y-38791540D01*
X79727225Y-38804835D01*
X79820743Y-38855749D01*
X79866671Y-38905000D01*
X79910937Y-39001842D01*
X79905952Y-39144613D01*
X79855038Y-39238131D01*
X79805786Y-39284059D01*
X79708944Y-39328325D01*
X79328224Y-39315030D01*
X80774205Y-38841396D02*
X80583845Y-38834749D01*
X80487003Y-38879015D01*
X80437751Y-38924943D01*
X80337586Y-39064389D01*
X80283348Y-39253088D01*
X80270053Y-39633808D01*
X80314319Y-39730650D01*
X80360247Y-39779902D01*
X80453766Y-39830816D01*
X80644126Y-39837463D01*
X80740968Y-39793197D01*
X80790220Y-39747269D01*
X80841134Y-39653751D01*
X80849443Y-39415800D01*
X80805177Y-39318958D01*
X80759248Y-39269706D01*
X80665730Y-39218793D01*
X80475370Y-39212145D01*
X80378528Y-39256411D01*
X80329276Y-39302340D01*
X80278362Y-39395858D01*
X46890476Y-37302380D02*
X46890476Y-36302380D01*
X47223809Y-37016666D01*
X47557142Y-36302380D01*
X47557142Y-37302380D01*
X48033333Y-37302380D02*
X48033333Y-36302380D01*
X48604761Y-37302380D02*
X48176190Y-36730952D01*
X48604761Y-36302380D02*
X48033333Y-36873809D01*
X49557142Y-37302380D02*
X48985714Y-37302380D01*
X49271428Y-37302380D02*
X49271428Y-36302380D01*
X49176190Y-36445238D01*
X49080952Y-36540476D01*
X48985714Y-36588095D01*
X44200000Y-48052380D02*
X44200000Y-47052380D01*
X44533333Y-47766666D01*
X44866666Y-47052380D01*
X44866666Y-48052380D01*
X45342857Y-48052380D02*
X45342857Y-47385714D01*
X45342857Y-47052380D02*
X45295238Y-47100000D01*
X45342857Y-47147619D01*
X45390476Y-47100000D01*
X45342857Y-47052380D01*
X45342857Y-47147619D01*
X46247619Y-48004761D02*
X46152380Y-48052380D01*
X45961904Y-48052380D01*
X45866666Y-48004761D01*
X45819047Y-47957142D01*
X45771428Y-47861904D01*
X45771428Y-47576190D01*
X45819047Y-47480952D01*
X45866666Y-47433333D01*
X45961904Y-47385714D01*
X46152380Y-47385714D01*
X46247619Y-47433333D01*
X46676190Y-48052380D02*
X46676190Y-47385714D01*
X46676190Y-47576190D02*
X46723809Y-47480952D01*
X46771428Y-47433333D01*
X46866666Y-47385714D01*
X46961904Y-47385714D01*
X47438095Y-48052380D02*
X47342857Y-48004761D01*
X47295238Y-47957142D01*
X47247619Y-47861904D01*
X47247619Y-47576190D01*
X47295238Y-47480952D01*
X47342857Y-47433333D01*
X47438095Y-47385714D01*
X47580952Y-47385714D01*
X47676190Y-47433333D01*
X47723809Y-47480952D01*
X47771428Y-47576190D01*
X47771428Y-47861904D01*
X47723809Y-47957142D01*
X47676190Y-48004761D01*
X47580952Y-48052380D01*
X47438095Y-48052380D01*
X48200000Y-47385714D02*
X48200000Y-48385714D01*
X48200000Y-47433333D02*
X48295238Y-47385714D01*
X48485714Y-47385714D01*
X48580952Y-47433333D01*
X48628571Y-47480952D01*
X48676190Y-47576190D01*
X48676190Y-47861904D01*
X48628571Y-47957142D01*
X48580952Y-48004761D01*
X48485714Y-48052380D01*
X48295238Y-48052380D01*
X48200000Y-48004761D01*
X49104761Y-48052380D02*
X49104761Y-47052380D01*
X49533333Y-48052380D02*
X49533333Y-47528571D01*
X49485714Y-47433333D01*
X49390476Y-47385714D01*
X49247619Y-47385714D01*
X49152380Y-47433333D01*
X49104761Y-47480952D01*
X50152380Y-48052380D02*
X50057142Y-48004761D01*
X50009523Y-47957142D01*
X49961904Y-47861904D01*
X49961904Y-47576190D01*
X50009523Y-47480952D01*
X50057142Y-47433333D01*
X50152380Y-47385714D01*
X50295238Y-47385714D01*
X50390476Y-47433333D01*
X50438095Y-47480952D01*
X50485714Y-47576190D01*
X50485714Y-47861904D01*
X50438095Y-47957142D01*
X50390476Y-48004761D01*
X50295238Y-48052380D01*
X50152380Y-48052380D01*
X50914285Y-47385714D02*
X50914285Y-48052380D01*
X50914285Y-47480952D02*
X50961904Y-47433333D01*
X51057142Y-47385714D01*
X51200000Y-47385714D01*
X51295238Y-47433333D01*
X51342857Y-47528571D01*
X51342857Y-48052380D01*
X52200000Y-48004761D02*
X52104761Y-48052380D01*
X51914285Y-48052380D01*
X51819047Y-48004761D01*
X51771428Y-47909523D01*
X51771428Y-47528571D01*
X51819047Y-47433333D01*
X51914285Y-47385714D01*
X52104761Y-47385714D01*
X52200000Y-47433333D01*
X52247619Y-47528571D01*
X52247619Y-47623809D01*
X51771428Y-47719047D01*
X87057142Y-41757142D02*
X87009523Y-41804761D01*
X86866666Y-41852380D01*
X86771428Y-41852380D01*
X86628571Y-41804761D01*
X86533333Y-41709523D01*
X86485714Y-41614285D01*
X86438095Y-41423809D01*
X86438095Y-41280952D01*
X86485714Y-41090476D01*
X86533333Y-40995238D01*
X86628571Y-40900000D01*
X86771428Y-40852380D01*
X86866666Y-40852380D01*
X87009523Y-40900000D01*
X87057142Y-40947619D01*
X88009523Y-41852380D02*
X87438095Y-41852380D01*
X87723809Y-41852380D02*
X87723809Y-40852380D01*
X87628571Y-40995238D01*
X87533333Y-41090476D01*
X87438095Y-41138095D01*
X88866666Y-40852380D02*
X88676190Y-40852380D01*
X88580952Y-40900000D01*
X88533333Y-40947619D01*
X88438095Y-41090476D01*
X88390476Y-41280952D01*
X88390476Y-41661904D01*
X88438095Y-41757142D01*
X88485714Y-41804761D01*
X88580952Y-41852380D01*
X88771428Y-41852380D01*
X88866666Y-41804761D01*
X88914285Y-41757142D01*
X88961904Y-41661904D01*
X88961904Y-41423809D01*
X88914285Y-41328571D01*
X88866666Y-41280952D01*
X88771428Y-41233333D01*
X88580952Y-41233333D01*
X88485714Y-41280952D01*
X88438095Y-41328571D01*
X88390476Y-41423809D01*
X86057142Y-37647619D02*
X86104761Y-37600000D01*
X86200000Y-37552380D01*
X86438095Y-37552380D01*
X86533333Y-37600000D01*
X86580952Y-37647619D01*
X86628571Y-37742857D01*
X86628571Y-37838095D01*
X86580952Y-37980952D01*
X86009523Y-38552380D01*
X86628571Y-38552380D01*
X87009523Y-37647619D02*
X87057142Y-37600000D01*
X87152380Y-37552380D01*
X87390476Y-37552380D01*
X87485714Y-37600000D01*
X87533333Y-37647619D01*
X87580952Y-37742857D01*
X87580952Y-37838095D01*
X87533333Y-37980952D01*
X86961904Y-38552380D01*
X87580952Y-38552380D01*
X88438095Y-37885714D02*
X88438095Y-38552380D01*
X88009523Y-37885714D02*
X88009523Y-38409523D01*
X88057142Y-38504761D01*
X88152380Y-38552380D01*
X88295238Y-38552380D01*
X88390476Y-38504761D01*
X88438095Y-38457142D01*
X89247619Y-38028571D02*
X88914285Y-38028571D01*
X88914285Y-38552380D02*
X88914285Y-37552380D01*
X89390476Y-37552380D01*
X108309619Y-42281243D02*
X108242275Y-42281243D01*
X108107588Y-42213899D01*
X108040245Y-42146556D01*
X107972901Y-42011869D01*
X107972901Y-41877182D01*
X108006573Y-41776167D01*
X108107588Y-41607808D01*
X108208603Y-41506793D01*
X108376962Y-41405777D01*
X108477977Y-41372106D01*
X108612664Y-41372106D01*
X108747351Y-41439449D01*
X108814695Y-41506793D01*
X108882038Y-41641480D01*
X108882038Y-41708823D01*
X108915710Y-43022022D02*
X108511649Y-42617961D01*
X108713680Y-42819991D02*
X109420787Y-42112884D01*
X109252428Y-42146556D01*
X109117741Y-42146556D01*
X109016726Y-42112884D01*
X109858519Y-42550617D02*
X110329924Y-43022022D01*
X109319771Y-43426083D01*
X106908206Y-44268442D02*
X106975549Y-44268442D01*
X107076564Y-44302114D01*
X107244923Y-44470473D01*
X107278595Y-44571488D01*
X107278595Y-44638832D01*
X107244923Y-44739847D01*
X107177580Y-44807190D01*
X107042893Y-44874534D01*
X106234771Y-44874534D01*
X106672503Y-45312267D01*
X107581641Y-44941877D02*
X107648984Y-44941877D01*
X107750000Y-44975549D01*
X107918358Y-45143908D01*
X107952030Y-45244923D01*
X107952030Y-45312267D01*
X107918358Y-45413282D01*
X107851015Y-45480625D01*
X107716328Y-45547969D01*
X106908206Y-45547969D01*
X107345938Y-45985702D01*
X108120389Y-45817343D02*
X107648984Y-46288748D01*
X108053045Y-45884687D02*
X108120389Y-45884687D01*
X108221404Y-45918358D01*
X108322419Y-46019374D01*
X108356091Y-46120389D01*
X108322419Y-46221404D01*
X107952030Y-46591793D01*
X108894839Y-46793824D02*
X108659137Y-46558122D01*
X108288748Y-46928511D02*
X108995854Y-46221404D01*
X109332572Y-46558122D01*
X103903777Y-47210088D02*
X104004792Y-46637668D01*
X103499716Y-46806027D02*
X104206822Y-46098920D01*
X104476197Y-46368294D01*
X104509868Y-46469309D01*
X104509868Y-46536653D01*
X104476197Y-46637668D01*
X104375181Y-46738683D01*
X104274166Y-46772355D01*
X104206822Y-46772355D01*
X104105807Y-46738683D01*
X103836433Y-46469309D01*
X104981273Y-47344775D02*
X104509868Y-47816180D01*
X105082288Y-46907042D02*
X104408853Y-47243760D01*
X104846586Y-47681493D01*
X100829546Y-47388548D02*
X100694859Y-47253861D01*
X100593844Y-47220189D01*
X100526500Y-47220189D01*
X100358142Y-47253861D01*
X100189783Y-47354876D01*
X99920409Y-47624250D01*
X99886737Y-47725265D01*
X99886737Y-47792609D01*
X99920409Y-47893624D01*
X100055096Y-48028311D01*
X100156111Y-48061983D01*
X100223455Y-48061983D01*
X100324470Y-48028311D01*
X100492829Y-47859952D01*
X100526500Y-47758937D01*
X100526500Y-47691594D01*
X100492829Y-47590578D01*
X100358142Y-47455891D01*
X100257126Y-47422220D01*
X100189783Y-47422220D01*
X100088768Y-47455891D01*
X100560172Y-48398700D02*
X100560172Y-48466044D01*
X100492829Y-48466044D01*
X100492829Y-48398700D01*
X100560172Y-48398700D01*
X100492829Y-48466044D01*
X101334622Y-48499716D02*
X101300951Y-48398700D01*
X101300951Y-48331357D01*
X101334622Y-48230342D01*
X101368294Y-48196670D01*
X101469309Y-48162998D01*
X101536653Y-48162998D01*
X101637668Y-48196670D01*
X101772355Y-48331357D01*
X101806027Y-48432372D01*
X101806027Y-48499716D01*
X101772355Y-48600731D01*
X101738683Y-48634403D01*
X101637668Y-48668074D01*
X101570325Y-48668074D01*
X101469309Y-48634403D01*
X101334622Y-48499716D01*
X101233607Y-48466044D01*
X101166264Y-48466044D01*
X101065248Y-48499716D01*
X100930561Y-48634403D01*
X100896890Y-48735418D01*
X100896890Y-48802761D01*
X100930561Y-48903777D01*
X101065248Y-49038464D01*
X101166264Y-49072135D01*
X101233607Y-49072135D01*
X101334622Y-49038464D01*
X101469309Y-48903777D01*
X101502981Y-48802761D01*
X101502981Y-48735418D01*
X101469309Y-48634403D01*
X101502981Y-49476197D02*
X102210088Y-48769090D01*
X101839699Y-49274166D02*
X101772355Y-49745571D01*
X102243760Y-49274166D02*
X101705012Y-49274166D01*
X102142745Y-50048616D02*
X102109073Y-50082288D01*
X102008058Y-50115960D01*
X101940714Y-50115960D01*
X102782508Y-50755723D02*
X102378447Y-50351662D01*
X102580477Y-50553693D02*
X103287584Y-49846586D01*
X103119225Y-49880258D01*
X102984538Y-49880258D01*
X102883523Y-49846586D01*
X103051882Y-51025097D02*
X104297737Y-50856738D01*
X103860004Y-50419006D02*
X103893676Y-50520021D01*
X103860004Y-50621036D01*
X103758989Y-50654708D01*
X103657973Y-50621036D01*
X103624302Y-50520021D01*
X103657973Y-50419006D01*
X103758989Y-50385334D01*
X103860004Y-50419006D01*
X103590630Y-51496502D02*
X103691645Y-51462830D01*
X103725317Y-51361815D01*
X103691645Y-51260799D01*
X103590630Y-51227128D01*
X103489615Y-51260799D01*
X103455943Y-51361815D01*
X103489615Y-51462830D01*
X103590630Y-51496502D01*
X105283333Y-40802380D02*
X104950000Y-40326190D01*
X104711904Y-40802380D02*
X104711904Y-39802380D01*
X105092857Y-39802380D01*
X105188095Y-39850000D01*
X105235714Y-39897619D01*
X105283333Y-39992857D01*
X105283333Y-40135714D01*
X105235714Y-40230952D01*
X105188095Y-40278571D01*
X105092857Y-40326190D01*
X104711904Y-40326190D01*
X106188095Y-39802380D02*
X105711904Y-39802380D01*
X105664285Y-40278571D01*
X105711904Y-40230952D01*
X105807142Y-40183333D01*
X106045238Y-40183333D01*
X106140476Y-40230952D01*
X106188095Y-40278571D01*
X106235714Y-40373809D01*
X106235714Y-40611904D01*
X106188095Y-40707142D01*
X106140476Y-40754761D01*
X106045238Y-40802380D01*
X105807142Y-40802380D01*
X105711904Y-40754761D01*
X105664285Y-40707142D01*
X98997038Y-46478511D02*
X98862351Y-46613198D01*
X98828679Y-46714213D01*
X98828679Y-46781557D01*
X98862351Y-46949915D01*
X98963366Y-47118274D01*
X99232740Y-47387648D01*
X99333755Y-47421320D01*
X99401099Y-47421320D01*
X99502114Y-47387648D01*
X99636801Y-47252961D01*
X99670473Y-47151946D01*
X99670473Y-47084602D01*
X99636801Y-46983587D01*
X99468442Y-46815228D01*
X99367427Y-46781557D01*
X99300084Y-46781557D01*
X99199068Y-46815228D01*
X99064381Y-46949915D01*
X99030710Y-47050931D01*
X99030710Y-47118274D01*
X99064381Y-47219289D01*
X100007190Y-46747885D02*
X100074534Y-46747885D01*
X100074534Y-46815228D01*
X100007190Y-46815228D01*
X100007190Y-46747885D01*
X100074534Y-46815228D01*
X100108206Y-45973435D02*
X100007190Y-46007106D01*
X99939847Y-46007106D01*
X99838832Y-45973435D01*
X99805160Y-45939763D01*
X99771488Y-45838748D01*
X99771488Y-45771404D01*
X99805160Y-45670389D01*
X99939847Y-45535702D01*
X100040862Y-45502030D01*
X100108206Y-45502030D01*
X100209221Y-45535702D01*
X100242893Y-45569374D01*
X100276564Y-45670389D01*
X100276564Y-45737732D01*
X100242893Y-45838748D01*
X100108206Y-45973435D01*
X100074534Y-46074450D01*
X100074534Y-46141793D01*
X100108206Y-46242809D01*
X100242893Y-46377496D01*
X100343908Y-46411167D01*
X100411251Y-46411167D01*
X100512267Y-46377496D01*
X100646954Y-46242809D01*
X100680625Y-46141793D01*
X100680625Y-46074450D01*
X100646954Y-45973435D01*
X100512267Y-45838748D01*
X100411251Y-45805076D01*
X100343908Y-45805076D01*
X100242893Y-45838748D01*
X101084687Y-45805076D02*
X100377580Y-45097969D01*
X100882656Y-45468358D02*
X101354061Y-45535702D01*
X100882656Y-45064297D02*
X100882656Y-45603045D01*
X101657106Y-45165312D02*
X101690778Y-45198984D01*
X101724450Y-45300000D01*
X101724450Y-45367343D01*
X102364213Y-44525549D02*
X101960152Y-44929610D01*
X102162183Y-44727580D02*
X101455076Y-44020473D01*
X101488748Y-44188832D01*
X101488748Y-44323519D01*
X101455076Y-44424534D01*
X102633587Y-44256175D02*
X102465228Y-43010320D01*
X102027496Y-43448053D02*
X102128511Y-43414381D01*
X102229526Y-43448053D01*
X102263198Y-43549068D01*
X102229526Y-43650084D01*
X102128511Y-43683755D01*
X102027496Y-43650084D01*
X101993824Y-43549068D01*
X102027496Y-43448053D01*
X103104992Y-43717427D02*
X103071320Y-43616412D01*
X102970305Y-43582740D01*
X102869289Y-43616412D01*
X102835618Y-43717427D01*
X102869289Y-43818442D01*
X102970305Y-43852114D01*
X103071320Y-43818442D01*
X103104992Y-43717427D01*
X31947380Y-36361666D02*
X31471190Y-36695000D01*
X31947380Y-36933095D02*
X30947380Y-36933095D01*
X30947380Y-36552142D01*
X30995000Y-36456904D01*
X31042619Y-36409285D01*
X31137857Y-36361666D01*
X31280714Y-36361666D01*
X31375952Y-36409285D01*
X31423571Y-36456904D01*
X31471190Y-36552142D01*
X31471190Y-36933095D01*
X30947380Y-35504523D02*
X30947380Y-35695000D01*
X30995000Y-35790238D01*
X31042619Y-35837857D01*
X31185476Y-35933095D01*
X31375952Y-35980714D01*
X31756904Y-35980714D01*
X31852142Y-35933095D01*
X31899761Y-35885476D01*
X31947380Y-35790238D01*
X31947380Y-35599761D01*
X31899761Y-35504523D01*
X31852142Y-35456904D01*
X31756904Y-35409285D01*
X31518809Y-35409285D01*
X31423571Y-35456904D01*
X31375952Y-35504523D01*
X31328333Y-35599761D01*
X31328333Y-35790238D01*
X31375952Y-35885476D01*
X31423571Y-35933095D01*
X31518809Y-35980714D01*
X27647380Y-38409285D02*
X27647380Y-38599761D01*
X27695000Y-38695000D01*
X27742619Y-38742619D01*
X27885476Y-38837857D01*
X28075952Y-38885476D01*
X28456904Y-38885476D01*
X28552142Y-38837857D01*
X28599761Y-38790238D01*
X28647380Y-38695000D01*
X28647380Y-38504523D01*
X28599761Y-38409285D01*
X28552142Y-38361666D01*
X28456904Y-38314047D01*
X28218809Y-38314047D01*
X28123571Y-38361666D01*
X28075952Y-38409285D01*
X28028333Y-38504523D01*
X28028333Y-38695000D01*
X28075952Y-38790238D01*
X28123571Y-38837857D01*
X28218809Y-38885476D01*
X28552142Y-37885476D02*
X28599761Y-37837857D01*
X28647380Y-37885476D01*
X28599761Y-37933095D01*
X28552142Y-37885476D01*
X28647380Y-37885476D01*
X28075952Y-37266428D02*
X28028333Y-37361666D01*
X27980714Y-37409285D01*
X27885476Y-37456904D01*
X27837857Y-37456904D01*
X27742619Y-37409285D01*
X27695000Y-37361666D01*
X27647380Y-37266428D01*
X27647380Y-37075952D01*
X27695000Y-36980714D01*
X27742619Y-36933095D01*
X27837857Y-36885476D01*
X27885476Y-36885476D01*
X27980714Y-36933095D01*
X28028333Y-36980714D01*
X28075952Y-37075952D01*
X28075952Y-37266428D01*
X28123571Y-37361666D01*
X28171190Y-37409285D01*
X28266428Y-37456904D01*
X28456904Y-37456904D01*
X28552142Y-37409285D01*
X28599761Y-37361666D01*
X28647380Y-37266428D01*
X28647380Y-37075952D01*
X28599761Y-36980714D01*
X28552142Y-36933095D01*
X28456904Y-36885476D01*
X28266428Y-36885476D01*
X28171190Y-36933095D01*
X28123571Y-36980714D01*
X28075952Y-37075952D01*
X28647380Y-36456904D02*
X27647380Y-36456904D01*
X28266428Y-36361666D02*
X28647380Y-36075952D01*
X27980714Y-36075952D02*
X28361666Y-36456904D01*
X28599761Y-35599761D02*
X28647380Y-35599761D01*
X28742619Y-35647380D01*
X28790238Y-35695000D01*
X28647380Y-34647380D02*
X28647380Y-35218809D01*
X28647380Y-34933095D02*
X27647380Y-34933095D01*
X27790238Y-35028333D01*
X27885476Y-35123571D01*
X27933095Y-35218809D01*
X28647380Y-34266428D02*
X27647380Y-33504523D01*
X27647380Y-34123571D02*
X27695000Y-34028333D01*
X27790238Y-33980714D01*
X27885476Y-34028333D01*
X27933095Y-34123571D01*
X27885476Y-34218809D01*
X27790238Y-34266428D01*
X27695000Y-34218809D01*
X27647380Y-34123571D01*
X28599761Y-33552142D02*
X28504523Y-33504523D01*
X28409285Y-33552142D01*
X28361666Y-33647380D01*
X28409285Y-33742619D01*
X28504523Y-33790238D01*
X28599761Y-33742619D01*
X28647380Y-33647380D01*
X28599761Y-33552142D01*
X105195503Y-46540703D02*
X105715855Y-47160834D01*
X105813551Y-47203182D01*
X105880638Y-47209051D01*
X105984204Y-47184312D01*
X106130117Y-47061876D01*
X106172465Y-46964180D01*
X106178334Y-46897092D01*
X106153594Y-46793527D01*
X105633243Y-46173396D01*
X106540593Y-45847174D02*
X106969118Y-46357870D01*
X106113330Y-45708392D02*
X106390072Y-46408612D01*
X106864290Y-46010695D01*
X105435411Y-50494216D02*
X104792623Y-49728172D01*
X105507105Y-50061084D01*
X105303320Y-49299647D01*
X105946107Y-50065691D01*
X105595146Y-49054775D02*
X106748630Y-49392295D01*
X106105842Y-48626250D02*
X106237934Y-49820820D01*
X107416978Y-48707159D02*
X107411109Y-48774247D01*
X107332283Y-48902552D01*
X107259326Y-48963769D01*
X107119282Y-49019118D01*
X106985108Y-49007379D01*
X106887412Y-48965032D01*
X106728498Y-48849727D01*
X106636671Y-48740292D01*
X106550713Y-48563770D01*
X106525974Y-48460205D01*
X106537713Y-48326030D01*
X106616539Y-48197725D01*
X106689495Y-48136507D01*
X106829539Y-48081159D01*
X106896626Y-48087028D01*
X107706280Y-47718459D02*
X108134806Y-48229155D01*
X107279017Y-47579677D02*
X107555760Y-48279896D01*
X108029978Y-47881980D01*
X108039193Y-47003977D02*
X108112149Y-46942759D01*
X108215715Y-46918019D01*
X108282802Y-46923889D01*
X108380498Y-46966236D01*
X108539412Y-47081541D01*
X108692457Y-47263932D01*
X108778414Y-47440454D01*
X108803154Y-47544020D01*
X108797284Y-47611107D01*
X108754937Y-47708803D01*
X108681980Y-47770021D01*
X108578415Y-47794761D01*
X108511327Y-47788891D01*
X108413631Y-47746544D01*
X108254717Y-47631239D01*
X108101672Y-47448848D01*
X108015715Y-47272326D01*
X107990975Y-47168760D01*
X107996845Y-47101673D01*
X108039193Y-47003977D01*
X108768759Y-46391798D02*
X108841715Y-46330580D01*
X108945281Y-46305841D01*
X109012368Y-46311710D01*
X109110064Y-46354058D01*
X109268978Y-46469362D01*
X109422023Y-46651753D01*
X109507980Y-46828276D01*
X109532720Y-46931841D01*
X109526851Y-46998928D01*
X109484503Y-47096625D01*
X109411546Y-47157842D01*
X109307981Y-47182582D01*
X109240893Y-47176713D01*
X109143197Y-47134365D01*
X108984283Y-47019061D01*
X108831239Y-46836669D01*
X108745281Y-46660147D01*
X108720542Y-46556581D01*
X108726411Y-46489494D01*
X108768759Y-46391798D01*
X109922243Y-46729317D02*
X109894979Y-45881923D01*
X109493717Y-46218621D02*
X110323504Y-46392619D01*
X109899586Y-45442921D02*
X111053070Y-45780440D01*
X110410282Y-45014396D02*
X110542374Y-46208965D01*
X111721418Y-45095305D02*
X111715549Y-45162392D01*
X111636723Y-45290697D01*
X111563766Y-45351915D01*
X111423723Y-45407264D01*
X111289548Y-45395525D01*
X111191852Y-45353177D01*
X111032938Y-45237873D01*
X110941111Y-45128438D01*
X110855154Y-44951916D01*
X110830414Y-44848350D01*
X110842153Y-44714176D01*
X110920979Y-44585871D01*
X110993935Y-44524653D01*
X111133979Y-44469305D01*
X111201066Y-44475174D01*
X64335714Y-33502380D02*
X64335714Y-32502380D01*
X64716666Y-32502380D01*
X64811904Y-32550000D01*
X64859523Y-32597619D01*
X64907142Y-32692857D01*
X64907142Y-32835714D01*
X64859523Y-32930952D01*
X64811904Y-32978571D01*
X64716666Y-33026190D01*
X64335714Y-33026190D01*
X65859523Y-33502380D02*
X65288095Y-33502380D01*
X65573809Y-33502380D02*
X65573809Y-32502380D01*
X65478571Y-32645238D01*
X65383333Y-32740476D01*
X65288095Y-32788095D01*
X66811904Y-33502380D02*
X66240476Y-33502380D01*
X66526190Y-33502380D02*
X66526190Y-32502380D01*
X66430952Y-32645238D01*
X66335714Y-32740476D01*
X66240476Y-32788095D01*
X64523809Y-39016666D02*
X65000000Y-39016666D01*
X64428571Y-39302380D02*
X64761904Y-38302380D01*
X65095238Y-39302380D01*
X65428571Y-38302380D02*
X65428571Y-39111904D01*
X65476190Y-39207142D01*
X65523809Y-39254761D01*
X65619047Y-39302380D01*
X65809523Y-39302380D01*
X65904761Y-39254761D01*
X65952380Y-39207142D01*
X66000000Y-39111904D01*
X66000000Y-38302380D01*
X66380952Y-38302380D02*
X67047619Y-39302380D01*
X67047619Y-38302380D02*
X66380952Y-39302380D01*
X67428571Y-38778571D02*
X67761904Y-38778571D01*
X67904761Y-39302380D02*
X67428571Y-39302380D01*
X67428571Y-38302380D01*
X67904761Y-38302380D01*
X68238095Y-38302380D02*
X68904761Y-39302380D01*
X68904761Y-38302380D02*
X68238095Y-39302380D01*
X69142857Y-38302380D02*
X69714285Y-38302380D01*
X69428571Y-39302380D02*
X69428571Y-38302380D01*
X70619047Y-39302380D02*
X70285714Y-38826190D01*
X70047619Y-39302380D02*
X70047619Y-38302380D01*
X70428571Y-38302380D01*
X70523809Y-38350000D01*
X70571428Y-38397619D01*
X70619047Y-38492857D01*
X70619047Y-38635714D01*
X70571428Y-38730952D01*
X70523809Y-38778571D01*
X70428571Y-38826190D01*
X70047619Y-38826190D01*
X71000000Y-39016666D02*
X71476190Y-39016666D01*
X70904761Y-39302380D02*
X71238095Y-38302380D01*
X71571428Y-39302380D01*
M02*
