M48
; DRILL file {KiCad (5.1.4)-1} date 12/24/2019 6:48:47 PM
; FORMAT={-:-/ absolute / inch / decimal}
; #@! TF.CreationDate,2019-12-24T18:48:47-08:00
; #@! TF.GenerationSoftware,Kicad,Pcbnew,(5.1.4)-1
; #@! TF.FileFunction,Plated,1,2,PTH
FMAT,2
INCH
T1C0.0157
T2C0.0232
T3C0.0315
T4C0.0394
T5C0.0394
%
G90
G05
T1
X1.2539Y-2.9469
X1.4685Y-3.063
X1.5374Y-2.2933
X1.5689Y-2.6772
X1.5866Y-2.752
X1.5945Y-2.8346
X1.6339Y-2.2067
X1.6634Y-2.8012
X1.7Y-2.725
X1.725Y-3.525
X1.7421Y-2.9134
X1.8622Y-2.1535
X1.8878Y-2.5453
X1.9291Y-3.2972
X1.9606Y-2.8425
X2.0039Y-1.9705
X2.0335Y-2.2323
X2.0472Y-2.8031
X2.0512Y-2.4803
X2.0571Y-3.3169
X2.15Y-2.825
X2.1732Y-2.975
X2.175Y-2.7
X2.222Y-2.384
X2.2661Y-4.4649
X2.3346Y-2.2972
X2.3602Y-2.4528
X2.3622Y-2.372
X2.3661Y-2.4134
X2.374Y-2.3327
X2.4803Y-2.5315
X2.5787Y-2.2756
X2.6378Y-2.313
X2.6654Y-2.9567
X2.6673Y-2.4803
X2.6772Y-2.4331
X2.9094Y-2.6654
X3.0138Y-1.2106
X3.063Y-2.4882
X3.3366Y-1.378
X3.3543Y-1.5433
X3.3563Y-1.3169
X3.5827Y-1.5197
X3.622Y-1.6772
X3.6378Y-1.3425
X3.7598Y-1.5846
X3.8858Y-1.6083
X4.0098Y-1.7579
X4.054Y-1.9753
X4.0945Y-1.7126
X4.1831Y-1.7343
X4.1969Y-1.9961
X4.3681Y-1.8681
T2
X1.4117Y-2.9267
X1.5293Y-2.805
T3
X3.2579Y-2.7697
X3.4823Y-2.4429
T4
X3.0Y-3.0
X3.0966Y-2.9741
X3.1932Y-2.9482
T5
X3.9508Y-2.5709
X2.3445Y-4.2815
X1.0571Y-4.2421
X1.3327Y-1.3799
X4.313Y-2.998
X1.0551Y-0.9035
X1.3327Y-3.7657
X4.2087Y-3.2441
X2.561Y-1.3996
T0
M30
