<?xml version="1.0" encoding="UTF-8" standalone="no"?>
<!-- Created with Inkscape (http://www.inkscape.org/) -->

<svg
   xmlns:dc="http://purl.org/dc/elements/1.1/"
   xmlns:cc="http://creativecommons.org/ns#"
   xmlns:rdf="http://www.w3.org/1999/02/22-rdf-syntax-ns#"
   xmlns:svg="http://www.w3.org/2000/svg"
   xmlns="http://www.w3.org/2000/svg"
   xmlns:sodipodi="http://sodipodi.sourceforge.net/DTD/sodipodi-0.dtd"
   xmlns:inkscape="http://www.inkscape.org/namespaces/inkscape"
   width="210mm"
   height="297mm"
   viewBox="0 0 210 297"
   version="1.1"
   id="svg8"
   inkscape:version="0.92.4 (5da689c313, 2019-01-14)"
   sodipodi:docname="drawing.svg">
  <defs
     id="defs2" />
  <sodipodi:namedview
     id="base"
     pagecolor="#ffffff"
     bordercolor="#666666"
     borderopacity="1.0"
     inkscape:pageopacity="0.0"
     inkscape:pageshadow="2"
     inkscape:zoom="2.8"
     inkscape:cx="270.18063"
     inkscape:cy="827.56702"
     inkscape:document-units="mm"
     inkscape:current-layer="g821"
     showgrid="false"
     inkscape:window-width="2560"
     inkscape:window-height="1377"
     inkscape:window-x="-8"
     inkscape:window-y="-8"
     inkscape:window-maximized="1" />
  <metadata
     id="metadata5">
    <rdf:RDF>
      <cc:Work
         rdf:about="">
        <dc:format>image/svg+xml</dc:format>
        <dc:type
           rdf:resource="http://purl.org/dc/dcmitype/StillImage" />
        <dc:title></dc:title>
      </cc:Work>
    </rdf:RDF>
  </metadata>
  <g
     inkscape:label="Layer 1"
     inkscape:groupmode="layer"
     id="layer1">
    <g
       id="g886"
       transform="translate(5.2114438,2.8273771)">
      <g
         id="g817"
         transform="rotate(-38)">
        <path
           id="path815"
           d="m 47.5,85.199997 h 2.400002 v 1.600006 h 2.399997 v -1.600006 h 2.400002 v 1.600006 h 2.400001 V 85.199997 H 59.5 59.383484 l -0.24876,-2.168259 -0.340329,-2.160003 -0.429355,-2.144081 -0.515228,-2.120659 -0.597416,-2.089959 -0.6754,-2.052246 -0.748718,-2.007904 -0.816952,-1.957329 -0.879769,-1.900985 -0.936851,-1.839371 -0.987991,-1.773056 -1.032986,-1.702591 -1.071724,-1.62857 -1.10416,-1.551606 -1.130276,-1.472297 -1.150124,-1.391243 -1.163807,-1.309037 -1.171447,-1.226226 -1.173252,-1.143357 -1.169426,-1.060913 -1.160218,-0.979339 -1.1459,-0.899041 -1.126782,-0.820358 -1.103149,-0.743549 -1.075356,-0.668824 -1.043724,-0.596313 -1.008591,-0.526043 -0.970291,-0.45797 -0.929172,-0.391922 -0.885571,-0.327636 -0.839824,-0.264717 -0.79226,-0.202633 -0.743209,-0.140694 -0.693005,-0.07809 -0.641983,-0.01385 -0.590464,0.05308 -0.538749,0.123714 -0.48717,0.198914 -0.435959,0.278984 -0.385282,0.363312 -0.335192,0.449733 -0.285539,0.534142 -0.236016,0.610416 -0.186147,0.671208 -0.135479,0.70972 -0.08376,0.721901 -0.03105,0.708061 0.02224,0.672852 0.07553,0.62368 0.128216,0.568493 0.179794,0.513977 0.22995,0.46479 0.278517,0.423607 0.325442,0.391564 0.37071,0.368774 0.414354,0.354813 0.456372,0.348999 0.49674,0.350593 0.535421,0.358876 0.572348,0.373211 0.607393,0.393013 0.64045,0.417804 0.671352,0.447132 0.699951,0.480614 0.726036,0.517868 0.749432,0.558552 0.769924,0.602325 0.787319,0.648838 0.801399,0.697739 0.811974,0.748669 0.818844,0.801231 0.821834,0.855045 0.820778,0.909684 0.815529,0.96474 0.805977,1.019741 0.792015,1.07425 0.773586,1.127815 0.750679,1.179954 0.723271,1.23021 0.69144,1.278152 0.655247,1.323296 0.614842,1.365265 0.570369,1.403602 0.522072,1.437989 0.470177,1.46804 0.414989,1.4935 0.356831,1.514053 0.29607,1.529556 0.233093,1.539788 z"
           inkscape:connector-curvature="0"
           style="fill:none;stroke:#0000ff;stroke-width:0.05mm" />
      </g>
      <g
         id="g821"
         transform="rotate(94.5)">
        <path
           id="path819"
           d="m 84.5,-47.599998 h 2.400002 V -46 h 2.400001 v -1.599998 h 2.399994 V -46 h 2.400009 v -1.599998 H 96.5 96.383484 l -0.332184,-2.910847 -0.455002,-2.89996 -0.574447,-2.878807 -0.689637,-2.847606 -0.799896,-2.806645 -0.90451,-2.756309 -1.002869,-2.697083 -1.094429,-2.629517 -1.178688,-2.554229 -1.255272,-2.471909 -1.323868,-2.383301 -1.384239,-2.289146 -1.436203,-2.190285 -1.479713,-2.087486 -1.514733,-1.981606 -1.541343,-1.873443 -1.55967,-1.763787 -1.569901,-1.653411 -1.572265,-1.543045 -1.567078,-1.433335 -1.554657,-1.324943 -1.535362,-1.218399 -1.509598,-1.114197 -1.477768,-1.012726 -1.440315,-0.914299 -1.397675,-0.819151 -1.350296,-0.72737 -1.298622,-0.63899 -1.243099,-0.55388 -1.184162,-0.47176 -1.122261,-0.3923 -1.057797,-0.31494 -0.991199,-0.23895 -0.922882,-0.16351 -0.853253,-0.0876 -0.782695,-0.0101 -0.71159,0.0702 -0.640309,0.15397 -0.569137,0.24182 -0.498299,0.33318 -0.427875,0.42597 -0.357754,0.51625 -0.287666,0.59792 -0.217171,0.66384 -0.145821,0.70728 -0.07342,0.724346 -3.8e-5,0.715424 0.07389,0.685341 0.147747,0.641594 0.220898,0.592247 0.292808,0.544098 0.363133,0.501953 0.431652,0.468551 0.49828,0.44513 0.562938,0.431915 0.625626,0.428543 0.686245,0.43441 0.744732,0.448853 0.800956,0.471176 0.854783,0.500801 0.905983,0.53714 0.954372,0.57975 0.99968,0.628151 1.04166,0.681946 1.079986,0.7407 1.114388,0.804031 1.144539,0.87149 1.170143,0.942681 1.190857,1.01709 1.206413,1.094276 1.216492,1.173653 1.220856,1.25473 1.219223,1.336861 1.211402,1.419494 1.19719,1.50193 1.176475,1.583565 1.149132,1.663689 1.115158,1.741661 1.074524,1.816772 1.027329,1.888398 0.973663,1.955825 0.913765,2.018509 0.847839,2.075791 0.776238,2.127166 0.69928,2.172101 0.617477,2.210186 0.53125,2.241004 0.441147,2.264283 0.347778,2.279739 z"
           inkscape:connector-curvature="0"
           style="fill:none;stroke:#0000ff;stroke-width:0.05mm" />
      </g>
      <g
         id="g827"
         transform="rotate(-38)">
        <circle
           id="circle823"
           r="2"
           cy="81.199997"
           cx="53.5"
           style="fill:none;stroke:#0000ff;stroke-width:0.05mm" />
        <circle
           id="circle825"
           r="2"
           cy="48.512669"
           cx="27.923149"
           style="fill:none;stroke:#0000ff;stroke-width:0.05mm" />
      </g>
      <g
         id="g831"
         transform="rotate(94.5)">
        <circle
           id="circle829"
           r="2"
           cy="-98.962257"
           cx="54.692406"
           style="fill:none;stroke:#0000ff;stroke-width:0.05mm" />
      </g>
      <circle
         id="circle833"
         r="2"
         cy="19.68911"
         cx="19.5"
         style="fill:none;stroke:#0000ff;stroke-width:0.05mm" />
      <circle
         id="circle835"
         r="2"
         cy="80.310883"
         cx="19.499994"
         style="fill:none;stroke:#0000ff;stroke-width:0.05mm" />
      <circle
         id="circle837"
         r="2"
         cy="49.999996"
         cx="86"
         style="fill:none;stroke:#0000ff;stroke-width:0.05mm" />
      <circle
         id="circle839"
         r="2"
         cy="7.564755"
         cx="12.500001"
         style="fill:none;stroke:#0000ff;stroke-width:0.05mm" />
      <circle
         id="circle841"
         r="2"
         cy="92.435242"
         cx="12.499991"
         style="fill:none;stroke:#0000ff;stroke-width:0.05mm" />
      <path
         id="path843"
         d="m 68.300003,49.099998 v 1.800004 h 2.599999 v -1.800004 z"
         inkscape:connector-curvature="0"
         style="fill:none;stroke:#0000ff;stroke-width:0.05mm" />
      <path
         id="path845"
         d="m 73.100006,49.099998 v 1.800004 h 2.599991 v -1.800004 z"
         inkscape:connector-curvature="0"
         style="fill:none;stroke:#0000ff;stroke-width:0.05mm" />
      <path
         id="path847"
         d="m 19.700001,49.099998 v 1.800004 H 17.1 v -1.800004 z"
         inkscape:connector-curvature="0"
         style="fill:none;stroke:#0000ff;stroke-width:0.05mm" />
      <path
         id="path849"
         d="m 14.9,49.099998 v 1.800004 h -2.600001 v -1.800004 z"
         inkscape:connector-curvature="0"
         style="fill:none;stroke:#0000ff;stroke-width:0.05mm" />
      <path
         id="path851"
         d="m 78,50 -0.101624,1.428204 -0.303436,1.410469 -0.500999,1.37537 -0.691536,1.323604 -0.872437,1.256226 -1.041252,1.174599 -1.195747,1.080383 -1.333969,0.975475 -1.454239,0.862026 -1.555214,0.742329 -1.63591,0.61882 -1.695694,0.494023 -1.734326,0.370487 -1.75193,0.25074 -1.749,0.137245 -1.726422,0.03234 -1.685383,-0.06181 -1.627426,-0.14323 -1.554344,-0.210209 -1.468223,-0.261341 -1.371312,-0.295494 -1.266056,-0.31192 -1.154991,-0.310192 -1.040737,-0.290268 -0.925915,-0.252472 -0.813103,-0.197487 -0.704811,-0.12635 -0.603382,-0.04045 -0.51099,0.05854 -0.429592,0.168667 -0.360863,0.287705 -0.306198,0.413257 -0.266662,0.542767 -0.242981,0.673557 -0.235527,0.802918 -0.244309,0.928096 -0.268989,1.046441 -0.308861,1.155349 -0.3629,1.252396 -0.429745,1.335342 -0.507786,1.402184 -0.595127,1.45121 -0.68967,1.481003 -0.789166,1.490493 L 37,77 l -0.993359,1.44606 -1.093109,1.391838 -1.188019,1.316735 -1.27568,1.221504 -1.35387,1.10733 -1.420485,0.975693 -1.47365,0.828384 -1.511776,0.667511 -1.533514,0.495362 -1.537855,0.314453 -1.524145,0.127441 -1.492043,-0.06292 -1.441599,-0.253807 -1.373224,-0.442451 -1.287674,-0.626091 -1.186049,-0.802116 -1.06978,-0.96801 -0.940608,-1.12156 -0.800505,-1.260696 -0.651707,-1.383667 -0.496609,-1.489052 -0.337763,-1.575737 -0.177804,-1.642982 -0.01942,-1.690422 0.134732,-1.718018 0.28204,-1.72615 0.420014,-1.715538 0.546315,-1.687218 0.658812,-1.642571 0.755643,-1.583301 0.835203,-1.511296 0.896223,-1.428684 0.937754,-1.33778 0.959217,-1.240989 0.96044,-1.14085 0.941557,-1.039841 0.903162,-0.940479 0.846134,-0.845158 0.771742,-0.756168 0.681599,-0.675629 0.577585,-0.605427 0.46183,-0.547207 0.336721,-0.502323 0.204793,-0.471806 L 24,50 23.931273,49.543633 23.726479,49.071827 23.389759,48.569508 22.927933,48.022301 22.350351,47.41687 21.668745,46.741241 20.897001,45.985073 20.050869,45.139915 19.147707,44.19944 18.20615,43.159599 l -0.96044,-1.140854 -0.959228,-1.241001 -0.937744,-1.337768 -0.896212,-1.428677 -0.835209,-1.511295 -0.755648,-1.583309 -0.658821,-1.642586 -0.546313,-1.687218 -0.42001,-1.715521 -0.282034,-1.726144 -0.134734,-1.718022 0.01941,-1.690424 0.177811,-1.642986 0.337761,-1.575745 0.496608,-1.489052 0.651703,-1.383655 0.800511,-1.260702 0.940601,-1.121554 1.069781,-0.968013 1.186057,-0.802117 1.287664,-0.626089 1.373236,-0.442454 1.441593,-0.253808 1.492033,-0.06292 1.524155,0.127442 1.537851,0.31445 1.533526,0.495368 1.511764,0.667507 1.473646,0.828388 1.420492,0.975693 1.353861,1.107322 1.275696,1.22151 1.188007,1.316719 1.093121,1.391861 L 37,23 l 0.891209,1.478947 0.789173,1.490507 0.68967,1.480995 0.595131,1.451216 0.507778,1.402179 0.429749,1.335333 0.3629,1.252398 0.308861,1.155342 0.268989,1.046455 0.244309,0.928093 0.235527,0.802922 0.242981,0.673557 0.266658,0.542763 0.306202,0.413261 0.360863,0.287701 0.429592,0.168667 0.51099,0.05855 0.603375,-0.04045 0.704818,-0.126354 0.813103,-0.197487 0.925923,-0.252476 1.040733,-0.290264 1.154983,-0.310192 1.266053,-0.311912 1.371322,-0.29551 1.46822,-0.261329 1.554337,-0.210209 1.627441,-0.143234 1.685375,-0.06181 1.72641,0.03234 1.749024,0.137241 1.751918,0.25074 1.734318,0.370499 1.695717,0.494011 1.63588,0.618824 1.555229,0.742329 1.454223,0.862022 1.333985,0.975483 1.195747,1.080376 1.04126,1.17461 0.872429,1.256218 0.691536,1.323597 0.500999,1.375377 0.303436,1.410466 L 78,50.000008 Z"
         inkscape:connector-curvature="0"
         style="fill:none;stroke:#0000ff;stroke-width:0.05mm" />
      <path
         id="path853"
         d="m 80,50 -0.102844,1.498001 -0.307091,1.480187 -0.50708,1.444912 -0.700043,1.392894 -0.883362,1.325177 -1.054565,1.243125 -1.211456,1.1484 -1.352036,1.042911 -1.474647,0.928784 -1.577942,0.808334 -1.660927,0.683994 L 67.44503,63.555 65.681206,63.988758 63.897583,64.301697 62.114735,64.5 l -1.762375,0.09218 -1.7234,-0.0033 -1.667469,-0.08604 -1.59636,-0.154464 -1.512153,-0.207085 -1.417111,-0.242809 -1.313663,-0.260865 -1.204357,-0.26083 -1.091793,-0.24266 -0.9786,-0.206669 -0.867355,-0.153553 -0.760567,-0.08434 -0.660564,-4.08e-4 -0.569539,0.09657 -0.489429,0.20462 -0.421921,0.321549 -0.3684,0.44495 -0.32993,0.572265 -0.307239,0.700837 -0.300701,0.827934 -0.310315,0.950828 -0.33575,1.066849 -0.376293,1.173416 -0.430916,1.268105 -0.498272,1.348655 -0.576737,1.413109 -0.664417,1.459717 -0.759216,1.487084 -0.858879,1.494148 L 37,79 l -1.063156,1.444839 -1.162827,1.388192 -1.25756,1.310646 -1.344971,1.212997 -1.422821,1.096405 -1.48901,0.962372 -1.54167,0.812683 -1.579206,0.649445 -1.600275,0.474952 -1.603861,0.291726 -1.589318,0.102424 -1.556304,-0.09019 L 18.284155,88.373169 16.848728,87.899033 15.499998,87.23909 14.25411,86.401024 13.125783,85.394989 12.127991,84.233391 11.271732,82.930679 10.565773,81.503082 10.016479,79.968231 9.627661,78.344879 9.400494,76.652542 9.333468,74.911057 9.4224,73.140358 l 0.238107,-1.780403 0.378,-1.771286 0.506276,-1.744408 0.620792,-1.701118 0.719687,-1.643143 0.801359,-1.572346 0.864529,-1.490886 0.908252,-1.401051 0.93194,-1.305248 0.935423,-1.206024 0.918829,-1.105847 0.882751,-1.007236 0.828066,-0.91259 0.756039,-0.824192 0.66828,-0.744152 0.566663,-0.674382 0.453324,-0.616493 0.330635,-0.571865 0.201139,-0.541519 L 22,50 21.932491,49.473831 21.731352,48.932312 21.400717,48.360451 20.947397,47.743954 20.380733,47.069572 19.71245,46.325417 18.956409,45.501228 18.128345,44.588642 17.245594,43.581406 16.326765,42.475555 15.391342,41.269535 14.459392,39.964272 13.551149,38.563232 12.686631,37.072353 11.885266,35.500004 11.165572,33.856857 10.544773,32.155724 10.038501,30.41132 9.660503,28.640049 9.422401,26.85965 9.333467,25.088942 l 0.067025,-1.741478 0.227174,-1.692351 0.388815,-1.623354 0.549295,-1.534849 0.705954,-1.427591 0.856265,-1.302715 0.997786,-1.161592 1.128326,-1.006036 1.245898,-0.838071 1.348721,-0.659933 1.435435,-0.474148 1.504861,-0.283311 1.556294,-0.09019 1.589329,0.102423 1.603857,0.291723 1.600284,0.474957 1.579195,0.649439 1.541666,0.812684 1.48902,0.962373 1.422811,1.096402 1.344986,1.213 1.25755,1.310639 1.162834,1.388204 L 37,21 l 0.96101,1.480165 0.858887,1.494162 0.759212,1.487078 0.664417,1.459724 0.576733,1.4131 0.498272,1.348653 0.430923,1.268103 0.37629,1.173408 0.33575,1.066864 0.310315,0.950825 0.300701,0.827938 0.307239,0.700833 0.32993,0.572265 0.3684,0.444954 0.421921,0.321545 0.489433,0.204624 0.569535,0.09656 0.66056,-4.04e-4 0.760571,-0.08434 0.867351,-0.153553 0.978611,-0.206673 1.091789,-0.24266 1.204346,-0.260826 1.313664,-0.260857 1.417122,-0.242825 1.512149,-0.207077 1.596352,-0.154457 1.667484,-0.08605 1.723397,-0.0033 1.762363,0.09217 1.782867,0.198299 1.783612,0.312939 1.763824,0.433766 1.722985,0.558273 1.660896,0.683998 1.577965,0.808338 1.474632,0.92878 1.352058,1.042915 1.211441,1.148392 1.054589,1.243137 0.883346,1.325169 0.700043,1.392887 0.50708,1.444923 0.307091,1.480179 L 80,50.000008 Z"
         inkscape:connector-curvature="0"
         style="fill:none;stroke:#0000ff;stroke-width:0.05mm" />
      <path
         id="path855"
         d="m 92,50 -0.110153,1.916794 -0.32901,1.898472 -0.543587,1.862175 -0.751091,1.808628 -0.948883,1.73888 -1.134491,1.654289 -1.305679,1.556522 -1.460442,1.447495 -1.597107,1.329338 -1.71431,1.204376 -1.811035,1.075028 -1.886634,0.943847 -1.940842,0.81337 -1.973778,0.686142 -1.985916,0.564644 -1.978104,0.45121 -1.95153,0.348022 -1.907707,0.257065 -1.848442,0.180054 -1.775746,0.118423 -1.69191,0.07331 -1.599323,0.04547 -1.50053,0.03535 -1.398129,0.043 -1.294716,0.06812 -1.192871,0.110046 -1.095077,0.167732 -1.003674,0.239838 -0.920822,0.324692 -0.848461,0.420349 -0.788261,0.52462 -0.741604,0.635109 -0.709545,0.749283 -0.692799,0.864502 -0.691738,0.978035 -0.706356,1.087196 -0.736302,1.189308 -0.78088,1.281822 -0.839042,1.362328 -0.909432,1.428581 -0.99044,1.47863 -1.080151,1.510758 -1.176479,1.523597 -1.277164,1.51607 L 37,91 l -1.481949,1.437531 -1.581112,1.366264 -1.674824,1.274147 -1.760705,1.161949 -1.836524,1.030884 -1.900173,0.882446 -1.949791,0.718468 -1.983793,0.541031 -2.00083,0.352493 -1.999897,0.15535 -1.980356,-0.04768 L 14.908181,99.61903 13.023701,99.158695 11.215069,98.4944 9.499997,97.631393 7.895078,96.577599 6.415469,95.343445 5.074568,93.941589 3.883795,92.38681 2.852322,90.695618 1.986911,88.885971 1.291759,86.976959 0.768417,84.988441 0.415731,82.940628 0.229867,80.853806 0.204378,78.747887 0.330302,76.64209 0.596331,74.554581 0.988998,72.502174 1.492956,70.5 2.091249,68.56131 2.765623,66.69722 3.496856,64.916557 4.265139,63.225746 5.050456,61.628685 5.832917,60.126801 6.593205,58.719009 7.312862,57.401833 7.974679,56.169521 8.563036,55.014206 9.064177,53.926125 9.466454,52.893894 9.760583,51.904766 9.939802,50.944962 10,49.999996 9.939802,49.055038 9.760583,48.095238 9.466454,47.10611 9.064179,46.073875 8.563042,44.985794 7.974679,43.830475 7.31286,42.598167 6.593204,41.280994 5.832916,39.873199 5.050455,38.371315 4.265134,36.774254 3.496845,35.083431 2.765619,33.30278 2.091261,31.438698 1.492961,29.500002 0.988997,27.497826 0.596323,25.445406 0.330298,23.357897 0.204374,21.252111 0.229868,19.146198 0.415729,17.059376 0.768415,15.011562 1.291766,13.023036 1.986915,11.114021 2.852326,9.304375 3.883792,7.613191 5.074574,6.058399 6.415466,4.656561 7.895075,3.4224 9.500006,2.3686 l 1.71506,-0.862998 1.808643,-0.664307 1.884475,-0.460327 1.941851,-0.253852 1.980369,-0.047682 1.999893,0.155356 2.000844,0.352494 1.983778,0.541032 1.949787,0.718462 1.900184,0.88245 1.83651,1.030878 1.760723,1.161955 1.674812,1.274129 1.581124,1.366287 L 37,9 l 1.379799,1.487474 1.277176,1.516084 1.176472,1.523585 1.080162,1.510771 0.990428,1.478623 0.909432,1.428571 0.83905,1.362328 0.780873,1.281818 0.736309,1.189326 0.706348,1.087188 0.691742,0.978047 0.692799,0.864492 0.709537,0.749281 0.741612,0.635113 0.788257,0.524612 0.848469,0.420351 0.920818,0.324692 1.003666,0.23984 1.095089,0.167734 1.192864,0.110042 1.294727,0.06812 1.398121,0.043 1.500522,0.03535 1.599324,0.04548 1.691913,0.07329 1.775757,0.118439 1.848419,0.180054 1.907738,0.257064 1.951515,0.348023 1.978096,0.451202 1.985932,0.564644 1.97377,0.686142 1.940842,0.813385 1.886642,0.943829 1.811005,1.075035 1.714325,1.204376 1.597099,1.329334 1.460464,1.447506 1.305672,1.556515 1.134499,1.654301 0.948875,1.738868 0.751091,1.808617 0.543587,1.86219 0.32901,1.898461 L 92,50.000011 Z"
         inkscape:connector-curvature="0"
         style="fill:none;stroke:#0000ff;stroke-width:0.05mm" />
    </g>
  </g>
</svg>
