<?xml version="1.0" encoding="UTF-8" standalone="no"?>
<svg xmlns="http://www.w3.org/2000/svg" width="100.000000mm" height="100.000000mm" x="0" y="0" viewBox="0 0 100.000000 100.000000">
<g transform="rotate(-38.000000)">
<path stroke="#0000ff" fill="none" stroke-width=".05mm" d="M47.500000 85.199997 L49.900002 85.199997 L49.900002 86.800003 L52.299999 86.800003 L52.299999 85.199997 L54.700001 85.199997 L54.700001 86.800003 L57.100002 86.800003 L57.100002 85.199997 L59.500000 85.199997 L59.383484 85.199997 L59.134724 83.031738 L58.794395 80.871735 L58.365040 78.727654 L57.849812 76.606995 L57.252396 74.517036 L56.576996 72.464790 L55.828278 70.456886 L55.011326 68.499557 L54.131557 66.598572 L53.194706 64.759201 L52.206715 62.986145 L51.173729 61.283554 L50.102005 59.654984 L48.997845 58.103378 L47.867569 56.631081 L46.717445 55.239838 L45.553638 53.930801 L44.382191 52.704575 L43.208939 51.561218 L42.039513 50.500305 L40.879295 49.520966 L39.733395 48.621925 L38.606613 47.801567 L37.503464 47.058018 L36.428108 46.389194 L35.384384 45.792881 L34.375793 45.266838 L33.405502 44.808868 L32.476330 44.416946 L31.590759 44.089310 L30.750935 43.824593 L29.958675 43.621960 L29.215466 43.481266 L28.522461 43.403175 L27.880478 43.389328 L27.290014 43.442406 L26.751265 43.566120 L26.264095 43.765034 L25.828136 44.044018 L25.442854 44.407330 L25.107662 44.857063 L24.822123 45.391205 L24.586107 46.001621 L24.399960 46.672829 L24.264481 47.382549 L24.180721 48.104450 L24.149666 48.812511 L24.171906 49.485363 L24.247440 50.109043 L24.375656 50.677536 L24.555450 51.191513 L24.785400 51.656303 L25.063917 52.079910 L25.389359 52.471474 L25.760069 52.840248 L26.174423 53.195061 L26.630795 53.544060 L27.127535 53.894653 L27.662956 54.253529 L28.235304 54.626740 L28.842697 55.019753 L29.483147 55.437557 L30.154499 55.884689 L30.854450 56.365303 L31.580486 56.883171 L32.329918 57.441723 L33.099842 58.044048 L33.887161 58.692886 L34.688560 59.390625 L35.500534 60.139294 L36.319378 60.940525 L37.141212 61.795570 L37.961990 62.705254 L38.777519 63.669994 L39.583496 64.689735 L40.375511 65.763985 L41.149097 66.891800 L41.899776 68.071754 L42.623047 69.301964 L43.314487 70.580116 L43.969734 71.903412 L44.584576 73.268677 L45.154945 74.672279 L45.677017 76.110268 L46.147194 77.578308 L46.562183 79.071808 L46.919014 80.585861 L47.215084 82.115417 L47.448177 83.655205 Z" />
</g>
<g transform="rotate(94.500000)">
<path stroke="#0000ff" fill="none" stroke-width=".05mm" d="M84.500000 -47.599998 L86.900002 -47.599998 L86.900002 -46.000000 L89.300003 -46.000000 L89.300003 -47.599998 L91.699997 -47.599998 L91.699997 -46.000000 L94.100006 -46.000000 L94.100006 -47.599998 L96.500000 -47.599998 L96.383484 -47.599998 L96.051300 -50.510845 L95.596298 -53.410805 L95.021851 -56.289612 L94.332214 -59.137218 L93.532318 -61.943863 L92.627808 -64.700172 L91.624939 -67.397255 L90.530510 -70.026772 L89.351822 -72.581001 L88.096550 -75.052910 L86.772682 -77.436211 L85.388443 -79.725357 L83.952240 -81.915642 L82.472527 -84.003128 L80.957794 -85.984734 L79.416451 -87.858177 L77.856781 -89.621964 L76.286880 -91.275375 L74.714615 -92.818420 L73.147537 -94.251755 L71.592880 -95.576698 L70.057518 -96.795097 L68.547920 -97.909294 L67.070152 -98.922020 L65.629837 -99.836319 L64.232162 -100.655472 L62.881866 -101.382843 L61.583244 -102.021835 L60.340145 -102.575706 L59.155983 -103.047470 L58.033722 -103.439774 L56.975925 -103.754707 L55.984726 -103.993660 L55.061844 -104.157166 L54.208591 -104.244751 L53.425896 -104.254814 L52.714306 -104.184662 L52.073997 -104.030693 L51.504860 -103.788872 L51.006561 -103.455688 L50.578686 -103.029716 L50.220932 -102.513474 L49.933266 -101.915550 L49.716095 -101.251709 L49.570274 -100.544426 L49.496857 -99.820084 L49.496819 -99.104660 L49.570709 -98.419319 L49.718456 -97.777725 L49.939354 -97.185478 L50.232162 -96.641380 L50.595295 -96.139427 L51.026947 -95.670876 L51.525227 -95.225746 L52.088165 -94.793831 L52.713791 -94.365288 L53.400036 -93.930878 L54.144768 -93.482025 L54.945724 -93.010849 L55.800507 -92.510048 L56.706490 -91.972908 L57.660862 -91.393158 L58.660542 -90.765007 L59.702202 -90.083061 L60.782188 -89.342361 L61.896576 -88.538330 L63.041115 -87.666840 L64.211258 -86.724159 L65.402115 -85.707069 L66.608528 -84.612793 L67.825020 -83.439140 L69.045876 -82.184410 L70.265099 -80.847549 L71.476501 -79.428055 L72.673691 -77.926125 L73.850166 -76.342560 L74.999298 -74.678871 L76.114456 -72.937210 L77.188980 -71.120438 L78.216309 -69.232040 L79.189972 -67.276215 L80.103737 -65.257706 L80.951576 -63.181915 L81.727814 -61.054749 L82.427094 -58.882648 L83.044571 -56.672462 L83.575821 -54.431458 L84.016968 -52.167175 L84.364746 -49.887436 Z" />
</g>
<g transform="rotate(-38.000000)">
<circle  cx="53.500000" cy="81.199997" r="2.000000" stroke="#0000ff" fill="none" stroke-width=".05mm" />
<circle  cx="27.923149" cy="48.512669" r="2.000000" stroke="#0000ff" fill="none" stroke-width=".05mm" />
</g>
<g transform="rotate(94.500000)">
<circle  cx="54.692406" cy="-98.962257" r="2.000000" stroke="#0000ff" fill="none" stroke-width=".05mm" />
</g>
<circle  cx="19.500000" cy="19.689110" r="2.000000" stroke="#0000ff" fill="none" stroke-width=".05mm" />
<circle  cx="19.499994" cy="80.310883" r="2.000000" stroke="#0000ff" fill="none" stroke-width=".05mm" />
<circle  cx="86.000000" cy="49.999996" r="2.000000" stroke="#0000ff" fill="none" stroke-width=".05mm" />
<circle  cx="12.500001" cy="7.564755" r="2.000000" stroke="#0000ff" fill="none" stroke-width=".05mm" />
<circle  cx="12.499991" cy="92.435242" r="2.000000" stroke="#0000ff" fill="none" stroke-width=".05mm" />
<path stroke="#0000ff" fill="none" stroke-width=".05mm" d="M68.300003 49.099998 L68.300003 50.900002 L70.900002 50.900002 L70.900002 49.099998 Z" />
<path stroke="#0000ff" fill="none" stroke-width=".05mm" d="M73.100006 49.099998 L73.100006 50.900002 L75.699997 50.900002 L75.699997 49.099998 Z" />
<path stroke="#0000ff" fill="none" stroke-width=".05mm" d="M19.700001 49.099998 L19.700001 50.900002 L17.100000 50.900002 L17.100000 49.099998 Z" />
<path stroke="#0000ff" fill="none" stroke-width=".05mm" d="M14.900000 49.099998 L14.900000 50.900002 L12.299999 50.900002 L12.299999 49.099998 Z" />
<path stroke="#0000ff" fill="none" stroke-width=".05mm" d="M78.000000 50.000000 L77.898376 51.428204 L77.594940 52.838673 L77.093941 54.214043 L76.402405 55.537647 L75.529968 56.793873 L74.488716 57.968472 L73.292969 59.048855 L71.959000 60.024330 L70.504761 60.886356 L68.949547 61.628685 L67.313637 62.247505 L65.617943 62.741528 L63.883617 63.112015 L62.131687 63.362755 L60.382687 63.500000 L58.656265 63.532337 L56.970882 63.470531 L55.343456 63.327301 L53.789112 63.117092 L52.320889 62.855751 L50.949577 62.560257 L49.683521 62.248337 L48.528530 61.938145 L47.487793 61.647877 L46.561878 61.395405 L45.748775 61.197918 L45.043964 61.071568 L44.440582 61.031120 L43.929592 61.089664 L43.500000 61.258331 L43.139137 61.546036 L42.832939 61.959293 L42.566277 62.502060 L42.323296 63.175617 L42.087769 63.978535 L41.843460 64.906631 L41.574471 65.953072 L41.265610 67.108421 L40.902710 68.360817 L40.472965 69.696159 L39.965179 71.098343 L39.370052 72.549553 L38.680382 74.030556 L37.891216 75.521049 L37.000000 77.000000 L36.006641 78.446060 L34.913532 79.837898 L33.725513 81.154633 L32.449833 82.376137 L31.095963 83.483467 L29.675478 84.459160 L28.201828 85.287544 L26.690052 85.955055 L25.156538 86.450417 L23.618683 86.764870 L22.094538 86.892311 L20.602495 86.829391 L19.160896 86.575584 L17.787672 86.133133 L16.499998 85.507042 L15.313949 84.704926 L14.244169 83.736916 L13.303561 82.615356 L12.503056 81.354660 L11.851349 79.970993 L11.354740 78.481941 L11.016977 76.906204 L10.839173 75.263222 L10.819757 73.572800 L10.954489 71.854782 L11.236529 70.128632 L11.656543 68.413094 L12.202858 66.725876 L12.861670 65.083305 L13.617313 63.500004 L14.452516 61.988708 L15.348739 60.560024 L16.286493 59.222244 L17.245710 57.981255 L18.206150 56.840405 L19.147707 55.800564 L20.050869 54.860085 L20.897003 54.014927 L21.668745 53.258759 L22.350344 52.583130 L22.927929 51.977703 L23.389759 51.430496 L23.726480 50.928173 L23.931273 50.456367 L24.000000 50.000000 L23.931273 49.543633 L23.726479 49.071827 L23.389759 48.569508 L22.927933 48.022301 L22.350351 47.416870 L21.668745 46.741241 L20.897001 45.985073 L20.050869 45.139915 L19.147707 44.199440 L18.206150 43.159599 L17.245710 42.018745 L16.286482 40.777744 L15.348738 39.439976 L14.452526 38.011299 L13.617317 36.500004 L12.861669 34.916695 L12.202848 33.274109 L11.656535 31.586891 L11.236525 29.871370 L10.954491 28.145226 L10.819757 26.427204 L10.839171 24.736780 L11.016982 23.093794 L11.354743 21.518049 L11.851351 20.028997 L12.503054 18.645342 L13.303565 17.384640 L14.244166 16.263086 L15.313947 15.295073 L16.500004 14.492956 L17.787668 13.866867 L19.160904 13.424413 L20.602497 13.170605 L22.094530 13.107689 L23.618685 13.235131 L25.156536 13.549581 L26.690062 14.044949 L28.201826 14.712456 L29.675472 15.540844 L31.095964 16.516537 L32.449825 17.623859 L33.725521 18.845369 L34.913528 20.162088 L36.006649 21.553949 L37.000000 23.000000 L37.891209 24.478947 L38.680382 25.969454 L39.370052 27.450449 L39.965183 28.901665 L40.472961 30.303844 L40.902710 31.639177 L41.265610 32.891575 L41.574471 34.046917 L41.843460 35.093372 L42.087769 36.021465 L42.323296 36.824387 L42.566277 37.497944 L42.832935 38.040707 L43.139137 38.453968 L43.500000 38.741669 L43.929592 38.910336 L44.440582 38.968884 L45.043957 38.928436 L45.748775 38.802082 L46.561878 38.604595 L47.487801 38.352119 L48.528534 38.061855 L49.683517 37.751663 L50.949570 37.439751 L52.320892 37.144241 L53.789112 36.882912 L55.343449 36.672703 L56.970890 36.529469 L58.656265 36.467663 L60.382675 36.500000 L62.131699 36.637241 L63.883617 36.887981 L65.617935 37.258480 L67.313652 37.752491 L68.949532 38.371315 L70.504761 39.113644 L71.958984 39.975666 L73.292969 40.951149 L74.488716 42.031525 L75.529976 43.206135 L76.402405 44.462353 L77.093941 45.785950 L77.594940 47.161327 L77.898376 48.571793 L78.000000 50.000008 Z" />
<path stroke="#0000ff" fill="none" stroke-width=".05mm" d="M80.000000 50.000000 L79.897156 51.498001 L79.590065 52.978188 L79.082985 54.423100 L78.382942 55.815994 L77.499580 57.141171 L76.445015 58.384296 L75.233559 59.532696 L73.881523 60.575607 L72.406876 61.504391 L70.828934 62.312725 L69.168007 62.996719 L67.445030 63.555000 L65.681206 63.988758 L63.897583 64.301697 L62.114735 64.500000 L60.352360 64.592178 L58.628960 64.588913 L56.961491 64.502876 L55.365131 64.348412 L53.852978 64.141327 L52.435867 63.898518 L51.122204 63.637653 L49.917847 63.376823 L48.826054 63.134163 L47.847454 62.927494 L46.980099 62.773941 L46.219532 62.689602 L45.558968 62.689194 L44.989429 62.785763 L44.500000 62.990383 L44.078079 63.311932 L43.709679 63.756882 L43.379749 64.329147 L43.072510 65.029984 L42.771809 65.857918 L42.461494 66.808746 L42.125744 67.875595 L41.749451 69.049011 L41.318535 70.317116 L40.820263 71.665771 L40.243526 73.078880 L39.579109 74.538597 L38.819893 76.025681 L37.961014 77.519829 L37.000000 79.000000 L35.936844 80.444839 L34.774017 81.833031 L33.516457 83.143677 L32.171486 84.356674 L30.748665 85.453079 L29.259655 86.415451 L27.717985 87.228134 L26.138779 87.877579 L24.538504 88.352531 L22.934643 88.644257 L21.345325 88.746681 L19.789021 88.656487 L18.284155 88.373169 L16.848728 87.899033 L15.499998 87.239090 L14.254110 86.401024 L13.125783 85.394989 L12.127991 84.233391 L11.271732 82.930679 L10.565773 81.503082 L10.016479 79.968231 L9.627661 78.344879 L9.400494 76.652542 L9.333468 74.911057 L9.422400 73.140358 L9.660507 71.359955 L10.038507 69.588669 L10.544783 67.844261 L11.165575 66.143143 L11.885262 64.500000 L12.686621 62.927654 L13.551150 61.436768 L14.459402 60.035717 L15.391342 58.730469 L16.326765 57.524445 L17.245594 56.418598 L18.128345 55.411362 L18.956411 54.498772 L19.712450 53.674580 L20.380730 52.930428 L20.947393 52.256046 L21.400717 51.639553 L21.731352 51.067688 L21.932491 50.526169 L22.000000 50.000000 L21.932491 49.473831 L21.731352 48.932312 L21.400717 48.360451 L20.947397 47.743954 L20.380733 47.069572 L19.712450 46.325417 L18.956409 45.501228 L18.128345 44.588642 L17.245594 43.581406 L16.326765 42.475555 L15.391342 41.269535 L14.459392 39.964272 L13.551149 38.563232 L12.686631 37.072353 L11.885266 35.500004 L11.165572 33.856857 L10.544773 32.155724 L10.038501 30.411320 L9.660503 28.640049 L9.422401 26.859650 L9.333467 25.088942 L9.400492 23.347464 L9.627666 21.655113 L10.016481 20.031759 L10.565776 18.496910 L11.271730 17.069319 L12.127995 15.766604 L13.125781 14.605012 L14.254107 13.598976 L15.500005 12.760905 L16.848726 12.100972 L18.284161 11.626824 L19.789022 11.343513 L21.345316 11.253322 L22.934645 11.355745 L24.538502 11.647468 L26.138786 12.122425 L27.717981 12.771864 L29.259647 13.584548 L30.748667 14.546921 L32.171478 15.643323 L33.516464 16.856323 L34.774014 18.166962 L35.936848 19.555166 L37.000000 21.000000 L37.961010 22.480165 L38.819897 23.974327 L39.579109 25.461405 L40.243526 26.921129 L40.820259 28.334229 L41.318531 29.682882 L41.749454 30.950985 L42.125744 32.124393 L42.461494 33.191257 L42.771809 34.142082 L43.072510 34.970020 L43.379749 35.670853 L43.709679 36.243118 L44.078079 36.688072 L44.500000 37.009617 L44.989433 37.214241 L45.558968 37.310806 L46.219528 37.310402 L46.980099 37.226059 L47.847450 37.072506 L48.826061 36.865833 L49.917850 36.623173 L51.122196 36.362347 L52.435860 36.101490 L53.852982 35.858665 L55.365131 35.651588 L56.961483 35.497131 L58.628967 35.411083 L60.352364 35.407825 L62.114727 35.500000 L63.897594 35.698299 L65.681206 36.011238 L67.445030 36.445004 L69.168015 37.003277 L70.828911 37.687275 L72.406876 38.495613 L73.881508 39.424393 L75.233566 40.467308 L76.445007 41.615700 L77.499596 42.858837 L78.382942 44.184006 L79.082985 45.576893 L79.590065 47.021816 L79.897156 48.501995 L80.000000 50.000008 Z" />
<path stroke="#0000ff" fill="none" stroke-width=".05mm" d="M92.000000 50.000000 L91.889847 51.916794 L91.560837 53.815266 L91.017250 55.677441 L90.266159 57.486069 L89.317276 59.224949 L88.182785 60.879238 L86.877106 62.435760 L85.416664 63.883255 L83.819557 65.212593 L82.105247 66.416969 L80.294212 67.491997 L78.407578 68.435844 L76.466736 69.249214 L74.492958 69.935356 L72.507042 70.500000 L70.528938 70.951210 L68.577408 71.299232 L66.669701 71.556297 L64.821259 71.736351 L63.045513 71.854774 L61.353603 71.928085 L59.754280 71.973557 L58.253750 72.008904 L56.855621 72.051903 L55.560905 72.120026 L54.368034 72.230072 L53.272957 72.397804 L52.269283 72.637642 L51.348461 72.962334 L50.500000 73.382683 L49.711739 73.907303 L48.970135 74.542412 L48.260590 75.291695 L47.567791 76.156197 L46.876053 77.134232 L46.169697 78.221428 L45.433395 79.410736 L44.652515 80.692558 L43.813473 82.054886 L42.904041 83.483467 L41.913601 84.962097 L40.833450 86.472855 L39.656971 87.996452 L38.379807 89.512520 L37.000000 91.000000 L35.518051 92.437531 L33.936939 93.803795 L32.262115 95.077942 L30.501410 96.239891 L28.664886 97.270775 L26.764713 98.153221 L24.814922 98.871689 L22.831129 99.412720 L20.830299 99.765213 L18.830402 99.920563 L16.850046 99.872887 L14.908181 99.619034 L13.023701 99.158699 L11.215069 98.494400 L9.499997 97.631393 L7.895078 96.577599 L6.415469 95.343445 L5.074568 93.941589 L3.883795 92.386810 L2.852322 90.695618 L1.986911 88.885971 L1.291759 86.976959 L0.768417 84.988441 L0.415731 82.940628 L0.229867 80.853806 L0.204378 78.747887 L0.330302 76.642090 L0.596331 74.554581 L0.988998 72.502174 L1.492956 70.500000 L2.091249 68.561310 L2.765623 66.697220 L3.496856 64.916557 L4.265139 63.225746 L5.050456 61.628685 L5.832917 60.126801 L6.593205 58.719009 L7.312862 57.401833 L7.974679 56.169521 L8.563036 55.014206 L9.064177 53.926125 L9.466454 52.893894 L9.760583 51.904766 L9.939802 50.944962 L10.000000 49.999996 L9.939802 49.055038 L9.760583 48.095238 L9.466454 47.106110 L9.064179 46.073875 L8.563042 44.985794 L7.974679 43.830475 L7.312860 42.598167 L6.593204 41.280994 L5.832916 39.873199 L5.050455 38.371315 L4.265134 36.774254 L3.496845 35.083431 L2.765619 33.302780 L2.091261 31.438698 L1.492961 29.500002 L0.988997 27.497826 L0.596323 25.445406 L0.330298 23.357897 L0.204374 21.252111 L0.229868 19.146198 L0.415729 17.059376 L0.768415 15.011562 L1.291766 13.023036 L1.986915 11.114021 L2.852326 9.304375 L3.883792 7.613191 L5.074574 6.058399 L6.415466 4.656561 L7.895075 3.422400 L9.500006 2.368600 L11.215066 1.505602 L13.023709 0.841295 L14.908184 0.380968 L16.850035 0.127116 L18.830404 0.079434 L20.830297 0.234790 L22.831141 0.587284 L24.814919 1.128316 L26.764706 1.846778 L28.664890 2.729228 L30.501400 3.760106 L32.262123 4.922061 L33.936935 6.196190 L35.518059 7.562477 L37.000000 9.000000 L38.379799 10.487474 L39.656975 12.003558 L40.833447 13.527143 L41.913609 15.037914 L42.904037 16.516537 L43.813469 17.945108 L44.652519 19.307436 L45.433392 20.589254 L46.169701 21.778580 L46.876049 22.865768 L47.567791 23.843815 L48.260590 24.708307 L48.970127 25.457588 L49.711739 26.092701 L50.499996 26.617313 L51.348465 27.037664 L52.269283 27.362356 L53.272949 27.602196 L54.368038 27.769930 L55.560902 27.879972 L56.855629 27.948095 L58.253750 27.991096 L59.754272 28.026443 L61.353596 28.071924 L63.045509 28.145214 L64.821266 28.263653 L66.669685 28.443707 L68.577423 28.700771 L70.528938 29.048794 L72.507034 29.499996 L74.492966 30.064640 L76.466736 30.750782 L78.407578 31.564167 L80.294220 32.507996 L82.105225 33.583031 L83.819550 34.787407 L85.416649 36.116741 L86.877113 37.564247 L88.182785 39.120762 L89.317284 40.775063 L90.266159 42.513931 L91.017250 44.322548 L91.560837 46.184738 L91.889847 48.083199 L92.000000 50.000011 Z" />
</svg>