<?xml version="1.0" encoding="UTF-8" standalone="no"?>
<svg
   xmlns:dc="http://purl.org/dc/elements/1.1/"
   xmlns:cc="http://creativecommons.org/ns#"
   xmlns:rdf="http://www.w3.org/1999/02/22-rdf-syntax-ns#"
   xmlns:svg="http://www.w3.org/2000/svg"
   xmlns="http://www.w3.org/2000/svg"
   xmlns:sodipodi="http://sodipodi.sourceforge.net/DTD/sodipodi-0.dtd"
   xmlns:inkscape="http://www.inkscape.org/namespaces/inkscape"
   width="100.000000mm"
   height="100.000000mm"
   x="0"
   y="0"
   viewBox="0 0 100.000000 100.000000"
   version="1.1"
   id="svg44"
   sodipodi:docname="drawing.svg"
   inkscape:version="0.92.4 (5da689c313, 2019-01-14)">
  <metadata
     id="metadata50">
    <rdf:RDF>
      <cc:Work
         rdf:about="">
        <dc:format>image/svg+xml</dc:format>
        <dc:type
           rdf:resource="http://purl.org/dc/dcmitype/StillImage" />
        <dc:title></dc:title>
      </cc:Work>
    </rdf:RDF>
  </metadata>
  <defs
     id="defs48" />
  <sodipodi:namedview
     pagecolor="#ffffff"
     bordercolor="#666666"
     borderopacity="1"
     objecttolerance="10"
     gridtolerance="10"
     guidetolerance="10"
     inkscape:pageopacity="0"
     inkscape:pageshadow="2"
     inkscape:window-width="732"
     inkscape:window-height="480"
     id="namedview46"
     showgrid="false"
     inkscape:zoom="0.62441667"
     inkscape:cx="188.97638"
     inkscape:cy="188.97638"
     inkscape:window-x="103"
     inkscape:window-y="45"
     inkscape:window-maximized="0"
     inkscape:current-layer="svg44" />
  <g
     transform="rotate(-63.025412)"
     id="g4">
    <path
       stroke="#0000ff"
       fill="none"
       stroke-width=".05mm"
       d="M1.840363 45.667652 L3.840363 45.667652 L3.840363 47.267651 L5.840363 47.267651 L5.840363 45.667652 L7.840363 45.667652 L7.840363 47.267651 L9.840363 47.267651 L9.840363 45.667652 L11.840363 45.667652 L11.743267 45.667652 L12.091030 44.036198 L12.381863 42.409348 L12.612530 40.791309 L12.780266 39.186230 L12.882843 37.598156 L12.918594 36.031021 L12.886436 34.488609 L12.785889 32.974522 L12.617092 31.492170 L12.380798 30.044746 L12.078354 28.635208 L11.711693 27.266262 L11.283318 25.940357 L10.796215 24.659676 L10.253887 23.426134 L9.660225 22.241369 L9.019512 21.106768 L8.336330 20.023451 L7.615517 18.992294 L6.862095 18.013950 L6.081188 17.088865 L5.277994 16.217285 L4.457684 15.399327 L3.625360 14.634956 L2.785984 13.924071 L1.944323 13.266525 L1.104898 12.662169 L0.271917 12.110933 L-0.550766 11.612871 L-1.359688 11.168233 L-2.151842 10.777579 L-2.924709 10.441833 L-3.676310 10.162431 L-4.405209 9.941390 L-5.110565 9.781430 L-5.792130 9.686015 L-6.450201 9.659355 L-7.085539 9.706207 L-7.699158 9.831450 L-8.291994 10.039311 L-8.864456 10.332067 L-9.415794 10.708469 L-9.943558 11.162069 L-10.443339 11.680226 L-10.909048 12.244559 L-10.942600 12.833232 L-10.941271 13.424537 L-10.898387 14.000508 L-10.809228 14.549177 L-10.671367 15.065020 L-10.484447 15.547966 L-10.249674 16.001709 L-9.969267 16.432100 L-9.646023 16.845835 L-9.283003 17.249678 L-8.883394 17.649975 L-8.450422 18.052458 L-7.987310 18.462200 L-7.497328 18.883627 L-6.983789 19.320608 L-6.450079 19.776495 L-5.899670 20.254196 L-5.336153 20.756260 L-4.763210 21.284882 L-4.184656 21.841965 L-3.604380 22.429146 L-3.026369 23.047789 L-2.454660 23.699036 L-1.893333 24.383780 L-1.346449 25.102692 L-0.818048 25.856194 L-0.312077 26.644503 L0.167622 27.467577 L0.617384 28.325169 L1.033737 29.216770 L1.413462 30.141666 L1.753613 31.098886 L2.051590 32.087250 L2.305130 33.105335 L2.512377 34.151524 L2.671871 35.223965 L2.782600 36.320629 L2.843987 37.439281 L2.855911 38.577545 L2.818701 39.732853 L2.733137 40.902531 L2.600424 42.083771 L2.422184 43.273678 L2.200415 44.469280 Z"
       id="path2" />
  </g>
  <g
     transform="rotate(134.645190)"
     id="g8">
    <path
       stroke="#0000ff"
       fill="none"
       stroke-width=".05mm"
       d="M45.201115 -55.206757 L47.201115 -55.206757 L47.201115 -53.606758 L49.201115 -53.606758 L49.201115 -55.206757 L51.201115 -55.206757 L51.201115 -53.606758 L53.201115 -53.606758 L53.201115 -55.206757 L55.201115 -55.206757 L55.104019 -55.206757 L55.561520 -57.346680 L55.944462 -59.480690 L56.248604 -61.603279 L56.470325 -63.709026 L56.606712 -65.792633 L56.655575 -67.848953 L56.615498 -69.873055 L56.485851 -71.860214 L56.266830 -73.805984 L55.959415 -75.706192 L55.565384 -77.556992 L55.087288 -79.354858 L54.528389 -81.096611 L53.892643 -82.779419 L53.184635 -84.400803 L52.409485 -85.958664 L51.572826 -87.451241 L50.680691 -88.877113 L49.739441 -90.235207 L48.755688 -91.524742 L47.736198 -92.745232 L46.687817 -93.896461 L45.617378 -94.978416 L44.531635 -95.991302 L43.437164 -96.935432 L42.340309 -97.811234 L41.247101 -98.619171 L40.163181 -99.359665 L39.093777 -100.033073 L38.043598 -100.639519 L37.016830 -101.178886 L36.017040 -101.650688 L35.047173 -102.053925 L34.109497 -102.387001 L33.205597 -102.647636 L32.336330 -102.832764 L31.501928 -102.938553 L30.702044 -102.960617 L29.935976 -102.894409 L29.203030 -102.735970 L28.502932 -102.483307 L27.836504 -102.137856 L27.206198 -101.706245 L26.616373 -101.201233 L26.073009 -100.641273 L26.117107 -100.048225 L26.208477 -99.443779 L26.353901 -98.845818 L26.558149 -98.266197 L26.823647 -97.710266 L27.150681 -97.177895 L27.537895 -96.665123 L27.982849 -96.165817 L28.482424 -95.672943 L29.033140 -95.179390 L29.631296 -94.678421 L30.273045 -94.163902 L30.954424 -93.630333 L31.671322 -93.072853 L32.419479 -92.487152 L33.194447 -91.869461 L33.991577 -91.216423 L34.806030 -90.525101 L35.632759 -89.792892 L36.466507 -89.017555 L37.301876 -88.197128 L38.133308 -87.329979 L38.955143 -86.414734 L39.761654 -85.450333 L40.547131 -84.436020 L41.305859 -83.371330 L42.032269 -82.256088 L42.720924 -81.090454 L43.366634 -79.874893 L43.964470 -78.610199 L44.509876 -77.297455 L44.998676 -75.938110 L45.427174 -74.533905 L45.792152 -73.086899 L46.090988 -71.599449 L46.321602 -70.074226 L46.482559 -68.514145 L46.573044 -66.922417 L46.592888 -65.302467 L46.542564 -63.657974 L46.423199 -61.992760 L46.236504 -60.310860 L45.984783 -58.616394 L45.670910 -56.913639 Z"
       id="path6" />
  </g>
  <g
     transform="rotate(-63.025412)"
     id="g12">
    <circle
       cx="-8.253656"
       cy="13.265933"
       r="1.300000"
       stroke="#0000ff"
       fill="none"
       stroke-width=".05mm"
       id="circle10" />
  </g>
  <g
     transform="rotate(134.645190)"
     id="g16">
    <circle
       cx="29.215494"
       cy="-99.252846"
       r="1.300000"
       stroke="#0000ff"
       fill="none"
       stroke-width=".05mm"
       id="circle14" />
  </g>
  <path
     stroke="#0000ff"
     fill="none"
     stroke-width=".05mm"
     d="M61.900002 46.099998 L61.900002 47.900002 L60.099998 47.900002 L60.099998 46.099998 Z"
     id="path18" />
  <path
     stroke="#0000ff"
     fill="none"
     stroke-width=".05mm"
     d="M57.900002 46.099998 L57.900002 47.900002 L56.099998 47.900002 L56.099998 46.099998 Z"
     id="path20" />
  <path
     stroke="#0000ff"
     fill="none"
     stroke-width=".05mm"
     d="M30.400000 46.099998 L30.400000 47.900002 L28.600000 47.900002 L28.600000 46.099998 Z"
     id="path22" />
  <path
     stroke="#0000ff"
     fill="none"
     stroke-width=".05mm"
     d="M26.400000 46.099998 L26.400000 47.900002 L24.600000 47.900002 L24.600000 46.099998 Z"
     id="path24" />
  <circle
     cx="25.111454"
     cy="65.809128"
     r="1.300000"
     stroke="#0000ff"
     fill="none"
     stroke-width=".05mm"
     id="circle26" />
  <circle
     cx="25.111458"
     cy="28.190868"
     r="1.300000"
     stroke="#0000ff"
     fill="none"
     stroke-width=".05mm"
     id="circle28" />
  <circle
     cx="15.807759"
     cy="72.568657"
     r="1.300000"
     stroke="#0000ff"
     fill="none"
     stroke-width=".05mm"
     id="circle30" />
  <circle
     cx="15.807763"
     cy="21.431337"
     r="1.300000"
     stroke="#0000ff"
     fill="none"
     stroke-width=".05mm"
     id="circle32" />
  <path
     stroke="#0000ff"
     fill="none"
     stroke-width=".05mm"
     d="M88.000000 47.000000 L87.825630 48.285980 L87.308266 49.538921 L86.464905 50.727512 L85.323135 51.823803 L83.920029 52.804691 L82.300720 53.653175 L80.516594 54.359314 L78.623283 54.920849 L76.678528 55.343460 L74.739944 55.640633 L72.862808 55.833149 L71.098000 55.948208 L69.490105 56.018227 L68.075813 56.079372 L66.882683 56.169872 L65.928253 56.328209 L65.219589 56.591232 L64.753288 56.992348 L64.515900 57.559776 L64.484734 58.315037 L64.629089 59.271687 L64.911713 60.434383 L65.290596 61.798347 L65.720871 63.349190 L66.156799 65.063171 L66.553780 66.907921 L66.870201 68.843460 L67.069237 70.823624 L67.120247 72.797791 L67.000000 74.712814 L66.693436 76.515060 L66.194138 78.152596 L65.504333 79.577263 L64.634529 80.746643 L63.602783 81.625862 L62.433628 82.189095 L61.156708 82.420647 L59.805214 82.315781 L58.414185 81.880997 L57.018726 81.133873 L55.652260 80.102554 L54.344910 78.824699 L53.122005 77.346100 L52.002888 75.718979 L51.000000 73.999992 L50.118317 72.248123 L49.355156 70.522354 L48.700375 68.879478 L48.136913 67.371918 L47.641720 66.045746 L47.186951 64.938980 L46.741432 64.080185 L46.272289 63.487484 L45.746712 63.167961 L45.133698 63.117535 L44.405773 63.321285 L43.540554 63.754192 L42.522099 64.382278 L41.341972 65.164108 L40.000000 66.052559 L38.504604 66.996811 L36.872822 67.944405 L35.129803 68.843460 L33.308056 69.644653 L31.446268 70.303230 L29.587816 70.780640 L27.779041 71.046005 L26.067366 71.077171 L24.499269 70.861366 L23.118340 70.395493 L21.963316 69.685944 L21.066370 68.748055 L20.451559 67.605179 L20.133657 66.287437 L20.117317 64.830124 L20.396646 63.272091 L20.955223 61.653816 L21.766546 60.015568 L22.794874 58.395615 L23.996532 56.828461 L25.321474 55.343460 L26.715149 53.963570 L28.120621 52.704468 L29.480761 51.574055 L30.740414 50.572315 L31.848656 49.691547 L32.760719 48.917027 L33.439804 48.227928 L33.858528 47.598591 L34.000000 47.000000 L33.858524 46.401409 L33.439804 45.772072 L32.760723 45.082973 L31.848652 44.308453 L30.740416 43.427689 L29.480749 42.425941 L28.120626 41.295532 L26.715145 40.036430 L25.321480 38.656544 L23.996538 37.171543 L22.794870 35.604385 L21.766542 33.984425 L20.955227 32.346188 L20.396641 30.727907 L20.117315 29.169874 L20.133656 27.712566 L20.451559 26.394814 L21.066374 25.251942 L21.963314 24.314060 L23.118336 23.604507 L24.499262 23.138630 L26.067362 22.922831 L27.779053 22.954002 L29.587824 23.219364 L31.446280 23.696775 L33.308052 24.355343 L35.129807 25.156544 L36.872818 26.055592 L38.504601 27.003187 L40.000000 27.947437 L41.341972 28.835897 L42.522106 29.617729 L43.540554 30.245811 L44.405769 30.678715 L45.133698 30.882465 L45.746708 30.832039 L46.272293 30.512514 L46.741432 29.919815 L47.186951 29.061031 L47.641720 27.954248 L48.136913 26.628096 L48.700375 25.120508 L49.355156 23.477640 L50.118320 21.751862 L51.000000 20.000000 L52.002884 18.281033 L53.122009 16.653900 L54.344906 15.175308 L55.652267 13.897428 L57.018723 12.866131 L58.414177 12.119009 L59.805218 11.684215 L61.156700 11.579354 L62.433632 11.810910 L63.602783 12.374130 L64.634537 13.253364 L65.504333 14.422736 L66.194138 15.847388 L66.693443 17.484936 L66.999992 19.287189 L67.120247 21.202219 L67.069237 23.176380 L66.870201 25.156532 L66.553772 27.092079 L66.156807 28.936819 L65.720871 30.650818 L65.290604 32.201649 L64.911720 33.565605 L64.629082 34.728317 L64.484741 35.684956 L64.515900 36.440224 L64.753288 37.007648 L65.219589 37.408768 L65.928253 37.671791 L66.882683 37.830128 L68.075813 37.920631 L69.490097 37.981777 L71.098015 38.051792 L72.862801 38.166855 L74.739937 38.359364 L76.678535 38.656540 L78.623276 39.079147 L80.516602 39.640690 L82.300720 40.346825 L83.920036 41.195316 L85.323128 42.176201 L86.464897 43.272484 L87.308266 44.461082 L87.825630 45.714016 L88.000000 47.000008 Z"
     id="path34" />
  <path
     stroke="#0000ff"
     fill="none"
     stroke-width=".05mm"
     d="M89.500000 47.000000 L89.324715 48.338329 L88.804611 49.643555 L87.956688 50.884304 L86.808533 52.032562 L85.397240 53.065163 L83.767944 53.965042 L81.972038 54.722195 L80.065170 55.334305 L78.105110 55.806984 L76.149483 56.153664 L74.253586 56.395058 L72.468315 56.558311 L70.838295 56.675781 L69.400238 56.783577 L68.181725 56.919872 L67.200325 57.123085 L66.463142 57.430023 L65.966812 57.874027 L65.697914 58.483269 L65.633804 59.279217 L65.743805 60.275383 L65.990723 61.476372 L66.332588 62.877357 L66.724571 64.463905 L67.120987 66.212242 L67.477264 68.089943 L67.751877 70.056984 L67.908028 72.067177 L67.915131 74.069862 L67.750000 76.011848 L67.397644 77.839485 L66.851692 79.500793 L66.114433 80.947586 L65.196442 82.137421 L64.115814 83.035400 L62.897152 83.615677 L61.570164 83.862541 L60.168095 83.771225 L58.726051 83.348213 L57.279198 82.611084 L55.861019 81.587959 L54.501701 80.316483 L53.226643 78.842445 L52.055237 77.218063 L51.000000 75.499992 L50.065968 73.747215 L49.250523 72.018700 L48.543579 70.371262 L47.928154 68.857315 L47.381248 67.522957 L46.875084 66.406197 L46.378548 65.535629 L45.858833 64.929375 L45.283184 64.594543 L44.620667 64.527077 L43.843864 64.712059 L42.930447 65.124512 L41.864540 65.730469 L40.637764 66.488525 L39.250000 67.351593 L37.709724 68.268883 L36.034035 69.187958 L34.248123 70.056984 L32.384563 70.826668 L30.482086 71.452293 L28.584120 71.895355 L26.737053 72.125008 L24.988358 72.119156 L23.384552 71.865067 L21.969273 71.359673 L20.781300 70.609436 L19.852844 69.629730 L19.208002 68.443970 L18.861586 67.082314 L18.818279 65.580124 L19.072224 63.976299 L19.607033 62.311371 L20.396227 60.625675 L21.404099 58.957523 L22.586994 57.341492 L23.894890 55.806984 L25.273256 54.377026 L26.665176 53.067352 L28.013538 51.885921 L29.263201 50.832787 L30.363255 49.900307 L31.268938 49.073818 L31.943459 48.332561 L32.359440 47.650940 L32.500000 47.000000 L32.359440 46.349060 L31.943459 45.667439 L31.268940 44.926182 L30.363249 44.099693 L29.263205 43.167213 L28.013529 42.114071 L26.665182 40.932652 L25.273252 39.622974 L23.894894 38.193020 L22.586998 36.658512 L21.404095 35.042477 L20.396225 33.374317 L19.607035 31.688631 L19.072220 30.023701 L18.818277 28.419874 L18.861584 26.917688 L19.208002 25.556025 L19.852848 24.370264 L20.781300 23.390568 L21.969269 22.640326 L23.384546 22.134933 L24.988352 21.880842 L26.737066 21.874992 L28.584127 22.104647 L30.482098 22.547709 L32.384560 23.173326 L34.248131 23.943018 L36.034031 24.812035 L37.709721 25.731115 L39.250000 26.648397 L40.637768 27.511477 L41.864548 28.269539 L42.930450 28.875494 L43.843857 29.287939 L44.620667 29.472925 L45.283184 29.405455 L45.858837 29.070621 L46.378548 28.464373 L46.875084 27.593809 L47.381248 26.477036 L47.928154 25.142694 L48.543583 23.628725 L49.250519 21.981293 L50.065971 20.252775 L51.000000 18.500000 L52.055233 16.781946 L53.226643 15.157554 L54.501698 13.683524 L55.861031 12.412025 L57.279194 11.388920 L58.726044 10.651788 L60.168098 10.228770 L61.570156 10.137462 L62.897160 10.384326 L64.115814 10.964592 L65.196442 11.862588 L66.114441 13.052418 L66.851692 14.499197 L67.397652 16.160515 L67.749992 17.988152 L67.915131 19.930147 L67.908020 21.932825 L67.751877 23.943008 L67.477264 25.910063 L67.120987 27.787752 L66.724571 29.536100 L66.332588 31.122637 L65.990730 32.523617 L65.743805 33.724625 L65.633804 34.720776 L65.697914 35.516731 L65.966812 36.125973 L66.463150 36.569981 L67.200325 36.876915 L68.181717 37.080128 L69.400238 37.216423 L70.838287 37.324219 L72.468330 37.441685 L74.253578 37.604946 L76.149475 37.846333 L78.105118 38.193016 L80.065170 38.665691 L81.972046 39.277805 L83.767937 40.034958 L85.397247 40.934845 L86.808533 41.967438 L87.956680 43.115688 L88.804611 44.356449 L89.324722 45.661667 L89.500000 47.000008 Z"
     id="path36" />
  <path
     stroke="#0000ff"
     fill="none"
     stroke-width=".05mm"
     d="M99.500000 47.000000 L99.318626 48.687325 L98.780251 50.341122 L97.901909 51.929588 L96.711212 53.424294 L95.245323 54.801643 L93.549423 56.044159 L91.674988 57.141415 L89.677788 58.090675 L87.615677 58.897156 L85.546410 59.573864 L83.525421 60.141125 L81.603775 60.625679 L79.826233 61.059494 L78.229713 61.478294 L76.841980 61.919872 L75.680809 62.422279 L74.753517 63.021950 L74.056984 63.751881 L73.578026 64.639885 L73.294250 65.707092 L73.175255 66.966690 L73.184120 68.422958 L73.279167 70.070755 L73.415878 71.895355 L73.548859 73.872688 L73.633881 75.970047 L73.629730 78.147156 L73.499954 80.357552 L73.214325 82.550346 L72.750000 84.672104 L72.092361 86.668961 L71.235405 88.488731 L70.181801 90.083038 L68.942505 91.409256 L67.536018 92.432327 L65.987320 93.126244 L64.326538 93.475159 L62.587315 93.474182 L60.805168 93.129692 L59.015678 92.459167 L57.252750 91.490639 L55.546986 90.261696 L53.924206 88.818085 L52.404232 87.211975 L51.000000 85.499992 L49.716972 83.741119 L48.552956 81.994347 L47.498295 80.316483 L46.536423 78.759995 L45.644768 77.371033 L44.795967 76.187675 L43.959332 75.238586 L43.102459 74.541992 L42.193016 74.105110 L41.200466 73.924004 L40.097797 73.983902 L38.863079 74.259964 L37.480827 74.718407 L35.943050 75.318008 L34.250000 76.011848 L32.410530 76.749359 L30.442106 77.478340 L28.370272 78.147156 L26.227951 78.706779 L24.054209 79.112740 L21.892815 79.326797 L19.790468 79.318405 L17.794960 79.065742 L15.953105 78.556366 L14.308828 77.787552 L12.901193 76.766052 L11.762673 75.507584 L10.917625 74.035896 L10.381104 72.381508 L10.158025 70.580124 L10.242748 68.671013 L10.619092 66.695084 L11.260771 64.693039 L12.132262 62.703590 L13.190066 60.761692 L14.384325 58.897156 L15.660637 57.133400 L16.962219 55.486568 L18.232061 53.965038 L19.415123 52.569271 L20.460573 51.292038 L21.323719 50.119102 L21.967819 49.030128 L22.365532 47.999935 L22.500000 46.999996 L22.365532 46.000065 L21.967819 44.969875 L21.323721 43.880898 L20.460569 42.707962 L19.415127 41.430733 L18.232052 40.034954 L16.962227 38.513435 L15.660633 36.866604 L14.384331 35.102848 L13.190073 33.238312 L12.132257 31.296410 L11.260771 29.306950 L10.619095 27.304922 L10.242743 25.328985 L10.158024 23.419874 L10.381103 21.618494 L10.917627 19.964094 L11.762679 18.492411 L12.901191 17.233953 L14.308824 16.212450 L15.953097 15.443627 L17.794954 14.934258 L19.790483 14.681594 L21.892822 14.673197 L24.054224 14.887265 L26.227945 15.293219 L28.370279 15.852846 L30.442102 16.521660 L32.410526 17.250635 L34.250000 17.988144 L35.943050 18.681999 L37.480839 19.281597 L38.863083 19.740038 L40.097790 20.016100 L41.200466 20.076000 L42.193012 19.894890 L43.102463 19.458004 L43.959328 18.761415 L44.795963 17.812334 L45.644768 16.628958 L46.536419 15.240015 L47.498299 13.683505 L48.552956 12.005653 L49.716980 10.258868 L51.000000 8.500000 L52.404224 6.788038 L53.924210 5.181915 L55.546982 3.738305 L57.252762 2.509346 L59.015675 1.540842 L60.805157 0.870311 L62.587318 0.525814 L64.326530 0.524845 L65.987328 0.873761 L67.536011 1.567665 L68.942513 2.590750 L70.181808 3.916963 L71.235405 5.511255 L72.092369 7.331039 L72.749992 9.327896 L73.214325 11.449668 L73.499954 13.642448 L73.629730 15.852838 L73.633881 18.029957 L73.548859 20.127308 L73.415878 22.104654 L73.279175 23.929241 L73.184120 25.577030 L73.175247 27.033318 L73.294250 28.292896 L73.578026 29.360119 L74.056984 30.248119 L74.753525 30.978052 L75.680809 31.577721 L76.841972 32.080124 L78.229713 32.521709 L79.826225 32.940506 L81.603790 33.374321 L83.525414 33.858879 L85.546402 34.426128 L87.615685 35.102844 L89.677788 35.909317 L91.675003 36.858589 L93.549416 37.955841 L95.245323 39.198364 L96.711212 40.575710 L97.901901 42.070404 L98.780251 43.658882 L99.318626 45.312672 L99.500000 47.000008 Z"
     id="path38" />
  <path
     stroke="#ff0000"
     fill="none"
     stroke-width=".05mm"
     d="M85.202980 47.048534 L85.199455 47.208519 L85.105476 47.460026 L84.672882 47.667561 L83.979904 47.799137 L83.143990 47.844143 L82.300354 47.816818 L81.578323 47.753685 L81.079826 47.705349 L80.863708 47.724854 L80.938370 47.855000 L81.263306 48.117897 L81.758980 48.508652 L82.322540 48.994865 L82.846306 49.522030 L83.235718 50.023617 L83.423691 50.433807 L83.379448 50.700333 L83.110420 50.794914 L82.658127 50.719044 L82.088478 50.504429 L81.479301 50.207657 L80.906860 49.900379 L80.433922 49.656750 L80.101105 49.540447 L79.922440 49.593689 L79.885742 49.829960 L79.956993 50.231918 L80.087784 50.754482 L80.224319 51.332710 L80.316429 51.892773 L80.325043 52.364304 L80.227180 52.691902 L80.017998 52.843891 L79.709679 52.817028 L79.327774 52.636379 L78.905937 52.350677 L78.479759 52.023876 L78.081123 51.724537 L77.733597 51.514755 L77.449745 51.440453 L77.230286 51.524483 L77.065392 51.763718 L76.937370 52.130245 L76.824280 52.576462 L76.703934 53.043198 L76.557365 53.469273 L76.371452 53.801178 L76.140366 54.001167 L75.865639 54.052723 L75.555099 53.962433 L75.220901 53.758308 L74.877167 53.484802 L74.537468 53.195427 L74.212830 52.944199 L73.910263 52.777306 L73.632195 52.726131 L73.376678 52.802929 L73.138313 52.999336 L72.909554 53.288319 L72.682320 53.628769 L72.449394 53.972221 L72.205536 54.270470 L71.948143 54.483006 L71.677345 54.583057 L71.395615 54.561409 L71.107010 54.427475 L70.816284 54.207428 L70.527893 53.939915 L70.245262 53.669849 L69.970306 53.441444 L69.703308 53.291386 L69.443146 53.243389 L69.187759 53.304699 L68.934746 53.465233 L68.682045 53.699409 L68.428368 53.970249 L68.173508 54.235237 L67.918365 54.452972 L67.664673 54.589523 L67.414589 54.623646 L67.170166 54.549965 L66.932854 54.379723 L66.703125 54.138897 L66.480362 53.864182 L66.262932 53.597214 L66.048538 53.378128 L65.834694 53.239357 L65.619308 53.200626 L65.401184 53.265953 L65.180336 53.423019 L64.958115 53.645161 L64.737007 53.895489 L64.520203 54.132656 L64.311043 54.317310 L64.112297 54.418198 L63.925705 54.417152 L63.751484 54.311893 L63.588367 54.116550 L63.433765 53.859501 L63.284351 53.579090 L63.136734 53.317703 L62.988255 53.115215 L62.837597 53.002754 L62.685192 52.997807 L62.533157 53.101315 L62.384922 53.297417 L62.244392 53.555721 L62.114956 53.835899 L61.998421 54.093903 L61.894196 54.288837 L61.798946 54.389515 L61.706810 54.379581 L61.610428 54.260471 L61.502525 54.051605 L61.377998 53.787746 L61.236012 53.513775 L61.081745 53.277569 L60.927189 53.121986 L60.790394 53.077164 L60.692997 53.154419 L60.655579 53.343140 L60.691784 53.611641 L60.801842 53.912769 L60.968029 54.193859 L61.154308 54.409325 L61.311954 54.532471 L61.376190 54.553001 L61.322922 54.505932 L61.151482 54.434055 L60.885601 54.376629 L60.569790 54.360725 L60.258575 54.396587 L60.004845 54.478687 L59.850018 54.590675 L59.817570 54.712051 L59.910358 54.824139 L60.111519 54.914703 L60.388268 54.980034 L60.697815 55.024990 L60.994347 55.061108 L61.236118 55.103539 L61.391563 55.167473 L61.443726 55.264854 L61.392384 55.401932 L61.253616 55.577999 L61.056995 55.785545 L60.840836 56.011726 L60.646210 56.240715 L60.510651 56.456600 L60.462536 56.646271 L60.516800 56.801674 L60.672901 56.921318 L60.914936 57.010414 L61.214275 57.080059 L61.534012 57.145298 L61.834606 57.222599 L62.080044 57.327084 L62.243248 57.470058 L62.310280 57.657162 L62.282352 57.887493 L62.175674 58.153828 L62.018848 58.443859 L61.848484 58.742249 L61.703468 59.033142 L61.618980 59.302708 L61.620945 59.541340 L61.722046 59.745102 L61.919559 59.916248 L62.195778 60.062737 L62.520573 60.196812 L62.856014 60.332985 L63.162159 60.485603 L63.403217 60.666576 L63.553169 60.883514 L63.599842 61.138577 L63.547047 61.428272 L63.414066 61.744125 L63.232914 62.074146 L63.043484 62.404850 L62.887428 62.723412 L62.801682 63.019711 L62.812599 63.287842 L62.931664 63.526947 L63.153240 63.741135 L63.455246 63.938625 L63.802132 64.130280 L64.150131 64.327682 L64.453949 64.541176 L64.673714 64.778214 L64.781471 65.042183 L64.765785 65.332008 L64.634064 65.642502 L64.411880 65.965446 L64.139496 66.291084 L63.865948 66.609932 L63.641571 66.914383 L63.510059 67.199951 L63.501335 67.465897 L63.626324 67.715096 L63.874454 67.953255 L64.214653 68.187538 L64.599495 68.425034 L64.972137 68.671165 L65.275024 68.928574 L65.459099 69.196587 L65.491905 69.471367 L65.363556 69.746918 L65.089081 70.016510 L64.707031 70.274422 L64.274216 70.517540 L63.857216 70.746422 L63.522007 70.965660 L63.323254 71.183174 L63.295006 71.408775 L63.444267 71.651802 L63.748905 71.918770 L64.160103 72.211212 L64.609276 72.524117 L65.018623 72.845856 L65.313484 73.159355 L65.434746 73.444733 L65.349098 73.682991 L65.055450 73.860199 L64.586105 73.971222 L64.002510 74.022324 L63.385925 74.032036 L62.824501 74.029449 L62.398724 74.050362 L62.167793 74.131279 L62.159164 74.302605 L62.363258 74.581612 L62.734390 74.967300 L63.197899 75.437737 L63.662506 75.951035 L64.035698 76.450470 L64.239700 76.872879 L64.224953 77.159637 L63.978783 77.268074 L63.527546 77.181480 L62.931667 76.915375 L62.274612 76.518417 L61.647457 76.067352 L61.132416 75.655930 L60.787991 75.379440 L60.639008 75.317436 L60.673347 75.517403 L60.845867 75.983360 L61.088840 76.671043 L61.326469 77.492279 L61.490570 78.327599 L61.533844 79.045715 L61.435326 79.517700 L61.199112 79.620804 L60.882587 79.378922 L60.540237 78.839211 L60.222469 78.097504 L59.964275 77.281242 L59.778595 76.526878 L59.655449 75.956451 L59.566845 75.657143 L59.475254 75.667534 L59.344673 75.972908 L59.149849 76.509682 L58.883327 77.178093 L58.557487 77.860367 L58.201988 78.441025 L57.857174 78.825645 L57.564838 78.955170 L57.358715 78.813492 L57.256580 78.427605 L57.255680 77.860672 L57.332420 77.199631 L57.446270 76.539902 L57.547230 75.969566 L57.585186 75.555984 L57.519440 75.336517 L57.326508 75.314651 L57.004890 75.461952 L56.575596 75.724594 L56.078876 76.033752 L55.567303 76.317352 L55.096718 76.511627 L54.716740 76.570374 L54.462223 76.470879 L54.347469 76.215767 L54.363876 75.830612 L54.481510 75.358444 L54.654270 74.851707 L54.827599 74.363518 L54.947571 73.939468 L54.969654 73.611214 L54.865814 73.392654 L54.628834 73.279190 L54.273117 73.249870 L53.832043 73.271767 L53.352295 73.306046 L52.886181 73.314270 L52.483208 73.264336 L52.182327 73.134872 L52.006008 72.917709 L51.956989 72.618225 L52.018333 72.253456 L52.156441 71.848785 L52.326710 71.433456 L52.480721 71.035843 L52.573933 70.679291 L52.572472 70.378967 L52.458282 70.140106 L52.231579 69.958015 L51.910419 69.819481 L51.527683 69.705292 L51.125572 69.593719 L50.748993 69.463875 L50.438480 69.298912 L50.224072 69.088287 L50.120796 68.828964 L50.126560 68.525482 L50.222801 68.188698 L50.377483 67.833939 L50.550331 67.478310 L50.699066 67.138115 L50.786091 66.826424 L50.784081 66.551384 L50.680222 66.315231 L50.478111 66.114311 L50.196823 65.940094 L49.868076 65.780594 L49.531063 65.622482 L49.226395 65.453125 L48.989708 65.262550 L48.846279 65.044708 L48.807034 64.798286 L48.866856 64.526772 L49.005596 64.237541 L49.191055 63.940796 L49.384125 63.647858 L49.544785 63.369469 L49.638489 63.114254 L49.641327 62.887592 L49.543961 62.690887 L49.352985 62.521572 L49.089901 62.373634 L48.787815 62.238567 L48.486267 62.106716 L48.225025 61.968666 L48.037827 61.816677 L47.947128 61.645657 L47.960442 61.453949 L48.069069 61.243565 L48.249435 61.019833 L48.466640 60.790768 L48.679901 60.566006 L48.848873 60.355515 L48.940105 60.168247 L48.932240 60.010990 L48.819569 59.887283 L48.613010 59.796768 L48.338524 59.735096 L48.033085 59.694111 L47.738899 59.662655 L47.496647 59.627773 L47.338860 59.576366 L47.284588 59.496864 L47.335979 59.381161 L47.477715 59.226387 L47.679180 59.036068 L47.899433 58.820961 L48.093998 58.598724 L48.222706 58.392689 L48.257225 58.229111 L48.186878 58.133430 L48.021488 58.125103 L47.790081 58.212143 L47.535217 58.386303 L47.302921 58.620483 L47.130745 58.870556 L47.036873 59.082680 L47.017689 59.195175 L47.041687 59.172768 L47.065319 59.024109 L47.054119 58.776421 L46.989754 58.476421 L46.873322 58.178993 L46.722462 57.935848 L46.564213 57.786674 L46.426750 57.753651 L46.331890 57.839890 L46.290337 58.030670 L46.299694 58.297165 L46.345432 58.601784 L46.404293 58.904129 L46.449081 59.166946 L46.454037 59.361290 L46.399628 59.470310 L46.276192 59.491024 L46.085548 59.434357 L45.840721 59.322987 L45.563629 59.187717 L45.281311 59.062733 L45.021343 58.980442 L44.807224 58.966820 L44.654449 59.037506 L44.568008 59.195732 L44.541573 59.431957 L44.558582 59.725410 L44.594955 60.047333 L44.623035 60.365349 L44.616043 60.648384 L44.552380 60.871346 L44.419022 61.018925 L44.213585 61.087864 L43.944599 61.087448 L43.630077 61.038071 L43.294598 60.968086 L42.965347 60.909470 L42.667809 60.892902 L42.421745 60.942970 L42.238117 61.074329 L42.117455 61.289352 L42.049839 61.577610 L42.016582 61.917328 L41.993225 62.278618 L41.953476 62.627998 L41.873333 62.933510 L41.734875 63.169674 L41.529022 63.321552 L41.256893 63.387188 L40.929592 63.378151 L40.566353 63.317932 L40.191494 63.238525 L39.830563 63.175587 L39.506317 63.162914 L39.235191 63.227112 L39.024761 63.383270 L38.872635 63.632195 L38.766903 63.959976 L38.688087 64.339676 L38.612293 64.735153 L38.515011 65.106422 L38.375000 65.415833 L38.177673 65.633972 L37.917347 65.744583 L37.598114 65.747597 L37.233154 65.659622 L36.842564 65.512001 L36.450138 65.346359 L36.079548 65.208405 L35.750557 65.140831 L35.475914 65.176437 L35.259346 65.332428 L35.095146 65.607002 L34.969135 65.978828 L34.861191 66.409492 L34.748589 66.848892 L34.609837 67.242683 L34.428230 67.540764 L34.194530 67.705482 L33.908451 67.718330 L33.578461 67.583748 L33.220146 67.329575 L32.853409 67.003654 L32.498829 66.667091 L32.174099 66.384964 L31.890968 66.216034 L31.653376 66.202766 L31.457066 66.363693 L31.290770 66.689156 L31.138746 67.141487 L30.984133 67.659775 L30.812473 68.168678 L30.614712 68.590080 L30.389021 68.855759 L30.140928 68.919090 L29.882069 68.763649 L29.627026 68.407463 L29.389858 67.901405 L29.180206 67.322372 L29.000397 66.761574 L28.844049 66.310020 L28.696835 66.043335 L28.539158 66.008514 L28.350677 66.215019 L28.115625 66.631783 L27.827814 67.191032 L27.494215 67.798538 L27.135904 68.348724 L26.786003 68.742249 L26.484346 68.903107 L26.269764 68.792114 L26.171389 68.414398 L26.200333 67.819183 L26.344273 67.091988 L26.565956 66.339996 L26.806879 65.673569 L26.995968 65.186844 L27.062214 64.941330 L26.948935 64.955215 L26.627182 65.200859 L26.104921 65.610565 L25.430317 66.090042 L24.686726 66.536110 L23.980579 66.856041 L23.423326 66.984100 L23.149923 66.865685 L23.184095 66.543121 L23.508266 66.080338 L24.061325 65.553101 L24.742325 65.037277 L25.428104 64.594452 L25.994915 64.261917 L26.340174 64.048798 L26.400251 63.938465 L26.161062 63.895828 L25.659817 63.877659 L24.977671 63.843136 L24.224995 63.762691 L23.522060 63.623127 L22.978603 63.428551 L22.675947 63.197079 L22.654583 62.954830 L22.909031 62.728474 L23.390627 62.538170 L24.017199 62.392708 L24.687937 62.287277 L25.300426 62.204811 L25.767200 62.119923 L26.028996 62.004837 L26.062735 61.835796 L25.883400 61.598492 L25.539547 61.291794 L25.103899 60.928459 L24.660543 60.533195 L24.291067 60.138218 L24.061899 59.777298 L24.014769 59.479408 L24.161541 59.263199 L24.484186 59.133308 L24.939165 59.079269 L25.465755 59.077061 L25.996422 59.093132 L26.467667 59.090141 L26.829580 59.033337 L27.052736 58.896519 L27.131483 58.666561 L27.083443 58.345650 L26.945341 57.950993 L26.766306 57.511993 L26.599543 57.065395 L26.493937 56.649300 L26.486839 56.296925 L26.598940 56.031307 L26.832087 55.861618 L27.170052 55.781818 L27.581955 55.771763 L28.027786 55.800514 L28.464977 55.831429 L28.854967 55.827999 L29.168839 55.759686 L29.391165 55.606701 L29.521645 55.363022 L29.574333 55.037254 L29.574789 54.651119 L29.555588 54.235970 L29.551056 53.827747 L29.591938 53.461369 L29.700907 53.165241 L29.889473 52.956913 L30.156660 52.840393 L30.489748 52.805660 L30.866596 52.830311 L31.259378 52.883152 L31.638985 52.929108 L31.979458 52.934738 L32.261776 52.873447 L32.476456 52.729580 L32.624630 52.500889 L32.717495 52.198784 L32.774261 51.846561 L32.818974 51.475746 L32.876686 51.121155 L32.969620 50.815449 L33.113831 50.584034 L33.316929 50.441109 L33.577118 50.387390 L33.883644 50.410042 L34.218613 50.484596 L34.559845 50.578827 L34.884281 50.657738 L35.171490 50.689079 L35.406673 50.648384 L35.582813 50.522884 L35.701588 50.313522 L35.772995 50.034878 L35.813694 49.712925 L35.844452 49.380985 L35.886909 49.074490 L35.960327 48.825409 L36.078651 48.657154 L36.248444 48.580837 L36.467865 48.593407 L36.726902 48.678074 L37.008846 48.806870 L37.292679 48.945015 L37.556168 49.056431 L37.779099 49.109470 L37.946297 49.082001 L38.049923 48.965012 L38.090790 48.764118 L38.078445 48.498764 L38.030045 48.199108 L37.968128 47.901180 L37.917557 47.640980 L37.902016 47.448502 L37.940559 47.342659 L38.044529 47.327969 L38.215424 47.393650 L38.443886 47.515312 L38.710087 47.659134 L38.985615 47.787899 L39.236717 47.867973 L39.428776 47.876019 L39.531681 47.804092 L39.525494 47.661964 L39.405693 47.475574 L39.186825 47.281296 L38.903103 47.116581 L38.604645 47.008877 L38.348576 46.966328 L38.190300 46.973751 L38.176300 46.994518 L38.289360 46.987286 L38.499649 46.922050 L38.760151 46.788582 L39.018353 46.598583 L39.227005 46.381020 L39.351700 46.173264 L39.374454 46.011322 L39.294083 45.921402 L39.123970 45.914547 L38.888222 45.984852 L38.617191 46.111023 L38.342606 46.260715 L38.093227 46.396740 L37.891357 46.483673 L37.750156 46.494087 L37.672806 46.413185 L37.652359 46.241135 L37.673561 45.993027 L37.715107 45.696140 L37.752983 45.385513 L37.763958 45.098042 L37.728661 44.866608 L37.634548 44.714664 L37.477131 44.652641 L37.260952 44.676228 L36.998310 44.767204 L36.707798 44.896385 L36.411224 45.028282 L36.130524 45.126831 L35.884563 45.160950 L35.686172 45.109604 L35.540524 44.964848 L35.444057 44.733223 L35.385281 44.434448 L35.346298 44.098377 L35.305565 43.760216 L35.241261 43.454899 L35.134357 43.211754 L34.972042 43.049686 L34.749226 42.974552 L34.470070 42.977974 L34.146965 43.038952 L33.799240 43.127048 L33.450054 43.207195 L33.122993 43.245312 L32.838570 43.213379 L32.610683 43.094181 L32.444763 42.883568 L32.336243 42.591503 L32.271431 42.240170 L32.229179 41.860725 L32.183994 41.488358 L32.110142 41.156738 L31.985243 40.892929 L31.794556 40.712860 L31.532822 40.619148 L31.206264 40.600296 L30.831316 40.632736 L30.433060 40.684299 L30.041300 40.719231 L29.686131 40.703957 L29.393480 40.612064 L29.180389 40.428928 L29.052505 40.153641 L29.002138 39.799721 L29.009325 39.392738 L29.044149 38.966621 L29.071054 38.558292 L29.054531 38.201801 L28.964212 37.923073 L28.780830 37.735500 L28.498983 37.637943 L28.129742 37.614590 L27.698946 37.637501 L27.244543 37.670940 L26.810923 37.677006 L26.442055 37.621872 L26.174873 37.481083 L26.032154 37.243820 L26.018900 36.914524 L26.119640 36.512474 L26.300354 36.068592 L26.512550 35.620464 L26.700232 35.206234 L26.809044 34.858265 L26.794409 34.597847 L26.630556 34.431725 L26.314734 34.350956 L25.870167 34.332706 L25.343081 34.344112 L24.797022 34.348175 L24.303404 34.310059 L23.929960 34.203220 L23.729942 34.013912 L23.731667 33.743164 L23.933208 33.406525 L24.300148 33.030464 L24.769850 32.647423 L25.260115 32.289268 L25.681488 31.981262 L25.952366 31.737526 L26.012161 31.558140 L25.833708 31.430588 L25.428507 31.332088 L24.847679 31.235985 L24.174879 31.117584 L23.513893 30.960669 L22.972242 30.761566 L22.642706 30.530418 L22.587421 30.289335 L22.825598 30.066809 L23.328911 29.890835 L24.024567 29.780298 L24.806297 29.738855 L25.551998 29.751163 L26.144047 29.783569 L26.490232 29.789839 L26.539867 29.720261 L26.293362 29.533646 L25.802526 29.208279 L25.161499 28.750792 L24.490351 28.198975 L23.913389 27.618315 L23.537586 27.091927 L23.456785 26.722767 L23.687754 26.580406 L24.165106 26.672726 L24.806051 26.978430 L25.509094 27.436245 L26.173409 27.954466 L26.716560 28.427492 L27.086618 28.754763 L27.268206 28.859636 L27.280424 28.703629 L27.169662 28.293863 L26.997570 27.682156 L26.828228 26.955860 L26.716413 26.222754 L26.698872 25.591959 L26.790815 25.155571 L26.985657 24.972919 L27.260628 25.061419 L27.582672 25.394314 L27.917345 25.906345 L28.235003 26.505501 L28.516413 27.088854 L28.754757 27.559988 L28.954760 27.844103 L29.130219 27.899931 L29.298801 27.724573 L29.477921 27.353125 L29.679960 26.851082 L29.910109 26.302946 L30.165365 25.797953 L30.435766 25.415422 L30.707369 25.213194 L30.965376 25.218658 L31.198303 25.426664 L31.400234 25.800940 L31.572922 26.281963 L31.725243 26.796783 L31.871870 27.271288 L32.030266 27.641911 L32.217175 27.864557 L32.445332 27.921234 L32.720596 27.820728 L33.040718 27.596832 L33.395203 27.301153 L33.767113 26.994799 L34.135773 26.738293 L34.480370 26.582233 L34.783619 26.560150 L35.034737 26.683765 L35.231495 26.942572 L35.380779 27.306414 L35.497505 27.730703 L35.602215 28.164061 L35.717770 28.556477 L35.865555 28.866730 L36.061909 29.068413 L36.315331 29.153418 L36.625034 29.132113 L36.980995 29.031094 L37.365437 28.888676 L37.755608 28.748373 L38.127411 28.652058 L38.459255 28.633844 L38.735508 28.714956 L38.949024 28.900839 L39.102272 29.181065 L39.207054 29.531450 L39.282654 29.917877 L39.352757 30.301931 L39.441750 30.646873 L39.570869 30.923035 L39.754761 31.112270 L39.999046 31.210390 L40.299480 31.227295 L40.642471 31.185146 L41.007172 31.114841 L41.368702 31.050898 L41.702034 31.026142 L41.985962 31.066824 L42.206497 31.188581 L42.359116 31.394075 L42.449505 31.673042 L42.492786 32.003952 L42.511196 32.357330 L42.530560 32.700409 L42.576252 33.002197 L42.669209 33.238102 L42.822460 33.393711 L43.039021 33.466896 L43.311359 33.467903 L43.622482 33.417747 L43.948563 33.345001 L44.262684 33.281235 L44.539097 33.256187 L44.757366 33.293331 L44.905712 33.406067 L44.982899 33.595669 L44.998550 33.851151 L44.971680 34.150837 L44.927643 34.465504 L44.894081 34.762836 L44.896477 35.012245 L44.953979 35.189518 L45.076210 35.280609 L45.261696 35.283875 L45.498070 35.210480 L45.764065 35.082981 L46.033176 34.932217 L46.278095 34.792774 L46.475399 34.697960 L46.609756 34.674789 L46.676624 34.739582 L46.683083 34.895054 L46.646698 35.129375 L46.592224 35.417091 L46.546665 35.722122 L46.533802 36.002628 L46.568867 36.216972 L46.654522 36.330410 L46.779568 36.321568 L46.920822 36.187477 L47.048584 35.946377 L47.135067 35.636814 L47.164146 35.312103 L47.138794 35.030254 L47.083271 34.841114 L47.044556 34.790920 L47.062000 34.863396 L47.160942 35.024239 L47.344532 35.227516 L47.592037 35.425240 L47.864994 35.577404 L48.117306 35.657864 L48.306072 35.655914 L48.400696 35.574680 L48.388474 35.427792 L48.276356 35.235279 L48.089169 35.019402 L47.864704 34.801285 L47.646847 34.598404 L47.478123 34.422867 L47.392696 34.280746 L47.410858 34.172211 L47.535938 34.092224 L47.754044 34.031761 L48.036469 33.979481 L48.344433 33.923275 L48.635399 33.851822 L48.869850 33.756023 L49.017456 33.629967 L49.061821 33.471394 L49.003010 33.281990 L48.857407 33.066990 L48.655033 32.834324 L48.434792 32.593513 L48.238308 32.354473 L48.103416 32.126091 L48.058289 31.915037 L48.117130 31.724901 L48.277920 31.555553 L48.522858 31.403189 L48.821251 31.260897 L49.134319 31.119524 L49.421280 30.968988 L49.645821 30.799892 L49.781666 30.604858 L49.816658 30.379681 L49.754803 30.124241 L49.615566 29.842695 L49.430809 29.542921 L49.239880 29.235531 L49.083508 28.932411 L48.997356 28.644901 L49.006580 28.382065 L49.121880 28.149199 L49.337639 27.946728 L49.632801 27.769993 L49.974155 27.609798 L50.321362 27.453522 L50.633232 27.286993 L50.874237 27.096786 L51.019993 26.872339 L51.061131 26.607700 L51.005108 26.303011 L50.875126 25.964867 L50.706581 25.605511 L50.541817 25.241375 L50.423519 24.890759 L50.387943 24.570942 L50.459297 24.295488 L50.645741 24.071821 L50.937698 23.899521 L51.309147 23.769915 L51.721512 23.667089 L52.129421 23.569759 L52.487778 23.454412 L52.758968 23.299187 L52.918835 23.087322 L52.960739 22.810266 L52.897137 22.469923 L52.757912 22.079168 L52.585869 21.660383 L52.430309 21.242725 L52.339188 20.857922 L52.351376 20.535149 L52.490307 20.296251 L52.759933 20.151651 L53.143497 20.097450 L53.605927 20.115122 L54.099152 20.173542 L54.569569 20.232883 L54.966713 20.250607 L55.251537 20.188532 L55.402832 20.019165 L55.421093 19.731230 L55.328709 19.333075 L55.166534 18.852865 L54.987370 18.335321 L54.847321 17.835848 L54.796406 17.412096 L54.870209 17.114405 L55.083847 16.977140 L55.429283 17.011568 L55.876747 17.201948 L56.379860 17.506287 L56.883591 17.861357 L57.333900 18.191504 L57.687180 18.420630 L57.917641 18.485060 L58.021534 18.345001 L58.017563 17.993004 L57.942539 17.457912 L57.844074 16.802343 L57.771397 16.114426 L57.765594 15.494651 L57.851849 15.039442 L58.035206 14.824393 L58.300293 14.890237 L58.615437 15.233641 L58.940758 15.805111 L59.237648 16.515158 L59.477856 17.247562 L59.650631 17.878170 L59.765331 18.296246 L59.848965 18.424213 L59.939548 18.232323 L60.075790 17.745667 L60.286015 17.041304 L60.578976 16.236046 L60.938843 15.467009 L61.325966 14.867769 L61.680714 14.555356 L61.928596 14.621598 L62.037766 15.012739 L61.992714 15.657064 L61.810089 16.446594 L61.537296 17.257576 L61.244690 17.972446 L61.012119 18.499315 L60.913055 18.785593 L60.999580 18.823439 L61.291187 18.647308 L61.769558 18.324163 L62.381153 17.939487 L63.046139 17.581120 L63.672421 17.324429 L64.172249 17.221329 L64.477982 17.294064 L64.553986 17.534813 L64.403000 17.910576 L64.065514 18.371616 L63.612534 18.861382 L63.133224 19.326712 L62.719719 19.726236 L62.451572 20.035461 L62.382656 20.248613 L62.532837 20.377337 L62.885487 20.445801 L63.391022 20.485224 L63.975830 20.527628 L64.554916 20.600206 L65.045876 20.721334 L65.382042 20.898983 L65.522827 21.130747 L65.459312 21.405783 L65.214508 21.708303 L64.838577 22.021236 L64.400116 22.329321 L63.974491 22.621786 L63.631775 22.893675 L63.426018 23.145683 L63.387203 23.383152 L63.517464 23.614170 L63.792015 23.847204 L64.163979 24.089104 L64.572395 24.343811 L64.952431 24.611538 L65.245537 24.889013 L65.408134 25.170631 L65.417992 25.449820 L65.276962 25.720591 L65.009438 25.979189 L64.657928 26.225000 L64.275948 26.460697 L63.919285 26.691814 L63.637360 26.925707 L63.466011 27.169985 L63.422287 27.430960 L63.502468 27.712231 L63.683586 28.013716 L63.927456 28.331490 L64.186897 28.658274 L64.413429 28.984507 L64.564697 29.299959 L64.610573 29.595613 L64.537712 29.865215 L64.351158 30.106443 L64.072861 30.321547 L63.737988 30.517136 L63.389385 30.703131 L63.070724 30.891195 L62.819828 31.092825 L62.663181 31.317398 L62.611904 31.570484 L62.660381 31.852766 L62.787655 32.159744 L62.960773 32.482346 L63.140007 32.808258 L63.285225 33.123802 L63.361988 33.416153 L63.346684 33.675484 L63.230225 33.896618 L63.019318 34.079941 L62.735119 34.231464 L62.409893 34.362038 L62.082077 34.485573 L61.790222 34.616848 L61.567120 34.769135 L61.434841 34.951965 L61.401287 35.169498 L61.459057 35.419743 L61.586807 35.694714 L61.752487 35.981701 L61.918301 36.265251 L62.046696 36.529617 L62.106098 36.761333 L62.075733 36.951527 L61.949074 37.097332 L61.734863 37.202457 L61.455742 37.276600 L61.144932 37.333939 L60.841187 37.390682 L60.582848 37.462383 L60.401989 37.561337 L60.319443 37.694374 L60.341358 37.861786 L60.458168 38.057209 L60.645870 38.268761 L60.869446 38.481216 L61.088093 38.678848 L61.261448 38.848339 L61.355770 38.981354 L61.349316 39.076332 L61.236179 39.138802 L61.027637 39.180237 L60.751049 39.215832 L60.446209 39.260956 L60.159595 39.327213 L59.937233 39.419113 L59.817135 39.531693 L59.822269 39.650330 L59.955368 39.753345 L60.196907 39.817242 L60.507004 39.824024 L60.832138 39.769108 L61.116161 39.666840 L61.313251 39.550617 L61.390419 39.473270 L61.354645 39.480560 L61.246353 39.590588 L61.109573 39.800671 L60.986378 40.083046 L60.907631 40.392162 L60.888947 40.675804 L60.931282 40.886330 L61.024590 40.989773 L61.152939 40.971531 L61.299053 40.837948 L61.448032 40.614307 L61.589710 40.339966 L61.719372 40.061424 L61.837246 39.824635 L61.947308 39.667763 L62.055450 39.615406 L62.167732 39.675030 L62.289021 39.836109 L62.422066 40.072140 L62.567131 40.345028 L62.722366 40.611111 L62.884518 40.828106 L63.049789 40.961632 L63.214859 40.990421 L63.377697 40.909492 L63.537868 40.730869 L63.696590 40.481571 L63.856468 40.199303 L64.020889 39.926575 L64.193237 39.704098 L64.376205 39.564445 L64.571281 39.527149 L64.778397 39.595707 L64.996101 39.757015 L65.221764 39.983524 L65.452141 40.237610 L65.684052 40.477352 L65.914970 40.663139 L66.143379 40.763901 L66.369041 40.761879 L66.593010 40.655346 L66.817215 40.459141 L67.043930 40.202347 L67.275375 39.923729 L67.513130 39.665878 L67.757774 39.468555 L68.008812 39.362438 L68.264778 39.364418 L68.523560 39.474880 L68.783028 39.677368 L69.041451 39.941090 L69.297966 40.225674 L69.552925 40.487213 L69.807854 40.685196 L70.065079 40.788952 L70.327293 40.782417 L70.596962 40.666862 L70.875511 40.461143 L71.162743 40.199001 L71.456688 39.923935 L71.753647 39.682697 L72.048607 39.518021 L72.336121 39.461681 L72.611267 39.529575 L72.870712 39.718758 L73.113701 40.007393 L73.342514 40.357792 L73.562424 40.722107 L73.781242 41.049431 L74.008163 41.293861 L74.252029 41.422039 L74.519783 41.418552 L74.814987 41.288849 L75.136345 41.059235 L75.477341 40.773167 L75.826775 40.484726 L76.170006 40.250507 L76.491066 40.120502 L76.775467 40.129845 L77.012741 40.292923 L77.198822 40.600403 L77.337807 41.019794 L77.442024 41.500164 L77.530876 41.979786 L77.628487 42.395668 L77.759880 42.693871 L77.946526 42.838539 L78.202431 42.818092 L78.530708 42.647842 L78.921471 42.368355 L79.352081 42.039337 L79.789719 41.730400 L80.195625 41.509861 L80.531273 41.433369 L80.765228 41.534424 L80.879036 41.818485 L80.871979 42.261398 L80.763374 42.812916 L80.591240 43.404755 L80.407616 43.961693 L80.271324 44.414230 L80.238159 44.710442 L80.350883 44.824852 L80.630600 44.762810 L81.070900 44.559765 L81.635918 44.274826 L82.263832 43.980343 L82.875107 43.749180 L83.384544 43.641605 L83.715782 43.694687 L83.815491 43.916283 L83.664429 44.284172 L83.283974 44.751160 L82.735657 45.255016 L82.113548 45.731125 L81.530182 46.125069 L81.098175 46.403366 L80.910004 46.558952 L81.020668 46.611282 L81.435501 46.600273 L82.106407 46.576183 L82.937531 46.586700 L83.800056 46.665623 L84.553291 46.824543 L85.069252 47.050415 Z"
     id="path40" />
  <path
     stroke="#ff0000"
     fill="none"
     stroke-width=".05mm"
     d="M97.495049 47.050537 L97.491379 47.268021 L97.369522 47.580833 L96.790520 47.848148 L95.857468 48.036392 L94.726509 48.133842 L93.579269 48.154530 L92.592110 48.135937 L91.907440 48.130810 L91.611649 48.195744 L91.723633 48.377476 L92.194908 48.701679 L92.920586 49.165794 L93.759537 49.737293 L94.559082 50.358612 L95.180336 50.957390 L95.519699 51.459934 L95.523445 51.805779 L95.193314 51.959465 L94.582451 51.918724 L93.783974 51.715649 L92.913109 51.412163 L92.087692 51.089554 L91.409172 50.834442 L90.947838 50.723583 L90.734123 50.810230 L90.756393 51.114880 L90.966499 51.621067 L91.289536 52.278301 L91.638084 53.010250 L91.926575 53.727615 L92.084633 54.343052 L92.066780 54.785599 L91.857643 55.012348 L91.471764 55.015205 L90.949219 54.821957 L90.347008 54.491257 L89.729202 54.102776 L89.156303 53.744068 L88.676331 53.496292 L88.318398 53.421337 L88.089958 53.552238 L87.977348 53.888340 L87.949791 54.396107 L87.965508 55.014984 L87.979042 55.667488 L87.948601 56.271797 L87.842094 56.754665 L87.641243 57.062817 L87.343361 57.170856 L86.960258 57.084698 L86.515526 56.840057 L86.039841 56.496254 L85.565773 56.126518 L85.122765 55.806377 L84.732918 55.601833 L84.408302 55.559387 L84.149879 55.699020 L83.948380 56.011749 L83.786522 56.461391 L83.642166 56.990543 L83.492210 57.529907 L83.316055 58.009048 L83.098602 58.367348 L82.832077 58.563213 L82.516701 58.580288 L82.160080 58.429714 L81.775536 58.148144 L81.379761 57.791897 L80.990082 57.428097 L80.621864 57.124275 L80.286377 56.937920 L79.989471 56.907719 L79.731041 57.047596 L79.505486 57.344681 L79.302902 57.761379 L79.110809 58.241165 L78.916153 58.717392 L78.707275 59.123631 L78.475494 59.403969 L78.216263 59.521729 L77.929611 59.465290 L77.619926 59.250004 L77.295174 58.915943 L76.965652 58.521873 L76.642517 58.136204 L76.336182 57.826389 L76.054970 57.648426 L75.804016 57.637966 L75.584641 57.804581 L75.394196 58.129978 L75.226402 58.570587 L75.072197 59.064140 L74.920860 59.539211 L74.761398 59.926426 L74.584053 60.169361 L74.381630 60.233711 L74.150749 60.112991 L73.892502 59.830036 L73.612755 59.433784 L73.321808 58.991970 L73.033340 58.580666 L72.762871 58.272312 L72.525642 58.124126 L72.334358 58.168758 L72.196808 58.408630 L72.114014 58.815109 L72.078949 59.332596 L72.076546 59.887115 L72.084770 60.398041 L72.077179 60.791119 L72.026604 61.010780 L71.909798 61.029549 L71.711983 60.853024 L71.430954 60.519379 L71.079781 60.093300 L70.686996 59.655312 L70.294121 59.288101 L69.950294 59.062244 L69.704338 59.023907 L69.595642 59.186707 L69.645020 59.529686 L69.847878 60.001602 L70.171425 60.530979 L70.556870 61.039989 L70.927513 61.459328 L71.201477 61.740784 L71.278343 61.846169 L71.137207 61.808487 L70.788994 61.676910 L70.277153 61.507782 L69.675552 61.355946 L69.075485 61.264404 L68.569489 61.257915 L68.235001 61.341389 L68.121063 61.502464 L68.240181 61.717270 L68.566826 61.957176 L69.042389 62.195946 L69.585533 62.414356 L70.106026 62.603104 L70.519562 62.762791 L70.761139 62.901867 L70.794968 63.033356 L70.619362 63.170811 L70.266151 63.324982 L69.794861 63.501556 L69.282639 63.700142 L68.811806 63.914963 L68.456871 64.136581 L68.273140 64.354408 L68.288467 64.559296 L68.499657 64.745659 L68.873375 64.912766 L69.352089 65.065010 L69.863312 65.210922 L70.331032 65.361565 L70.687607 65.528290 L70.883896 65.720467 L70.896660 65.943741 L70.731575 66.198868 L70.422066 66.481613 L70.023598 66.783493 L69.604897 67.093300 L69.237099 67.399147 L68.982819 67.690536 L68.886444 67.960144 L68.967598 68.205055 L69.218147 68.427139 L69.603821 68.632561 L70.069534 68.830627 L70.548103 69.032082 L70.970604 69.247169 L71.276985 69.483932 L71.425293 69.746872 L71.398079 70.036362 L71.205093 70.348740 L70.881660 70.677109 L70.483307 71.012718 L70.077164 71.346550 L69.731590 71.670929 L69.505646 71.980728 L69.439842 72.274170 L69.549835 72.552887 L69.823570 72.821274 L70.223167 73.085526 L70.690308 73.352211 L71.155136 73.626938 L71.546936 73.913177 L71.805077 74.211700 L71.888527 74.520477 L71.782631 74.835258 L71.501770 75.150696 L71.087654 75.461624 L70.603256 75.764328 L70.123474 76.057640 L69.723511 76.343307 L69.467209 76.625870 L69.396614 76.911667 L69.525017 77.207458 L69.833832 77.518623 L70.275024 77.847664 L70.777725 78.192886 L71.258865 78.548035 L71.636040 78.902847 L71.840584 79.244545 L71.828773 79.560051 L71.589806 79.838875 L71.148140 80.075531 L70.560799 80.271683 L69.909187 80.436951 L69.286690 80.588364 L68.784050 80.748169 L68.474640 80.940369 L68.402168 81.186401 L68.572639 81.500473 L68.952370 81.885826 L69.472343 82.332512 L70.038399 82.817085 L70.545868 83.305092 L70.896393 83.755798 L71.014183 84.128677 L70.858925 84.390999 L70.433258 84.524559 L69.783340 84.531143 L68.992058 84.434525 L68.166145 84.279160 L67.418983 84.124672 L66.851822 84.036942 L66.536865 84.077240 L66.504898 84.290527 L66.739655 84.695595 L67.180199 85.278831 L67.730957 85.992920 L68.277687 86.761635 L68.706757 87.490189 L68.924438 88.080238 L68.872772 88.446693 L68.539154 88.534088 L67.957787 88.329338 L67.203255 87.867653 L66.376610 87.230835 L65.587128 86.536873 L64.933121 85.922142 L64.484634 85.519196 L64.272667 85.432663 L64.284630 85.719543 L64.469391 86.375290 L64.748428 87.330673 L65.031906 88.459671 L65.236496 89.597939 L65.300560 90.569084 L65.190712 91.202690 L64.900055 91.337563 L64.492233 91.010223 L64.029060 90.285706 L63.572899 89.292542 L63.173103 88.200439 L62.856838 87.191330 L62.625778 86.429039 L62.458954 86.032486 L62.320469 86.057129 L62.169662 86.487457 L61.972694 87.241829 L61.710571 88.187752 L61.384205 89.165367 L61.013981 90.014496 L60.634861 90.600601 L60.288017 90.835541 L60.010757 90.689781 L59.827717 90.194611 L59.744091 89.434204 L59.743420 88.529747 L59.789913 87.618134 L59.834873 86.829491 L59.825977 86.266830 L59.717522 85.991264 L59.479862 86.014481 L59.105560 86.299889 L58.611797 86.770874 L58.038086 87.325310 L57.439682 87.852943 L56.878166 88.253204 L56.410725 88.450294 L56.079967 88.403542 L55.906403 88.111664 L55.884556 87.610405 L55.983692 86.965164 L56.152725 86.258614 L56.328770 85.577209 L56.447540 84.997475 L56.454071 84.574966 L56.311718 84.336960 L56.008251 84.280045 L55.557739 84.372597 L54.998226 84.561256 L54.385433 84.780525 L53.783695 84.963493 L53.255550 85.052193 L52.851795 85.005798 L52.603416 84.806068 L52.516876 84.458542 L52.573280 83.990501 L52.731628 83.445763 L52.935493 82.876831 L53.122063 82.336700 L53.232121 81.870766 L53.219307 81.510452 L53.057266 81.269150 L52.743618 81.141243 L52.300140 81.103889 L51.769165 81.121300 L51.206821 81.150871 L50.674198 81.149811 L50.227764 81.081741 L49.910618 80.921844 L49.745899 80.660042 L49.733185 80.302139 L49.848759 79.868042 L50.049259 79.388596 L50.278568 78.900322 L50.476456 78.439919 L50.588116 78.038620 L50.572441 77.717941 L50.408627 77.486595 L50.099468 77.339493 L49.670700 77.259254 L49.167381 77.218719 L48.646717 77.185577 L48.169273 77.127144 L47.789448 77.015511 L47.547077 76.831398 L47.460964 76.567085 L47.525753 76.227608 L47.712742 75.829468 L47.974014 75.398453 L48.249886 74.965576 L48.478062 74.562462 L48.603569 74.216545 L48.587273 73.947205 L48.412388 73.762604 L48.087299 73.658554 L47.644459 73.619148 L47.135609 73.618843 L46.623772 73.626335 L46.173340 73.609016 L45.839855 73.538086 L45.661144 73.392555 L45.650913 73.163010 L45.796322 72.853241 L46.059723 72.479942 L46.384323 72.070969 L46.703102 71.661476 L46.949409 71.289032 L47.067802 70.988014 L47.023041 70.784401 L46.806057 70.691284 L46.435665 70.706085 L45.955727 70.810066 L45.428097 70.969963 L44.922592 71.142105 L44.505325 71.278320 L44.227661 71.333199 L44.117496 71.271248 L44.174423 71.073570 L44.369892 70.742577 L44.652100 70.303276 L44.955368 69.801842 L45.211895 69.299973 L45.363972 68.866287 L45.374443 68.565300 L45.233147 68.446098 L44.957970 68.532066 L44.590370 68.814301 L44.186081 69.249878 L43.802940 69.766518 L43.488796 70.272942 L43.271870 70.673973 L43.162018 70.867676 L43.136662 70.802200 L43.150654 70.499687 L43.162117 70.006912 L43.137363 69.403313 L43.057907 68.786652 L42.923157 68.255898 L42.748302 67.894569 L42.558651 67.756981 L42.381725 67.860481 L42.239880 68.183800 L42.144405 68.672089 L42.092915 69.246933 L42.069973 69.819862 L42.050835 70.306511 L42.007126 70.639763 L41.913246 70.779396 L41.752026 70.717239 L41.518658 70.477203 L41.221817 70.110504 L40.882484 69.686729 L40.529953 69.282669 L40.196552 68.970245 L39.911621 68.805908 L39.696156 68.822227 L39.558964 69.023781 L39.494930 69.387154 L39.485851 69.865158 L39.503479 70.394646 L39.514332 70.906410 L39.485336 71.335854 L39.389374 71.632751 L39.209778 71.768555 L38.943081 71.740326 L38.599407 71.570824 L38.200836 71.304474 L37.777603 71.000343 L37.363155 70.722847 L36.988686 70.531837 L36.678146 70.473442 L36.444477 70.573112 L36.287712 70.831909 L36.195133 71.226486 L36.143547 71.712769 L36.103107 72.232811 L36.042229 72.723755 L35.932610 73.127403 L35.753700 73.399200 L35.495838 73.515015 L35.161545 73.474861 L34.764965 73.302956 L34.329365 73.044014 L33.883324 72.756485 L33.456085 72.503593 L33.072952 72.343582 L32.751343 72.320686 L32.498264 72.458099 L32.309357 72.754181 L32.169941 73.182236 L32.057503 73.694450 L31.945532 74.228760 L31.807810 74.718330 L31.622622 75.101761 L31.376137 75.332718 L31.064426 75.387543 L30.693876 75.269218 L30.279896 75.007698 L29.844162 74.655807 L29.410976 74.281555 L29.003201 73.957878 L28.638590 73.751381 L28.327034 73.711502 L28.069235 73.862473 L27.856926 74.198387 L27.674671 74.683273 L27.502775 75.255829 L27.320925 75.838074 L27.111767 76.347198 L26.863855 76.708572 L26.573435 76.867813 L26.244789 76.800232 L25.888899 76.515976 L25.521132 76.059471 L25.157866 75.503929 L24.813194 74.940437 L24.496061 74.464218 L24.208664 74.159203 L23.946192 74.084297 L23.698273 74.262665 L23.451572 74.676682 L23.193363 75.269119 L22.914865 75.950905 L22.613985 76.614380 L22.296513 77.150131 L21.975636 77.464699 L21.669273 77.496544 L21.396288 77.227158 L21.171562 76.685730 L21.001564 75.945938 L20.881187 75.115341 L20.792639 74.318794 L20.707195 73.678391 L20.589775 73.293121 L20.405346 73.221939 L20.126755 73.472832 L19.742056 74.000130 L19.259487 74.710938 L18.709356 75.479515 L18.141617 76.167648 L17.618839 76.647583 L17.205866 76.823509 L16.957628 76.648285 L16.906603 76.131592 L17.053804 75.339005 L17.364262 74.380974 L17.769058 73.394302 L18.174089 72.518814 L18.474569 71.873566 L18.573792 71.536766 L18.401392 71.532822 L17.929628 71.829254 L17.182686 72.343300 L16.236946 72.957436 L15.212460 73.540916 L14.254642 73.972740 L13.510201 74.162399 L13.154309 74.027992 L13.209895 73.614464 L13.647193 72.996758 L14.381403 72.269562 L15.278011 71.534210 L16.175344 70.880028 L16.912024 70.370003 L17.354250 70.032562 L17.418427 69.861015 L17.084797 69.819565 L16.400307 69.853752 L15.469754 69.903687 L14.437717 69.916374 L13.463729 69.855095 L12.695752 69.704407 L12.246102 69.470016 L12.173902 69.174561 L12.476990 68.849739 L13.093957 68.528206 L13.916098 68.235268 L14.806355 67.983925 L15.622555 67.772598 L16.240339 67.586693 L16.572399 67.403191 L16.581003 67.196655 L16.281954 66.946152 L15.739861 66.640381 L15.055902 66.280907 L14.350053 65.882462 L13.741485 65.470131 L13.329729 65.074493 L13.180030 64.725067 L13.314528 64.444534 L13.711002 64.243309 L14.308285 64.117218 L15.017716 64.047447 L15.738140 64.003647 L16.372305 63.949032 L16.841694 63.846973 L17.097748 63.667599 L17.127892 63.393337 L16.955803 63.022434 L16.635910 62.569515 L16.243559 62.063641 L15.862444 61.543468 L15.571311 61.051010 L15.432179 60.624573 L15.481483 60.292393 L15.725710 60.067818 L16.141813 59.946915 L16.681948 59.909069 L17.281778 59.920132 L17.871080 59.937931 L18.384571 59.919041 L18.771635 59.825813 L19.003382 59.632500 L19.076162 59.329350 L19.011137 58.924442 L18.850136 58.442307 L18.648506 57.920235 L18.466278 57.402351 L18.358891 56.932671 L18.368889 56.548164 L18.519871 56.272835 L18.813530 56.113926 L19.229799 56.060631 L19.730700 56.085781 L20.266291 56.149975 L20.782646 56.207752 L21.230007 56.214710 L21.570242 56.134502 L21.782337 55.944672 L21.865324 55.640217 L21.837946 55.234634 L21.735615 54.757877 L21.604717 54.251842 L21.495438 53.763855 L21.454056 53.339256 L21.515909 53.014259 L21.700121 52.810078 L22.006689 52.729462 L22.416599 52.756027 L22.894691 52.856606 L23.395081 52.986359 L23.868071 53.095703 L24.267723 53.138165 L24.558876 53.077766 L24.722536 52.894928 L24.758877 52.589745 L24.687355 52.182240 L24.543919 51.709362 L24.375681 51.219299 L24.233856 50.763851 L24.165932 50.390148 L24.208351 50.133003 L24.380676 50.009155 L24.682144 50.014400 L25.091436 50.124039 L25.569221 50.296734 L26.063826 50.481098 L26.518702 50.624043 L26.880980 50.679466 L27.109718 50.615902 L27.182583 50.421761 L27.100121 50.107273 L26.886486 49.702824 L26.586811 49.253731 L26.261147 48.812477 L25.975792 48.429642 L25.793331 48.145061 L25.762411 47.981026 L25.909460 47.938358 L26.232996 47.996689 L26.702126 48.118664 L27.259769 48.257168 L27.830053 48.364838 L28.329563 48.403343 L28.680645 48.350922 L28.824802 48.206253 L28.733763 47.988186 L28.416464 47.730152 L27.919613 47.472099 L27.321894 47.250042 L26.721846 47.086922 L26.221449 46.986759 L25.915640 46.933556 L25.887653 46.893440 L26.107666 46.828220 L26.530123 46.708340 L27.076702 46.519985 L27.650948 46.269356 L28.155258 45.981495 L28.507214 45.694302 L28.652121 45.449627 L28.570200 45.282898 L28.277836 45.214947 L27.822376 45.246372 L27.273212 45.356972 L26.709333 45.508869 L26.206713 45.653954 L25.827187 45.742878 L25.609425 45.734352 L25.565130 45.603287 L25.678116 45.345245 L25.908745 44.977844 L26.200663 44.537510 L26.490177 44.073547 L26.716129 43.639462 L26.828533 43.283989 L26.796152 43.042797 L26.609671 42.932522 L26.283072 42.948071 L25.850054 43.063427 L25.359011 43.236191 L24.864964 43.414349 L24.421314 43.545006 L24.072128 43.582733 L23.845276 43.496983 L23.749317 43.276714 L23.771858 42.932056 L23.882561 42.492432 L24.037436 42.001640 L24.186003 41.510818 L24.279118 41.070095 L24.275902 40.720886 L24.150761 40.489193 L23.896049 40.381950 L23.524294 40.385902 L23.065222 40.470127 L22.561947 40.591019 L22.063972 40.699223 L21.619726 40.747631 L21.269533 40.698437 L21.038721 40.529339 L20.934683 40.236420 L20.944616 39.834988 L21.038229 39.356651 L21.171677 38.844402 L21.294365 38.345760 L21.356915 37.905209 L21.318121 37.557476 L21.152515 37.321934 L20.853325 37.200012 L20.435211 37.174809 L19.931250 37.214119 L19.389210 37.275478 L18.863966 37.312828 L18.409193 37.283981 L18.069588 37.156857 L17.872633 36.914936 L17.825123 36.559296 L17.910290 36.108784 L18.090569 35.596668 L18.312315 35.065502 L18.513731 34.560326 L18.634764 34.121479 L18.625614 33.778332 L18.456465 33.544598 L18.121386 33.416283 L17.641830 33.372444 L17.063108 33.378593 L16.449144 33.392464 L15.872819 33.370697 L15.404563 33.276096 L15.101783 33.083439 L14.997926 32.783535 L15.097461 32.384647 L15.372301 31.910734 L15.766006 31.397541 L16.200758 30.886261 L16.588882 30.416737 L16.847246 30.020807 L16.909655 29.717041 L16.740023 29.508043 L16.338144 29.380322 L15.743071 29.307390 L15.027505 29.254528 L14.288413 29.185604 L13.632339 29.069450 L13.157913 28.885393 L12.940446 28.626911 L13.016991 28.301605 L13.379893 27.929895 L13.974680 27.539295 L14.707640 27.159203 L15.459170 26.813999 L16.102022 26.517981 L16.522902 26.272827 L16.640635 26.066916 L16.422220 25.879162 L15.889289 25.683847 L15.117406 25.457962 L14.225235 25.187422 L13.356283 24.871977 L12.656185 24.527061 L12.247856 24.181252 L12.210893 23.871496 L12.566286 23.633739 L13.271794 23.494442 L14.227338 23.461515 L15.290341 23.519613 L16.299385 23.629402 L17.100506 23.732265 L17.573889 23.760750 L17.653986 23.650797 L17.341377 23.357649 L16.702831 22.866526 L15.859950 22.201328 L14.968825 21.424486 L14.192883 20.629574 L13.675607 19.926962 L13.547598 19.447853 L13.839764 19.274141 L14.472921 19.405849 L15.342889 19.808050 L16.316055 20.397442 L17.253809 21.055111 L18.036325 21.647093 L18.580460 22.047352 L18.850929 22.160477 L18.860834 21.938917 L18.665926 21.391769 L18.349663 20.584272 L18.007349 19.626532 L17.728350 18.655376 L17.581680 17.810665 L17.607319 17.212208 L17.811892 16.939203 L18.173050 17.017885 L18.645376 17.417389 L19.172758 18.055847 L19.698210 18.814724 L20.174616 19.558771 L20.571323 20.158823 L20.876965 20.512247 L21.098974 20.559488 L21.258627 20.292013 L21.385826 19.752850 L21.511063 19.027750 L21.660196 18.230358 L21.849670 17.483290 L22.084673 16.897884 L22.360247 16.557602 L22.663149 16.504709 L22.977156 16.736313 L23.285986 17.205103 L23.578302 17.829475 L23.849209 18.506929 L24.101440 19.131134 L24.344053 19.608923 L24.589800 19.873684 L24.852180 19.895662 L25.141636 19.684145 L25.463266 19.285467 L25.815033 18.773666 L26.188013 18.238365 L26.567810 17.770239 L26.937296 17.446861 L27.280039 17.321388 L27.583405 17.414886 L27.841455 17.714754 L28.056400 18.177607 L28.238504 18.736971 L28.404545 19.314182 L28.575174 19.831085 L28.771278 20.221624 L29.010273 20.441820 L29.302929 20.475800 L29.651220 20.337082 L30.047564 20.065619 L30.475973 19.721298 L30.914286 19.373951 L31.337706 19.092377 L31.722937 18.934256 L32.052025 18.937164 L32.315403 19.113356 L32.513756 19.448593 L32.658127 19.905018 L32.768326 20.426805 L32.869881 20.949335 L32.990047 21.409168 L33.153370 21.753431 L33.377644 21.948009 L33.670818 21.982483 L34.029572 21.871191 L34.439507 21.650833 L34.877319 21.374887 L35.314316 21.105026 L35.720894 20.901636 L36.071369 20.814764 L36.348167 20.876232 L36.544739 21.094578 L36.666874 21.454189 L36.732018 21.917507 L36.766556 22.430559 L36.801731 22.931353 L36.868717 23.359379 L36.993481 23.664749 L37.192520 23.816206 L37.470036 23.806034 L37.817085 23.651209 L38.212784 23.391155 L38.627728 23.082010 L39.028595 22.787907 L39.383549 22.571222 L39.667606 22.483000 L39.866795 22.554630 L39.980362 22.792454 L40.021221 23.176722 L40.013695 23.663811 L39.989391 24.192490 L39.981895 24.693087 L40.021122 25.098106 L40.128010 25.352650 L40.311089 25.423601 L40.565170 25.305300 L40.872250 25.021061 L41.205074 24.620628 L41.532383 24.173170 L41.824749 23.756922 L42.060112 23.447239 L42.228222 23.304556 L42.332153 23.363932 L42.387383 23.628542 L42.418278 24.067863 L42.452400 24.621132 L42.513748 25.205986 L42.617016 25.731098 L42.763580 26.110821 L42.940582 26.279818 L43.123974 26.204996 L43.284611 25.892200 L43.396217 25.386618 L43.443745 24.766214 L43.429592 24.128799 L43.375511 23.575346 L43.319851 23.192390 L43.322075 23.069914 L43.417091 23.189716 L43.624748 23.505573 L43.942303 23.945639 L44.341496 24.421854 L44.773270 24.846001 L45.177181 25.144278 L45.493626 25.267969 L45.676193 25.199150 L45.701508 24.950638 L45.574215 24.561193 L45.327034 24.086941 L45.015064 23.591251 L44.705986 23.134501 L44.468197 22.765274 L44.358829 22.514347 L44.413754 22.391731 L44.641434 22.386892 L45.021694 22.471832 L45.509068 22.606808 L46.040482 22.746738 L46.545933 22.848001 L46.959908 22.874758 L47.231983 22.803555 L47.334961 22.625713 L47.269009 22.348091 L47.061375 21.991302 L46.761734 21.585846 L46.434082 21.167450 L46.146332 20.771791 L45.959518 20.429228 L45.918331 20.160656 L46.044186 19.974951 L46.332142 19.867729 L46.751968 19.822372 L47.253323 19.812977 L47.773792 19.808123 L48.248894 19.775579 L48.622250 19.687334 L48.854202 19.523508 L48.927856 19.275175 L48.851612 18.945967 L48.657520 18.551481 L48.396023 18.116739 L48.127972 17.672647 L47.915073 17.251434 L47.810173 16.881660 L47.849285 16.584040 L48.046089 16.368269 L48.389832 16.231186 L48.847218 16.157160 L49.367805 16.120453 L49.891830 16.088772 L50.359570 16.028090 L50.720715 15.908103 L50.942039 15.706806 L51.012470 15.413948 L50.945034 15.033424 L50.774693 14.583055 L50.552834 14.092012 L50.339394 13.596977 L50.193512 13.136710 L50.164192 12.745987 L50.282814 12.450157 L50.558094 12.260927 L50.974545 12.173690 L51.494736 12.167531 L52.065189 12.208166 L52.624512 12.252342 L53.113049 12.254321 L53.482376 12.173386 L53.702801 11.980052 L53.768280 11.661550 L53.697731 11.224939 L53.532097 10.697210 L53.328072 10.121756 L53.149273 9.552657 L53.056095 9.046672 L53.096031 8.654072 L53.295994 8.410487 L53.657902 8.330309 L54.157963 8.402737 L54.750404 8.592074 L55.374741 8.842274 L55.965370 9.084373 L56.462326 9.247036 L56.820961 9.268314 L57.019260 9.106007 L57.061508 8.745815 L56.977634 8.205847 L56.818081 7.535862 L56.645527 6.810685 L56.524296 6.120038 L56.509563 5.554527 L56.638153 5.190693 L56.922688 5.077736 L57.349487 5.227708 L57.881641 5.610777 L58.465748 6.157735 L59.041473 6.769228 L59.552387 7.330104 L59.955975 7.727807 L60.230381 7.871469 L60.377926 7.707963 L60.423504 7.233121 L60.408833 6.495368 L60.383377 5.590531 L60.394665 4.648200 L60.478409 3.812008 L60.651939 3.215931 L60.911518 2.961494 L61.234356 3.099209 L61.584549 3.617603 L61.922665 4.442474 L62.215366 5.446898 L62.444038 6.470470 L62.610184 7.345122 L62.735294 7.923662 L62.856575 8.104942 L63.017311 7.852408 L63.256142 7.202105 L63.595268 6.258152 L64.032295 5.176456 L64.537262 4.139481 L65.055695 3.325613 L65.513405 2.893037 L65.822723 2.969305 L65.954346 3.486736 L65.897491 4.354170 L65.678421 5.429844 L65.357918 6.547172 L65.021591 7.543476 L64.764381 8.286407 L64.672516 8.693955 L64.806808 8.744478 L65.189552 8.475995 L65.798698 7.975848 L66.570564 7.363066 L67.409744 6.766376 L68.205292 6.302750 L68.850266 6.059319 L69.260574 6.081949 L69.390015 6.370868 L69.238556 6.885222 L68.852966 7.553115 L68.318771 8.285918 L67.745857 8.994058 L67.250061 9.601562 L66.933617 10.056619 L66.868095 10.337623 L67.082993 10.453693 L67.561287 10.439437 L68.242790 10.347022 L69.034691 10.236021 L69.827255 10.162893 L70.511833 10.172244 L70.998405 10.291282 L71.229759 10.527316 L71.190079 10.868519 L70.906105 11.288837 L70.442154 11.753449 L69.888802 12.225410 L69.347816 12.671968 L68.915764 13.069366 L68.669052 13.405288 L68.652130 13.679572 L68.871559 13.902591 L69.296188 14.091800 L69.863113 14.267952 L70.488197 14.451270 L71.080101 14.657901 L71.554611 14.897708 L71.847382 15.173680 L71.923561 15.482313 L71.782539 15.814981 L71.456673 16.160648 L71.005432 16.508196 L70.505829 16.848307 L70.039734 17.175142 L69.681282 17.486944 L69.485817 17.785620 L69.481552 18.075863 L69.665947 18.363733 L70.007080 18.654846 L70.449127 18.953115 L70.921219 19.260027 L71.348915 19.574154 L71.665604 19.891636 L71.822418 20.207254 L71.795570 20.515602 L71.589928 20.812222 L71.237251 21.094982 L70.791168 21.364624 L70.318947 21.624641 L69.890724 21.880793 L69.568840 22.140053 L69.398537 22.409119 L69.400887 22.693111 L69.569710 22.994419 L69.873085 23.311863 L70.258163 23.640762 L70.659302 23.973625 L71.008476 24.301212 L71.245644 24.614149 L71.327904 24.904716 L71.236374 25.168255 L70.979271 25.403944 L70.590393 25.615410 L70.124130 25.810125 L69.647316 25.998146 L69.228737 26.190479 L68.928612 26.397188 L68.789291 26.625477 L68.828278 26.878433 L69.035309 27.154394 L69.373978 27.447004 L69.786865 27.746374 L70.204308 28.040829 L70.555244 28.318880 L70.778244 28.571316 L70.831161 28.793007 L70.698280 28.983765 L70.393257 29.148155 L69.957253 29.294895 L69.453148 29.434929 L68.956093 29.579142 L68.541824 29.736225 L68.274918 29.910799 L68.198311 30.102346 L68.325935 30.305470 L68.639992 30.511120 L69.093079 30.708683 L69.614937 30.888727 L70.123215 31.045809 L70.536446 31.180168 L70.786942 31.298595 L70.832314 31.413593 L70.662979 31.540741 L70.304604 31.694784 L69.814796 31.885628 L69.274475 32.114231 L68.774864 32.370075 L68.402496 32.631287 L68.224548 32.867226 L68.276878 33.044182 L68.557388 33.132946 L69.026108 33.117027 L69.611855 32.999058 L70.224846 32.804317 L70.773026 32.579178 L71.178337 32.384361 L71.372841 32.297356 L71.348190 32.370895 L71.154144 32.613174 L70.852722 33.009838 L70.518044 33.515465 L70.222275 34.061138 L70.023445 34.567009 L69.957413 34.957016 L70.034836 35.173111 L70.242882 35.186226 L70.550507 35.001659 L70.916031 34.658192 L71.295357 34.221432 L71.649231 33.772419 L71.948502 33.393692 L72.177177 33.155590 L72.332809 33.104778 L72.424736 33.256779 L72.471222 33.593952 L72.495461 34.068844 L72.521347 34.612244 L72.570129 35.144627 L72.657837 35.589077 L72.793510 35.883484 L72.979065 35.990074 L73.209961 35.901028 L73.476433 35.639343 L73.765282 35.254723 L74.062286 34.815338 L74.353920 34.396950 L74.629051 34.070881 L74.880280 33.892963 L75.104485 33.895157 L75.302826 34.080902 L75.480606 34.424881 L75.646248 34.877392 L75.810005 35.372505 L75.982666 35.838398 L76.174187 36.208675 L76.392128 36.432724 L76.640800 36.483261 L76.920799 36.360271 L77.228531 36.091049 L77.556656 35.725628 L77.895218 35.328732 L78.232803 34.969810 L78.558113 34.712189 L78.861732 34.603214 L79.137428 34.667206 L79.383240 34.901806 L79.602173 35.278236 L79.801895 35.745918 L79.993675 36.240513 L80.191093 36.693668 L80.407951 37.043774 L80.655937 37.245625 L80.942833 37.277241 L81.271088 37.143353 L81.636719 36.875019 L82.029457 36.524925 L82.434235 36.159088 L82.832878 35.846973 L83.206863 35.650623 L83.540428 35.614750 L83.822990 35.759941 L84.051346 36.079136 L84.231018 36.538113 L84.375801 37.080715 L84.506142 37.637398 L84.646545 38.135738 L84.821823 38.511883 L85.052696 38.720917 L85.352440 38.743881 L85.724052 38.591290 L86.158470 38.302265 L86.635101 37.938709 L87.124336 37.575882 L87.591438 37.290874 L88.001831 37.150253 L88.327011 37.199223 L88.549553 37.454136 L88.666817 37.899353 L88.693253 38.488819 L88.659149 39.153065 L88.606934 39.809872 L88.585442 40.377148 L88.642235 40.786346 L88.815102 40.993771 L89.125359 40.987949 L89.572830 40.792130 L90.133270 40.461102 L90.760689 40.072670 L91.393150 39.715317 L91.961479 39.473835 L92.400398 39.415195 L92.660126 39.577484 L92.715469 39.963348 L92.572578 40.539169 L92.270691 41.240620 L91.878105 41.983269 L91.483017 42.676552 L91.180450 43.239124 L91.056633 43.612602 L91.173065 43.771038 L91.555061 43.725197 L92.184036 43.520256 L92.997215 43.227184 L93.895027 42.930019 L94.755424 42.711010 L95.452744 42.635910 L95.879211 42.742874 L95.964485 43.036823 L95.689865 43.489658 L95.095001 44.046867 L94.274994 44.639427 L93.367065 45.197456 L92.529968 45.663754 L91.917786 46.004463 L91.653282 46.214325 L91.805458 46.315681 L92.375153 46.351662 L93.291801 46.375362 L94.422569 46.436413 L95.592575 46.569405 L96.613022 46.785866 L97.313072 47.071968 Z"
     id="path42" />
</svg>
