<?xml version="1.0" encoding="UTF-8" standalone="no"?>
<svg xmlns="http://www.w3.org/2000/svg" width="103.000000mm" height="102.000000mm" x="0" y="0" viewBox="0 0 103.000000 102.000000">
<g transform="rotate(-63.025412)">
<path stroke="#0000ff" fill="none" stroke-width=".05mm" d="M0.722357 43.725643 L2.722357 43.725643 L2.722357 49.225643 L4.722357 49.225643 L4.722357 43.725643 L6.722357 43.725643 L6.722357 49.225643 L8.722357 49.225643 L8.722357 43.725643 L10.722357 43.725643 L10.625261 43.725643 L10.973024 42.094189 L11.263857 40.467339 L11.494524 38.849300 L11.662260 37.244221 L11.764837 35.656147 L11.800589 34.089012 L11.768431 32.546600 L11.667883 31.032513 L11.499086 29.550161 L11.262793 28.102739 L10.960348 26.693199 L10.593687 25.324253 L10.165312 23.998348 L9.678209 22.717669 L9.135881 21.484125 L8.542219 20.299360 L7.901506 19.164759 L7.218325 18.081442 L6.497511 17.050285 L5.744089 16.071943 L4.963182 15.146856 L4.159988 14.275278 L3.339678 13.457318 L2.507355 12.692948 L1.667978 11.982063 L0.826317 11.324517 L-0.013107 10.720161 L-0.846088 10.168925 L-1.668772 9.670862 L-2.477694 9.226225 L-3.269848 8.835571 L-4.042715 8.499825 L-4.794315 8.220422 L-5.523214 7.999382 L-6.228571 7.839422 L-6.910135 7.744007 L-7.568207 7.717347 L-8.203545 7.764199 L-8.817163 7.889442 L-9.410000 8.097303 L-9.982462 8.390059 L-10.533800 8.766461 L-11.061563 9.220061 L-11.561345 9.738218 L-12.027054 10.302551 L-12.060606 10.891224 L-12.059277 11.482529 L-12.016393 12.058500 L-11.927234 12.607168 L-11.789372 13.123012 L-11.602452 13.605958 L-11.367680 14.059701 L-11.087273 14.490091 L-10.764029 14.903828 L-10.401009 15.307670 L-10.001400 15.707968 L-9.568428 16.110449 L-9.105316 16.520191 L-8.615334 16.941618 L-8.101795 17.378601 L-7.568085 17.834488 L-7.017675 18.312189 L-6.454159 18.814251 L-5.881216 19.342873 L-5.302662 19.899958 L-4.722385 20.487137 L-4.144375 21.105782 L-3.572666 21.757029 L-3.011339 22.441771 L-2.464455 23.160685 L-1.936054 23.914185 L-1.430082 24.702494 L-0.950384 25.525570 L-0.500622 26.383162 L-0.084269 27.274763 L0.295456 28.199659 L0.635607 29.156878 L0.933584 30.145241 L1.187124 31.163328 L1.394371 32.209515 L1.553865 33.281956 L1.664595 34.378620 L1.725981 35.497276 L1.737906 36.635536 L1.700695 37.790844 L1.615131 38.960526 L1.482418 40.141762 L1.304178 41.331673 L1.082409 42.527271 Z" />
</g>
<g transform="rotate(134.645190)">
<path stroke="#0000ff" fill="none" stroke-width=".05mm" d="M44.155807 -59.638153 L46.155807 -59.638153 L46.155807 -54.138153 L48.155807 -54.138153 L48.155807 -59.638153 L50.155807 -59.638153 L50.155807 -54.138153 L52.155807 -54.138153 L52.155807 -59.638153 L54.155807 -59.638153 L54.058708 -59.638153 L54.516212 -61.778076 L54.899155 -63.912086 L55.203293 -66.034676 L55.425018 -68.140419 L55.561401 -70.224030 L55.610268 -72.280350 L55.570190 -74.304451 L55.440544 -76.291611 L55.221519 -78.237373 L54.914108 -80.137589 L54.520073 -81.988388 L54.041977 -83.786255 L53.483078 -85.528008 L52.847336 -87.210815 L52.139328 -88.832199 L51.364174 -90.390060 L50.527519 -91.882637 L49.635384 -93.308510 L48.694130 -94.666603 L47.710381 -95.956131 L46.690887 -97.176628 L45.642509 -98.327858 L44.572067 -99.409813 L43.486328 -100.422699 L42.391853 -101.366829 L41.294998 -102.242630 L40.201790 -103.050568 L39.117874 -103.791061 L38.048470 -104.464470 L36.998291 -105.070915 L35.971519 -105.610283 L34.971733 -106.082085 L34.001862 -106.485321 L33.064190 -106.818398 L32.160286 -107.079033 L31.291021 -107.264160 L30.456619 -107.369949 L29.656734 -107.392014 L28.890667 -107.325798 L28.157721 -107.167366 L27.457623 -106.914696 L26.791195 -106.569252 L26.160889 -106.137642 L25.571064 -105.632629 L25.027700 -105.072670 L25.071798 -104.479622 L25.163168 -103.875175 L25.308592 -103.277214 L25.512840 -102.697594 L25.778337 -102.141663 L26.105371 -101.609291 L26.492586 -101.096519 L26.937540 -100.597214 L27.437115 -100.104340 L27.987831 -99.610786 L28.585987 -99.109818 L29.227736 -98.595299 L29.909115 -98.061729 L30.626013 -97.504250 L31.374170 -96.918549 L32.149139 -96.300858 L32.946270 -95.647820 L33.760723 -94.956497 L34.587448 -94.224289 L35.421196 -93.448952 L36.256569 -92.628525 L37.087997 -91.761375 L37.909836 -90.846130 L38.716347 -89.881729 L39.501823 -88.867416 L40.260551 -87.802727 L40.986961 -86.687485 L41.675613 -85.521851 L42.321327 -84.306290 L42.919159 -83.041588 L43.464569 -81.728851 L43.953369 -80.369507 L44.381866 -78.965302 L44.746841 -77.518295 L45.045677 -76.030846 L45.276291 -74.505623 L45.437248 -72.945534 L45.527733 -71.353813 L45.547577 -69.733864 L45.497253 -68.089371 L45.377892 -66.424156 L45.191193 -64.742256 L44.939476 -63.047791 L44.625603 -61.345032 Z" />
</g>
<g transform="rotate(-63.025412)">
<circle  cx="-9.371662" cy="11.323925" r="1.300000" stroke="#0000ff" fill="none" stroke-width=".05mm" />
</g>
<g transform="rotate(134.645190)">
<circle  cx="28.170185" cy="-103.684242" r="1.300000" stroke="#0000ff" fill="none" stroke-width=".05mm" />
</g>
<path stroke="#0000ff" fill="none" stroke-width=".05mm" d="M64.400002 45.150002 L64.400002 50.849998 L62.599998 50.849998 L62.599998 45.150002 Z" />
<path stroke="#0000ff" fill="none" stroke-width=".05mm" d="M60.400002 45.150002 L60.400002 50.849998 L58.599998 50.849998 L58.599998 45.150002 Z" />
<path stroke="#0000ff" fill="none" stroke-width=".05mm" d="M32.900002 45.150002 L32.900002 50.849998 L31.100000 50.849998 L31.100000 45.150002 Z" />
<path stroke="#0000ff" fill="none" stroke-width=".05mm" d="M28.900000 45.150002 L28.900000 50.849998 L27.100000 50.849998 L27.100000 45.150002 Z" />
<circle  cx="27.611454" cy="66.809128" r="1.300000" stroke="#0000ff" fill="none" stroke-width=".05mm" />
<circle  cx="27.611458" cy="29.190868" r="1.300000" stroke="#0000ff" fill="none" stroke-width=".05mm" />
<circle  cx="18.307758" cy="73.568657" r="1.300000" stroke="#0000ff" fill="none" stroke-width=".05mm" />
<circle  cx="18.307764" cy="22.431337" r="1.300000" stroke="#0000ff" fill="none" stroke-width=".05mm" />
<path stroke="#0000ff" fill="none" stroke-width=".05mm" d="M90.500000 48.000000 L90.325630 49.285980 L89.808266 50.538921 L88.964905 51.727512 L87.823135 52.823803 L86.420029 53.804691 L84.800720 54.653175 L83.016594 55.359314 L81.123283 55.920849 L79.178528 56.343460 L77.239944 56.640633 L75.362808 56.833149 L73.598000 56.948208 L71.990105 57.018227 L70.575813 57.079372 L69.382683 57.169872 L68.428253 57.328209 L67.719589 57.591232 L67.253288 57.992348 L67.015900 58.559776 L66.984734 59.315037 L67.129089 60.271687 L67.411713 61.434383 L67.790596 62.798347 L68.220871 64.349190 L68.656799 66.063171 L69.053780 67.907921 L69.370201 69.843460 L69.569237 71.823624 L69.620247 73.797791 L69.500000 75.712814 L69.193436 77.515060 L68.694138 79.152596 L68.004333 80.577263 L67.134529 81.746643 L66.102783 82.625862 L64.933624 83.189095 L63.656708 83.420647 L62.305214 83.315781 L60.914185 82.880997 L59.518726 82.133873 L58.152260 81.102554 L56.844910 79.824699 L55.622005 78.346100 L54.502888 76.718979 L53.500000 74.999992 L52.618317 73.248123 L51.855156 71.522354 L51.200375 69.879478 L50.636913 68.371918 L50.141720 67.045746 L49.686951 65.938980 L49.241432 65.080185 L48.772289 64.487488 L48.246712 64.167961 L47.633698 64.117538 L46.905773 64.321281 L46.040554 64.754189 L45.022099 65.382278 L43.841972 66.164108 L42.500000 67.052559 L41.004604 67.996811 L39.372822 68.944405 L37.629803 69.843460 L35.808056 70.644653 L33.946266 71.303230 L32.087818 71.780640 L30.279041 72.046005 L28.567366 72.077171 L26.999269 71.861366 L25.618340 71.395493 L24.463316 70.685944 L23.566370 69.748055 L22.951559 68.605179 L22.633657 67.287437 L22.617317 65.830124 L22.896646 64.272095 L23.455223 62.653816 L24.266546 61.015568 L25.294874 59.395615 L26.496532 57.828461 L27.821474 56.343460 L29.215149 54.963570 L30.620621 53.704468 L31.980761 52.574055 L33.240414 51.572315 L34.348656 50.691547 L35.260719 49.917027 L35.939804 49.227928 L36.358528 48.598591 L36.500000 48.000000 L36.358524 47.401409 L35.939804 46.772072 L35.260723 46.082973 L34.348652 45.308453 L33.240417 44.427689 L31.980749 43.425941 L30.620626 42.295532 L29.215145 41.036430 L27.821480 39.656544 L26.496538 38.171543 L25.294870 36.604385 L24.266542 34.984425 L23.455227 33.346188 L22.896641 31.727907 L22.617315 30.169874 L22.633656 28.712566 L22.951559 27.394814 L23.566374 26.251942 L24.463314 25.314060 L25.618336 24.604507 L26.999262 24.138630 L28.567362 23.922831 L30.279053 23.954002 L32.087822 24.219364 L33.946278 24.696775 L35.808052 25.355343 L37.629807 26.156544 L39.372818 27.055592 L41.004601 28.003187 L42.500000 28.947437 L43.841972 29.835897 L45.022106 30.617729 L46.040554 31.245811 L46.905769 31.678715 L47.633698 31.882465 L48.246708 31.832039 L48.772293 31.512514 L49.241432 30.919815 L49.686951 30.061031 L50.141720 28.954248 L50.636913 27.628096 L51.200375 26.120508 L51.855156 24.477640 L52.618320 22.751862 L53.500000 21.000000 L54.502884 19.281033 L55.622009 17.653900 L56.844906 16.175308 L58.152267 14.897428 L59.518723 13.866131 L60.914177 13.119009 L62.305218 12.684215 L63.656700 12.579354 L64.933632 12.810910 L66.102783 13.374130 L67.134537 14.253364 L68.004333 15.422736 L68.694138 16.847387 L69.193443 18.484936 L69.499992 20.287189 L69.620247 22.202219 L69.569237 24.176380 L69.370201 26.156532 L69.053772 28.092079 L68.656807 29.936819 L68.220871 31.650818 L67.790604 33.201649 L67.411720 34.565605 L67.129082 35.728317 L66.984741 36.684956 L67.015900 37.440224 L67.253288 38.007648 L67.719589 38.408768 L68.428253 38.671791 L69.382683 38.830128 L70.575813 38.920631 L71.990097 38.981777 L73.598015 39.051792 L75.362801 39.166855 L77.239937 39.359364 L79.178535 39.656540 L81.123276 40.079147 L83.016602 40.640690 L84.800720 41.346825 L86.420036 42.195316 L87.823128 43.176201 L88.964897 44.272484 L89.808266 45.461082 L90.325630 46.714016 L90.500000 48.000008 Z" />
<path stroke="#0000ff" fill="none" stroke-width=".05mm" d="M102.000000 48.000000 L101.818626 49.687325 L101.280251 51.341122 L100.401909 52.929588 L99.211212 54.424294 L97.745323 55.801643 L96.049423 57.044159 L94.174988 58.141415 L92.177788 59.090675 L90.115677 59.897156 L88.046410 60.573864 L86.025421 61.141125 L84.103775 61.625679 L82.326233 62.059494 L80.729713 62.478294 L79.341980 62.919872 L78.180809 63.422279 L77.253517 64.021950 L76.556984 64.751877 L76.078026 65.639885 L75.794250 66.707092 L75.675255 67.966690 L75.684120 69.422958 L75.779167 71.070755 L75.915878 72.895355 L76.048859 74.872688 L76.133881 76.970047 L76.129730 79.147156 L75.999954 81.357552 L75.714325 83.550346 L75.250000 85.672104 L74.592361 87.668961 L73.735405 89.488731 L72.681801 91.083038 L71.442505 92.409256 L70.036018 93.432327 L68.487320 94.126244 L66.826538 94.475159 L65.087318 94.474182 L63.305168 94.129692 L61.515678 93.459167 L59.752750 92.490639 L58.046986 91.261696 L56.424206 89.818085 L54.904232 88.211975 L53.500000 86.499992 L52.216972 84.741119 L51.052956 82.994347 L49.998295 81.316483 L49.036423 79.759995 L48.144768 78.371033 L47.295967 77.187675 L46.459332 76.238586 L45.602459 75.541992 L44.693016 75.105110 L43.700466 74.924004 L42.597797 74.983902 L41.363079 75.259964 L39.980827 75.718407 L38.443050 76.318008 L36.750000 77.011848 L34.910530 77.749359 L32.942104 78.478340 L30.870272 79.147156 L28.727951 79.706779 L26.554209 80.112740 L24.392815 80.326797 L22.290468 80.318405 L20.294960 80.065742 L18.453104 79.556366 L16.808828 78.787552 L15.401193 77.766052 L14.262673 76.507584 L13.417625 75.035896 L12.881104 73.381508 L12.658025 71.580124 L12.742748 69.671013 L13.119092 67.695084 L13.760771 65.693039 L14.632262 63.703590 L15.690066 61.761692 L16.884325 59.897156 L18.160637 58.133400 L19.462219 56.486568 L20.732061 54.965038 L21.915123 53.569271 L22.960573 52.292038 L23.823719 51.119102 L24.467819 50.030128 L24.865532 48.999935 L25.000000 47.999996 L24.865532 47.000065 L24.467819 45.969875 L23.823721 44.880898 L22.960569 43.707962 L21.915127 42.430733 L20.732052 41.034954 L19.462227 39.513435 L18.160633 37.866604 L16.884331 36.102848 L15.690073 34.238312 L14.632257 32.296410 L13.760771 30.306950 L13.119095 28.304922 L12.742743 26.328985 L12.658024 24.419874 L12.881103 22.618494 L13.417627 20.964094 L14.262679 19.492411 L15.401191 18.233953 L16.808825 17.212450 L18.453096 16.443628 L20.294954 15.934258 L22.290483 15.681594 L24.392822 15.673197 L26.554224 15.887265 L28.727945 16.293219 L30.870279 16.852846 L32.942101 17.521660 L34.910526 18.250635 L36.750000 18.988144 L38.443050 19.681999 L39.980839 20.281597 L41.363083 20.740038 L42.597790 21.016100 L43.700466 21.076000 L44.693012 20.894890 L45.602463 20.458004 L46.459328 19.761415 L47.295963 18.812334 L48.144768 17.628958 L49.036419 16.240015 L49.998299 14.683505 L51.052956 13.005653 L52.216980 11.258868 L53.500000 9.500000 L54.904224 7.788038 L56.424210 6.181915 L58.046982 4.738305 L59.752762 3.509346 L61.515675 2.540842 L63.305157 1.870311 L65.087318 1.525814 L66.826530 1.524845 L68.487328 1.873761 L70.036011 2.567665 L71.442513 3.590750 L72.681808 4.916963 L73.735405 6.511255 L74.592369 8.331039 L75.249992 10.327896 L75.714325 12.449668 L75.999954 14.642448 L76.129730 16.852839 L76.133881 19.029957 L76.048859 21.127308 L75.915878 23.104654 L75.779175 24.929241 L75.684120 26.577030 L75.675247 28.033318 L75.794250 29.292896 L76.078026 30.360119 L76.556984 31.248119 L77.253525 31.978052 L78.180809 32.577721 L79.341972 33.080124 L80.729713 33.521709 L82.326225 33.940506 L84.103790 34.374321 L86.025414 34.858879 L88.046402 35.426128 L90.115685 36.102844 L92.177788 36.909317 L94.175003 37.858589 L96.049416 38.955841 L97.745323 40.198364 L99.211212 41.575710 L100.401901 43.070404 L101.280251 44.658882 L101.818626 46.312672 L102.000000 48.000008 Z" />
<path stroke="#ff0000" fill="none" stroke-width=".05mm" d="M87.702980 48.048534 L87.699455 48.208519 L87.605476 48.460026 L87.172882 48.667561 L86.479904 48.799137 L85.643990 48.844143 L84.800354 48.816818 L84.078323 48.753685 L83.579826 48.705349 L83.363708 48.724854 L83.438370 48.855000 L83.763306 49.117897 L84.258980 49.508652 L84.822540 49.994865 L85.346306 50.522030 L85.735718 51.023617 L85.923691 51.433807 L85.879448 51.700333 L85.610420 51.794914 L85.158127 51.719044 L84.588478 51.504429 L83.979301 51.207657 L83.406860 50.900379 L82.933922 50.656750 L82.601105 50.540447 L82.422440 50.593689 L82.385742 50.829960 L82.456993 51.231918 L82.587784 51.754482 L82.724319 52.332710 L82.816429 52.892773 L82.825043 53.364304 L82.727180 53.691902 L82.517998 53.843891 L82.209679 53.817028 L81.827774 53.636379 L81.405937 53.350677 L80.979759 53.023876 L80.581123 52.724537 L80.233597 52.514755 L79.949745 52.440453 L79.730286 52.524483 L79.565392 52.763718 L79.437370 53.130245 L79.324280 53.576462 L79.203934 54.043198 L79.057365 54.469273 L78.871452 54.801178 L78.640366 55.001167 L78.365639 55.052723 L78.055099 54.962433 L77.720901 54.758308 L77.377167 54.484802 L77.037468 54.195427 L76.712830 53.944199 L76.410263 53.777306 L76.132195 53.726131 L75.876678 53.802929 L75.638313 53.999336 L75.409554 54.288319 L75.182320 54.628769 L74.949394 54.972221 L74.705536 55.270470 L74.448143 55.483006 L74.177345 55.583057 L73.895615 55.561409 L73.607010 55.427475 L73.316284 55.207428 L73.027893 54.939915 L72.745262 54.669849 L72.470306 54.441444 L72.203308 54.291386 L71.943146 54.243389 L71.687759 54.304699 L71.434746 54.465233 L71.182045 54.699409 L70.928368 54.970249 L70.673508 55.235237 L70.418365 55.452972 L70.164673 55.589523 L69.914589 55.623646 L69.670166 55.549965 L69.432854 55.379723 L69.203125 55.138897 L68.980362 54.864182 L68.762932 54.597214 L68.548538 54.378128 L68.334694 54.239357 L68.119308 54.200626 L67.901184 54.265953 L67.680336 54.423019 L67.458115 54.645161 L67.237007 54.895489 L67.020203 55.132656 L66.811043 55.317310 L66.612297 55.418198 L66.425705 55.417152 L66.251488 55.311893 L66.088364 55.116550 L65.933769 54.859501 L65.784348 54.579090 L65.636734 54.317703 L65.488251 54.115215 L65.337601 54.002754 L65.185188 53.997807 L65.033157 54.101315 L64.884918 54.297417 L64.744392 54.555721 L64.614952 54.835899 L64.498421 55.093903 L64.394196 55.288837 L64.298950 55.389515 L64.206810 55.379581 L64.110428 55.260471 L64.002525 55.051605 L63.877998 54.787746 L63.736012 54.513775 L63.581745 54.277569 L63.427189 54.121986 L63.290394 54.077164 L63.192997 54.154419 L63.155579 54.343140 L63.191784 54.611641 L63.301842 54.912769 L63.468029 55.193859 L63.654308 55.409325 L63.811954 55.532471 L63.876190 55.553001 L63.822922 55.505932 L63.651482 55.434055 L63.385601 55.376629 L63.069790 55.360725 L62.758575 55.396587 L62.504845 55.478687 L62.350018 55.590675 L62.317570 55.712051 L62.410358 55.824139 L62.611519 55.914703 L62.888268 55.980034 L63.197815 56.024990 L63.494347 56.061108 L63.736118 56.103539 L63.891563 56.167473 L63.943726 56.264854 L63.892384 56.401932 L63.753616 56.577999 L63.556995 56.785545 L63.340836 57.011726 L63.146210 57.240715 L63.010651 57.456600 L62.962536 57.646271 L63.016800 57.801674 L63.172901 57.921318 L63.414936 58.010414 L63.714275 58.080059 L64.034012 58.145298 L64.334610 58.222599 L64.580040 58.327084 L64.743248 58.470058 L64.810280 58.657162 L64.782356 58.887493 L64.675674 59.153828 L64.518852 59.443859 L64.348480 59.742249 L64.203468 60.033142 L64.118980 60.302708 L64.120949 60.541340 L64.222046 60.745102 L64.419563 60.916248 L64.695778 61.062737 L65.020569 61.196812 L65.356010 61.332985 L65.662155 61.485603 L65.903221 61.666576 L66.053169 61.883514 L66.099846 62.138577 L66.047043 62.428272 L65.914070 62.744125 L65.732918 63.074146 L65.543488 63.404850 L65.387428 63.723412 L65.301682 64.019707 L65.312599 64.287842 L65.431664 64.526947 L65.653236 64.741135 L65.955246 64.938629 L66.302132 65.130280 L66.650131 65.327682 L66.953949 65.541176 L67.173714 65.778214 L67.281471 66.042183 L67.265785 66.332008 L67.134064 66.642502 L66.911880 66.965446 L66.639496 67.291084 L66.365952 67.609932 L66.141571 67.914383 L66.010063 68.199951 L66.001335 68.465897 L66.126328 68.715096 L66.374458 68.953255 L66.714653 69.187538 L67.099495 69.425034 L67.472137 69.671165 L67.775024 69.928574 L67.959099 70.196587 L67.991905 70.471367 L67.863556 70.746918 L67.589081 71.016510 L67.207031 71.274422 L66.774216 71.517540 L66.357216 71.746422 L66.022011 71.965660 L65.823250 72.183174 L65.795006 72.408775 L65.944267 72.651802 L66.248901 72.918770 L66.660103 73.211212 L67.109276 73.524117 L67.518623 73.845856 L67.813484 74.159355 L67.934746 74.444733 L67.849098 74.682991 L67.555450 74.860199 L67.086105 74.971222 L66.502510 75.022324 L65.885925 75.032036 L65.324501 75.029449 L64.898727 75.050362 L64.667793 75.131279 L64.659164 75.302605 L64.863258 75.581612 L65.234390 75.967300 L65.697899 76.437737 L66.162506 76.951035 L66.535698 77.450470 L66.739700 77.872879 L66.724953 78.159637 L66.478783 78.268074 L66.027542 78.181480 L65.431671 77.915375 L64.774612 77.518417 L64.147461 77.067352 L63.632416 76.655930 L63.287991 76.379440 L63.139008 76.317436 L63.173347 76.517403 L63.345867 76.983360 L63.588840 77.671043 L63.826469 78.492279 L63.990570 79.327599 L64.033844 80.045715 L63.935326 80.517700 L63.699112 80.620804 L63.382587 80.378922 L63.040237 79.839211 L62.722469 79.097504 L62.464275 78.281242 L62.278595 77.526878 L62.155449 76.956451 L62.066845 76.657143 L61.975254 76.667534 L61.844673 76.972908 L61.649849 77.509682 L61.383327 78.178093 L61.057487 78.860367 L60.701988 79.441025 L60.357174 79.825645 L60.064838 79.955170 L59.858715 79.813492 L59.756580 79.427605 L59.755680 78.860672 L59.832420 78.199631 L59.946270 77.539902 L60.047230 76.969566 L60.085186 76.555984 L60.019440 76.336517 L59.826508 76.314651 L59.504890 76.461952 L59.075596 76.724594 L58.578876 77.033752 L58.067303 77.317352 L57.596718 77.511627 L57.216740 77.570374 L56.962223 77.470879 L56.847469 77.215767 L56.863876 76.830612 L56.981510 76.358444 L57.154270 75.851707 L57.327599 75.363518 L57.447571 74.939468 L57.469654 74.611214 L57.365814 74.392654 L57.128834 74.279190 L56.773117 74.249870 L56.332043 74.271767 L55.852295 74.306046 L55.386181 74.314270 L54.983208 74.264336 L54.682327 74.134872 L54.506008 73.917709 L54.456989 73.618225 L54.518333 73.253456 L54.656441 72.848785 L54.826710 72.433456 L54.980721 72.035843 L55.073933 71.679291 L55.072472 71.378967 L54.958282 71.140106 L54.731579 70.958015 L54.410419 70.819481 L54.027683 70.705292 L53.625572 70.593719 L53.248993 70.463875 L52.938480 70.298912 L52.724072 70.088287 L52.620796 69.828964 L52.626560 69.525482 L52.722801 69.188698 L52.877483 68.833939 L53.050331 68.478310 L53.199066 68.138115 L53.286091 67.826424 L53.284081 67.551384 L53.180222 67.315231 L52.978111 67.114311 L52.696823 66.940094 L52.368076 66.780594 L52.031063 66.622482 L51.726395 66.453125 L51.489708 66.262550 L51.346279 66.044708 L51.307034 65.798286 L51.366856 65.526772 L51.505596 65.237541 L51.691055 64.940796 L51.884125 64.647858 L52.044785 64.369469 L52.138489 64.114250 L52.141327 63.887592 L52.043961 63.690887 L51.852985 63.521572 L51.589901 63.373634 L51.287815 63.238567 L50.986267 63.106716 L50.725025 62.968666 L50.537827 62.816677 L50.447128 62.645657 L50.460442 62.453949 L50.569069 62.243565 L50.749435 62.019833 L50.966640 61.790768 L51.179901 61.566006 L51.348873 61.355515 L51.440105 61.168247 L51.432240 61.010990 L51.319569 60.887283 L51.113010 60.796768 L50.838524 60.735096 L50.533085 60.694111 L50.238899 60.662655 L49.996647 60.627773 L49.838860 60.576366 L49.784588 60.496864 L49.835979 60.381161 L49.977715 60.226387 L50.179180 60.036068 L50.399433 59.820961 L50.593998 59.598724 L50.722706 59.392689 L50.757225 59.229111 L50.686878 59.133430 L50.521488 59.125103 L50.290081 59.212143 L50.035217 59.386303 L49.802921 59.620483 L49.630745 59.870556 L49.536873 60.082680 L49.517689 60.195175 L49.541687 60.172768 L49.565319 60.024109 L49.554119 59.776421 L49.489754 59.476421 L49.373322 59.178993 L49.222462 58.935848 L49.064213 58.786674 L48.926750 58.753651 L48.831890 58.839890 L48.790337 59.030670 L48.799694 59.297165 L48.845432 59.601784 L48.904293 59.904129 L48.949081 60.166946 L48.954037 60.361290 L48.899628 60.470310 L48.776192 60.491024 L48.585548 60.434357 L48.340721 60.322987 L48.063629 60.187717 L47.781311 60.062733 L47.521343 59.980442 L47.307224 59.966820 L47.154449 60.037506 L47.068008 60.195732 L47.041573 60.431957 L47.058582 60.725410 L47.094955 61.047333 L47.123035 61.365349 L47.116043 61.648384 L47.052380 61.871346 L46.919022 62.018925 L46.713585 62.087864 L46.444599 62.087448 L46.130077 62.038071 L45.794598 61.968086 L45.465347 61.909470 L45.167809 61.892902 L44.921745 61.942970 L44.738117 62.074329 L44.617455 62.289352 L44.549839 62.577610 L44.516582 62.917328 L44.493225 63.278618 L44.453476 63.627998 L44.373333 63.933510 L44.234875 64.169678 L44.029022 64.321556 L43.756893 64.387192 L43.429592 64.378151 L43.066353 64.317932 L42.691494 64.238525 L42.330563 64.175583 L42.006317 64.162910 L41.735191 64.227112 L41.524761 64.383270 L41.372635 64.632195 L41.266903 64.959976 L41.188087 65.339676 L41.112293 65.735153 L41.015011 66.106422 L40.875000 66.415833 L40.677673 66.633972 L40.417347 66.744583 L40.098114 66.747597 L39.733154 66.659622 L39.342564 66.512001 L38.950138 66.346359 L38.579548 66.208405 L38.250557 66.140831 L37.975914 66.176437 L37.759346 66.332428 L37.595146 66.607002 L37.469135 66.978828 L37.361191 67.409492 L37.248589 67.848892 L37.109837 68.242683 L36.928230 68.540764 L36.694530 68.705482 L36.408451 68.718330 L36.078461 68.583748 L35.720146 68.329575 L35.353409 68.003654 L34.998829 67.667091 L34.674099 67.384964 L34.390968 67.216034 L34.153378 67.202766 L33.957066 67.363693 L33.790768 67.689156 L33.638744 68.141487 L33.484131 68.659775 L33.312473 69.168678 L33.114712 69.590080 L32.889019 69.855759 L32.640930 69.919090 L32.382069 69.763649 L32.127026 69.407463 L31.889858 68.901405 L31.680206 68.322372 L31.500397 67.761574 L31.344049 67.310020 L31.196835 67.043335 L31.039158 67.008514 L30.850677 67.215019 L30.615625 67.631783 L30.327814 68.191032 L29.994215 68.798538 L29.635904 69.348724 L29.286003 69.742249 L28.984346 69.903107 L28.769764 69.792114 L28.671389 69.414398 L28.700333 68.819183 L28.844273 68.091988 L29.065956 67.339996 L29.306879 66.673569 L29.495968 66.186844 L29.562214 65.941330 L29.448935 65.955215 L29.127182 66.200859 L28.604921 66.610565 L27.930317 67.090042 L27.186726 67.536110 L26.480579 67.856041 L25.923326 67.984100 L25.649923 67.865685 L25.684095 67.543121 L26.008266 67.080338 L26.561325 66.553101 L27.242325 66.037277 L27.928104 65.594452 L28.494915 65.261917 L28.840174 65.048798 L28.900251 64.938469 L28.661062 64.895828 L28.159817 64.877663 L27.477671 64.843140 L26.724995 64.762688 L26.022060 64.623131 L25.478603 64.428551 L25.175947 64.197083 L25.154583 63.954830 L25.409031 63.728474 L25.890627 63.538170 L26.517199 63.392708 L27.187937 63.287277 L27.800426 63.204811 L28.267200 63.119923 L28.528996 63.004837 L28.562735 62.835796 L28.383400 62.598492 L28.039547 62.291794 L27.603899 61.928459 L27.160543 61.533195 L26.791067 61.138218 L26.561899 60.777298 L26.514769 60.479408 L26.661541 60.263199 L26.984186 60.133308 L27.439165 60.079269 L27.965755 60.077061 L28.496422 60.093132 L28.967667 60.090141 L29.329580 60.033337 L29.552736 59.896519 L29.631483 59.666561 L29.583443 59.345650 L29.445341 58.950993 L29.266306 58.511993 L29.099543 58.065395 L28.993937 57.649300 L28.986839 57.296925 L29.098940 57.031307 L29.332087 56.861618 L29.670052 56.781818 L30.081955 56.771763 L30.527786 56.800514 L30.964977 56.831429 L31.354967 56.827999 L31.668839 56.759686 L31.891165 56.606701 L32.021645 56.363022 L32.074333 56.037254 L32.074787 55.651119 L32.055588 55.235970 L32.051056 54.827747 L32.091938 54.461369 L32.200905 54.165241 L32.389473 53.956913 L32.656662 53.840393 L32.989750 53.805660 L33.366596 53.830311 L33.759377 53.883152 L34.138985 53.929108 L34.479458 53.934738 L34.761776 53.873447 L34.976456 53.729580 L35.124630 53.500889 L35.217495 53.198784 L35.274261 52.846561 L35.318974 52.475746 L35.376686 52.121155 L35.469620 51.815449 L35.613831 51.584034 L35.816929 51.441109 L36.077118 51.387390 L36.383644 51.410042 L36.718613 51.484596 L37.059845 51.578827 L37.384281 51.657738 L37.671490 51.689079 L37.906673 51.648384 L38.082813 51.522884 L38.201588 51.313522 L38.272995 51.034878 L38.313694 50.712925 L38.344452 50.380985 L38.386909 50.074490 L38.460327 49.825409 L38.578651 49.657154 L38.748444 49.580837 L38.967865 49.593407 L39.226902 49.678074 L39.508846 49.806870 L39.792679 49.945015 L40.056168 50.056431 L40.279099 50.109470 L40.446297 50.082001 L40.549923 49.965012 L40.590790 49.764118 L40.578445 49.498764 L40.530045 49.199108 L40.468128 48.901180 L40.417557 48.640980 L40.402016 48.448502 L40.440559 48.342659 L40.544529 48.327969 L40.715424 48.393650 L40.943886 48.515312 L41.210087 48.659134 L41.485615 48.787899 L41.736717 48.867973 L41.928776 48.876019 L42.031681 48.804092 L42.025494 48.661964 L41.905693 48.475574 L41.686825 48.281296 L41.403103 48.116581 L41.104645 48.008877 L40.848576 47.966328 L40.690300 47.973751 L40.676300 47.994518 L40.789360 47.987286 L40.999649 47.922050 L41.260151 47.788582 L41.518353 47.598583 L41.727005 47.381020 L41.851700 47.173264 L41.874454 47.011322 L41.794083 46.921402 L41.623970 46.914547 L41.388222 46.984852 L41.117191 47.111023 L40.842606 47.260715 L40.593227 47.396740 L40.391357 47.483673 L40.250156 47.494087 L40.172806 47.413185 L40.152359 47.241135 L40.173561 46.993027 L40.215107 46.696140 L40.252983 46.385513 L40.263958 46.098042 L40.228661 45.866608 L40.134548 45.714664 L39.977131 45.652641 L39.760952 45.676228 L39.498310 45.767204 L39.207798 45.896385 L38.911224 46.028282 L38.630524 46.126831 L38.384563 46.160950 L38.186172 46.109604 L38.040524 45.964848 L37.944057 45.733223 L37.885281 45.434448 L37.846298 45.098377 L37.805565 44.760216 L37.741261 44.454899 L37.634357 44.211754 L37.472042 44.049686 L37.249226 43.974552 L36.970070 43.977974 L36.646965 44.038952 L36.299240 44.127048 L35.950054 44.207195 L35.622993 44.245312 L35.338570 44.213379 L35.110683 44.094181 L34.944763 43.883568 L34.836243 43.591503 L34.771431 43.240170 L34.729179 42.860725 L34.683994 42.488358 L34.610142 42.156738 L34.485241 41.892929 L34.294556 41.712860 L34.032822 41.619148 L33.706264 41.600296 L33.331318 41.632736 L32.933060 41.684299 L32.541298 41.719231 L32.186131 41.703957 L31.893480 41.612064 L31.680389 41.428928 L31.552505 41.153641 L31.502138 40.799721 L31.509325 40.392738 L31.544149 39.966621 L31.571054 39.558292 L31.554531 39.201801 L31.464212 38.923073 L31.280830 38.735500 L30.998983 38.637943 L30.629742 38.614590 L30.198946 38.637501 L29.744543 38.670940 L29.310923 38.677006 L28.942055 38.621872 L28.674873 38.481083 L28.532154 38.243820 L28.518900 37.914524 L28.619640 37.512474 L28.800354 37.068592 L29.012550 36.620464 L29.200232 36.206234 L29.309044 35.858265 L29.294409 35.597847 L29.130556 35.431725 L28.814734 35.350956 L28.370167 35.332706 L27.843081 35.344112 L27.297022 35.348175 L26.803404 35.310059 L26.429960 35.203220 L26.229942 35.013912 L26.231667 34.743164 L26.433208 34.406525 L26.800148 34.030464 L27.269850 33.647423 L27.760115 33.289268 L28.181488 32.981262 L28.452366 32.737526 L28.512161 32.558140 L28.333708 32.430588 L27.928507 32.332088 L27.347679 32.235985 L26.674879 32.117584 L26.013893 31.960669 L25.472242 31.761566 L25.142706 31.530418 L25.087421 31.289335 L25.325598 31.066809 L25.828911 30.890835 L26.524567 30.780298 L27.306297 30.738855 L28.051998 30.751163 L28.644047 30.783569 L28.990232 30.789839 L29.039867 30.720261 L28.793362 30.533646 L28.302526 30.208279 L27.661499 29.750792 L26.990351 29.198975 L26.413389 28.618315 L26.037586 28.091927 L25.956785 27.722767 L26.187754 27.580406 L26.665106 27.672726 L27.306051 27.978430 L28.009094 28.436245 L28.673409 28.954466 L29.216560 29.427492 L29.586618 29.754763 L29.768206 29.859636 L29.780424 29.703629 L29.669662 29.293863 L29.497570 28.682156 L29.328228 27.955860 L29.216413 27.222754 L29.198872 26.591959 L29.290815 26.155571 L29.485657 25.972919 L29.760628 26.061419 L30.082672 26.394314 L30.417345 26.906345 L30.735003 27.505501 L31.016413 28.088854 L31.254757 28.559988 L31.454760 28.844103 L31.630219 28.899931 L31.798801 28.724573 L31.977921 28.353125 L32.179962 27.851082 L32.410107 27.302946 L32.665363 26.797953 L32.935764 26.415422 L33.207367 26.213194 L33.465374 26.218658 L33.698303 26.426664 L33.900234 26.800940 L34.072922 27.281963 L34.225243 27.796783 L34.371872 28.271288 L34.530266 28.641911 L34.717175 28.864557 L34.945332 28.921234 L35.220596 28.820728 L35.540718 28.596832 L35.895203 28.301153 L36.267113 27.994799 L36.635773 27.738293 L36.980370 27.582233 L37.283619 27.560150 L37.534737 27.683765 L37.731495 27.942572 L37.880779 28.306414 L37.997505 28.730703 L38.102215 29.164061 L38.217770 29.556477 L38.365555 29.866730 L38.561909 30.068413 L38.815331 30.153418 L39.125034 30.132113 L39.480995 30.031094 L39.865437 29.888676 L40.255608 29.748373 L40.627411 29.652058 L40.959255 29.633844 L41.235508 29.714956 L41.449024 29.900839 L41.602272 30.181065 L41.707054 30.531450 L41.782654 30.917877 L41.852757 31.301931 L41.941750 31.646873 L42.070869 31.923035 L42.254761 32.112270 L42.499046 32.210388 L42.799480 32.227295 L43.142471 32.185146 L43.507172 32.114841 L43.868702 32.050896 L44.202034 32.026142 L44.485962 32.066826 L44.706497 32.188580 L44.859116 32.394077 L44.949505 32.673042 L44.992786 33.003952 L45.011196 33.357330 L45.030560 33.700409 L45.076252 34.002197 L45.169209 34.238102 L45.322460 34.393711 L45.539021 34.466896 L45.811359 34.467903 L46.122482 34.417747 L46.448563 34.345001 L46.762684 34.281235 L47.039097 34.256187 L47.257366 34.293331 L47.405712 34.406067 L47.482899 34.595669 L47.498550 34.851151 L47.471680 35.150837 L47.427643 35.465504 L47.394081 35.762836 L47.396477 36.012245 L47.453979 36.189518 L47.576210 36.280609 L47.761696 36.283875 L47.998070 36.210480 L48.264065 36.082981 L48.533176 35.932217 L48.778095 35.792774 L48.975399 35.697960 L49.109756 35.674789 L49.176624 35.739582 L49.183083 35.895054 L49.146698 36.129375 L49.092224 36.417091 L49.046665 36.722122 L49.033802 37.002628 L49.068867 37.216972 L49.154522 37.330410 L49.279568 37.321568 L49.420822 37.187477 L49.548584 36.946377 L49.635067 36.636814 L49.664146 36.312103 L49.638794 36.030254 L49.583271 35.841114 L49.544556 35.790920 L49.562000 35.863396 L49.660942 36.024239 L49.844532 36.227516 L50.092037 36.425240 L50.364994 36.577404 L50.617306 36.657864 L50.806072 36.655914 L50.900696 36.574680 L50.888474 36.427792 L50.776356 36.235279 L50.589169 36.019402 L50.364704 35.801285 L50.146847 35.598404 L49.978123 35.422867 L49.892696 35.280746 L49.910858 35.172211 L50.035938 35.092224 L50.254044 35.031761 L50.536469 34.979481 L50.844433 34.923275 L51.135399 34.851822 L51.369850 34.756023 L51.517456 34.629967 L51.561821 34.471394 L51.503010 34.281990 L51.357407 34.066990 L51.155033 33.834324 L50.934792 33.593513 L50.738308 33.354473 L50.603416 33.126091 L50.558289 32.915039 L50.617130 32.724903 L50.777920 32.555553 L51.022858 32.403187 L51.321251 32.260895 L51.634319 32.119522 L51.921280 31.968988 L52.145821 31.799892 L52.281666 31.604858 L52.316658 31.379681 L52.254803 31.124241 L52.115566 30.842695 L51.930809 30.542921 L51.739880 30.235531 L51.583508 29.932411 L51.497356 29.644901 L51.506580 29.382065 L51.621880 29.149199 L51.837639 28.946728 L52.132801 28.769993 L52.474155 28.609798 L52.821362 28.453522 L53.133232 28.286993 L53.374237 28.096786 L53.519993 27.872339 L53.561131 27.607700 L53.505108 27.303011 L53.375126 26.964867 L53.206581 26.605511 L53.041817 26.241375 L52.923519 25.890759 L52.887943 25.570942 L52.959297 25.295488 L53.145741 25.071821 L53.437698 24.899521 L53.809147 24.769915 L54.221512 24.667089 L54.629421 24.569759 L54.987778 24.454412 L55.258968 24.299187 L55.418835 24.087322 L55.460739 23.810266 L55.397137 23.469923 L55.257912 23.079168 L55.085869 22.660383 L54.930309 22.242725 L54.839188 21.857922 L54.851376 21.535149 L54.990307 21.296251 L55.259933 21.151651 L55.643497 21.097450 L56.105927 21.115122 L56.599152 21.173542 L57.069569 21.232883 L57.466713 21.250607 L57.751537 21.188532 L57.902832 21.019165 L57.921093 20.731230 L57.828709 20.333075 L57.666534 19.852865 L57.487370 19.335321 L57.347321 18.835848 L57.296406 18.412096 L57.370209 18.114405 L57.583847 17.977140 L57.929283 18.011568 L58.376747 18.201948 L58.879860 18.506287 L59.383591 18.861357 L59.833900 19.191504 L60.187180 19.420630 L60.417641 19.485060 L60.521534 19.345001 L60.517563 18.993004 L60.442539 18.457912 L60.344074 17.802343 L60.271397 17.114426 L60.265594 16.494650 L60.351849 16.039442 L60.535206 15.824393 L60.800293 15.890237 L61.115437 16.233641 L61.440758 16.805111 L61.737648 17.515158 L61.977856 18.247562 L62.150631 18.878170 L62.265331 19.296246 L62.348965 19.424213 L62.439548 19.232323 L62.575790 18.745667 L62.786015 18.041304 L63.078976 17.236046 L63.438843 16.467009 L63.825966 15.867769 L64.180717 15.555356 L64.428596 15.621598 L64.537766 16.012739 L64.492714 16.657064 L64.310089 17.446594 L64.037292 18.257576 L63.744690 18.972446 L63.512119 19.499315 L63.413055 19.785593 L63.499580 19.823439 L63.791187 19.647308 L64.269562 19.324163 L64.881149 18.939487 L65.546143 18.581120 L66.172424 18.324429 L66.672249 18.221329 L66.977982 18.294064 L67.053986 18.534813 L66.903000 18.910576 L66.565514 19.371616 L66.112534 19.861382 L65.633224 20.326712 L65.219719 20.726236 L64.951576 21.035461 L64.882660 21.248613 L65.032837 21.377337 L65.385490 21.445801 L65.891022 21.485224 L66.475830 21.527628 L67.054916 21.600206 L67.545876 21.721334 L67.882042 21.898983 L68.022827 22.130747 L67.959312 22.405783 L67.714508 22.708303 L67.338577 23.021236 L66.900116 23.329321 L66.474495 23.621786 L66.131775 23.893675 L65.926018 24.145683 L65.887199 24.383152 L66.017464 24.614170 L66.292015 24.847204 L66.663979 25.089104 L67.072395 25.343811 L67.452431 25.611538 L67.745537 25.889013 L67.908134 26.170631 L67.917992 26.449820 L67.776962 26.720591 L67.509438 26.979189 L67.157928 27.225000 L66.775948 27.460697 L66.419289 27.691814 L66.137360 27.925707 L65.966011 28.169985 L65.922287 28.430960 L66.002472 28.712231 L66.183586 29.013716 L66.427452 29.331490 L66.686897 29.658274 L66.913429 29.984507 L67.064697 30.299959 L67.110573 30.595613 L67.037712 30.865215 L66.851158 31.106443 L66.572861 31.321547 L66.237991 31.517136 L65.889389 31.703131 L65.570724 31.891195 L65.319832 32.092823 L65.163185 32.317398 L65.111908 32.570484 L65.160385 32.852768 L65.287651 33.159744 L65.460777 33.482346 L65.640007 33.808258 L65.785225 34.123802 L65.861984 34.416153 L65.846680 34.675484 L65.730225 34.896618 L65.519318 35.079941 L65.235123 35.231464 L64.909897 35.362038 L64.582077 35.485573 L64.290222 35.616848 L64.067116 35.769135 L63.934841 35.951965 L63.901287 36.169498 L63.959057 36.419743 L64.086807 36.694714 L64.252487 36.981701 L64.418297 37.265251 L64.546700 37.529617 L64.606094 37.761333 L64.575729 37.951527 L64.449074 38.097332 L64.234863 38.202457 L63.955742 38.276600 L63.644932 38.333939 L63.341187 38.390682 L63.082848 38.462383 L62.901989 38.561337 L62.819443 38.694374 L62.841358 38.861786 L62.958168 39.057209 L63.145870 39.268761 L63.369446 39.481216 L63.588093 39.678848 L63.761448 39.848339 L63.855770 39.981354 L63.849316 40.076332 L63.736179 40.138802 L63.527637 40.180237 L63.251049 40.215832 L62.946209 40.260956 L62.659595 40.327213 L62.437233 40.419113 L62.317135 40.531693 L62.322269 40.650330 L62.455368 40.753345 L62.696907 40.817242 L63.007004 40.824024 L63.332138 40.769108 L63.616161 40.666840 L63.813251 40.550617 L63.890419 40.473270 L63.854645 40.480560 L63.746353 40.590588 L63.609573 40.800671 L63.486378 41.083046 L63.407631 41.392162 L63.388947 41.675804 L63.431282 41.886330 L63.524590 41.989773 L63.652939 41.971531 L63.799053 41.837948 L63.948032 41.614307 L64.089714 41.339966 L64.219368 41.061424 L64.337250 40.824635 L64.447304 40.667763 L64.555450 40.615406 L64.667732 40.675030 L64.789017 40.836109 L64.922066 41.072140 L65.067131 41.345028 L65.222366 41.611111 L65.384521 41.828106 L65.549789 41.961632 L65.714859 41.990421 L65.877693 41.909492 L66.037872 41.730869 L66.196587 41.481571 L66.356468 41.199303 L66.520889 40.926575 L66.693237 40.704098 L66.876205 40.564445 L67.071281 40.527149 L67.278397 40.595707 L67.496101 40.757015 L67.721764 40.983524 L67.952141 41.237610 L68.184052 41.477352 L68.414970 41.663139 L68.643379 41.763901 L68.869041 41.761879 L69.093010 41.655346 L69.317215 41.459141 L69.543930 41.202347 L69.775375 40.923729 L70.013130 40.665878 L70.257774 40.468555 L70.508812 40.362438 L70.764778 40.364418 L71.023560 40.474880 L71.283028 40.677368 L71.541451 40.941090 L71.797966 41.225674 L72.052925 41.487213 L72.307854 41.685196 L72.565079 41.788952 L72.827293 41.782417 L73.096962 41.666862 L73.375511 41.461143 L73.662743 41.199001 L73.956688 40.923935 L74.253647 40.682697 L74.548607 40.518021 L74.836121 40.461681 L75.111267 40.529575 L75.370712 40.718758 L75.613701 41.007393 L75.842514 41.357792 L76.062424 41.722107 L76.281242 42.049431 L76.508163 42.293861 L76.752029 42.422039 L77.019783 42.418552 L77.314987 42.288849 L77.636345 42.059235 L77.977341 41.773167 L78.326775 41.484726 L78.670006 41.250507 L78.991066 41.120502 L79.275467 41.129845 L79.512741 41.292923 L79.698822 41.600403 L79.837807 42.019794 L79.942024 42.500164 L80.030876 42.979786 L80.128487 43.395668 L80.259880 43.693871 L80.446526 43.838539 L80.702431 43.818092 L81.030708 43.647842 L81.421471 43.368355 L81.852081 43.039337 L82.289719 42.730400 L82.695625 42.509861 L83.031273 42.433369 L83.265228 42.534424 L83.379036 42.818485 L83.371979 43.261398 L83.263374 43.812916 L83.091240 44.404755 L82.907616 44.961693 L82.771324 45.414230 L82.738159 45.710442 L82.850883 45.824852 L83.130600 45.762810 L83.570900 45.559765 L84.135918 45.274826 L84.763832 44.980343 L85.375107 44.749180 L85.884544 44.641605 L86.215782 44.694687 L86.315491 44.916283 L86.164429 45.284172 L85.783974 45.751160 L85.235657 46.255016 L84.613548 46.731125 L84.030182 47.125069 L83.598175 47.403366 L83.410004 47.558952 L83.520668 47.611282 L83.935501 47.600273 L84.606407 47.576183 L85.437531 47.586700 L86.300056 47.665623 L87.053291 47.824543 L87.569252 48.050415 Z" />
<path stroke="#ff0000" fill="none" stroke-width=".05mm" d="M99.995049 48.050537 L99.991379 48.268021 L99.869522 48.580833 L99.290520 48.848148 L98.357468 49.036392 L97.226509 49.133842 L96.079269 49.154530 L95.092110 49.135937 L94.407440 49.130810 L94.111649 49.195744 L94.223633 49.377476 L94.694908 49.701679 L95.420586 50.165794 L96.259537 50.737293 L97.059082 51.358612 L97.680336 51.957390 L98.019699 52.459934 L98.023445 52.805779 L97.693314 52.959465 L97.082451 52.918724 L96.283974 52.715649 L95.413109 52.412163 L94.587692 52.089554 L93.909172 51.834442 L93.447838 51.723583 L93.234123 51.810230 L93.256393 52.114880 L93.466499 52.621067 L93.789536 53.278301 L94.138084 54.010250 L94.426575 54.727615 L94.584633 55.343052 L94.566780 55.785599 L94.357643 56.012348 L93.971764 56.015205 L93.449219 55.821957 L92.847008 55.491257 L92.229202 55.102776 L91.656303 54.744068 L91.176331 54.496292 L90.818398 54.421337 L90.589958 54.552238 L90.477348 54.888340 L90.449791 55.396107 L90.465508 56.014984 L90.479042 56.667488 L90.448601 57.271797 L90.342094 57.754665 L90.141243 58.062817 L89.843361 58.170856 L89.460258 58.084698 L89.015526 57.840057 L88.539841 57.496254 L88.065773 57.126518 L87.622765 56.806377 L87.232918 56.601833 L86.908302 56.559387 L86.649879 56.699020 L86.448380 57.011749 L86.286522 57.461391 L86.142166 57.990543 L85.992210 58.529907 L85.816055 59.009048 L85.598602 59.367348 L85.332077 59.563213 L85.016701 59.580288 L84.660080 59.429714 L84.275536 59.148144 L83.879761 58.791897 L83.490082 58.428097 L83.121864 58.124275 L82.786377 57.937920 L82.489471 57.907719 L82.231041 58.047596 L82.005486 58.344681 L81.802902 58.761379 L81.610809 59.241165 L81.416153 59.717392 L81.207275 60.123631 L80.975494 60.403969 L80.716263 60.521729 L80.429611 60.465290 L80.119926 60.250004 L79.795174 59.915943 L79.465652 59.521873 L79.142517 59.136204 L78.836182 58.826389 L78.554970 58.648426 L78.304016 58.637966 L78.084641 58.804581 L77.894196 59.129978 L77.726402 59.570587 L77.572197 60.064140 L77.420860 60.539211 L77.261398 60.926426 L77.084053 61.169361 L76.881630 61.233711 L76.650749 61.112991 L76.392502 60.830036 L76.112755 60.433784 L75.821808 59.991970 L75.533340 59.580666 L75.262871 59.272312 L75.025642 59.124126 L74.834358 59.168758 L74.696808 59.408630 L74.614014 59.815109 L74.578949 60.332596 L74.576546 60.887115 L74.584770 61.398041 L74.577179 61.791119 L74.526604 62.010780 L74.409798 62.029549 L74.211983 61.853024 L73.930954 61.519379 L73.579781 61.093300 L73.186996 60.655312 L72.794121 60.288101 L72.450294 60.062244 L72.204338 60.023907 L72.095642 60.186707 L72.145020 60.529686 L72.347878 61.001602 L72.671425 61.530979 L73.056870 62.039989 L73.427513 62.459328 L73.701477 62.740784 L73.778343 62.846169 L73.637207 62.808487 L73.288994 62.676910 L72.777153 62.507782 L72.175552 62.355946 L71.575485 62.264404 L71.069489 62.257915 L70.735001 62.341389 L70.621063 62.502464 L70.740181 62.717270 L71.066826 62.957176 L71.542389 63.195946 L72.085533 63.414356 L72.606026 63.603104 L73.019562 63.762791 L73.261139 63.901867 L73.294968 64.033356 L73.119362 64.170807 L72.766151 64.324982 L72.294861 64.501556 L71.782639 64.700142 L71.311806 64.914963 L70.956871 65.136581 L70.773140 65.354408 L70.788467 65.559296 L70.999657 65.745659 L71.373375 65.912766 L71.852089 66.065010 L72.363312 66.210922 L72.831032 66.361565 L73.187607 66.528290 L73.383896 66.720467 L73.396660 66.943741 L73.231575 67.198868 L72.922066 67.481613 L72.523598 67.783493 L72.104897 68.093300 L71.737099 68.399147 L71.482819 68.690536 L71.386444 68.960144 L71.467598 69.205055 L71.718147 69.427139 L72.103821 69.632561 L72.569534 69.830627 L73.048103 70.032082 L73.470604 70.247169 L73.776985 70.483932 L73.925293 70.746872 L73.898079 71.036362 L73.705093 71.348740 L73.381660 71.677109 L72.983307 72.012718 L72.577164 72.346550 L72.231590 72.670929 L72.005646 72.980728 L71.939842 73.274170 L72.049835 73.552887 L72.323570 73.821274 L72.723167 74.085526 L73.190308 74.352211 L73.655136 74.626938 L74.046936 74.913177 L74.305077 75.211700 L74.388527 75.520477 L74.282631 75.835258 L74.001770 76.150696 L73.587654 76.461624 L73.103256 76.764328 L72.623474 77.057640 L72.223511 77.343307 L71.967209 77.625870 L71.896614 77.911667 L72.025017 78.207458 L72.333832 78.518623 L72.775024 78.847664 L73.277725 79.192886 L73.758865 79.548035 L74.136040 79.902847 L74.340584 80.244545 L74.328773 80.560051 L74.089806 80.838875 L73.648140 81.075531 L73.060799 81.271683 L72.409187 81.436951 L71.786690 81.588364 L71.284050 81.748169 L70.974640 81.940369 L70.902168 82.186401 L71.072639 82.500473 L71.452370 82.885826 L71.972343 83.332512 L72.538399 83.817085 L73.045868 84.305092 L73.396393 84.755798 L73.514183 85.128677 L73.358925 85.390999 L72.933258 85.524559 L72.283340 85.531143 L71.492058 85.434525 L70.666145 85.279160 L69.918983 85.124672 L69.351822 85.036942 L69.036865 85.077240 L69.004898 85.290527 L69.239655 85.695595 L69.680199 86.278831 L70.230957 86.992920 L70.777687 87.761635 L71.206757 88.490189 L71.424438 89.080238 L71.372772 89.446693 L71.039154 89.534088 L70.457787 89.329338 L69.703255 88.867653 L68.876610 88.230835 L68.087128 87.536873 L67.433121 86.922142 L66.984634 86.519196 L66.772667 86.432663 L66.784630 86.719543 L66.969391 87.375290 L67.248428 88.330673 L67.531906 89.459671 L67.736496 90.597939 L67.800560 91.569084 L67.690712 92.202690 L67.400055 92.337563 L66.992233 92.010223 L66.529060 91.285706 L66.072899 90.292542 L65.673103 89.200439 L65.356842 88.191330 L65.125778 87.429039 L64.958954 87.032486 L64.820465 87.057129 L64.669662 87.487457 L64.472694 88.241829 L64.210571 89.187752 L63.884205 90.165367 L63.513981 91.014496 L63.134861 91.600601 L62.788017 91.835541 L62.510757 91.689781 L62.327717 91.194611 L62.244091 90.434204 L62.243420 89.529747 L62.289913 88.618134 L62.334873 87.829491 L62.325977 87.266830 L62.217522 86.991264 L61.979862 87.014481 L61.605560 87.299889 L61.111797 87.770874 L60.538086 88.325310 L59.939682 88.852943 L59.378166 89.253204 L58.910725 89.450294 L58.579967 89.403542 L58.406403 89.111664 L58.384556 88.610405 L58.483692 87.965164 L58.652725 87.258614 L58.828770 86.577209 L58.947540 85.997475 L58.954071 85.574966 L58.811718 85.336960 L58.508251 85.280045 L58.057739 85.372597 L57.498226 85.561256 L56.885433 85.780525 L56.283695 85.963493 L55.755550 86.052193 L55.351795 86.005798 L55.103416 85.806068 L55.016876 85.458542 L55.073280 84.990501 L55.231628 84.445763 L55.435493 83.876831 L55.622063 83.336700 L55.732121 82.870766 L55.719307 82.510452 L55.557266 82.269150 L55.243618 82.141243 L54.800140 82.103889 L54.269165 82.121300 L53.706821 82.150871 L53.174198 82.149811 L52.727764 82.081741 L52.410618 81.921844 L52.245899 81.660042 L52.233185 81.302139 L52.348759 80.868042 L52.549259 80.388596 L52.778568 79.900322 L52.976456 79.439919 L53.088116 79.038620 L53.072441 78.717941 L52.908627 78.486595 L52.599468 78.339493 L52.170700 78.259254 L51.667381 78.218719 L51.146717 78.185577 L50.669273 78.127144 L50.289448 78.015511 L50.047077 77.831398 L49.960964 77.567085 L50.025753 77.227608 L50.212742 76.829468 L50.474014 76.398453 L50.749886 75.965576 L50.978062 75.562462 L51.103569 75.216545 L51.087273 74.947205 L50.912388 74.762604 L50.587299 74.658554 L50.144459 74.619148 L49.635609 74.618843 L49.123772 74.626335 L48.673340 74.609016 L48.339855 74.538086 L48.161144 74.392555 L48.150913 74.163010 L48.296322 73.853241 L48.559723 73.479942 L48.884323 73.070969 L49.203102 72.661476 L49.449409 72.289032 L49.567802 71.988014 L49.523041 71.784401 L49.306057 71.691284 L48.935665 71.706085 L48.455727 71.810066 L47.928097 71.969963 L47.422592 72.142105 L47.005325 72.278320 L46.727661 72.333199 L46.617496 72.271248 L46.674423 72.073570 L46.869892 71.742577 L47.152100 71.303276 L47.455368 70.801842 L47.711895 70.299973 L47.863972 69.866287 L47.874443 69.565300 L47.733147 69.446098 L47.457970 69.532066 L47.090370 69.814301 L46.686081 70.249878 L46.302940 70.766518 L45.988796 71.272942 L45.771870 71.673973 L45.662018 71.867676 L45.636662 71.802200 L45.650654 71.499687 L45.662117 71.006912 L45.637363 70.403313 L45.557907 69.786652 L45.423157 69.255898 L45.248302 68.894569 L45.058651 68.756981 L44.881725 68.860481 L44.739880 69.183800 L44.644405 69.672089 L44.592915 70.246933 L44.569973 70.819862 L44.550835 71.306511 L44.507126 71.639763 L44.413246 71.779396 L44.252026 71.717239 L44.018658 71.477203 L43.721817 71.110504 L43.382484 70.686729 L43.029953 70.282669 L42.696552 69.970245 L42.411621 69.805908 L42.196156 69.822227 L42.058964 70.023781 L41.994930 70.387154 L41.985851 70.865158 L42.003479 71.394646 L42.014332 71.906410 L41.985336 72.335854 L41.889374 72.632751 L41.709778 72.768555 L41.443081 72.740326 L41.099407 72.570824 L40.700836 72.304474 L40.277603 72.000343 L39.863155 71.722847 L39.488686 71.531837 L39.178146 71.473442 L38.944477 71.573112 L38.787712 71.831909 L38.695133 72.226486 L38.643547 72.712769 L38.603107 73.232811 L38.542229 73.723755 L38.432610 74.127403 L38.253700 74.399200 L37.995838 74.515015 L37.661545 74.474861 L37.264965 74.302956 L36.829365 74.044014 L36.383324 73.756485 L35.956085 73.503593 L35.572952 73.343582 L35.251343 73.320686 L34.998264 73.458099 L34.809357 73.754181 L34.669941 74.182236 L34.557503 74.694450 L34.445530 75.228760 L34.307808 75.718330 L34.122623 76.101761 L33.876137 76.332718 L33.564426 76.387543 L33.193878 76.269218 L32.779896 76.007698 L32.344162 75.655807 L31.910976 75.281555 L31.503201 74.957878 L31.138590 74.751381 L30.827034 74.711502 L30.569235 74.862473 L30.356926 75.198387 L30.174671 75.683273 L30.002775 76.255829 L29.820925 76.838074 L29.611767 77.347198 L29.363855 77.708572 L29.073435 77.867813 L28.744789 77.800232 L28.388899 77.515976 L28.021132 77.059471 L27.657866 76.503929 L27.313194 75.940437 L26.996061 75.464218 L26.708664 75.159203 L26.446192 75.084297 L26.198273 75.262665 L25.951572 75.676682 L25.693363 76.269119 L25.414865 76.950905 L25.113985 77.614380 L24.796513 78.150131 L24.475636 78.464699 L24.169273 78.496544 L23.896288 78.227158 L23.671562 77.685730 L23.501564 76.945938 L23.381187 76.115341 L23.292639 75.318794 L23.207195 74.678391 L23.089775 74.293121 L22.905346 74.221939 L22.626755 74.472832 L22.242056 75.000130 L21.759487 75.710938 L21.209356 76.479515 L20.641617 77.167648 L20.118839 77.647583 L19.705866 77.823509 L19.457628 77.648285 L19.406603 77.131592 L19.553804 76.339005 L19.864262 75.380974 L20.269058 74.394302 L20.674089 73.518814 L20.974569 72.873566 L21.073792 72.536766 L20.901392 72.532822 L20.429628 72.829254 L19.682686 73.343300 L18.736946 73.957436 L17.712460 74.540916 L16.754641 74.972740 L16.010202 75.162399 L15.654309 75.027992 L15.709895 74.614464 L16.147192 73.996758 L16.881403 73.269562 L17.778011 72.534210 L18.675344 71.880028 L19.412024 71.370003 L19.854250 71.032562 L19.918427 70.861015 L19.584797 70.819565 L18.900307 70.853752 L17.969755 70.903687 L16.937717 70.916374 L15.963729 70.855095 L15.195752 70.704407 L14.746102 70.470016 L14.673902 70.174561 L14.976990 69.849739 L15.593957 69.528206 L16.416098 69.235268 L17.306355 68.983925 L18.122555 68.772598 L18.740339 68.586693 L19.072399 68.403191 L19.081003 68.196655 L18.781954 67.946152 L18.239862 67.640381 L17.555902 67.280907 L16.850052 66.882462 L16.241486 66.470131 L15.829729 66.074493 L15.680030 65.725067 L15.814528 65.444534 L16.211002 65.243309 L16.808285 65.117218 L17.517715 65.047447 L18.238140 65.003647 L18.872305 64.949036 L19.341694 64.846977 L19.597748 64.667603 L19.627892 64.393341 L19.455803 64.022430 L19.135910 63.569515 L18.743559 63.063641 L18.362444 62.543468 L18.071312 62.051010 L17.932178 61.624573 L17.981483 61.292393 L18.225710 61.067818 L18.641813 60.946915 L19.181948 60.909069 L19.781778 60.920132 L20.371080 60.937931 L20.884571 60.919041 L21.271635 60.825813 L21.503382 60.632500 L21.576162 60.329350 L21.511137 59.924442 L21.350136 59.442307 L21.148506 58.920235 L20.966278 58.402351 L20.858891 57.932671 L20.868889 57.548164 L21.019871 57.272835 L21.313530 57.113926 L21.729799 57.060631 L22.230700 57.085781 L22.766291 57.149975 L23.282646 57.207752 L23.730007 57.214710 L24.070242 57.134502 L24.282337 56.944672 L24.365324 56.640217 L24.337946 56.234634 L24.235615 55.757877 L24.104717 55.251842 L23.995438 54.763855 L23.954056 54.339256 L24.015909 54.014259 L24.200121 53.810078 L24.506689 53.729462 L24.916599 53.756027 L25.394691 53.856606 L25.895081 53.986359 L26.368071 54.095703 L26.767723 54.138165 L27.058876 54.077766 L27.222536 53.894928 L27.258877 53.589745 L27.187355 53.182240 L27.043919 52.709362 L26.875681 52.219299 L26.733856 51.763851 L26.665932 51.390148 L26.708351 51.133003 L26.880676 51.009155 L27.182144 51.014400 L27.591436 51.124039 L28.069221 51.296734 L28.563826 51.481098 L29.018702 51.624043 L29.380980 51.679466 L29.609718 51.615902 L29.682583 51.421761 L29.600121 51.107273 L29.386486 50.702824 L29.086811 50.253731 L28.761147 49.812477 L28.475792 49.429642 L28.293331 49.145061 L28.262411 48.981026 L28.409460 48.938358 L28.732996 48.996689 L29.202126 49.118664 L29.759769 49.257168 L30.330053 49.364838 L30.829563 49.403343 L31.180645 49.350922 L31.324802 49.206253 L31.233763 48.988186 L30.916464 48.730152 L30.419613 48.472099 L29.821894 48.250042 L29.221846 48.086922 L28.721449 47.986759 L28.415640 47.933556 L28.387653 47.893440 L28.607666 47.828220 L29.030123 47.708340 L29.576702 47.519985 L30.150948 47.269356 L30.655258 46.981495 L31.007214 46.694302 L31.152121 46.449627 L31.070200 46.282898 L30.777836 46.214947 L30.322376 46.246372 L29.773212 46.356972 L29.209333 46.508869 L28.706713 46.653954 L28.327187 46.742878 L28.109425 46.734352 L28.065130 46.603287 L28.178116 46.345245 L28.408745 45.977844 L28.700663 45.537510 L28.990177 45.073547 L29.216129 44.639462 L29.328533 44.283989 L29.296152 44.042797 L29.109671 43.932522 L28.783072 43.948071 L28.350054 44.063427 L27.859011 44.236191 L27.364964 44.414349 L26.921314 44.545006 L26.572128 44.582733 L26.345276 44.496983 L26.249317 44.276714 L26.271858 43.932056 L26.382561 43.492432 L26.537436 43.001640 L26.686003 42.510818 L26.779118 42.070095 L26.775902 41.720886 L26.650761 41.489193 L26.396049 41.381950 L26.024294 41.385902 L25.565222 41.470127 L25.061947 41.591019 L24.563972 41.699223 L24.119726 41.747631 L23.769533 41.698437 L23.538721 41.529339 L23.434683 41.236420 L23.444616 40.834988 L23.538229 40.356651 L23.671677 39.844402 L23.794365 39.345760 L23.856915 38.905209 L23.818121 38.557476 L23.652515 38.321934 L23.353325 38.200012 L22.935211 38.174809 L22.431250 38.214119 L21.889210 38.275478 L21.363966 38.312828 L20.909193 38.283981 L20.569588 38.156857 L20.372633 37.914936 L20.325123 37.559296 L20.410290 37.108784 L20.590569 36.596668 L20.812315 36.065502 L21.013731 35.560326 L21.134764 35.121479 L21.125614 34.778332 L20.956465 34.544598 L20.621386 34.416283 L20.141830 34.372444 L19.563108 34.378593 L18.949144 34.392464 L18.372820 34.370697 L17.904562 34.276096 L17.601784 34.083439 L17.497925 33.783535 L17.597460 33.384647 L17.872301 32.910736 L18.266006 32.397541 L18.700758 31.886261 L19.088882 31.416737 L19.347246 31.020807 L19.409655 30.717041 L19.240023 30.508043 L18.838144 30.380322 L18.243071 30.307390 L17.527506 30.254528 L16.788414 30.185604 L16.132339 30.069450 L15.657913 29.885393 L15.440446 29.626911 L15.516991 29.301605 L15.879893 28.929895 L16.474680 28.539295 L17.207640 28.159203 L17.959169 27.813999 L18.602022 27.517981 L19.022902 27.272827 L19.140635 27.066916 L18.922220 26.879162 L18.389290 26.683847 L17.617405 26.457962 L16.725235 26.187422 L15.856283 25.871977 L15.156185 25.527061 L14.747856 25.181252 L14.710893 24.871496 L15.066286 24.633739 L15.771794 24.494442 L16.727337 24.461515 L17.790342 24.519613 L18.799385 24.629402 L19.600506 24.732265 L20.073889 24.760750 L20.153986 24.650797 L19.841377 24.357649 L19.202831 23.866526 L18.359949 23.201328 L17.468826 22.424486 L16.692884 21.629574 L16.175606 20.926962 L16.047598 20.447853 L16.339764 20.274141 L16.972921 20.405849 L17.842888 20.808050 L18.816055 21.397442 L19.753809 22.055111 L20.536325 22.647093 L21.080460 23.047352 L21.350929 23.160477 L21.360834 22.938917 L21.165926 22.391769 L20.849663 21.584272 L20.507349 20.626532 L20.228350 19.655376 L20.081680 18.810665 L20.107319 18.212208 L20.311892 17.939203 L20.673050 18.017885 L21.145376 18.417389 L21.672758 19.055847 L22.198210 19.814724 L22.674616 20.558771 L23.071323 21.158823 L23.376965 21.512247 L23.598974 21.559488 L23.758627 21.292013 L23.885826 20.752850 L24.011063 20.027750 L24.160196 19.230358 L24.349670 18.483290 L24.584673 17.897884 L24.860247 17.557602 L25.163149 17.504709 L25.477156 17.736313 L25.785986 18.205103 L26.078302 18.829475 L26.349209 19.506929 L26.601440 20.131134 L26.844053 20.608923 L27.089800 20.873684 L27.352180 20.895662 L27.641636 20.684145 L27.963266 20.285467 L28.315033 19.773666 L28.688013 19.238365 L29.067810 18.770239 L29.437296 18.446861 L29.780039 18.321388 L30.083405 18.414886 L30.341455 18.714754 L30.556400 19.177607 L30.738504 19.736971 L30.904545 20.314182 L31.075174 20.831085 L31.271278 21.221624 L31.510273 21.441820 L31.802929 21.475800 L32.151218 21.337082 L32.547565 21.065619 L32.975971 20.721298 L33.414284 20.373951 L33.837704 20.092377 L34.222935 19.934256 L34.552025 19.937164 L34.815403 20.113356 L35.013756 20.448593 L35.158127 20.905018 L35.268326 21.426805 L35.369881 21.949335 L35.490047 22.409168 L35.653370 22.753431 L35.877644 22.948009 L36.170818 22.982483 L36.529572 22.871191 L36.939507 22.650833 L37.377319 22.374887 L37.814316 22.105026 L38.220894 21.901636 L38.571369 21.814764 L38.848167 21.876232 L39.044739 22.094578 L39.166874 22.454189 L39.232018 22.917507 L39.266556 23.430559 L39.301731 23.931353 L39.368717 24.359379 L39.493481 24.664749 L39.692520 24.816206 L39.970036 24.806034 L40.317085 24.651209 L40.712784 24.391155 L41.127728 24.082010 L41.528595 23.787907 L41.883549 23.571222 L42.167606 23.483000 L42.366795 23.554630 L42.480362 23.792454 L42.521221 24.176722 L42.513695 24.663811 L42.489391 25.192490 L42.481895 25.693087 L42.521122 26.098106 L42.628010 26.352650 L42.811089 26.423601 L43.065170 26.305300 L43.372250 26.021061 L43.705074 25.620628 L44.032383 25.173170 L44.324749 24.756922 L44.560112 24.447239 L44.728222 24.304556 L44.832153 24.363932 L44.887383 24.628542 L44.918278 25.067863 L44.952400 25.621132 L45.013748 26.205986 L45.117016 26.731098 L45.263580 27.110821 L45.440582 27.279818 L45.623974 27.204996 L45.784611 26.892200 L45.896217 26.386618 L45.943745 25.766214 L45.929592 25.128799 L45.875511 24.575346 L45.819851 24.192390 L45.822075 24.069914 L45.917091 24.189716 L46.124748 24.505573 L46.442303 24.945639 L46.841496 25.421854 L47.273270 25.846001 L47.677181 26.144278 L47.993626 26.267969 L48.176193 26.199150 L48.201508 25.950638 L48.074215 25.561193 L47.827034 25.086941 L47.515064 24.591251 L47.205986 24.134501 L46.968197 23.765274 L46.858829 23.514347 L46.913754 23.391731 L47.141434 23.386892 L47.521694 23.471832 L48.009068 23.606808 L48.540482 23.746738 L49.045933 23.848001 L49.459908 23.874758 L49.731983 23.803555 L49.834961 23.625713 L49.769009 23.348091 L49.561375 22.991302 L49.261734 22.585846 L48.934082 22.167450 L48.646332 21.771791 L48.459518 21.429228 L48.418331 21.160656 L48.544186 20.974951 L48.832142 20.867729 L49.251968 20.822372 L49.753323 20.812977 L50.273792 20.808123 L50.748894 20.775579 L51.122250 20.687334 L51.354202 20.523508 L51.427856 20.275175 L51.351612 19.945967 L51.157520 19.551481 L50.896023 19.116739 L50.627972 18.672647 L50.415073 18.251434 L50.310173 17.881660 L50.349285 17.584040 L50.546089 17.368269 L50.889832 17.231186 L51.347218 17.157160 L51.867805 17.120453 L52.391830 17.088772 L52.859570 17.028090 L53.220715 16.908104 L53.442039 16.706806 L53.512470 16.413948 L53.445034 16.033424 L53.274693 15.583055 L53.052834 15.092012 L52.839394 14.596977 L52.693512 14.136710 L52.664192 13.745987 L52.782814 13.450157 L53.058094 13.260927 L53.474545 13.173690 L53.994736 13.167531 L54.565189 13.208166 L55.124512 13.252342 L55.613049 13.254321 L55.982376 13.173386 L56.202801 12.980052 L56.268280 12.661550 L56.197731 12.224939 L56.032097 11.697210 L55.828072 11.121756 L55.649273 10.552657 L55.556095 10.046672 L55.596031 9.654072 L55.795994 9.410487 L56.157902 9.330309 L56.657963 9.402737 L57.250404 9.592074 L57.874741 9.842274 L58.465370 10.084373 L58.962326 10.247036 L59.320961 10.268314 L59.519260 10.106007 L59.561508 9.745815 L59.477634 9.205847 L59.318081 8.535862 L59.145527 7.810685 L59.024296 7.120038 L59.009563 6.554527 L59.138153 6.190693 L59.422688 6.077736 L59.849487 6.227708 L60.381641 6.610777 L60.965748 7.157735 L61.541473 7.769228 L62.052387 8.330104 L62.455975 8.727807 L62.730381 8.871469 L62.877926 8.707963 L62.923504 8.233122 L62.908833 7.495368 L62.883377 6.590531 L62.894665 5.648200 L62.978409 4.812008 L63.151939 4.215931 L63.411518 3.961494 L63.734356 4.099208 L64.084549 4.617603 L64.422661 5.442474 L64.715363 6.446898 L64.944038 7.470470 L65.110184 8.345122 L65.235291 8.923661 L65.356575 9.104942 L65.517311 8.852408 L65.756142 8.202105 L66.095268 7.258152 L66.532295 6.176456 L67.037262 5.139481 L67.555695 4.325613 L68.013405 3.893037 L68.322723 3.969305 L68.454346 4.486736 L68.397491 5.354170 L68.178421 6.429844 L67.857918 7.547172 L67.521591 8.543476 L67.264381 9.286407 L67.172516 9.693955 L67.306808 9.744478 L67.689552 9.475995 L68.298698 8.975848 L69.070564 8.363066 L69.909744 7.766376 L70.705292 7.302750 L71.350266 7.059319 L71.760574 7.081949 L71.890015 7.370868 L71.738556 7.885222 L71.352966 8.553115 L70.818771 9.285918 L70.245857 9.994058 L69.750061 10.601562 L69.433617 11.056619 L69.368095 11.337623 L69.582993 11.453693 L70.061287 11.439437 L70.742790 11.347022 L71.534691 11.236021 L72.327255 11.162893 L73.011833 11.172244 L73.498405 11.291282 L73.729759 11.527316 L73.690079 11.868519 L73.406105 12.288837 L72.942154 12.753449 L72.388802 13.225410 L71.847816 13.671968 L71.415764 14.069366 L71.169052 14.405288 L71.152130 14.679572 L71.371559 14.902591 L71.796188 15.091800 L72.363113 15.267952 L72.988197 15.451270 L73.580101 15.657901 L74.054611 15.897708 L74.347382 16.173679 L74.423561 16.482313 L74.282539 16.814980 L73.956673 17.160648 L73.505432 17.508196 L73.005829 17.848307 L72.539734 18.175142 L72.181282 18.486944 L71.985817 18.785620 L71.981552 19.075863 L72.165947 19.363733 L72.507080 19.654846 L72.949127 19.953115 L73.421219 20.260027 L73.848915 20.574154 L74.165604 20.891636 L74.322418 21.207254 L74.295570 21.515602 L74.089928 21.812222 L73.737251 22.094982 L73.291168 22.364624 L72.818947 22.624641 L72.390724 22.880793 L72.068840 23.140053 L71.898537 23.409119 L71.900887 23.693111 L72.069710 23.994419 L72.373085 24.311863 L72.758163 24.640762 L73.159302 24.973625 L73.508476 25.301212 L73.745644 25.614149 L73.827904 25.904716 L73.736374 26.168255 L73.479271 26.403944 L73.090393 26.615410 L72.624130 26.810125 L72.147316 26.998146 L71.728737 27.190479 L71.428612 27.397188 L71.289291 27.625477 L71.328278 27.878433 L71.535309 28.154394 L71.873978 28.447004 L72.286865 28.746374 L72.704308 29.040829 L73.055244 29.318880 L73.278244 29.571316 L73.331161 29.793007 L73.198280 29.983765 L72.893257 30.148155 L72.457253 30.294895 L71.953148 30.434929 L71.456093 30.579142 L71.041824 30.736225 L70.774918 30.910799 L70.698311 31.102346 L70.825935 31.305470 L71.139992 31.511120 L71.593079 31.708683 L72.114937 31.888727 L72.623215 32.045807 L73.036446 32.180168 L73.286942 32.298595 L73.332314 32.413593 L73.162979 32.540741 L72.804604 32.694786 L72.314796 32.885628 L71.774475 33.114231 L71.274864 33.370075 L70.902496 33.631287 L70.724548 33.867226 L70.776878 34.044182 L71.057388 34.132946 L71.526108 34.117027 L72.111855 33.999058 L72.724846 33.804317 L73.273026 33.579178 L73.678337 33.384361 L73.872841 33.297356 L73.848190 33.370895 L73.654144 33.613174 L73.352722 34.009838 L73.018044 34.515465 L72.722275 35.061138 L72.523445 35.567009 L72.457413 35.957016 L72.534836 36.173111 L72.742882 36.186226 L73.050507 36.001659 L73.416031 35.658192 L73.795357 35.221432 L74.149231 34.772419 L74.448502 34.393692 L74.677177 34.155590 L74.832809 34.104778 L74.924736 34.256779 L74.971222 34.593952 L74.995461 35.068844 L75.021347 35.612244 L75.070129 36.144627 L75.157837 36.589077 L75.293510 36.883484 L75.479065 36.990074 L75.709961 36.901028 L75.976433 36.639343 L76.265282 36.254723 L76.562286 35.815338 L76.853920 35.396950 L77.129051 35.070881 L77.380280 34.892963 L77.604485 34.895157 L77.802826 35.080902 L77.980606 35.424881 L78.146248 35.877392 L78.310005 36.372505 L78.482666 36.838398 L78.674187 37.208675 L78.892128 37.432724 L79.140800 37.483261 L79.420799 37.360271 L79.728531 37.091049 L80.056656 36.725628 L80.395218 36.328732 L80.732803 35.969810 L81.058113 35.712189 L81.361732 35.603214 L81.637428 35.667206 L81.883240 35.901806 L82.102173 36.278236 L82.301895 36.745918 L82.493675 37.240513 L82.691093 37.693668 L82.907951 38.043774 L83.155937 38.245625 L83.442833 38.277241 L83.771088 38.143353 L84.136719 37.875019 L84.529457 37.524925 L84.934235 37.159088 L85.332878 36.846973 L85.706863 36.650623 L86.040428 36.614750 L86.322990 36.759941 L86.551346 37.079136 L86.731018 37.538113 L86.875801 38.080715 L87.006142 38.637398 L87.146545 39.135738 L87.321823 39.511883 L87.552696 39.720917 L87.852440 39.743881 L88.224052 39.591290 L88.658470 39.302265 L89.135101 38.938709 L89.624336 38.575882 L90.091438 38.290874 L90.501831 38.150253 L90.827011 38.199223 L91.049553 38.454136 L91.166817 38.899353 L91.193253 39.488819 L91.159149 40.153065 L91.106934 40.809872 L91.085442 41.377148 L91.142235 41.786346 L91.315102 41.993771 L91.625359 41.987949 L92.072830 41.792130 L92.633270 41.461102 L93.260689 41.072670 L93.893150 40.715317 L94.461479 40.473835 L94.900398 40.415195 L95.160126 40.577484 L95.215469 40.963348 L95.072578 41.539169 L94.770691 42.240620 L94.378105 42.983269 L93.983017 43.676552 L93.680450 44.239124 L93.556633 44.612602 L93.673065 44.771038 L94.055061 44.725197 L94.684036 44.520256 L95.497215 44.227184 L96.395027 43.930019 L97.255424 43.711010 L97.952744 43.635910 L98.379211 43.742874 L98.464485 44.036823 L98.189865 44.489658 L97.595001 45.046867 L96.774994 45.639427 L95.867065 46.197456 L95.029968 46.663754 L94.417786 47.004463 L94.153282 47.214325 L94.305458 47.315681 L94.875153 47.351662 L95.791801 47.375362 L96.922569 47.436413 L98.092575 47.569405 L99.113022 47.785866 L99.813072 48.071968 Z" />
</svg>